<?xml version="1.0" encoding="UTF-8"?>
<svg xmlns="http://www.w3.org/2000/svg" version="1.1" viewBox="0 0 48 48">
  <defs>
    <style>
      .cls-1 {
        fill: #f39848;
      }
    </style>
  </defs>
  <!-- Generator: Adobe Illustrator 28.6.0, SVG Export Plug-In . SVG Version: 1.2.0 Build 709)  -->
  <g>
    <g id="_圖層_2">
      <g id="ICON">
        <path class="cls-1" d="M40.8,48H7.2c-3.7,0-6.6-3-6.6-6.6V14.8c0-3.7,3-6.6,6.6-6.6h33.7c3.7,0,6.6,3,6.6,6.6v26.6c0,3.7-3,6.6-6.6,6.6ZM7.2,11.5c-1.8,0-3.3,1.5-3.3,3.3v26.6c0,1.8,1.5,3.3,3.3,3.3h33.7c1.8,0,3.3-1.5,3.3-3.3V14.8c0-1.8-1.5-3.3-3.3-3.3H7.2Z"/>
        <path class="cls-1" d="M34.7,11.5H13.3v-6.5C13.3,2.2,15.5,0,18.3,0h11.5C32.5,0,34.7,2.2,34.7,5v6.5ZM16.6,8.1h14.8v-3.2c0-.9-.7-1.7-1.7-1.7h-11.5c-.9,0-1.7.7-1.7,1.7v3.2Z"/>
        <path class="cls-1" d="M24.9,33.8h-1.9c-2.7,0-5-2.2-5-5v-4.8h11.8v4.8c0,2.7-2.2,5-5,5ZM21.4,27.4v1.5c0,.9.7,1.7,1.7,1.7h1.9c.9,0,1.7-.7,1.7-1.7v-1.5h-5.2Z"/>
        <rect class="cls-1" x="2.2" y="24" width="43.7" height="3.3"/>
      </g>
    </g>
  </g>
</svg>