<?xml version="1.0" encoding="UTF-8"?>
<svg xmlns="http://www.w3.org/2000/svg" version="1.1" viewBox="0 0 28 26.8">
  <defs>
    <style>
      .cls-1 {
        fill: #ffbf61;
      }
    </style>
  </defs>
  <!-- Generator: Adobe Illustrator 28.6.0, SVG Export Plug-In . SVG Version: 1.2.0 Build 709)  -->
  <g>
    <g id="_圖層_2">
      <g id="ICON">
        <path class="cls-1" d="M27.9,10.1c-.1-.3-.3-.6-.5-.9-.3-.3-.8-.6-1.2-.6l-6.7-1.1c-.2,0-.3-.1-.4-.3l-3.1-6.1C15.6.5,14.8,0,14,0s-1.6.5-2,1.2l-3.1,6.1c0,.1-.2.2-.4.3l-6.7,1.1c-.4,0-.8.3-1.2.6-.3.2-.5.6-.6.9-.2.5-.1,1,0,1.5.1.3.3.5.5.7l4.8,4.8c.1.1.2.3.1.4l-1,6.2v.5c-.2.8.1,1.6.8,2.1.7.5,1.5.6,2.3.2l.7-.4,5.3-2.7c.1,0,.3,0,.4,0l5.4,2.7.7.4c.3.2.7.2,1,.2s.9-.1,1.3-.4c.7-.5,1-1.3.9-2.1v-.5c0,0-1-6.2-1-6.2,0-.2,0-.3.1-.4l4.8-4.8c.2-.2.4-.5.5-.8.2-.4.2-1,0-1.4h0Z"/>
      </g>
    </g>
  </g>
</svg>