<?xml version="1.0" encoding="UTF-8"?>
<svg xmlns="http://www.w3.org/2000/svg" version="1.1" viewBox="0 0 48 48">
  <defs>
    <style>
      .cls-1 {
        fill: #ffbf61;
      }
    </style>
  </defs>
  <!-- Generator: Adobe Illustrator 28.6.0, SVG Export Plug-In . SVG Version: 1.2.0 Build 709)  -->
  <g>
    <g id="_圖層_1" data-name="圖層_1">
      <g id="_圖層_2">
        <g id="ICON">
          <path class="cls-1" d="M36.4,46.9c-.5,0-1.2,0-1.7-.3l-10.4-5.3h-.7l-10.4,5.3c-1.2.7-2.7.5-3.9-.3s-1.7-2.2-1.5-3.6l1.7-11.4c0-.3,0-.5-.2-.7L1.1,22c-1-1-1.4-2.4-.9-3.8s1.5-2.4,3.1-2.6l11.4-1.9c.3,0,.5-.2.7-.5l5.3-10.2c.5-1.2,1.9-2,3.2-2s2.7.9,3.4,2l5.3,10.2c0,.2.3.3.7.5l11.4,1.9c1.4.2,2.6,1.2,3.1,2.6s0,2.7-.9,3.8l-8.2,8.2c-.2.2-.3.5-.2.7l1.7,11.4c.2,1.4-.3,2.7-1.5,3.6-.7.5-1.4.7-2.2.7h0l-.2.3ZM24,4.4h-.2l-5.3,10.4c-.7,1.2-1.9,2-3.2,2.4l-11.4,1.9-.2.2v.3l8.2,8.2c1,1,1.4,2.4,1.2,3.8l-1.7,11.4v.3h.3l10.4-5.3c1.2-.7,2.7-.7,3.9,0l10.4,5.3h.3v-.3l-1.7-11.4c-.2-1.4.2-2.7,1.2-3.8l8.2-8.2v-.3c0-.3-.2-.2-.2-.2l-11.4-1.9c-1.4-.2-2.6-1-3.2-2.4l-5.3-10.2h-.2l-.2-.2Z"/>
        </g>
      </g>
    </g>
  </g>
</svg>