<?xml version="1.0" encoding="UTF-8"?>
<svg xmlns="http://www.w3.org/2000/svg" version="1.1" viewBox="0 0 28 26.9">
  <defs>
    <style>
      .cls-1 {
        fill: #ffbf61;
      }
    </style>
  </defs>
  <!-- Generator: Adobe Illustrator 28.6.0, SVG Export Plug-In . SVG Version: 1.2.0 Build 709)  -->
  <g>
    <g id="_圖層_2">
      <g id="ICON">
        <path class="cls-1" d="M21.3,26.9c-.3,0-.7,0-1-.2l-6.1-3.1c-.1,0-.3,0-.4,0h0l-6.1,3.1c-.7.4-1.6.3-2.3-.2-.7-.5-1-1.3-.9-2.1l1-6.7c0-.2,0-.3-.1-.4L.6,12.3c-.6-.6-.8-1.4-.5-2.2.3-.8.9-1.4,1.8-1.5l6.7-1.1c.2,0,.3-.1.4-.3l3.1-6C12.4.5,13.2,0,14,0s1.6.5,2,1.2l3.1,6c0,.1.2.2.4.3l6.7,1.1c.8.1,1.5.7,1.8,1.5s0,1.6-.5,2.2l-4.8,4.8c-.1.1-.2.3-.1.4l1,6.7c.1.8-.2,1.6-.9,2.1-.4.3-.8.4-1.3.4h0ZM14,2c-.1,0-.1,0-.1,0l-3.1,6.1c-.4.7-1.1,1.2-1.9,1.4l-6.7,1.1s0,0-.1.1c0,.1,0,.1,0,.2l4.8,4.8c.6.6.8,1.4.7,2.2l-1,6.7s0,.1,0,.2c0,0,.2,0,.2,0l6.1-3.1c.7-.4,1.6-.4,2.3,0l6.1,3.1s0,0,.2,0c0,0,0-.1,0-.2l-1-6.7c-.1-.8.1-1.6.7-2.2l4.8-4.8s0,0,0-.2-.1-.1-.1-.1l-6.7-1.1c-.8-.1-1.5-.6-1.9-1.4l-3.1-6s0,0-.1,0h0Z"/>
      </g>
    </g>
  </g>
</svg>