<?xml version="1.0" encoding="UTF-8"?><svg id="_圖層_2" xmlns="http://www.w3.org/2000/svg" viewBox="0 0 31.53 28.54"><defs><style>.cls-1{stroke-miterlimit:10;}.cls-1,.cls-2{fill:none;stroke:#f39848;stroke-width:2px;}.cls-3{fill:#f39848;}.cls-2{stroke-linecap:round;stroke-linejoin:round;}</style></defs><g id="ICON"><path class="cls-1" d="M30.53,4.79c0-1.04-.41-1.99-1.07-2.68-.66-.69-1.57-1.11-2.58-1.11-2.02,0-3.65,1.7-3.65,3.79,0,0,0,.12.02.35,0,.02,0,.05,0,.07.11.96.67,3.46,3.55,6.31.04.04.12.04.16,0,2.88-2.86,3.44-5.35,3.55-6.31,0-.02,0-.05,0-.07.02-.23.02-.35.02-.35Z"/><polygon class="cls-2" points="1 10 10.22 6.28 10.22 23.82 1 27.54 1 10"/><polygon class="cls-2" points="19.44 10 10.22 6.28 10.22 23.82 19.44 27.54 19.44 10"/><polyline class="cls-2" points="28.67 13.93 28.67 23.82 19.44 27.54 19.44 10"/><line class="cls-2" x1="19.44" y1="10" x2="21.83" y2="9.04"/><path class="cls-3" d="M26.88,6.13c-.82,0-1.48-.66-1.48-1.48s.66-1.48,1.48-1.48,1.48.66,1.48,1.48-.66,1.48-1.48,1.48Z"/></g></svg>