<?xml version="1.0" encoding="UTF-8"?><svg id="_圖層_2" xmlns="http://www.w3.org/2000/svg" viewBox="0 0 21.57 31.13"><defs><style>.cls-1{fill:#f39848;}</style></defs><g id="ICON"><path class="cls-1" d="M21.57,11.18c.01-2.94-1.12-5.78-3.16-7.9C16.43,1.19,13.67,0,10.79,0,4.73.12-.09,5.12.01,11.18c-.02.33-.02.67,0,1v.22c.32,2.84,2,10.2,10.47,18.63.13.13.34.13.47,0,0,0,0,0,0,0,8.5-8.43,10.15-15.79,10.47-18.63,0-.07,0-.15,0-.22.07-.33.12-.66.15-1ZM10.79,16.26c-3.03,0-5.48-2.45-5.48-5.48,0-3.03,2.45-5.48,5.48-5.48s5.48,2.45,5.48,5.48h0c0,3.03-2.45,5.48-5.48,5.48Z"/></g></svg>