<?xml version="1.0" encoding="UTF-8"?>
<svg xmlns="http://www.w3.org/2000/svg" version="1.1" viewBox="0 0 48 48">
  <defs>
    <style>
      .cls-1 {
        fill: #f39848;
      }
    </style>
  </defs>
  <!-- Generator: Adobe Illustrator 28.6.0, SVG Export Plug-In . SVG Version: 1.2.0 Build 709)  -->
  <g>
    <g id="_圖層_2">
      <g id="ICON">
        <path class="cls-1" d="M40.9,21.4c-.4,0-.9-.2-1.2-.5-4.7-4.7-5.7-8.9-5.8-10.5v-.2c0-.4,0-.6,0-.6,0-4,3.2-7.3,7.1-7.3s3.7.8,5,2.2c1.3,1.4,2.1,3.2,2.1,5.1,0,0,0,.2,0,.7-.2,1.7-1.1,6-5.8,10.7-.3.3-.8.5-1.2.5ZM40,18.7s0,0,0,0c0,0,0,0,0,0ZM41.9,18.7s0,0,0,0c0,0,0,0,0,0ZM36.9,10.1c.2,1.2.9,4.1,4,7.6,3.2-3.5,3.9-6.4,4-7.6h0c0-.4,0-.5,0-.5,0-1.1-.4-2.2-1.2-3-.8-.8-1.8-1.2-2.8-1.2-2.2,0-4,1.9-4,4.2s0,.2,0,.4h0Z"/>
        <path class="cls-1" d="M1.5,45.7c-.3,0-.6,0-.9-.3C.3,45.2,0,44.7,0,44.2v-26.7c0-.6.4-1.2,1-1.4l14-5.7c.5-.2,1-.1,1.4.1.4.3.7.8.7,1.3v26.7c0,.6-.4,1.2-1,1.4l-14,5.7c-.2,0-.4.1-.6.1ZM3,18.5v23.4l11-4.4V14.1l-11,4.4Z"/>
        <path class="cls-1" d="M29.6,45.7c-.2,0-.4,0-.6-.1l-14-5.7c-.6-.2-1-.8-1-1.4V11.8c0-.5.3-1,.7-1.3.4-.3,1-.3,1.4-.1l14,5.7c.6.2,1,.8,1,1.4v26.7c0,.5-.3,1-.7,1.3-.3.2-.6.3-.9.3ZM17.1,37.5l11,4.4v-23.4l-11-4.4v23.4Z"/>
        <path class="cls-1" d="M29.6,45.7c-.3,0-.6,0-.9-.3-.4-.3-.7-.8-.7-1.3v-26.7c0-.8.7-1.5,1.5-1.5s1.5.7,1.5,1.5v24.4l11-4.4v-14c0-.8.7-1.5,1.5-1.5s1.5.7,1.5,1.5v15.1c0,.6-.4,1.2-1,1.4l-14.1,5.7c-.2,0-.4.1-.6.1Z"/>
        <path class="cls-1" d="M29.6,19c-.6,0-1.2-.4-1.4-1-.3-.8,0-1.7.8-2l3.6-1.5c.8-.3,1.7,0,2,.8.3.8,0,1.7-.8,2l-3.6,1.5c-.2,0-.4.1-.6.1Z"/>
        <path class="cls-1" d="M40.9,11.6c-1.2,0-2.3-1-2.3-2.3s1-2.3,2.3-2.3,2.3,1,2.3,2.3-1,2.3-2.3,2.3Z"/>
      </g>
    </g>
  </g>
</svg>