<?xml version="1.0" encoding="UTF-8"?>
<svg xmlns="http://www.w3.org/2000/svg" version="1.1" viewBox="0 0 48 48">
  <defs>
    <style>
      .cls-1 {
        fill: #f39848;
      }
    </style>
  </defs>
  <!-- Generator: Adobe Illustrator 28.6.0, SVG Export Plug-In . SVG Version: 1.2.0 Build 709)  -->
  <g>
    <g id="_圖層_2">
      <g id="ICON">
        <path class="cls-1" d="M41.2,46.5H6.8C3,46.5,0,43.5,0,39.7V12.5C0,8.8,3,5.7,6.8,5.7h34.4c3.7,0,6.8,3,6.8,6.8v27.2c0,3.7-3,6.8-6.8,6.8ZM6.8,9.1c-1.9,0-3.4,1.5-3.4,3.4v27.2c0,1.9,1.5,3.4,3.4,3.4h34.4c1.9,0,3.4-1.5,3.4-3.4V12.5c0-1.9-1.5-3.4-3.4-3.4H6.8Z"/>
        <path class="cls-1" d="M12.5,11.7c-.9,0-1.7-.8-1.7-1.7V3.2c0-.9.8-1.7,1.7-1.7s1.7.8,1.7,1.7v6.8c0,.9-.8,1.7-1.7,1.7Z"/>
        <path class="cls-1" d="M24,11.7c-.9,0-1.7-.8-1.7-1.7V3.2c0-.9.8-1.7,1.7-1.7s1.7.8,1.7,1.7v6.8c0,.9-.8,1.7-1.7,1.7Z"/>
        <path class="cls-1" d="M35.5,11.7c-.9,0-1.7-.8-1.7-1.7V3.2c0-.9.8-1.7,1.7-1.7s1.7.8,1.7,1.7v6.8c0,.9-.8,1.7-1.7,1.7Z"/>
        <path class="cls-1" d="M12.5,28.8c-.5,0-.9-.2-1.2-.5-.2-.2-.3-.3-.4-.5,0-.2-.1-.4-.1-.7s0-.2,0-.3c0-.1,0-.2.1-.3,0-.1,0-.2.2-.3,0-.1.1-.2.2-.3.6-.6,1.8-.6,2.4,0,0,0,.2.2.2.3,0,0,.1.2.2.3,0,.1,0,.2.1.3,0,.1,0,.2,0,.3,0,.2,0,.5-.1.7,0,.2-.2.4-.4.5-.3.3-.7.5-1.2.5Z"/>
        <path class="cls-1" d="M20.2,28.8c-.5,0-.9-.2-1.2-.5-.2-.2-.3-.3-.4-.5,0-.2-.1-.4-.1-.7,0-.4.2-.9.5-1.2.6-.6,1.8-.6,2.4,0,0,0,.2.2.2.3,0,0,.1.2.2.3,0,.1,0,.2.1.3,0,.1,0,.2,0,.3,0,.2,0,.5-.1.7,0,.2-.2.4-.4.5-.3.3-.7.5-1.2.5Z"/>
        <path class="cls-1" d="M27.8,28.8c-.2,0-.4,0-.6-.1s-.4-.2-.6-.4c-.3-.3-.5-.7-.5-1.2s0-.4.1-.6.2-.4.4-.5c0,0,.2-.2.3-.2.1,0,.2-.1.3-.2.1,0,.2,0,.3-.1.6-.1,1.1,0,1.5.5s.3.3.4.5.1.4.1.6c0,.5-.2.9-.5,1.2-.3.3-.7.5-1.2.5Z"/>
        <path class="cls-1" d="M35.5,28.8c-.5,0-.9-.2-1.2-.5s-.5-.7-.5-1.2.2-.9.5-1.2c.2-.2.3-.3.6-.4.4-.2.9-.2,1.3,0,.2,0,.4.2.6.4.3.3.5.7.5,1.2s-.2.9-.5,1.2c-.3.3-.7.5-1.2.5Z"/>
        <path class="cls-1" d="M12.5,36.4c-.5,0-.9-.2-1.2-.5-.3-.3-.5-.7-.5-1.2s.2-.9.5-1.2c0,0,.2-.2.3-.2.1,0,.2-.1.3-.2.1,0,.2,0,.3-.1.5-.1,1.1,0,1.5.5.2.2.3.3.4.5,0,.2.1.4.1.6,0,.5-.2.9-.5,1.2-.3.3-.7.5-1.2.5Z"/>
        <path class="cls-1" d="M20.2,36.4c-.2,0-.4,0-.6-.1s-.4-.2-.6-.4c-.3-.3-.5-.7-.5-1.2s.2-.9.5-1.2c.5-.5,1.2-.6,1.8-.4.2,0,.4.2.6.4.3.3.5.7.5,1.2s-.2.9-.5,1.2c-.3.3-.7.5-1.2.5Z"/>
        <path class="cls-1" d="M27.8,36.4c-.5,0-.9-.2-1.2-.5s-.5-.7-.5-1.2.2-.9.5-1.2c.4-.4,1-.6,1.5-.5.1,0,.2,0,.3.1.1,0,.2.1.3.2,0,0,.2.1.3.2.2.2.3.3.4.5,0,.2.1.4.1.6,0,.5-.2.9-.5,1.2-.3.3-.7.5-1.2.5Z"/>
        <path class="cls-1" d="M35.5,36.5c-.5,0-.9-.2-1.2-.5s-.5-.7-.5-1.2.2-.9.5-1.2c.6-.6,1.8-.6,2.4,0s.5.7.5,1.2-.2.9-.5,1.2c-.3.3-.7.5-1.2.5Z"/>
        <path class="cls-1" d="M46.3,19.9H1.7C.8,19.9,0,19.1,0,18.2s.8-1.7,1.7-1.7h44.6c.9,0,1.7.8,1.7,1.7s-.8,1.7-1.7,1.7Z"/>
      </g>
    </g>
  </g>
</svg>