<?xml version="1.0" encoding="UTF-8"?>
<svg xmlns="http://www.w3.org/2000/svg" version="1.1" viewBox="0 0 48 48">
  <defs>
    <style>
      .cls-1 {
        fill: #f39848;
      }
    </style>
  </defs>
  <!-- Generator: Adobe Illustrator 28.6.0, SVG Export Plug-In . SVG Version: 1.2.0 Build 709)  -->
  <g>
    <g id="_圖層_2">
      <g id="ICON">
        <path class="cls-1" d="M24,48C10.8,48,0,37.2,0,24S10.8,0,24,0s24,10.8,24,24-10.8,24-24,24ZM24,3.3C12.6,3.3,3.3,12.6,3.3,24s9.3,20.7,20.7,20.7,20.7-9.3,20.7-20.7S35.4,3.3,24,3.3Z"/>
        <path class="cls-1" d="M20.1,47.2C7.7,26.9,17.2,2.6,17.6,1.6l3.1,1.2c0,.2-9.3,23.8,2.3,42.7l-2.8,1.7Z"/>
        <path class="cls-1" d="M27.9,47.2l-2.8-1.7c11.5-18.9,2.3-42.5,2.3-42.7l3.1-1.2c.4,1,9.9,25.3-2.5,45.6Z"/>
        <path class="cls-1" d="M23.8,21.3c-7.2,0-14.5-.6-21.6-1.8l.5-3.3c7,1.2,14.2,1.8,21.3,1.8,7.1,0,14.2-.6,21.2-1.8l.5,3.3c-7.3,1.2-14.7,1.8-22,1.8Z"/>
        <path class="cls-1" d="M45.3,34.1c-7.1-1.2-14.3-1.8-21.5-1.8-7,0-14.1.6-21,1.8l-.5-3.3c7.2-1.2,14.5-1.9,21.8-1.8,7.2,0,14.5.6,21.7,1.8l-.5,3.3Z"/>
      </g>
    </g>
  </g>
</svg>