<?xml version="1.0" encoding="UTF-8"?>
<svg xmlns="http://www.w3.org/2000/svg" version="1.1" viewBox="0 0 48 48">
  <defs>
    <style>
      .cls-1 {
        fill: #fff;
      }
    </style>
  </defs>
  <!-- Generator: Adobe Illustrator 28.6.0, SVG Export Plug-In . SVG Version: 1.2.0 Build 709)  -->
  <g>
    <g id="_圖層_2">
      <g id="ICON">
        <path class="cls-1" d="M47.4,20.3L27.2,4c-.5-.4-1.3-.5-1.9-.2-.6.3-1,.9-1,1.6v9.5C15.9,15.3.6,19.2,0,42.6c0,.8.5,1.6,1.3,1.8.2,0,.3,0,.5,0,.7,0,1.3-.3,1.6-.9,1.4-2.5,3.1-4.8,5-6.6,5.2-5,11.2-6.4,15.9-6.4v7.6c0,.7.4,1.3,1,1.6.6.3,1.4.2,1.9-.2l20.1-16.3c.4-.3.7-.9.7-1.4s-.3-1.1-.7-1.4h0Z"/>
      </g>
    </g>
  </g>
</svg>