<?xml version="1.0" encoding="UTF-8"?><svg id="_圖層_2" xmlns="http://www.w3.org/2000/svg" viewBox="0 0 26.37 22.44"><defs><style>.cls-1{fill:#fff;}</style></defs><g id="ICON"><path class="cls-1" d="M26,9.18L14.95.22c-.3-.24-.71-.29-1.06-.13-.35.17-.57.52-.57.9v5.19C8.76,6.42.35,8.6,0,21.41c-.01.46.29.87.73.99.09.02.18.04.26.04.36,0,.69-.19.87-.51.77-1.39,1.69-2.61,2.73-3.61,2.85-2.77,6.17-3.49,8.71-3.54v4.15c0,.39.22.74.57.9.35.16.76.12,1.06-.13l11.05-8.96c.23-.19.37-.48.37-.78s-.14-.59-.37-.78Z"/></g></svg>