<?xml version="1.0" encoding="UTF-8"?>
<svg xmlns="http://www.w3.org/2000/svg" version="1.1" viewBox="0 0 20 20">
  <defs>
    <style>
      .cls-1 {
        fill: #19b9aa;
      }
    </style>
  </defs>
  <!-- Generator: Adobe Illustrator 28.6.0, SVG Export Plug-In . SVG Version: 1.2.0 Build 709)  -->
  <g>
    <g id="_圖層_2">
      <g id="ICON">
        <path class="cls-1" d="M10,0C4.5,0,0,4.5,0,10s4.5,10,10,10,10-4.5,10-10S15.5,0,10,0ZM14.1,6.9c-.2.2-.6.2-1.3.2h-3.5v2.3h2.9c.7,0,1.1,0,1.2.2.2.2.3.4.3.6s0,.4-.3.6c-.1.1-.6.2-1.2.2h-2.9v2.4c0,.6,0,.9,0,1.1,0,.3-.1.5-.3.6-.2.3-.5.4-.9.4s-.7-.1-.9-.4c-.2-.1-.2-.4-.3-.6,0-.2,0-.5,0-1.1v-6.1c0-.6,0-1,0-1.2,0-.2.1-.4.3-.6.2-.2.4-.3.6-.3.2,0,.6,0,1.2,0h3.8c.4,0,.7,0,.8,0,.2,0,.4.1.5.2.2.2.3.4.3.7s0,.5-.3.7h0Z"/>
      </g>
    </g>
  </g>
</svg>