<svg xmlns="http://www.w3.org/2000/svg" viewBox="0 0 48 48"><defs><style>.cls-1{fill:none;}.cls-2{fill:#231815;}</style></defs><title>jpg</title><g id="圖層_2" data-name="圖層 2"><g id="ICON"><circle class="cls-1" cx="24" cy="24" r="24"/><path class="cls-2" d="M34.75,12.5H13.25a3.59,3.59,0,0,0-3.58,3.58V31.92a3.57,3.57,0,0,0,3.58,3.58h21.5a3.55,3.55,0,0,0,2.06-.65,4.2,4.2,0,0,0,.66-.59,3.63,3.63,0,0,0,.86-2.34V16.08A3.59,3.59,0,0,0,34.75,12.5Zm-21.5,2h21.5a1.58,1.58,0,0,1,1.58,1.58v9.39l-5.57-3.95a1.37,1.37,0,0,0-1.48,0L21.61,27l-3.55-2.89a1.37,1.37,0,0,0-1.57,0L11.67,28V16.08A1.58,1.58,0,0,1,13.25,14.5Z"/><circle class="cls-2" cx="18.34" cy="19.72" r="1.97"/></g></g></svg>