<?xml version="1.0" encoding="UTF-8"?>
<svg xmlns="http://www.w3.org/2000/svg" version="1.1" viewBox="0 0 48 48">
  <defs>
    <style>
      .cls-1 {
        fill: #b5b5b6;
      }

      .cls-2 {
        fill: none;
      }
    </style>
  </defs>
  <!-- Generator: Adobe Illustrator 28.6.0, SVG Export Plug-In . SVG Version: 1.2.0 Build 709)  -->
  <g>
    <g id="_圖層_1" data-name="圖層_1">
      <g id="_圖層_2" data-name="圖層_2">
        <g id="ICON">
          <circle class="cls-2" cx="24" cy="24" r="24"/>
          <path class="cls-1" d="M42.3,11.3h0c-.7-.7-1.7-1.1-2.7-1.1H7.1c-1.4,0-2.5,1.1-2.5,2.5v22.7c0,1.4,1.1,2.5,2.5,2.5h33.7c1.4,0,2.5-1.1,2.5-2.5V13.9c0-1-.4-2-1.1-2.7ZM7.1,14.3l10.1,9.7-10.1,9.7V14.3ZM24,26.9l-4-3.8h0l-11-10.5h30l-15,14.3ZM19.1,25.7l4,3.9c.5.5,1.3.5,1.7,0l4-3.9,10.1,9.6H9l10.1-9.6ZM40.9,33.7l-10.1-9.7,10.1-9.7v19.3Z"/>
        </g>
      </g>
    </g>
  </g>
</svg>