<svg xmlns="http://www.w3.org/2000/svg" viewBox="0 0 48 48"><defs><style>.cls-1{fill:none;}.cls-2{fill:#231815;}</style></defs><title>信箱</title><g id="圖層_2" data-name="圖層 2"><g id="ICON"><circle class="cls-1" cx="24" cy="24" r="24"/><path class="cls-2" d="M38.52,13.88h0A3,3,0,0,0,36.4,13H10.6a2,2,0,0,0-2,2V33a2,2,0,0,0,2,2H37.4a2,2,0,0,0,2-2V16A3,3,0,0,0,38.52,13.88ZM10.6,16.33l8,7.67-8,7.67Zm13.4,10-3.17-3h0L12.1,15H35.9Zm-3.9-.95,3.21,3.06a1,1,0,0,0,1.38,0l3.21-3.06,8,7.62H12.11Zm17.3,6.29-8-7.67,8-7.67Z"/></g></g></svg>