<svg width="241" height="155" viewBox="0 0 241 155" fill="none" xmlns="http://www.w3.org/2000/svg">
<path fill-rule="evenodd" clip-rule="evenodd" d="M0 10.4053C0 4.88243 4.47715 0.405273 10 0.405273H231C236.523 0.405273 241 4.88243 241 10.4053V108.327C234.746 108.44 229.711 113.544 229.711 119.825C229.711 119.864 229.711 119.904 229.711 119.943C229.712 119.959 229.712 119.976 229.712 119.993H229.722C229.98 126.043 234.913 130.883 241 130.992V144.993C241 150.516 236.523 154.993 231 154.993H10C4.47715 154.993 0 150.516 0 144.993V130.994L0.046875 130.994C6.23095 130.994 11.275 126.113 11.5362 119.993H11.5456C11.5464 119.937 11.5468 119.881 11.5468 119.825C11.5468 113.474 6.39806 108.325 0.0467854 108.325L0 108.325V10.4053Z" fill="white"/>
</svg>
