<svg width="24" height="24" viewBox="0 0 24 24" fill="none" xmlns="http://www.w3.org/2000/svg">
<g clip-path="url(#clip0_994_6223)">
<path d="M12 24C18.6274 24 24 18.6274 24 12C24 5.37258 18.6274 0 12 0C5.37258 0 0 5.37258 0 12C0 18.6274 5.37258 24 12 24Z" fill="white"/>
<path d="M14.0552 12.7454C14.0561 13.1486 13.9374 13.543 13.714 13.8786C13.4906 14.2142 13.1726 14.476 12.8003 14.6307C12.428 14.7854 12.0182 14.8262 11.6227 14.7477C11.2272 14.6693 10.864 14.4753 10.5789 14.1902C10.2938 13.9051 10.0997 13.5418 10.0213 13.1463C9.9429 12.7509 9.98363 12.341 10.1384 11.9687C10.2931 11.5964 10.5548 11.2784 10.8905 11.055C11.2261 10.8317 11.6205 10.7129 12.0236 10.7139C12.562 10.7152 13.078 10.9296 13.4587 11.3103C13.8395 11.691 14.0539 12.207 14.0552 12.7454Z" fill="#3E3A39"/>
<path d="M17.9459 8.07369H14.2069L13.5587 6.93216C13.4996 6.82668 13.4141 6.73829 13.3107 6.67558C13.2073 6.61286 13.0895 6.57794 12.9686 6.57422H11.0338C10.9091 6.57521 10.7868 6.60876 10.6791 6.67154C10.5713 6.73432 10.4818 6.82416 10.4195 6.93216L9.77618 8.07369H8.54274V7.67706C8.54147 7.57655 8.50065 7.4806 8.42912 7.40998C8.3576 7.33936 8.26113 7.29976 8.16062 7.29977H6.59826C6.49859 7.30102 6.40335 7.34118 6.33286 7.41166C6.26238 7.48215 6.22223 7.57739 6.22097 7.67706V8.07369H6.10488C5.81496 8.07369 5.53691 8.18887 5.3319 8.39387C5.12689 8.59888 5.01172 8.87693 5.01172 9.16686V16.3547C5.01172 16.6446 5.12689 16.9226 5.3319 17.1276C5.53691 17.3327 5.81496 17.4478 6.10488 17.4478H17.9459C18.2354 17.4466 18.5127 17.331 18.7175 17.1262C18.9222 16.9215 19.0378 16.6442 19.0391 16.3547V9.16686C19.0391 8.87693 18.9239 8.59888 18.7189 8.39387C18.5139 8.18887 18.2358 8.07369 17.9459 8.07369ZM12.0254 15.7694C11.4275 15.7694 10.843 15.5921 10.3458 15.2599C9.84868 14.9277 9.46119 14.4556 9.23238 13.9032C9.00356 13.3507 8.9437 12.7429 9.06034 12.1565C9.17699 11.57 9.46492 11.0314 9.88771 10.6086C10.3105 10.1858 10.8492 9.89785 11.4356 9.7812C12.022 9.66456 12.6299 9.72442 13.1823 9.95324C13.7347 10.1821 14.2068 10.5695 14.539 11.0667C14.8712 11.5638 15.0485 12.1483 15.0485 12.7463C15.0485 13.548 14.73 14.317 14.1631 14.8839C13.5961 15.4509 12.8272 15.7694 12.0254 15.7694ZM17.4042 10.1778H16.0014C15.9374 10.1844 15.8728 10.1775 15.8117 10.1575C15.7505 10.1375 15.6943 10.105 15.6465 10.0619C15.5988 10.0188 15.5606 9.96615 15.5344 9.90738C15.5083 9.84861 15.4948 9.78501 15.4948 9.7207C15.4948 9.65638 15.5083 9.59278 15.5344 9.53401C15.5606 9.47524 15.5988 9.42262 15.6465 9.37953C15.6943 9.33644 15.7505 9.30386 15.8117 9.28389C15.8728 9.26392 15.9374 9.25701 16.0014 9.2636H17.4042C17.4681 9.25701 17.5328 9.26392 17.5939 9.28389C17.6551 9.30386 17.7113 9.33644 17.7591 9.37953C17.8068 9.42262 17.845 9.47524 17.8711 9.53401C17.8972 9.59278 17.9108 9.65638 17.9108 9.7207C17.9108 9.78501 17.8972 9.84861 17.8711 9.90738C17.845 9.96615 17.8068 10.0188 17.7591 10.0619C17.7113 10.105 17.6551 10.1375 17.5939 10.1575C17.5328 10.1775 17.4681 10.1844 17.4042 10.1778Z" fill="#3E3A39"/>
<path d="M14.0552 12.7454C14.0561 13.1486 13.9374 13.543 13.714 13.8786C13.4906 14.2142 13.1726 14.476 12.8003 14.6307C12.428 14.7854 12.0182 14.8262 11.6227 14.7477C11.2272 14.6693 10.864 14.4753 10.5789 14.1902C10.2938 13.9051 10.0997 13.5418 10.0213 13.1463C9.9429 12.7509 9.98363 12.341 10.1384 11.9687C10.2931 11.5964 10.5548 11.2784 10.8905 11.055C11.2261 10.8317 11.6205 10.7129 12.0236 10.7139C12.562 10.7152 13.078 10.9296 13.4587 11.3103C13.8395 11.691 14.0539 12.207 14.0552 12.7454Z" fill="white"/>
<path d="M14.0552 12.7454C14.0561 13.1486 13.9374 13.543 13.714 13.8786C13.4906 14.2142 13.1726 14.476 12.8003 14.6307C12.428 14.7854 12.0182 14.8262 11.6227 14.7477C11.2272 14.6693 10.864 14.4753 10.5789 14.1902C10.2938 13.9051 10.0997 13.5418 10.0213 13.1463C9.9429 12.7509 9.98363 12.341 10.1384 11.9687C10.2931 11.5964 10.5548 11.2784 10.8905 11.055C11.2261 10.8317 11.6205 10.7129 12.0236 10.7139C12.562 10.7152 13.078 10.9296 13.4587 11.3103C13.8395 11.691 14.0539 12.207 14.0552 12.7454Z" fill="#3E3A39"/>
</g>
<defs>
<clipPath id="clip0_994_6223">
<rect width="24" height="24" fill="white"/>
</clipPath>
</defs>
</svg>
