<?xml version="1.0" encoding="utf-8"?>
<!-- Generator: Adobe Illustrator 23.0.2, SVG Export Plug-In . SVG Version: 6.00 Build 0)  -->
<svg version="1.1" id="圖層_1" xmlns="http://www.w3.org/2000/svg" xmlns:xlink="http://www.w3.org/1999/xlink" x="0px" y="0px"
	 viewBox="0 0 24 24" style="enable-background:new 0 0 24 24;" xml:space="preserve">
<style type="text/css">
	.st0{fill:#FFFFFF;}
	.st1{fill:#FFBF61;}
</style>
<g>
	<path class="st0" d="M12,24c6.6,0,12-5.4,12-12S18.6,0,12,0C5.4,0,0,5.4,0,12S5.4,24,12,24z"/>
	<path class="st1" d="M11.2,11.3c0-0.5,0-0.8-0.2-1.3c-0.3-0.2-0.7-0.2-1-0.2V9h0.3c0.6,0,1.3,0,1.9-0.1c0.6,0,1.2-0.1,1.6-0.2v7.1
		c0,0.5,0,0.8,0.2,1.3c0.1,0.1,0.2,0.1,0.3,0.2c0.1,0,0.2,0.1,0.5,0v0.8H10v-0.8c0.3,0,0.7-0.1,1-0.2c0.2-0.3,0.2-0.8,0.2-1.3
		L11.2,11.3z M10.8,6.2c0-0.1,0-0.3,0.1-0.5c0.1-0.1,0.1-0.3,0.3-0.5c0.3-0.2,0.7-0.3,1-0.3c0.3,0,0.8,0.1,1,0.3
		c0.1,0.1,0.2,0.2,0.3,0.3c0.1,0.1,0.1,0.3,0.1,0.5s0,0.3-0.1,0.5S13.6,6.9,13.4,7c-0.3,0.2-0.7,0.3-1,0.3c-0.3,0-0.8-0.1-1-0.3
		c-0.2,0-0.2-0.2-0.3-0.3C10.8,6.5,10.8,6.3,10.8,6.2L10.8,6.2z"/>
</g>
</svg>
