<?xml version="1.0" encoding="utf-8"?>
<!-- Generator: Adobe Illustrator 23.0.2, SVG Export Plug-In . SVG Version: 6.00 Build 0)  -->
<svg version="1.1" id="圖層_1" xmlns="http://www.w3.org/2000/svg" xmlns:xlink="http://www.w3.org/1999/xlink" x="0px" y="0px"
	 viewBox="0 0 48 48" style="enable-background:new 0 0 48 48;" xml:space="preserve">
<style type="text/css">
	.st0{fill:none;}
	.st1{fill:#FFFFFF;}
</style>
<title>電子票</title>
<g>
	<g id="ICON">
		<circle class="st0" cx="24" cy="24" r="24"/>
		<path class="st1" d="M34.4,8.6h-5.2c-0.6,0-1,0.4-1,1s0.4,1,1,1h5.2c1.7,0,3,1.3,3,3l0,0v4.9c0,0.6,0.4,1,1,1s1-0.4,1-1v-4.9
			C39.4,10.8,37.2,8.6,34.4,8.6z"/>
		<path class="st1" d="M9.6,19.6c0.6,0,1-0.4,1-1v-4.9c0-1.7,1.3-3,3-3h4.7c0.6,0,1-0.4,1-1s-0.4-1-1-1h-4.7c-2.8,0-5,2.2-5,5v4.9
			C8.6,19.1,9.1,19.6,9.6,19.6z"/>
		<path class="st1" d="M18.3,37.4h-4.7c-1.7,0-3-1.3-3-3v-5c0-0.6-0.4-1-1-1s-1,0.4-1,1v5c0,2.8,2.2,5,5,5h4.7c0.6,0,1-0.4,1-1
			S18.9,37.4,18.3,37.4z"/>
		<path class="st1" d="M38.4,28.4c-0.6,0-1,0.4-1,1v5c0,1.7-1.3,3-3,3h-5.2c-0.6,0-1,0.4-1,1s0.4,1,1,1h5.2c2.8,0,5-2.2,5-5v-5
			C39.4,28.9,39,28.4,38.4,28.4C38.4,28.4,38.4,28.4,38.4,28.4z"/>
		<path class="st1" d="M14.8,13.3c-1.1,0-2,0.9-2,2v4.2c0,1.1,0.9,2,2,2H19c1.1,0,2-0.9,2-2v-4.2c0-1.1-0.9-2-2-2H14.8z M14.8,19.5
			v-4.2H19v4.2H14.8z"/>
		<path class="st1" d="M29,21.5h4.2c1.1,0,2-0.9,2-2v-4.2c0-1.1-0.9-2-2-2H29c-1.1,0-2,0.9-2,2v4.2C27,20.6,27.9,21.5,29,21.5z
			 M29,15.3h4.2v4.2H29V15.3z"/>
		<path class="st1" d="M19,26.5h-4.2c-1.1,0-2,0.9-2,2v4.2c0,1.1,0.9,2,2,2H19c1.1,0,2-0.9,2-2v-4.2C21,27.4,20.1,26.5,19,26.5z
			 M14.8,32.8v-4.2H19v4.2H14.8z"/>
		<path class="st1" d="M28.2,23c-0.6,0-1,0.4-1,1s0.4,1,1,1h1.3c0.6,0,1-0.4,1-1s-0.4-1-1-1H28.2z"/>
		<path class="st1" d="M32.5,23c-0.6,0-1,0.4-1,1s0.4,1,1,1h1.7c0.6,0,1-0.4,1-1s-0.4-1-1-1H32.5z"/>
		<path class="st1" d="M24,23H13.8c-0.6,0-1,0.4-1,1s0.4,1,1,1H23v8.8c0,0.6,0.4,1,1,1s1-0.4,1-1V24C25,23.4,24.6,23,24,23z"/>
		<path class="st1" d="M24,13.1c-0.6,0-1,0.4-1,1v6.4c0,0.6,0.4,1,1,1s1-0.4,1-1v-6.4C25,13.5,24.6,13.1,24,13.1z"/>
		<path class="st1" d="M31.2,33.8c0-0.6-0.4-1-1-1H29v-4.2h3.9c0.2,0,0.3,0.1,0.3,0.3v5c0,0.6,0.4,1,1,1s1-0.4,1-1v-5
			c0-1.3-1.1-2.3-2.3-2.3H28c-0.6,0-1,0.4-1,1v6.2c0,0.6,0.4,1,1,1h2.2C30.8,34.8,31.2,34.3,31.2,33.8z"/>
	</g>
</g>
</svg>
