<?xml version="1.0" encoding="utf-8"?>
<!-- Generator: Adobe Illustrator 23.0.2, SVG Export Plug-In . SVG Version: 6.00 Build 0)  -->
<svg version="1.1" id="圖層_1" xmlns="http://www.w3.org/2000/svg" xmlns:xlink="http://www.w3.org/1999/xlink" x="0px" y="0px"
	 viewBox="0 0 20 20" style="enable-background:new 0 0 20 20;" xml:space="preserve">
<style type="text/css">
	.st0{fill:#19B9AA;}
</style>
<g>
	<g id="_圖層_2">
		<g id="ICON">
			<path class="st0" d="M10,0C4.5,0,0,4.5,0,10s4.5,10,10,10s10-4.5,10-10S15.5,0,10,0z M14.1,6.9c-0.2,0.2-0.6,0.2-1.3,0.2H9.3v2.3
				h2.9c0.7,0,1.1,0,1.2,0.2c0.2,0.2,0.3,0.4,0.3,0.6s0,0.4-0.3,0.6c-0.1,0.1-0.6,0.2-1.2,0.2H9.3v2.4c0,0.6,0,0.9,0,1.1
				c0,0.3-0.1,0.5-0.3,0.6c-0.2,0.3-0.5,0.4-0.9,0.4s-0.7-0.1-0.9-0.4C7,15,7,14.7,6.9,14.5c0-0.2,0-0.5,0-1.1V7.3c0-0.6,0-1,0-1.2
				S7,5.7,7.2,5.5c0.2-0.2,0.4-0.3,0.6-0.3s0.6,0,1.2,0h3.8c0.4,0,0.7,0,0.8,0c0.2,0,0.4,0.1,0.5,0.2c0.2,0.2,0.3,0.4,0.3,0.7
				s0,0.5-0.3,0.7l0,0V6.9z"/>
		</g>
	</g>
</g>
</svg>
