<svg width="16" height="16" viewBox="0 0 16 16" fill="none" xmlns="http://www.w3.org/2000/svg">
<g clip-path="url(#clip0_991_37)">
<path d="M13.284 5.84661C13.2898 4.40415 12.7346 3.01594 11.7355 1.97544C11.2539 1.46933 10.6747 1.066 10.033 0.78977C9.39124 0.513537 8.70021 0.37012 8.00155 0.368164C6.57534 0.396498 5.21851 0.989023 4.22836 2.01591C3.23821 3.0428 2.6955 4.42031 2.71912 5.84661C2.71081 6.00984 2.71081 6.17339 2.71912 6.33663V6.44443C2.87593 7.8361 3.69916 11.4427 7.84965 15.5735C7.86469 15.5888 7.88262 15.6009 7.90239 15.6092C7.92216 15.6175 7.94337 15.6217 7.9648 15.6217C7.98623 15.6217 8.00745 15.6175 8.02722 15.6092C8.04699 15.6009 8.06491 15.5888 8.07996 15.5735C12.2451 11.4427 13.0537 7.8361 13.2105 6.44443C13.2129 6.40854 13.2129 6.37252 13.2105 6.33663C13.2444 6.17484 13.269 6.01123 13.284 5.84661ZM8.00155 8.33592C7.47045 8.33592 6.95127 8.17843 6.50967 7.88336C6.06807 7.58829 5.72389 7.1689 5.52064 6.67823C5.3174 6.18755 5.26422 5.64762 5.36783 5.12672C5.47145 4.60582 5.7272 4.12734 6.10275 3.75179C6.4783 3.37624 6.95677 3.12049 7.47767 3.01688C7.99858 2.91326 8.5385 2.96644 9.02918 3.16969C9.51986 3.37293 9.93925 3.71712 10.2343 4.15872C10.5294 4.60031 10.6869 5.11949 10.6869 5.6506C10.6869 6.00324 10.6174 6.35243 10.4825 6.67823C10.3475 7.00402 10.1497 7.30005 9.90036 7.54941C9.65101 7.79876 9.35498 7.99656 9.02918 8.13151C8.70338 8.26646 8.3542 8.33592 8.00155 8.33592Z" fill="#FF9D46"/>
</g>
<defs>
<clipPath id="clip0_991_37">
<rect width="16" height="16" fill="white"/>
</clipPath>
</defs>
</svg>
