<svg xmlns="http://www.w3.org/2000/svg" viewBox="0 0 48 48"><defs><style>.cls-1{fill:none;}.cls-2{fill:#231815;}</style></defs><title>新增帳號</title><g id="圖層_2" data-name="圖層 2"><g id="ICON"><circle class="cls-1" cx="24" cy="24" r="24"/><circle class="cls-2" cx="28.26" cy="19.39" r="5.93"/><path class="cls-2" d="M37.61,34.54H18.9a.85.85,0,0,1-.85-1C18.7,29.88,23,27,28.26,27s9.55,2.86,10.2,6.55A.84.84,0,0,1,37.61,34.54Z"/><path class="cls-2" d="M19.75,23.71H16.92V20.89a.86.86,0,1,0-1.71,0v2.82H12.38a.86.86,0,0,0,0,1.72h2.83v2.82a.86.86,0,1,0,1.71,0V25.43h2.83a.86.86,0,0,0,0-1.72Z"/></g></g></svg>