<svg width="751" height="171" viewBox="0 0 751 171" fill="none" xmlns="http://www.w3.org/2000/svg">
<path fill-rule="evenodd" clip-rule="evenodd" d="M207.318 1.26758C207.318 0.99672 207.105 0.767578 206.834 0.767578H10.6777C5.15489 0.767578 0.677734 5.24473 0.677734 10.7676V160.768C0.677734 166.29 5.15488 170.768 10.6777 170.768H206.834C207.105 170.768 207.318 170.538 207.318 170.268V170.268C207.318 166.175 210.597 162.848 214.67 162.769C214.674 162.769 214.678 162.772 214.678 162.776V162.776C214.678 162.78 214.681 162.784 214.685 162.783C214.848 162.773 215.012 162.768 215.178 162.768C219.32 162.768 222.678 166.125 222.678 170.268V170.268C222.678 170.538 222.891 170.768 223.162 170.768H740.678C746.201 170.768 750.678 166.29 750.678 160.768V10.7676C750.678 5.24473 746.201 0.767578 740.678 0.767578H223.162C222.891 0.767578 222.678 0.996713 222.678 1.26758V1.26758C222.678 5.40971 219.32 8.76758 215.178 8.76758C215.012 8.76758 214.848 8.76223 214.685 8.75168C214.681 8.75141 214.678 8.75472 214.678 8.75891V8.75891C214.678 8.76296 214.674 8.76622 214.67 8.76615C210.597 8.68728 207.318 5.36025 207.318 1.26758V1.26758Z" fill="white"/>
</svg>
