<svg width="18" height="18" viewBox="0 0 18 18" fill="none" xmlns="http://www.w3.org/2000/svg">
<g clip-path="url(#clip0_994_6232)">
<path d="M14.6353 8.28098C14.3894 8.28098 14.1536 8.37866 13.9798 8.55253C13.8059 8.72639 13.7082 8.96221 13.7082 9.20809V14.1527C13.7082 14.2101 13.6854 14.2651 13.6449 14.3056C13.6043 14.3462 13.5493 14.369 13.4919 14.369H3.99828C3.94091 14.369 3.88589 14.3462 3.84532 14.3056C3.80475 14.2651 3.78196 14.2101 3.78196 14.1527V4.62816C3.78196 4.57079 3.80475 4.51577 3.84532 4.4752C3.88589 4.43463 3.94091 4.41184 3.99828 4.41184H9.06031C9.30619 4.41184 9.54201 4.31416 9.71587 4.14029C9.88974 3.96643 9.98742 3.73061 9.98742 3.48473C9.98742 3.23884 9.88974 3.00303 9.71587 2.82916C9.54201 2.65529 9.30619 2.55762 9.06031 2.55762H3.99828C3.44914 2.55762 2.92249 2.77576 2.53418 3.16407C2.14588 3.55237 1.92773 4.07902 1.92773 4.62816V14.1218C1.92773 14.6709 2.14588 15.1976 2.53418 15.5859C2.92249 15.9742 3.44914 16.1923 3.99828 16.1923H13.4919C14.041 16.1923 14.5677 15.9742 14.956 15.5859C15.3443 15.1976 15.5624 14.6709 15.5624 14.1218V9.17719C15.5544 8.9367 15.4532 8.70875 15.2802 8.54151C15.1072 8.37427 14.876 8.28085 14.6353 8.28098Z" fill="#19B9AA"/>
<path d="M7.72175 9.68442L7.16548 11.242C7.15203 11.3401 7.16417 11.4401 7.20073 11.5321C7.23728 11.6242 7.29702 11.7053 7.37413 11.7675C7.45124 11.8296 7.54311 11.8708 7.64084 11.8871C7.73857 11.9033 7.83882 11.894 7.93189 11.86L9.372 11.0318C9.84112 10.7625 10.2595 10.4132 10.6082 9.99963L14.5762 5.25901C14.6377 5.06975 14.6567 4.86927 14.6318 4.67184C14.5815 4.29841 14.3943 3.95697 14.1065 3.71373C13.8187 3.47049 13.4509 3.34277 13.0743 3.35534C12.8705 3.36625 12.6718 3.42331 12.4933 3.52222L8.52524 8.25048C8.17176 8.67515 7.89939 9.16122 7.72175 9.68442Z" fill="#19B9AA"/>
<path d="M16.1643 1.29085C15.9196 1.08697 15.6112 0.975418 15.2928 0.975634C15.0948 0.973961 14.8989 1.01635 14.7193 1.09973C14.5397 1.18311 14.3809 1.3054 14.2544 1.45773L13.5684 2.27359C14.0469 2.35326 14.4929 2.56766 14.854 2.89166C15.2186 3.19716 15.4923 3.59699 15.6451 4.04746L16.3311 3.23778C16.4492 3.09954 16.5387 2.93921 16.5943 2.7661C16.6498 2.59299 16.6705 2.41056 16.6549 2.22941C16.6394 2.04826 16.588 1.872 16.5038 1.71088C16.4196 1.54976 16.3042 1.40698 16.1643 1.29085Z" fill="#19B9AA"/>
</g>
<defs>
<clipPath id="clip0_994_6232">
<rect width="18" height="18" fill="white"/>
</clipPath>
</defs>
</svg>
