<svg xmlns="http://www.w3.org/2000/svg" viewBox="0 0 48 48"><defs><style>.cls-1{fill:#f39848;}.cls-2{fill:none;stroke-linecap:round;stroke-linejoin:round;}.cls-2,.cls-4{stroke:#fff;}.cls-3{fill:#fff;}.cls-4{fill:#ea9449;stroke-miterlimit:10;}</style></defs><title>2-write-information(o)</title><g id="圖層_2" data-name="圖層 2"><g id="ICON"><circle class="cls-1" cx="24" cy="24" r="24"/><path class="cls-2" d="M32,12.48V35.4a2.19,2.19,0,0,1-2.2,2.16H13a2.22,2.22,0,0,1-2.2-2.24V17.26l7.16-7h11.9A2.23,2.23,0,0,1,32,12.48Z"/><path class="cls-2" d="M15.72,17.26h-5l7.16-7V15.1A2.19,2.19,0,0,1,15.72,17.26Z"/><line class="cls-2" x1="14.38" y1="28.43" x2="25.14" y2="28.43"/><line class="cls-2" x1="14.38" y1="31.08" x2="20.1" y2="31.08"/><line class="cls-2" x1="14.38" y1="33.62" x2="17.07" y2="33.62"/><circle class="cls-3" cx="16.76" cy="22.65" r="3"/><path class="cls-1" d="M16.43,22.59a.61.61,0,0,0-.06-.34.48.48,0,0,0-.28-.07V22h.09l.51,0a3.55,3.55,0,0,0,.47-.06v1.95a.73.73,0,0,0,.05.34.35.35,0,0,0,.22.07v.22H16.09v-.22c.14,0,.24,0,.28-.08a.55.55,0,0,0,.06-.33Zm-.09-1.41a.33.33,0,0,1,.11-.25.58.58,0,0,1,.62,0,.33.33,0,0,1,.11.25.31.31,0,0,1-.11.25.53.53,0,0,1-.62,0A.31.31,0,0,1,16.34,21.18Z"/><circle class="cls-4" cx="33.02" cy="32.68" r="6"/><polyline class="cls-2" points="30.95 32.73 32.63 34.64 35.09 31.57"/></g></g></svg>