<svg xmlns="http://www.w3.org/2000/svg" viewBox="0 0 48 48"><defs><style>.cls-1,.cls-5{fill:#fff;}.cls-2{fill:#f39848;}.cls-3,.cls-6{fill:none;}.cls-3,.cls-5,.cls-6{stroke:#ea9449;}.cls-3,.cls-5{stroke-miterlimit:10;}.cls-4{fill:#ea9449;}.cls-6{stroke-linecap:round;stroke-linejoin:round;}</style></defs><title>3-complete-payment(w)</title><g id="圖層_2" data-name="圖層 2"><g id="ICON"><circle class="cls-1" cx="24" cy="24" r="23.5"/><path class="cls-2" d="M24,1A23,23,0,1,1,1,24,23,23,0,0,1,24,1m0-1A24,24,0,1,0,48,24,24,24,0,0,0,24,0Z"/><rect class="cls-3" x="9.62" y="14.3" width="28.54" height="20.58" rx="2"/><rect class="cls-4" x="9.62" y="18.23" width="28.54" height="4.08"/><rect class="cls-4" x="13.15" y="28.93" width="2.01" height="3.02" rx="0.8"/><rect class="cls-4" x="16.32" y="28.93" width="2.01" height="3.02" rx="0.8"/><rect class="cls-4" x="19.48" y="28.93" width="2.01" height="3.02" rx="0.8"/><circle class="cls-5" cx="34.44" cy="32.68" r="6"/><polyline class="cls-6" points="32.37 32.73 34.05 34.64 36.51 31.57"/></g></g></svg>