<svg xmlns="http://www.w3.org/2000/svg" viewBox="0 0 48 48"><defs><style>.cls-1,.cls-4{fill:#fff;}.cls-2{fill:#f39848;}.cls-3{fill:none;stroke-linecap:round;stroke-linejoin:round;}.cls-3,.cls-4{stroke:#ea9449;}.cls-4{stroke-miterlimit:10;}</style></defs><title>4-get-tickets(w)</title><g id="圖層_2" data-name="圖層 2"><g id="ICON"><circle class="cls-1" cx="24" cy="24" r="23.5"/><path class="cls-2" d="M24,1A23,23,0,1,1,1,24,23,23,0,0,1,24,1m0-1A24,24,0,1,0,48,24,24,24,0,0,0,24,0Z"/><path class="cls-3" d="M29.85,32.7,12.27,35.8a1.52,1.52,0,0,1-1.76-1.23l-1.06-6a2.27,2.27,0,1,0-.79-4.48L7.59,18a1.53,1.53,0,0,1,1.25-1.77l17.56-3.1Z"/><path class="cls-3" d="M36.6,30a1.54,1.54,0,0,1-1.23,1.77l-5.52,1L26.4,13.17l5.52-1a1.52,1.52,0,0,1,1.76,1.24l1.07,6h-.12A2.27,2.27,0,1,0,35.42,24a.23.23,0,0,0,.11,0Z"/><line class="cls-3" x1="15.11" y1="25.2" x2="22.09" y2="23.97"/><line class="cls-3" x1="15.84" y1="29.36" x2="20.97" y2="28.46"/><line class="cls-3" x1="14.37" y1="21.04" x2="23.19" y2="19.49"/><circle class="cls-4" cx="33.89" cy="32.68" r="6"/><polyline class="cls-3" points="31.82 32.73 33.5 34.64 35.96 31.57"/></g></g></svg>