<svg xmlns="http://www.w3.org/2000/svg" viewBox="0 0 48 48"><defs><style>.cls-1{fill:none;}.cls-2,.cls-6,.cls-7{fill:#fff;}.cls-2{stroke:#cbc8c8;stroke-miterlimit:10;stroke-width:0.5px;}.cls-3{fill:#df3232;}.cls-4{fill:#004889;}.cls-5{fill:#00808a;}.cls-6{fill-rule:evenodd;}</style></defs><title>銀聯卡</title><g id="圖層_2" data-name="圖層 2"><g id="ICON"><rect class="cls-1" width="48" height="48"/><rect class="cls-2" x="2.24" y="8.72" width="43.67" height="30.56" rx="2"/><path class="cls-3" d="M13.72,13.35h8.5a1.66,1.66,0,0,1,1.64,2.16l-3.95,17a2.89,2.89,0,0,1-2.65,2.16H8.76a1.66,1.66,0,0,1-1.65-2.16l4-17a2.88,2.88,0,0,1,2.65-2.16"/><path class="cls-4" d="M21.51,13.35h9.77c1.19,0,.65,1,.37,2.16l-3.95,17c-.28,1.19-.19,2.16-1.38,2.16H16.55a1.65,1.65,0,0,1-1.64-2.16l3.95-17a2.88,2.88,0,0,1,2.65-2.16"/><path class="cls-5" d="M30.9,13.35h8.49A1.66,1.66,0,0,1,41,15.51l-4,17a2.89,2.89,0,0,1-2.65,2.16H25.94a1.65,1.65,0,0,1-1.65-2.16l3.95-17a2.89,2.89,0,0,1,2.66-2.16"/><path class="cls-6" d="M29.47,29.33h.81l.23-.77h-.8Zm.65-2.12-.28.91a4.24,4.24,0,0,1,.47-.21c.16,0,.41-.07.41-.07l.2-.63Zm.4-1.32-.27.88a3.63,3.63,0,0,1,.46-.18,3.18,3.18,0,0,1,.41-.06l.19-.64Zm1.77,0-1,3.43h.28l-.22.71H31l-.07.22H30l.07-.22h-2l.2-.66h.2l1.05-3.48.21-.7h1l-.11.36a1.75,1.75,0,0,1,.52-.26c.26-.07,1.71-.1,1.71-.1l-.21.7Z"/><path class="cls-7" d="M32.73,25.19H33.8v.41c0,.06.06.1.18.1h.22l-.2.65h-.58c-.5,0-.69-.17-.68-.42Z"/><path class="cls-7" d="M32.87,28.33h-1l.17-.59h1.17l.17-.54H32.21l.19-.66h3.22l-.21.66H34.34l-.17.54h1.08l-.18.59H33.9l-.2.24h.47l.11.75a.75.75,0,0,0,0,.15s.17,0,.25,0h.14l-.22.72h-.61a1,1,0,0,1-.27-.11.4.4,0,0,1-.19-.25l-.11-.74-.53.73a.91.91,0,0,1-.78.4h-.75l.2-.64h.28a.43.43,0,0,0,.21-.06.35.35,0,0,0,.16-.13Z"/><path class="cls-7" d="M21.67,26.72h2.71l-.2.64H23.09l-.16.56H24l-.2.66h-1.1l-.27.9c0,.1.26.11.37.11l.55-.08-.22.74H21.91a1,1,0,0,1-.29,0,.26.26,0,0,1-.19-.14c-.05-.08-.12-.13-.07-.29l.36-1.19H21.1l.21-.67h.61l.17-.56h-.62Z"/><path class="cls-7" d="M23.49,25.56H24.6l-.2.67H22.88l-.16.14c-.07.07-.1,0-.19.1a1.12,1.12,0,0,1-.5.12h-.48l.19-.65h.15a.69.69,0,0,0,.25,0,.53.53,0,0,0,.16-.22l.28-.5h1.11Z"/><path class="cls-6" d="M25.62,26.67a1.78,1.78,0,0,1,.83-.37c.11,0,.85,0,.85,0l.11-.38H25.85Zm1.47.28H25.54l-.1.31h1.35a1,1,0,0,1,.2,0Zm-2-1.76h1l-.14.48a2.56,2.56,0,0,1,.51-.32,4.64,4.64,0,0,1,.68-.15h1.53l-.52,1.74a1.89,1.89,0,0,1-.26.58.61.61,0,0,1-.26.24,1.08,1.08,0,0,1-.35.11l-.47,0H25.27l-.42,1.37c0,.14-.05.2,0,.24a.21.21,0,0,0,.15.07l.65-.06-.23.75H24.15a.59.59,0,0,1-.31-.06c-.07-.06-.17-.14-.17-.22s0-.2.08-.37Z"/><path class="cls-7" d="M27.84,28l-.09.42a.56.56,0,0,1-.17.31.66.66,0,0,1-.51.18l-.52,0v.47c0,.14,0,.12.05.15l.07,0h.16l.5,0-.2.69h-.58a1.8,1.8,0,0,1-.8-.09c-.1-.06-.11-.14-.11-.27l0-1.84h.92v.38h.22a.28.28,0,0,0,.15,0,.2.2,0,0,0,.07-.1l.09-.29Z"/><path class="cls-7" d="M14.73,18.78c0,.15-.62,2.87-.63,2.87a2,2,0,0,1-.53,1.2,1,1,0,0,1-.63.21.58.58,0,0,1-.65-.55v-.13l.11-.74s.62-2.48.73-2.81a0,0,0,0,0,0,0,9,9,0,0,1-1.43,0s0,.18,0,.18L11,21.75,11,22l-.1.77a1.16,1.16,0,0,0,.13.58c.29.5,1.11.58,1.58.58a3.08,3.08,0,0,0,1.54-.36,2.26,2.26,0,0,0,1-1.54l.07-.28s.64-2.57.75-2.91v0a8.64,8.64,0,0,1-1.21,0"/><path class="cls-7" d="M18.25,23.89a9.85,9.85,0,0,0-1.07,0l0,0c0-.19.09-.38.13-.57l.06-.26c.09-.4.18-.87.19-1s0-.3-.2-.3a.84.84,0,0,0-.33.1l-.24,1.1c-.12.58-.13.65-.18.93l0,0a10.4,10.4,0,0,0-1.1,0l0,0c.08-.35.17-.69.25-1A15.37,15.37,0,0,0,16,21.06l0,0a10.58,10.58,0,0,0,1.15-.19l0,.05-.08.3.27-.16a1.8,1.8,0,0,1,.69-.16.59.59,0,0,1,.6.34c.1.24,0,.54-.1,1.13l-.07.29c-.14.66-.16.78-.24,1.22Z"/><path class="cls-7" d="M20,23.89c-.26,0-.42,0-.59,0l-.55,0,0,0v0a2.73,2.73,0,0,1,.13-.42,4.36,4.36,0,0,0,.12-.43c.08-.33.12-.56.16-.76s.05-.36.07-.55h0v0l.59-.08.6-.11v0l-.15.61c0,.21-.1.41-.14.61-.1.44-.14.59-.16.71s0,.17-.06.39l0,0Z"/><path class="cls-7" d="M22.71,22.37a2.29,2.29,0,0,1-.25.7.41.41,0,0,1-.32.21s-.25,0-.25-.32a2.14,2.14,0,0,1,.07-.48c.11-.5.24-.92.58-.92s.29.31.17.81m1.12.05c.15-.66,0-1-.12-1.15a1.23,1.23,0,0,0-1-.38,1.88,1.88,0,0,0-1.28.45,2.14,2.14,0,0,0-.58,1.11c-.09.4-.19,1.12.47,1.39A1.91,1.91,0,0,0,22,24a1.82,1.82,0,0,0,1.37-.53,2.43,2.43,0,0,0,.47-1"/><path class="cls-7" d="M34.27,23.93c-.51,0-.66,0-1.14,0l0,0c.13-.49.26-1,.38-1.47a11.29,11.29,0,0,0,.23-1.29l0,0c.51-.07.65-.09,1.19-.19v0c-.09.41-.19.81-.29,1.22-.19.84-.26,1.28-.34,1.72Z"/><path class="cls-7" d="M33.5,22.43a2.43,2.43,0,0,1-.25.69.59.59,0,0,1-.42.21s-.24,0-.25-.32a2.14,2.14,0,0,1,.07-.48c.11-.49.24-.9.58-.9s.39.3.27.8m1,.05c.15-.66-.45-.06-.55-.28s-.06-1-.65-1.24a1.4,1.4,0,0,0-1.22.44,2.06,2.06,0,0,0-.57,1.1c-.09.4-.2,1.13.46,1.39a1.43,1.43,0,0,0,.6.1c.66,0,1.17-1,1.54-1.44s.35.12.39-.07"/><path class="cls-7" d="M26.75,23.89a10,10,0,0,0-1.08,0l0,0c0-.19.09-.38.14-.57l.06-.26c.09-.4.18-.87.19-1s0-.3-.21-.3a.84.84,0,0,0-.32.1c-.06.22-.18.82-.24,1.1-.12.58-.13.65-.19.93l0,0a10.36,10.36,0,0,0-1.1,0l0,0,.24-1a13.9,13.9,0,0,0,.33-1.77l0,0a11,11,0,0,0,1.15-.19l0,.05-.08.3.27-.16a1.72,1.72,0,0,1,.68-.16.59.59,0,0,1,.6.34c.1.24,0,.54-.1,1.13l-.07.29c-.14.66-.16.78-.23,1.22Z"/><path class="cls-7" d="M30.45,18.77h-.36c-.92,0-1.29,0-1.44,0a1.64,1.64,0,0,0,0,.19l-.33,1.53s-.79,3.26-.83,3.41h1.28l.21-1.06.18-.7a.24.24,0,0,1,.09-.09h.08a3.39,3.39,0,0,0,2.1-.46,2.29,2.29,0,0,0,.83-1.32,2.23,2.23,0,0,0,.06-.47,1,1,0,0,0-.17-.59c-.32-.44-.94-.44-1.66-.45m.46,1.6a1.1,1.1,0,0,1-.58.77,1.92,1.92,0,0,1-.81.12h-.2l0-.07.35-1.53v-.14l.14,0,.74.06a.6.6,0,0,1,.32.77"/><path class="cls-7" d="M38.49,20.92l0-.05c-.53.11-.63.12-1.11.19l0,0v0h0c-.36.83-.35.65-.64,1.31v-.08l-.08-1.42,0-.05c-.55.11-.57.12-1.08.19l0,0a.13.13,0,0,1,0,.06h0a7,7,0,0,1,.11.76c0,.26.07.51.1.76,0,.42.08.62.14,1.26-.35.57-.43.78-.76,1.28l0,.05,1,0,.08-.09c.28-.6,2.4-4.24,2.4-4.24"/><path class="cls-7" d="M20.46,21.27c.28-.2.32-.47.08-.61a1,1,0,0,0-.95.1c-.28.19-.32.47-.08.61a1,1,0,0,0,.95-.1"/><path class="cls-7" d="M36.06,25.21l-.42.71a.81.81,0,0,1-.76.43h-.66l.19-.64h.13a.28.28,0,0,0,.15,0,.15.15,0,0,0,.09-.07l.24-.39Z"/></g></g></svg>