<svg xmlns="http://www.w3.org/2000/svg" viewBox="0 0 48 48"><defs><style>.cls-1{fill:#fff;stroke:#cbc8c8;stroke-miterlimit:10;stroke-width:0.5px;}.cls-2{fill:none;}.cls-3{fill:#eb5f1b;}.cls-4{fill:#dc171f;}.cls-5{fill:#ee9a23;}</style></defs><title>Mastercard</title><g id="圖層_2" data-name="圖層 2"><g id="ICON"><rect class="cls-1" x="2.47" y="8.15" width="43.67" height="30.56" rx="2"/><rect class="cls-2" x="4.02" y="9.05" width="40.57" height="28.75"/><rect class="cls-3" x="20.1" y="15.89" width="8.38" height="15.07"/><path class="cls-4" d="M20.63,23.43a9.57,9.57,0,0,1,3.66-7.54,9.59,9.59,0,1,0,0,15.07A9.54,9.54,0,0,1,20.63,23.43Z"/><path class="cls-5" d="M39.79,23.43A9.58,9.58,0,0,1,24.29,31,9.59,9.59,0,0,0,25.9,17.5a9.81,9.81,0,0,0-1.61-1.61,9.59,9.59,0,0,1,15.5,7.54Z"/><path class="cls-5" d="M38.88,29.37v-.31H39V29h-.32v.07h.13v.31Zm.61,0V29h-.1l-.11.26L39.17,29h-.1v.38h.07v-.28l.11.24h.07l.1-.25v.29Z"/><rect class="cls-2" width="48" height="48"/></g></g></svg>