<svg xmlns="http://www.w3.org/2000/svg" viewBox="0 0 48 48"><defs><style>.cls-1{fill:#1f449a;stroke:#1f449a;stroke-miterlimit:10;stroke-width:0.5px;}.cls-2{fill:#fff;}.cls-3{fill:none;}</style></defs><title>Visa</title><g id="圖層_2" data-name="圖層 2"><g id="ICON"><rect class="cls-1" x="2.17" y="8.72" width="43.67" height="30.56" rx="2"/><path class="cls-2" d="M20.2,19.08l-4.13,9.86h-2.7l-2-7.87a1.06,1.06,0,0,0-.61-.86,10.54,10.54,0,0,0-2.51-.84l.06-.29h4.34a1.18,1.18,0,0,1,1.17,1l1.08,5.7,2.65-6.71Zm10.57,6.64c0-2.6-3.6-2.74-3.58-3.9,0-.36.35-.73,1.08-.83a4.85,4.85,0,0,1,2.52.44l.45-2.09a7,7,0,0,0-2.39-.44c-2.52,0-4.29,1.34-4.31,3.26,0,1.42,1.27,2.21,2.23,2.69s1.33.79,1.33,1.22c0,.66-.8.95-1.53,1A5.28,5.28,0,0,1,24,26.41l-.46,2.16a7.75,7.75,0,0,0,2.84.53c2.67,0,4.43-1.33,4.44-3.38m6.65,3.22h2.36l-2.06-9.86H35.55a1.17,1.17,0,0,0-1.09.73l-3.83,9.13h2.68l.53-1.47h3.27Zm-2.84-3.49,1.34-3.7.77,3.7ZM23.85,19.08l-2.11,9.86H19.19l2.11-9.86Z"/><rect class="cls-3" width="48" height="48"/></g></g></svg>