<svg xmlns="http://www.w3.org/2000/svg" xmlns:xlink="http://www.w3.org/1999/xlink" viewBox="0 0 48 48"><defs><style>.cls-1{fill:#fff;stroke:#cbc8c8;stroke-miterlimit:10;stroke-width:0.5px;}.cls-2{fill:none;}.cls-3{fill:url(#グラデーションGreen);}.cls-4{fill:url(#グラデーションGreen-2);}.cls-5{fill:url(#グラデーションGreen-3);}.cls-6{fill:url(#グラデーションBleu);}.cls-7{fill:url(#グラデーションRed);}</style><linearGradient id="グラデーションGreen" x1="300" y1="341.61" x2="307.8" y2="341.61" gradientTransform="translate(-307.9 -358.94) scale(1.13)" gradientUnits="userSpaceOnUse"><stop offset="0" stop-color="#007940"/><stop offset="0.25" stop-color="#1a8a3c"/><stop offset="0.75" stop-color="#4aa934"/><stop offset="1" stop-color="#5cb531"/></linearGradient><linearGradient id="グラデーションGreen-2" x1="300" y1="340.39" x2="307.8" y2="340.39" xlink:href="#グラデーションGreen"/><linearGradient id="グラデーションGreen-3" x1="300" y1="339.07" x2="307.8" y2="339.07" xlink:href="#グラデーションGreen"/><linearGradient id="グラデーションBleu" x1="282.53" y1="340.39" x2="290.45" y2="340.39" gradientTransform="translate(-307.9 -358.94) scale(1.13)" gradientUnits="userSpaceOnUse"><stop offset="0" stop-color="#1f286f"/><stop offset="0.12" stop-color="#1b327a"/><stop offset="0.71" stop-color="#075eaa"/><stop offset="1" stop-color="#006fbc"/></linearGradient><linearGradient id="グラデーションRed" x1="291.22" y1="340.39" x2="298.92" y2="340.39" gradientTransform="translate(-307.9 -358.94) scale(1.13)" gradientUnits="userSpaceOnUse"><stop offset="0" stop-color="#6c2c2f"/><stop offset="0.41" stop-color="#a41834"/><stop offset="0.8" stop-color="#d40737"/><stop offset="1" stop-color="#e60039"/></linearGradient></defs><title>JCB</title><g id="圖層_2" data-name="圖層 2"><g id="ICON"><rect class="cls-1" x="2.32" y="8.72" width="43.67" height="30.56" rx="2"/><path class="cls-2" d="M40.12,31.33a5,5,0,0,1-5,5h-27V16.67a5,5,0,0,1,5-5h27Z"/><path class="cls-3" d="M31.33,26.3h2.05l.24,0a.92.92,0,0,0,.73-.91.93.93,0,0,0-.73-.92l-.24,0H31.33Z"/><path class="cls-4" d="M33.14,13.35a3.55,3.55,0,0,0-3.55,3.55v3.69H35c1.14.06,2,.64,2,1.65a1.68,1.68,0,0,1-1.61,1.63v0c1.15.08,2,.72,2,1.72s-1,1.77-2.26,1.77h-5.5v7.24H34.8a3.54,3.54,0,0,0,3.54-3.55V13.35Z"/><path class="cls-5" d="M34.1,22.51a.84.84,0,0,0-.71-.85H31.33v1.73h1.86l.2,0A.84.84,0,0,0,34.1,22.51Z"/><path class="cls-6" d="M13.5,13.35A3.55,3.55,0,0,0,10,16.9v8.77a7.14,7.14,0,0,0,3.07.79,1.72,1.72,0,0,0,1.91-1.75V20.59H18v4.12c0,1.61-1,2.9-4.38,2.9A15.37,15.37,0,0,1,10,27.17v7.48h5.21a3.55,3.55,0,0,0,3.55-3.55V13.35Z"/><path class="cls-7" d="M23.32,13.35a3.55,3.55,0,0,0-3.55,3.55v4.65c.9-.77,2.46-1.25,5-1.14a16.17,16.17,0,0,1,2.79.42v1.5a7,7,0,0,0-2.69-.78c-1.92-.15-3.07.79-3.07,2.45s1.15,2.6,3.07,2.45a7.08,7.08,0,0,0,2.69-.78v1.5a16.17,16.17,0,0,1-2.79.42c-2.52.12-4.08-.37-5-1.14v8.2H25a3.55,3.55,0,0,0,3.55-3.55V13.35Z"/><rect class="cls-2" width="48" height="48"/></g></g></svg>