<svg width="91" height="91" viewBox="0 0 91 91" fill="none" xmlns="http://www.w3.org/2000/svg">
<g clip-path="url(#clip0_889_1199)">
<path d="M45.0505 13.4775C38.6883 13.521 32.4804 15.4411 27.2046 18.9972C21.9288 22.5533 17.8199 27.5873 15.3926 33.4685V57.6453C20.9613 61.9949 27.8294 64.3482 34.8955 64.3277C35.7026 64.3277 36.5098 64.3277 37.3357 64.3277H37.6923C38.9259 64.3288 40.1137 64.7953 41.0184 65.6339C41.9232 66.4725 42.4782 67.6215 42.5727 68.8515C42.6312 69.4982 42.5564 70.15 42.353 70.7667C42.1496 71.3833 41.8219 71.9517 41.3902 72.4367C40.9671 72.9205 40.4523 73.3155 39.8756 73.5991C39.2989 73.8826 38.6716 74.049 38.0302 74.0886C36.9227 74.0886 35.8903 74.22 34.8767 74.22C31.6591 74.2145 28.453 73.8366 25.3223 73.0937C29.2053 75.8972 33.64 77.8432 38.3322 78.8026C43.0245 79.762 47.867 79.7129 52.5388 78.6586C57.2107 77.6042 61.6049 75.5687 65.4303 72.687C69.2556 69.8053 72.4247 66.1433 74.7272 61.9438V33.4872C72.3057 27.5968 68.1961 22.554 62.9155 18.9936C57.6349 15.4331 51.4192 13.5139 45.0505 13.4775Z" fill="#19B9AA"/>
<path d="M81.5591 32.5865C78.8992 25.0325 73.9605 18.4902 67.4245 13.8623C60.8884 9.23444 53.0772 6.74902 45.0686 6.74902C37.0601 6.74902 29.2489 9.23444 22.7128 13.8623C16.1768 18.4902 11.2381 25.0325 8.57814 32.5865C4.65504 34.0694 1.87695 40.0948 1.87695 47.6031C1.87695 56.3128 5.63112 62.9764 10.5115 62.9764H11.2624C17.9947 68.206 26.2762 71.0458 34.801 71.0479C35.7771 71.0479 36.7719 71.0479 37.7668 70.9353C38.228 70.8842 38.654 70.6642 38.9625 70.3175C39.271 69.9709 39.4402 69.5222 39.4374 69.0582C39.3864 68.597 39.1663 68.171 38.8196 67.8625C38.473 67.5539 38.0243 67.3848 37.5603 67.3876C28.3882 68.0645 19.3203 65.0891 12.3323 59.1096V32.8305C14.8732 26.2092 19.3621 20.514 25.2067 16.4967C31.0512 12.4794 37.9766 10.3288 45.0686 10.3288C52.1607 10.3288 59.0861 12.4794 64.9306 16.4967C70.7752 20.514 75.2641 26.2092 77.805 32.8305V62.8638H79.6821C84.4686 62.9952 88.2228 56.3128 88.2228 47.6031C88.2228 40.0385 85.4635 34.0694 81.5591 32.5865Z" fill="#19B9AA"/>
<path d="M55.3738 55.6933C55.7117 57.3263 50.4371 60.5549 45.0686 60.5549C39.7002 60.5549 34.4256 57.3263 34.7635 55.6933C35.3641 52.765 54.7732 52.765 55.3738 55.6933Z" fill="white"/>
<path d="M60.2172 46.533C62.3424 46.533 64.0652 44.8101 64.0652 42.6849C64.0652 40.5597 62.3424 38.8369 60.2172 38.8369C58.092 38.8369 56.3691 40.5597 56.3691 42.6849C56.3691 44.8101 58.092 46.533 60.2172 46.533Z" fill="white"/>
<path d="M29.9203 46.533C32.0455 46.533 33.7683 44.8101 33.7683 42.6849C33.7683 40.5597 32.0455 38.8369 29.9203 38.8369C27.7951 38.8369 26.0723 40.5597 26.0723 42.6849C26.0723 44.8101 27.7951 46.533 29.9203 46.533Z" fill="white"/>
</g>
<defs>
<clipPath id="clip0_889_1199">
<rect width="90.1" height="90.1" fill="white"/>
</clipPath>
</defs>
</svg>
