<svg width="30" height="29" viewBox="0 0 30 29" fill="none" xmlns="http://www.w3.org/2000/svg">
<rect width="28.2575" height="28.1047" rx="14.0523" transform="matrix(1 0 0 -1 0.896484 28.5527)" fill="#F9A259"/>
<path d="M19.7415 10.7792C19.8735 10.6472 19.9478 10.468 19.9478 10.2812C19.9478 10.0944 19.8735 9.91525 19.7415 9.78315C19.6094 9.65106 19.4302 9.57686 19.2434 9.57686C19.0566 9.57686 18.8775 9.65106 18.7454 9.78315L15.0252 13.5044L11.304 9.78433C11.1719 9.65224 10.9927 9.57803 10.8059 9.57803C10.6191 9.57803 10.44 9.65224 10.3079 9.78433C10.1758 9.91642 10.1016 10.0956 10.1016 10.2824C10.1016 10.4692 10.1758 10.6483 10.3079 10.7804L14.0291 14.5005L10.309 18.2218C10.1769 18.3539 10.1027 18.5331 10.1027 18.7199C10.1027 18.9067 10.1769 19.0858 10.309 19.2179C10.4411 19.35 10.6203 19.4242 10.8071 19.4242C10.9939 19.4242 11.173 19.35 11.3051 19.2179L15.0252 15.4966L18.7465 19.2185C18.8786 19.3506 19.0578 19.4248 19.2446 19.4248C19.4314 19.4248 19.6105 19.3506 19.7426 19.2185C19.8747 19.0864 19.9489 18.9073 19.9489 18.7205C19.9489 18.5337 19.8747 18.3545 19.7426 18.2224L16.0213 14.5005L19.7415 10.7792Z" fill="white"/>
</svg>
