<svg xmlns="http://www.w3.org/2000/svg" viewBox="0 0 82 82"><defs><style>.cls-1,.cls-5{fill:#f6ba62;}.cls-1{stroke:#f6ba62;stroke-linecap:round;stroke-linejoin:round;stroke-width:2px;}.cls-2{fill:#fff;}.cls-3{fill:#6b5240;}.cls-4{fill:#23afa2;}</style></defs><title>數位科技</title><g id="圖層_2" data-name="圖層 2"><g id="圖層_1-2" data-name="圖層 1"><path class="cls-1" d="M41,1A40,40,0,1,0,81,41,40,40,0,0,0,41,1ZM38.54,19.2c1.43-1.65,4.32-2.06,7.85-1.41a26.56,26.56,0,0,1,6,1.91,36.54,36.54,0,0,0-5.08,2.79,31.55,31.55,0,0,0-3.1,2.3h0a26.24,26.24,0,0,0-3.58,3.57C37.72,24.77,36.74,21.29,38.54,19.2ZM66.33,37.47c-1.23,1.42-3.55,1.94-6.43,1.64-.45,0-.94-.12-1.42-.2a26.32,26.32,0,0,1-6-1.94,26.23,26.23,0,0,1-6,1.94,21,21,0,0,1-2.15-7,32.41,32.41,0,0,0,3.12,2.32A34.31,34.31,0,0,0,52.44,37a33.25,33.25,0,0,0,5.07-2.76,33.7,33.7,0,0,0,3.12-2.32,26.66,26.66,0,0,0,3.58-3.53C67.15,31.92,68.11,35.41,66.33,37.47Z"/><path class="cls-2" d="M59.9,39.11V53.89H22.1v-25H40.26c-2.62,3.4-3.42,6.67-1.72,8.63,1.43,1.65,4.34,2.09,7.85,1.44,1.52,2.83,3.67,4.6,6,4.6s4.51-1.77,6-4.6C59,39,59.45,39.06,59.9,39.11Z"/><path class="cls-3" d="M59.9,54.73H22.1a.83.83,0,0,1-.83-.84v-25A.83.83,0,0,1,22.1,28H40.26a.84.84,0,0,1,.75.46.85.85,0,0,1-.09.88c-2.45,3.18-3.1,6-1.75,7.58,1.18,1.35,3.75,1.77,7.07,1.16a.83.83,0,0,1,.89.42c1.41,2.65,3.35,4.17,5.3,4.17s3.86-1.48,5.32-4.17a.83.83,0,0,1,.87-.42c.47.08.93.14,1.37.19a.83.83,0,0,1,.74.83V53.89A.83.83,0,0,1,59.9,54.73Zm-37-1.67H59.06V39.84l-.14,0c-1.73,2.92-4,4.52-6.49,4.52S47.65,42.71,46,39.83c-3.68.57-6.52-.07-8-1.81-1.69-2-1.39-5,.74-8.35H22.94Z"/><path class="cls-3" d="M59.9,39.93a.82.82,0,0,1-.84-.82v0a.84.84,0,1,1,.84.84Z"/><polygon class="cls-2" points="66.41 60.58 15.59 60.58 22.1 53.89 59.9 53.89 66.41 60.58"/><path class="cls-3" d="M66.41,61.41H15.59A.83.83,0,0,1,15,60l6.52-6.69a.82.82,0,0,1,.59-.25H59.9a.82.82,0,0,1,.59.25L67,60a.83.83,0,0,1-.6,1.41ZM17.56,59.75H64.44l-4.9-5H22.46Z"/><path class="cls-2" d="M46.39,38.91a26.23,26.23,0,0,0,6-1.94,26.32,26.32,0,0,0,6,1.94c-1.54,2.83-3.67,4.6-6,4.6S47.91,41.74,46.39,38.91Z"/><path class="cls-3" d="M52.43,44.34c-2.59,0-5.06-1.83-6.77-5a.85.85,0,0,1,0-.76.81.81,0,0,1,.61-.45,25.19,25.19,0,0,0,5.85-1.88.83.83,0,0,1,.69,0,25.25,25.25,0,0,0,5.83,1.88.83.83,0,0,1,.61.46.8.8,0,0,1,0,.75C57.45,42.55,55,44.34,52.43,44.34ZM47.7,39.49c1.35,2,3,3.19,4.73,3.19s3.38-1.13,4.73-3.19a29.54,29.54,0,0,1-4.72-1.6A28.47,28.47,0,0,1,47.7,39.49Z"/><path class="cls-2" d="M60.86,28.34a27,27,0,0,1-.23,3.55,33.7,33.7,0,0,1-3.12,2.32A33.25,33.25,0,0,1,52.44,37a34.31,34.31,0,0,1-5.08-2.76,32.41,32.41,0,0,1-3.12-2.32,27.51,27.51,0,0,1,0-7.1h0a31.55,31.55,0,0,1,3.1-2.3,36.54,36.54,0,0,1,5.08-2.79,26.56,26.56,0,0,0-6-1.91c1.52-2.85,3.67-4.62,6-4.62s4.51,1.77,6,4.62a19.6,19.6,0,0,1,2.13,7h0A27.15,27.15,0,0,1,60.86,28.34Z"/><path class="cls-3" d="M52.44,37.81a1,1,0,0,1-.33-.07,37.08,37.08,0,0,1-5.21-2.83,32.68,32.68,0,0,1-3.2-2.38.84.84,0,0,1-.28-.53,28,28,0,0,1,0-7.32.81.81,0,0,1,.4-.61,34.15,34.15,0,0,1,3.08-2.28c1.14-.74,2.31-1.42,3.49-2a24.22,24.22,0,0,0-4.14-1.15.83.83,0,0,1-.59-1.22c1.71-3.21,4.18-5.05,6.77-5.05s5,1.79,6.78,5.05a20.5,20.5,0,0,1,2.21,7.14.83.83,0,0,1,0,.15,28,28,0,0,1,0,7.32.9.9,0,0,1-.29.53A32.73,32.73,0,0,1,58,34.9a34.88,34.88,0,0,1-5.19,2.84A1,1,0,0,1,52.44,37.81ZM45,31.46a30.5,30.5,0,0,0,2.78,2,35,35,0,0,0,4.63,2.55,31.88,31.88,0,0,0,4.61-2.55,31.9,31.9,0,0,0,2.79-2A25,25,0,0,0,60,28.34a25.84,25.84,0,0,0-.21-3.29.76.76,0,0,1,0-.16,19.09,19.09,0,0,0-2-6.7C56.29,15.49,54.41,14,52.43,14c-1.7,0-3.39,1.16-4.73,3.21a28.81,28.81,0,0,1,5.08,1.73.83.83,0,0,1,.5.76.86.86,0,0,1-.5.77,35,35,0,0,0-5,2.72,30.9,30.9,0,0,0-2.79,2,24.85,24.85,0,0,0-.19,3.11A27.08,27.08,0,0,0,45,31.46Zm15.6.43h0Z"/><path class="cls-2" d="M52.44,37a26.23,26.23,0,0,1-6,1.94,21,21,0,0,1-2.15-7,32.41,32.41,0,0,0,3.12,2.32A34.31,34.31,0,0,0,52.44,37Z"/><path class="cls-3" d="M46.39,39.74a.82.82,0,0,1-.73-.44A21.66,21.66,0,0,1,43.42,32a.82.82,0,0,1,.42-.84.83.83,0,0,1,.94.09,29.38,29.38,0,0,0,3,2.26,33.75,33.75,0,0,0,5,2.7.83.83,0,0,1,.5.76.82.82,0,0,1-.49.76,26.53,26.53,0,0,1-6.25,2Zm-.94-5.84A18.71,18.71,0,0,0,46.85,38a23.7,23.7,0,0,0,3.53-1,38.87,38.87,0,0,1-3.48-2C46.41,34.59,45.93,34.25,45.45,33.9Z"/><path class="cls-2" d="M44.24,31.89a21,21,0,0,0,2.15,7c-3.51.65-6.42.21-7.85-1.44-1.7-2-.9-5.23,1.72-8.63a6,6,0,0,1,.4-.48A26.66,26.66,0,0,0,44.24,31.89Z"/><path class="cls-3" d="M43.46,40c-2.47,0-4.39-.68-5.55-2-1.91-2.21-1.28-5.83,1.69-9.69.19-.24.3-.38.44-.53a.93.93,0,0,1,.63-.28.88.88,0,0,1,.63.3,25.56,25.56,0,0,0,3.47,3.42.89.89,0,0,1,.3.54,19.86,19.86,0,0,0,2.06,6.73.85.85,0,0,1,0,.76.81.81,0,0,1-.6.46A17.31,17.31,0,0,1,43.46,40ZM40.69,29.66c-2.27,3.09-2.82,5.77-1.52,7.27,1,1.2,3.19,1.67,6,1.33a22.7,22.7,0,0,1-1.68-5.93A27.06,27.06,0,0,1,40.69,29.66Z"/><path class="cls-2" d="M64.21,28.36a25.68,25.68,0,0,0-3.58-3.57,27.51,27.51,0,0,1,0,7.1,33.7,33.7,0,0,1-3.12,2.32A33.25,33.25,0,0,1,52.44,37a34.31,34.31,0,0,1-5.08-2.76,32.41,32.41,0,0,1-3.12-2.32,27.51,27.51,0,0,1,0-7.1h0a31.55,31.55,0,0,1,3.1-2.3,36.54,36.54,0,0,1,5.08-2.79,26.64,26.64,0,0,1,6-1.91c3.53-.65,6.42-.24,7.85,1.41C68.13,21.29,67.15,24.77,64.21,28.36Z"/><path class="cls-3" d="M52.44,37.81a1,1,0,0,1-.33-.07,37.08,37.08,0,0,1-5.21-2.83,32.68,32.68,0,0,1-3.2-2.38.84.84,0,0,1-.28-.53,28,28,0,0,1,0-7.32.81.81,0,0,1,.4-.61,34.15,34.15,0,0,1,3.08-2.28,38.42,38.42,0,0,1,5.2-2.85,27.54,27.54,0,0,1,6.23-2c4-.74,7-.13,8.63,1.69,2,2.33,1.23,6.15-2.1,10.22a1,1,0,0,1-.65.31.86.86,0,0,1-.65-.31,19.85,19.85,0,0,0-1.91-2.06c0,.5.05,1,.05,1.52A29.86,29.86,0,0,1,61.46,32a.9.9,0,0,1-.29.53A32.73,32.73,0,0,1,58,34.9a34,34,0,0,1-5.19,2.84A1,1,0,0,1,52.44,37.81ZM45,31.46a30.5,30.5,0,0,0,2.78,2,35,35,0,0,0,4.63,2.55,31.88,31.88,0,0,0,4.61-2.55,31.9,31.9,0,0,0,2.79-2A25,25,0,0,0,60,28.34a26.27,26.27,0,0,0-.23-3.44.84.84,0,0,1,.43-.84.82.82,0,0,1,.93.09,29.2,29.2,0,0,1,3,2.88C66.46,24,67,21.29,65.7,19.75,64.54,18.41,62,18,58.63,18.61a25.91,25.91,0,0,0-5.85,1.86,35,35,0,0,0-5,2.72,30.9,30.9,0,0,0-2.79,2,24.85,24.85,0,0,0-.19,3.11A27.08,27.08,0,0,0,45,31.46Z"/><path class="cls-2" d="M46.39,17.79a20.44,20.44,0,0,0-2.13,7h0a26.24,26.24,0,0,0-3.58,3.57c-2.94-3.59-3.92-7.07-2.12-9.16C40,17.55,42.86,17.14,46.39,17.79Z"/><path class="cls-3" d="M40.66,29.19a.83.83,0,0,1-.65-.31c-3.33-4.07-4.11-7.89-2.1-10.22,1.58-1.82,4.65-2.42,8.63-1.69a.79.79,0,0,1,.6.46.83.83,0,0,1,0,.75,19.42,19.42,0,0,0-2,6.72.85.85,0,0,1-.41.61,24.88,24.88,0,0,0-3.37,3.37.86.86,0,0,1-.65.31Zm2.79-10.86c-2,0-3.47.49-4.28,1.42C37.84,21.29,38.42,24,40.69,27a26.76,26.76,0,0,1,2.79-2.7,22.3,22.3,0,0,1,1.66-5.9A14.5,14.5,0,0,0,43.45,18.33Z"/><path class="cls-2" d="M52.44,19.7a36.54,36.54,0,0,0-5.08,2.79,31.55,31.55,0,0,0-3.1,2.3,20.44,20.44,0,0,1,2.13-7A26.56,26.56,0,0,1,52.44,19.7Z"/><path class="cls-3" d="M44.26,25.62a.79.79,0,0,1-.4-.1.85.85,0,0,1-.43-.84,21.43,21.43,0,0,1,2.23-7.29.83.83,0,0,1,.88-.42,27.23,27.23,0,0,1,6.24,2,.83.83,0,0,1,.5.76.86.86,0,0,1-.5.77,35,35,0,0,0-5,2.72,31.49,31.49,0,0,0-3,2.23A.81.81,0,0,1,44.26,25.62Zm2.59-6.9a18.54,18.54,0,0,0-1.39,4.07c.46-.34.95-.67,1.44-1a38.41,38.41,0,0,1,3.49-2A24.91,24.91,0,0,0,46.85,18.72Z"/><path class="cls-2" d="M66.33,37.47c-1.23,1.42-3.55,1.94-6.43,1.64-.45,0-.94-.12-1.42-.2a20.12,20.12,0,0,0,2.15-7,26.66,26.66,0,0,0,3.58-3.53C67.15,31.92,68.11,35.41,66.33,37.47Z"/><path class="cls-3" d="M61.43,40c-.52,0-1.06,0-1.62-.08l-1.47-.21a.85.85,0,0,1-.61-.46.82.82,0,0,1,0-.76,19.42,19.42,0,0,0,2-6.73.89.89,0,0,1,.3-.54,25,25,0,0,0,3.47-3.42.85.85,0,0,1,.64-.3h0a.82.82,0,0,1,.64.31C68.19,31.88,69,35.69,67,38h0C65.81,39.34,63.91,40,61.43,40Zm-1.69-1.77.25,0c2.68.28,4.71-.2,5.71-1.35,1.3-1.51.71-4.25-1.52-7.26a26.91,26.91,0,0,1-2.77,2.65A22,22,0,0,1,59.74,38.25Zm6.59-.78h0Z"/><path class="cls-2" d="M60.63,31.89a20.12,20.12,0,0,1-2.15,7,26.32,26.32,0,0,1-6-1.94,33.25,33.25,0,0,0,5.07-2.76A33.7,33.7,0,0,0,60.63,31.89Z"/><path class="cls-3" d="M58.48,39.74h-.15a26.59,26.59,0,0,1-6.23-2,.82.82,0,0,1-.49-.76.83.83,0,0,1,.5-.76,32.43,32.43,0,0,0,4.94-2.7,31.14,31.14,0,0,0,3-2.26.84.84,0,0,1,1.37.75,21.13,21.13,0,0,1-2.25,7.31A.83.83,0,0,1,58.48,39.74Zm-4-2.82A23.36,23.36,0,0,0,58,38a18.46,18.46,0,0,0,1.4-4.08c-.47.35-1,.69-1.46,1A35.06,35.06,0,0,1,54.5,36.92Z"/><path class="cls-2" d="M44,28.34a27,27,0,0,0,.23,3.55,26.66,26.66,0,0,1-3.58-3.53,26.24,26.24,0,0,1,3.58-3.57A27.15,27.15,0,0,0,44,28.34Z"/><path class="cls-3" d="M44.24,32.72a.82.82,0,0,1-.53-.19A27.07,27.07,0,0,1,40,28.89a.83.83,0,0,1,0-1.06,26.81,26.81,0,0,1,3.7-3.68.82.82,0,0,1,.93-.09.83.83,0,0,1,.43.84,25.84,25.84,0,0,0,0,6.88.84.84,0,0,1-.42.84A.86.86,0,0,1,44.24,32.72Zm-2.49-4.37c.46.52,1,1,1.47,1.52,0-.51,0-1,0-1.53s0-1,0-1.52A20.81,20.81,0,0,0,41.75,28.35Z"/><path class="cls-2" d="M64.21,28.36a26.66,26.66,0,0,1-3.58,3.53,27.51,27.51,0,0,0,0-7.1A25.68,25.68,0,0,1,64.21,28.36Z"/><path class="cls-3" d="M60.63,32.72a.86.86,0,0,1-.41-.1.84.84,0,0,1-.42-.84,25.84,25.84,0,0,0,0-6.88.84.84,0,0,1,.43-.84.82.82,0,0,1,.93.09,26.26,26.26,0,0,1,3.7,3.68.83.83,0,0,1,0,1.06,27.66,27.66,0,0,1-3.69,3.64A.82.82,0,0,1,60.63,32.72Zm1-5.9c0,.5.05,1,.05,1.52s0,1-.05,1.53c.52-.5,1-1,1.47-1.52A20.81,20.81,0,0,0,61.65,26.82Z"/><path class="cls-2" d="M60.86,28.34a27,27,0,0,1-.23,3.55,33.7,33.7,0,0,1-3.12,2.32A33.25,33.25,0,0,1,52.44,37a34.31,34.31,0,0,1-5.08-2.76,32.41,32.41,0,0,1-3.12-2.32,27.51,27.51,0,0,1,0-7.1h0a31.55,31.55,0,0,1,3.1-2.3,36.54,36.54,0,0,1,5.08-2.79,35.34,35.34,0,0,1,5.07,2.79,31.55,31.55,0,0,1,3.1,2.3h0A27.15,27.15,0,0,1,60.86,28.34Z"/><path class="cls-3" d="M52.44,37.81a1,1,0,0,1-.33-.07,37.08,37.08,0,0,1-5.21-2.83,32.68,32.68,0,0,1-3.2-2.38.84.84,0,0,1-.28-.53,28,28,0,0,1,0-7.32.81.81,0,0,1,.4-.61,34.15,34.15,0,0,1,3.08-2.28,38.42,38.42,0,0,1,5.2-2.85.89.89,0,0,1,.68,0A36.5,36.5,0,0,1,58,21.79a34.54,34.54,0,0,1,3.12,2.31.88.88,0,0,1,.37.58,28,28,0,0,1,0,7.32.9.9,0,0,1-.29.53A32.73,32.73,0,0,1,58,34.9a34,34,0,0,1-5.19,2.84A1,1,0,0,1,52.44,37.81ZM45,31.46a30.5,30.5,0,0,0,2.78,2,35,35,0,0,0,4.63,2.55,31.88,31.88,0,0,0,4.61-2.55,31.9,31.9,0,0,0,2.79-2A25,25,0,0,0,60,28.34a27,27,0,0,0-.18-3.11,32.64,32.64,0,0,0-2.8-2.05,34.75,34.75,0,0,0-4.61-2.56,35.19,35.19,0,0,0-4.62,2.57,30.9,30.9,0,0,0-2.79,2,24.85,24.85,0,0,0-.19,3.11A27.08,27.08,0,0,0,45,31.46Zm15.6.43h0Z"/><circle class="cls-4" cx="52.43" cy="28.34" r="2.87"/><path class="cls-5" d="M32.76,40.53H28.4a.83.83,0,1,1,0-1.66h4.36a.83.83,0,1,1,0,1.66Z"/><path class="cls-5" d="M37.25,44.34h-9a.83.83,0,1,1,0-1.66h9a.83.83,0,1,1,0,1.66Z"/><path class="cls-5" d="M47.22,48.57H28.28a.84.84,0,0,1-.83-.84.83.83,0,0,1,.83-.83H47.22a.83.83,0,0,1,.83.83A.84.84,0,0,1,47.22,48.57Z"/></g></g></svg>