<svg width="35" height="35" viewBox="0 0 35 35" fill="none" xmlns="http://www.w3.org/2000/svg">
<g clip-path="url(#clip0_889_9050)">
<path d="M34.9805 17.085C34.9803 13.8992 34.085 10.7776 32.3965 8.07612C30.7081 5.3746 28.2946 3.20186 25.4311 1.80564C22.5676 0.409412 19.3695 -0.154113 16.2012 0.179314C13.033 0.51274 10.0222 1.7297 7.51208 3.69144C5.002 5.65318 3.09365 8.28076 2.00462 11.2746C0.915586 14.2684 0.689699 17.508 1.35271 20.624C2.01572 23.7399 3.54095 26.6069 5.7545 28.898C7.96804 31.1891 10.7808 32.8122 13.8721 33.5821V22.2487H10.3659V17.085H13.8721V14.8466C13.8721 9.05956 16.493 6.34664 22.1738 6.34664C23.4174 6.365 24.656 6.50737 25.8713 6.77164V11.4821C25.4676 11.4396 24.7734 11.4183 23.9021 11.4183C21.1184 11.4183 20.0417 12.4737 20.0417 15.2221V17.085H25.5951L24.6388 22.2771H20.0417V33.9575C24.1625 33.4541 27.9566 31.4603 30.7085 28.3522C33.4605 25.244 34.98 21.2363 34.9805 17.085Z" fill="#0866FF"/>
<path d="M24.6391 22.2781L25.5954 17.086H20.042V15.2514C20.042 12.5031 21.1187 11.4476 23.9025 11.4476C24.7737 11.4476 25.4679 11.4476 25.8716 11.5114V6.80098C24.6563 6.53671 23.4177 6.39433 22.1741 6.37598C16.5075 6.37598 13.8725 9.06056 13.8725 14.876V17.086H10.3662V22.2781H13.8725V33.6114C15.2176 33.9354 16.5972 34.0947 17.9808 34.086C18.6699 34.0863 19.3583 34.0437 20.042 33.9585V22.2781H24.6391Z" fill="white"/>
</g>
<defs>
<clipPath id="clip0_889_9050">
<rect width="34" height="34" fill="white" transform="translate(0.980469 0.0859375)"/>
</clipPath>
</defs>
</svg>
