<svg width="100" height="100" viewBox="0 0 100 100" fill="none" xmlns="http://www.w3.org/2000/svg">
<circle cx="50" cy="50" r="50" fill="#FFBC59"/>
<g clip-path="url(#clip0_1801_7261)">
<path d="M80.5268 33.4085C80.5268 33.4598 80.5268 33.5239 80.5137 33.5624C80.4481 34.0626 80.4481 34.5628 80.4874 35.0759C80.5137 35.2041 80.5399 35.3324 80.6449 35.435C80.8154 35.6274 81.0777 35.5889 81.1827 35.3581C81.2352 35.2426 81.2352 35.1272 81.2089 35.0118C81.0777 34.5244 81.0515 34.0113 81.0384 33.5111C81.0384 33.4855 81.0384 33.447 81.0384 33.4085C81.1827 33.3957 81.3139 33.3829 81.4319 33.3829C81.5238 33.37 81.6025 33.3572 81.6681 33.3187C81.8648 33.2161 81.8648 32.9981 81.6549 32.8955C81.5762 32.857 81.4713 32.8442 81.3795 32.8442C81.0515 32.857 80.7236 32.857 80.3956 32.857C80.2776 32.857 80.1595 32.8698 80.0414 32.8826C79.9758 32.8955 79.8971 32.8955 79.8447 32.934C79.7528 32.9724 79.7004 33.0366 79.7004 33.1263C79.7135 33.2161 79.7528 33.2674 79.8447 33.3059C79.8971 33.3444 79.9627 33.3572 80.0283 33.3572C80.1857 33.37 80.3563 33.3957 80.5268 33.4085ZM84.1342 33.9985C84.1342 34.0113 84.1473 34.0242 84.1473 34.0242C84.1998 34.3705 84.2523 34.7039 84.2916 35.0374C84.3048 35.1528 84.3179 35.2554 84.3966 35.3452C84.5671 35.5633 84.8295 35.5376 84.9475 35.3068C85 35.1913 85.0131 35.0759 84.9869 34.9476C84.9082 34.5628 84.8688 34.1781 84.7901 33.8061C84.7376 33.5752 84.6721 33.3572 84.6065 33.152C84.5671 33.0237 84.4753 32.9339 84.3179 32.9211C84.1605 32.8955 84.0424 32.9724 83.9768 33.0879C83.8981 33.1905 83.8325 33.2931 83.78 33.4085C83.6882 33.6137 83.6095 33.8189 83.5046 34.0113C83.4914 34.0626 83.4783 34.1011 83.4521 34.1396C83.439 34.1139 83.4259 34.1011 83.4259 34.1011C83.2553 33.7805 83.0979 33.4598 82.9274 33.152C82.9011 33.1263 82.888 33.1007 82.8749 33.075C82.7962 32.9596 82.7044 32.8955 82.5601 32.8955C82.4289 32.9083 82.3239 32.9853 82.2584 33.1007C82.2321 33.152 82.2321 33.1905 82.219 33.2418C82.1665 33.6522 82.1009 34.0626 82.0485 34.4731C82.0222 34.7039 82.0091 34.9348 82.0091 35.1657C81.996 35.217 82.0091 35.2811 82.0353 35.3324C82.0616 35.435 82.1403 35.4991 82.2452 35.512C82.3764 35.5248 82.4682 35.4863 82.5076 35.3837C82.5469 35.3068 82.5601 35.2426 82.5732 35.1785C82.6257 34.9476 82.665 34.7296 82.7044 34.5115C82.7306 34.3833 82.7437 34.2807 82.7831 34.1396C82.8093 34.1909 82.8355 34.2294 82.8618 34.2678C82.9798 34.4218 83.0979 34.5757 83.2422 34.7039C83.3865 34.8065 83.5046 34.7937 83.6226 34.6783C83.6489 34.6526 83.662 34.6398 83.6882 34.6141C83.8063 34.4346 83.9506 34.255 84.0686 34.0755C84.0949 34.0498 84.108 34.0242 84.1342 33.9985Z" fill="white"/>
<path d="M53.9087 33.6605C53.8175 33.9043 53.8001 34.0799 53.8422 34.2258C53.8887 34.4243 54.0094 34.4893 54.1732 34.4388C55.714 34.0663 59.0927 35.1237 60.3436 35.4184C60.6386 35.4803 60.8786 35.1079 60.6773 34.7741C60.3835 34.4508 57.0063 33.0666 55.7177 32.9911C55.2126 32.9632 54.3096 32.8366 53.9087 33.6605Z" fill="white"/>
<path d="M67.1133 29.1798C67.2775 29.2725 67.3693 29.3609 67.4146 29.4597C67.4821 29.5892 67.4465 29.6789 67.3331 29.7246C66.3146 30.2106 64.9593 32.303 64.4122 33.0247C64.2796 33.1907 63.9737 33.0942 63.9275 32.8212C63.937 32.5125 65.1384 30.2418 65.8089 29.6233C66.0724 29.3819 66.5077 28.9081 67.1133 29.1798Z" fill="white"/>
<path d="M59.0023 28.1498C59.1996 28.0044 59.4046 27.9535 59.5093 28.048C61.046 29.3329 61.8609 31.3677 62.3655 33.2306C62.3845 33.274 62.3857 33.3362 62.3705 33.4012C62.3642 33.4567 62.3227 33.5154 62.2568 33.5608C62.1864 33.6109 62.1258 33.6262 62.0973 33.583C61.4238 32.6873 57.5771 29.2024 59.0023 28.1498Z" fill="white"/>
<path d="M26.461 50.4276C26.8293 50.1595 27.2297 49.9363 27.6534 49.7631C28.0967 49.6392 28.5692 49.6597 28.9995 49.8217C29.4297 49.9837 29.7944 50.2782 30.0382 50.6608C30.2563 51.0424 30.3416 51.483 30.2814 51.9162C30.2212 52.3493 30.0187 52.7516 29.7043 53.0625C29.4606 53.3145 29.1839 53.534 28.8816 53.7154C27.5342 54.5665 26.1748 55.3709 24.8155 56.222C24.5373 56.435 24.2422 56.6261 23.9331 56.7933C23.4628 57.0226 22.9254 57.084 22.4137 56.9669C21.902 56.8499 21.4483 56.5616 21.1309 56.1521C20.8937 55.8621 20.6935 55.545 20.5347 55.2077C19.2469 52.5612 17.9114 49.9263 16.6713 47.2331C16.0989 46.0673 15.6339 44.7265 15.1808 43.4324C14.9848 43.0564 14.9465 42.6205 15.0741 42.2173C15.2017 41.8141 15.4852 41.4755 15.8642 41.2735C16.2432 41.0715 16.6878 41.0221 17.1036 41.1357C17.5193 41.2493 17.8733 41.517 18.0903 41.8818C18.7572 42.7484 19.3476 43.6689 19.855 44.6333C21.1428 46.965 22.371 49.2967 23.6111 51.5585C23.6833 51.6835 23.763 51.8041 23.8496 51.9199C24.783 51.5362 25.6609 51.0345 26.461 50.4276Z" fill="white"/>
<path d="M39.7761 49.6142C36.8309 52.9835 31.8943 52.1324 29.4141 47.7954C27.6493 44.7175 27.3393 39.6343 31.1789 36.4282C31.9988 35.7569 32.9792 35.2997 34.0287 35.0991C35.3155 34.9187 36.6277 35.1407 37.7777 35.7332C38.9277 36.3258 39.8567 37.2587 40.432 38.3985C42.5306 42.1293 42.2325 46.886 39.7761 49.6142ZM38.5837 41.7562C38.2708 40.8394 37.6431 40.0567 36.807 39.541C36.3339 39.2113 35.759 39.051 35.1792 39.0871C34.5993 39.1232 34.0499 39.3535 33.6233 39.7392C31.9182 41.2199 31.5604 44.7292 32.8005 46.8161C32.9586 47.1564 33.1907 47.4588 33.4808 47.7022C33.7709 47.9456 34.1119 48.1241 34.4799 48.2251C34.8479 48.3262 35.234 48.3474 35.6113 48.2873C35.9886 48.2271 36.3478 48.0871 36.664 47.877C37.5883 47.1763 38.2664 46.2115 38.604 45.1167C38.9417 44.0218 38.9221 42.8513 38.548 41.7679L38.5837 41.7562Z" fill="white"/>
<path d="M51.7955 43.2252C51.494 43.2886 51.1825 43.2924 50.8794 43.2363C50.5764 43.1802 50.2878 43.0655 50.0308 42.8988C49.8059 42.773 49.6123 42.6001 49.4639 42.3924C49.3156 42.1847 49.2162 41.9475 49.1729 41.6977C49.1295 41.448 49.1434 41.192 49.2133 40.9481C49.2833 40.7042 49.4078 40.4785 49.5777 40.2872C49.8737 39.9028 50.2939 39.6276 50.7701 39.5061C52.0134 39.1533 53.2933 38.9382 54.5858 38.8649C54.8698 38.8326 55.1575 38.8561 55.432 38.934C55.7066 39.012 55.9624 39.1427 56.1846 39.3187C56.4067 39.4946 56.5907 39.7122 56.7257 39.9586C56.8606 40.205 56.9439 40.4753 56.9706 40.7536C57.3432 42.1206 57.384 43.5539 57.0898 44.9391C56.0167 49.416 52.3202 50.9549 48.1706 49.5209C47.0058 49.1375 45.9845 48.4231 45.2373 47.469C44.2407 46.32 43.5341 44.9583 43.1744 43.4934C42.883 42.1889 42.9149 40.8353 43.2676 39.5454C43.6202 38.2555 44.2833 37.0667 45.2015 36.0784C46.0729 35.0043 47.2039 34.1589 48.4926 33.6185C49.3069 33.1796 50.2598 33.0548 51.1636 33.2687C51.3686 33.3242 51.5547 33.4323 51.7026 33.5818C51.8505 33.7313 51.9548 33.9168 52.0047 34.119C52.0546 34.3212 52.0482 34.5328 51.9863 34.7318C51.9243 34.9307 51.8091 35.1099 51.6525 35.2507C51.3547 35.5142 51.0312 35.7485 50.6866 35.9502C49.6265 36.6103 48.704 37.4608 47.9679 38.4568C47.4854 39.1013 47.1531 39.8414 46.9945 40.6249C46.8358 41.4084 46.8547 42.2164 47.0498 42.9921C47.3202 44.0497 47.9203 44.999 48.7668 45.7085C51.3901 48.0403 54.8004 45.7901 54.2042 42.6073C53.3338 42.8172 52.5706 43.0387 51.7955 43.2252Z" fill="white"/>
<path d="M67.8217 49.8007C63.9464 52.1325 59.5345 49.8007 58.5686 44.9041C57.8651 41.4065 59.2006 36.5098 63.8749 34.6444C64.8694 34.2561 65.9481 34.1197 67.0109 34.248C68.2878 34.4766 69.4592 35.0912 70.3598 36.0053C71.2604 36.9193 71.845 38.0867 72.0309 39.3429C72.8179 43.505 71.0293 47.947 67.8217 49.8007ZM69.1692 41.9544C69.168 40.9859 68.8176 40.0487 68.1795 39.3079C67.8384 38.8497 67.3453 38.5214 66.7843 38.3789C66.2232 38.2365 65.6291 38.2887 65.103 38.5268C63.0044 39.4128 61.5258 42.6306 62.0624 44.9974C62.1034 45.3688 62.2268 45.727 62.4241 46.0469C62.6214 46.3668 62.8878 46.6407 63.2047 46.8495C63.5215 47.0582 63.8812 47.1968 64.2585 47.2555C64.6359 47.3141 65.0218 47.2915 65.3892 47.1892C66.4985 46.8103 67.459 46.1022 68.1366 45.1637C68.8143 44.2252 69.1753 43.1032 69.1692 41.9544Z" fill="white"/>
<path d="M75.9499 50.7801C75.8914 51.2068 75.662 51.5933 75.312 51.8546C74.962 52.1158 74.5202 52.2305 74.0838 52.1733C73.6474 52.1161 73.2521 51.8917 72.9849 51.5495C72.7176 51.2074 72.6004 50.7754 72.6589 50.3487C72.7174 49.922 72.9469 49.5355 73.2968 49.2742C73.6468 49.0129 74.0886 48.8983 74.525 48.9555C74.9614 49.0127 75.3567 49.237 75.624 49.5792C75.8912 49.9214 76.0085 50.3534 75.9499 50.7801ZM74.9125 35.0525C75.1393 34.7138 75.472 34.4559 75.861 34.3173C76.2499 34.1786 76.6743 34.1666 77.0708 34.283C77.4739 34.3816 77.83 34.6126 78.0797 34.9374C78.3293 35.2621 78.4572 35.6608 78.4421 36.0668C78.3895 36.718 78.2899 37.3647 78.144 38.0021C77.7505 40.159 77.3689 42.3158 76.9516 44.4494C76.7608 45.3005 76.5104 46.1166 76.2361 46.9793C76.1407 47.249 75.9813 47.4927 75.7711 47.6905C75.6404 47.8393 75.4735 47.9534 75.2857 48.0223C75.0979 48.0913 74.8954 48.1128 74.6969 48.0849C74.4984 48.057 74.3102 47.9806 74.1499 47.8628C73.9896 47.7449 73.8623 47.5894 73.7798 47.4107C73.638 47.0901 73.561 46.7456 73.5532 46.3964C73.5532 44.9507 73.5532 43.4934 73.6486 42.036C73.8107 39.9562 74.1295 37.8909 74.6025 35.8569C74.6582 35.5844 74.7631 35.3238 74.9125 35.0875V35.0525Z" fill="white"/>
<path fill-rule="evenodd" clip-rule="evenodd" d="M21.4231 60.1488C21.2823 60.4561 21.2437 60.7987 21.3125 61.1284C21.3583 61.563 21.4588 61.9905 21.6118 62.4011C21.8028 62.9039 22.0166 63.4011 22.2801 64.0139C22.3407 64.1549 22.4041 64.3021 22.4704 64.457C22.8258 65.2872 23.2717 66.3482 23.8666 67.8837C24.035 68.3199 24.1845 68.7597 24.335 69.2025C24.3959 69.3814 24.4569 69.5609 24.5194 69.7408C24.7433 70.3804 25.1287 70.955 25.6395 71.4104C25.8564 71.6607 26.1441 71.8431 26.4667 71.9343C26.7956 72.0273 27.1454 72.0214 27.4708 71.9174C27.7962 71.8133 28.082 71.6159 28.2911 71.3508C28.4961 71.0909 28.618 70.7777 28.6417 70.4505C28.7747 69.8131 28.7293 69.1522 28.5101 68.5377C28.1622 67.5174 27.7659 66.4956 27.3089 65.4962L27.3068 65.4918C26.555 63.9282 25.7908 62.3754 24.9904 60.822L24.9844 60.8111C24.7501 60.4064 24.4457 60.0446 24.0847 59.742C23.8503 59.4719 23.527 59.2897 23.17 59.2269C22.8054 59.1628 22.4294 59.2274 22.109 59.4093C21.806 59.5785 21.5658 59.8374 21.4231 60.1488Z" fill="white"/>
<path fill-rule="evenodd" clip-rule="evenodd" d="M32.9057 56.2986C31.7269 56.0001 30.4958 55.9566 29.2982 56.1712C28.3706 56.2605 27.4583 56.4697 26.8248 56.8841C26.5026 57.095 26.2421 57.3658 26.0972 57.71C25.9515 58.0561 25.9329 58.4519 26.0523 58.8929C26.2703 59.7007 26.5534 60.4861 26.8355 61.269L26.8812 61.3958L26.8823 61.3986C27.7317 63.673 28.5892 65.9397 29.4545 68.1986C29.5554 68.5546 29.6981 68.898 29.8797 69.2219L29.8831 69.2279C30.123 69.6303 30.4307 69.9902 30.7932 70.2925C30.9745 70.4587 31.1987 70.5737 31.4418 70.6251C31.6873 70.6769 31.9426 70.6619 32.1799 70.5815C32.4173 70.5012 32.6275 70.3587 32.7877 70.1695C32.9453 69.9834 33.0485 69.7592 33.0864 69.5206C33.2428 68.8724 33.1927 68.1929 32.9427 67.5733C32.8647 67.3648 32.8035 67.1517 32.739 66.9274C32.7175 66.8526 32.6957 66.7765 32.6727 66.699C34.6534 65.942 36.7609 64.9241 37.502 62.5561C37.7922 61.7378 37.8164 60.8517 37.5712 60.0193C37.3258 59.186 36.8223 58.4474 36.1301 57.9052C35.188 57.1462 34.0875 56.5978 32.9057 56.2986ZM29.6382 59.2031C29.6772 59.1921 29.7165 59.1819 29.7559 59.1724C31.0454 58.9742 32.3647 59.2383 33.4709 59.9159C33.9584 60.2474 34.1581 60.6157 34.1924 60.9701C34.2278 61.335 34.0921 61.7304 33.8195 62.1105C33.3044 62.8285 32.3644 63.4032 31.5153 63.5103C30.8963 62.1165 30.2677 60.6663 29.6382 59.2031Z" fill="white"/>
<path d="M40.7646 53.7473C42.1684 53.1134 43.9073 53.0039 45.268 53.4496C45.6107 53.5472 45.908 53.7583 46.1091 54.0468C46.3089 54.3335 46.4011 54.679 46.3703 55.0244C46.3683 55.2486 46.312 55.4692 46.2061 55.6682C46.0983 55.8708 45.9422 56.045 45.751 56.1762C45.5598 56.3073 45.3391 56.3916 45.1076 56.4217C44.876 56.4519 44.6405 56.4271 44.4208 56.3494L44.4041 56.3435L44.3884 56.3354C44.276 56.2779 44.1566 56.2346 44.0331 56.2064L44.0253 56.2047C43.0681 55.9561 42.1652 56.368 41.8354 56.8741C41.6781 57.1154 41.6586 57.359 41.7896 57.5806C41.9299 57.8179 42.274 58.0842 42.9703 58.274C43.1618 58.3254 43.3581 58.375 43.5572 58.4254C44.1078 58.5648 44.68 58.7096 45.2333 58.9103L45.2354 58.9111C47.788 59.8607 48.7385 61.8274 48.4131 63.6772C48.0912 65.5065 46.5287 67.1713 44.179 67.564C43.324 67.7493 42.4342 67.7132 41.5977 67.4593C40.7591 67.2046 40.0032 66.7399 39.4051 66.1111L39.3895 66.0947C39.2007 65.8578 39.0737 65.5795 39.0174 65.2842C38.9656 65.0177 38.9929 64.7423 39.0959 64.4904C39.1983 64.24 39.3715 64.0233 39.595 63.8654C39.8311 63.6864 40.1157 63.579 40.4136 63.5566C40.7105 63.5343 41.0076 63.5974 41.2683 63.738C41.5287 63.861 41.7709 64.0179 41.9883 64.2045L41.9924 64.2079C42.377 64.5518 42.8423 64.6414 43.2885 64.5584C43.7412 64.4742 44.1669 64.2123 44.4407 63.8648C44.7127 63.5195 44.8219 63.1093 44.6923 62.7111C44.5619 62.31 44.1698 61.8606 43.3083 61.4849C43.0831 61.3914 42.8496 61.316 42.6067 61.2426C42.5412 61.2228 42.4746 61.2031 42.4072 61.1831C42.2276 61.1298 42.0428 61.0749 41.8616 61.0144C41.7368 60.9728 41.613 60.9334 41.4904 60.8943C41.1553 60.7876 40.8286 60.6836 40.5142 60.5441C39.8299 60.3163 39.2387 59.8789 38.8286 59.2966C38.4168 58.712 38.2096 58.0129 38.2378 57.3037C38.24 55.5754 39.3533 54.3847 40.7646 53.7473Z" fill="white"/>
<path d="M58.5619 53.5632C58.2897 53.4332 57.9887 53.3715 57.6861 53.3836C57.3834 53.3958 57.0886 53.4814 56.8283 53.6329C56.5696 53.7833 56.353 53.9939 56.1978 54.246C56.0555 54.4583 55.957 54.6957 55.9079 54.945C55.8588 55.1941 55.86 55.4501 55.9113 55.6986C55.962 56.018 56.0182 56.3286 56.0737 56.6349C56.1656 57.1418 56.255 57.6373 56.314 58.1425L56.3162 58.1553C56.4505 58.9476 56.5208 59.7489 56.5271 60.5519L56.5277 60.5633C56.5736 61.4305 56.2714 62.2808 55.6859 62.9338L55.6766 62.9454C55.4861 63.1841 55.2314 63.3663 54.9409 63.4716C54.6505 63.5769 54.3359 63.6011 54.0322 63.5415C53.7285 63.4819 53.4478 63.3409 53.2214 63.1342C52.995 62.9275 52.8317 62.6625 52.7502 62.3704C52.5762 61.7547 52.4755 61.1214 52.4499 60.4832L52.7471 55.8569C52.7515 55.7965 52.7565 55.7345 52.7616 55.6719C52.7729 55.5314 52.7845 55.3883 52.7893 55.2548C52.7963 55.0584 52.7903 54.8564 52.7435 54.6652C52.6956 54.4698 52.6045 54.2839 52.4429 54.1256C52.2829 53.9689 52.0669 53.8533 51.7951 53.7746C51.3036 53.6355 50.888 53.6399 50.5417 53.7836C50.1952 53.9273 49.9578 54.1941 49.7898 54.5023C49.6231 54.8079 49.516 55.1697 49.435 55.5321C49.3749 55.801 49.3266 56.0833 49.2807 56.352C49.2648 56.4446 49.2493 56.5355 49.2336 56.6238L49.2332 56.6264C48.9876 58.1 48.9145 59.5962 49.0153 61.086C49.0341 61.8911 49.2058 62.6858 49.5218 63.4295C49.8783 64.3891 50.524 65.2205 51.3737 65.814C52.2252 66.4087 53.2413 66.7364 54.2875 66.7537C55.3337 66.771 56.3606 66.4771 57.2322 65.911C58.1024 65.3457 58.7768 64.5355 59.1662 63.5876C59.7109 62.3801 59.9667 61.0669 59.9139 59.7481C59.8819 58.7853 59.8283 57.8151 59.775 56.8498C59.7488 56.3763 59.7227 55.9038 59.6993 55.4342C59.6875 54.9633 59.5287 54.5072 59.2441 54.1271C59.068 53.8868 58.8336 53.693 58.5619 53.5632Z" fill="white"/>
<path d="M68.1961 60.8173C68.1685 60.8516 68.1394 60.8871 68.109 60.924C67.8876 59.6752 67.6824 58.4268 67.4769 57.1765C67.4032 56.7279 67.3291 56.2774 67.2546 55.8282L67.2462 55.7781L67.219 55.7348C67.1677 55.6533 67.1626 55.5734 67.1626 55.403V55.3833L67.1595 55.3638C67.1039 55.0119 66.9411 54.6844 66.6924 54.4242C66.4444 54.1647 66.1223 53.9841 65.768 53.9057C65.4143 53.8204 65.0426 53.8392 64.6997 53.9598C64.3577 54.0801 64.0596 54.2963 63.8426 54.5813C63.6622 54.8 63.5143 55.0426 63.4035 55.3018C63.152 55.8602 62.8983 56.42 62.6439 56.9813L62.6395 56.991C62.0044 58.3923 61.365 59.803 60.7442 61.2248L60.7423 61.2294C60.3612 62.1513 60.0466 63.1227 59.7331 64.0911C59.6705 64.2844 59.6079 64.4776 59.5448 64.6703C59.4316 64.9759 59.3821 65.3005 59.3991 65.625C59.3785 65.9155 59.4496 66.2053 59.603 66.4552C59.7594 66.7102 59.9937 66.9108 60.2728 67.0289C60.5686 67.1557 60.8993 67.1826 61.2126 67.1054C61.5252 67.0283 61.8028 66.8519 62.0017 66.6039C62.2557 66.2984 62.4742 65.9652 62.6524 65.6122C63.1783 64.5604 63.6809 63.4958 64.1812 62.4358C64.3748 62.0258 64.5629 61.6586 64.7769 61.2587C64.7916 61.308 64.8066 61.3561 64.8221 61.4043C65.0464 62.3698 65.425 63.2946 65.9439 64.1448C66.0421 64.3249 66.1789 64.4823 66.3449 64.6062C66.5129 64.7316 66.7068 64.8196 66.9131 64.8643C67.1194 64.909 67.3332 64.9092 67.5396 64.8649C67.7457 64.8207 67.9402 64.7326 68.1083 64.6078L68.441 64.3643L71.0233 62.2376L70.8706 63.1891C70.661 64.497 70.453 65.794 70.232 67.0913C70.0874 67.6663 70.0876 68.2669 70.2326 68.8417C70.2954 69.1652 70.4554 69.463 70.6922 69.6972C70.931 69.9333 71.2368 70.0937 71.57 70.1577C71.9032 70.2216 72.2484 70.1862 72.5607 70.0559C72.8685 69.9276 73.1303 69.713 73.3133 69.4395C73.7391 68.923 74.0041 68.2977 74.0769 67.638C74.1865 66.7064 74.3103 65.7621 74.4342 64.8181C74.5769 63.73 74.7196 62.6422 74.8401 61.5753L74.8405 61.572C74.9565 60.4041 75.0126 59.2314 75.0087 58.058C75.0341 57.6872 74.9397 57.3178 74.7385 57.0021C74.5366 56.6853 74.2376 56.439 73.8842 56.2981C73.5166 56.1347 73.1051 56.091 72.7102 56.1736C72.3179 56.2556 71.9628 56.4578 71.6964 56.7507C71.2201 57.1814 70.7733 57.6423 70.3588 58.1304L70.356 58.1337C69.9035 58.685 69.4541 59.2471 69.0076 59.8056C68.7361 60.1451 68.4654 60.4838 68.1961 60.8173Z" fill="white"/>
</g>
<defs>
<clipPath id="clip0_1801_7261">
<rect width="70" height="44" fill="white" transform="translate(15 28)"/>
</clipPath>
</defs>
</svg>
