<svg width="152" height="41" viewBox="0 0 152 41" fill="none" xmlns="http://www.w3.org/2000/svg">
<path d="M99.1963 14.1097C97.7291 16.4963 95.2356 21.0441 98.5407 23.1125C99.648 23.8055 101.111 23.6944 102.311 23.3506C103.568 22.9908 104.78 22.3704 105.87 21.6549C107.245 20.7537 108.544 19.6827 109.619 18.4354C110.347 17.5897 110.511 16.2347 109.619 15.4157C108.819 14.681 107.376 14.5112 106.599 15.4157C106.211 15.8663 105.796 16.2923 105.357 16.6928C105.148 16.8839 104.934 17.0686 104.715 17.248C104.606 17.3367 104.489 17.4189 104.384 17.5129C104.907 17.0451 104.469 17.4434 104.311 17.5566C103.845 17.893 103.36 18.2069 102.859 18.4899C102.637 18.6148 102.412 18.7344 102.183 18.8476C102.073 18.9021 101.962 18.9523 101.851 19.0046C101.391 19.2192 102.341 18.822 101.875 18.995C101.455 19.1509 101.037 19.2769 100.598 19.3687C100.183 19.4552 101.055 19.3463 100.83 19.3378C100.747 19.3345 100.66 19.3506 100.577 19.3516C100.5 19.3527 100.415 19.3367 100.339 19.3442C100.131 19.3644 100.729 19.3741 100.738 19.4008C100.737 19.3965 100.59 19.3709 100.58 19.3687C100.557 19.3634 100.391 19.3313 100.385 19.3068C100.389 19.3207 101.01 19.609 100.679 19.4114C100.451 19.2758 101.167 19.8535 100.926 19.5972C100.676 19.3313 101.264 20.0799 101.098 19.8215C101.076 19.7873 101.054 19.7489 101.039 19.7115C101.033 19.6965 101.211 20.2849 101.196 20.0756C101.195 20.0607 101.133 19.8588 101.142 19.8578C101.202 19.8482 101.168 20.5764 101.188 20.1151C101.192 20.0105 101.197 19.9026 101.199 19.798C101.202 19.4392 101.076 20.4002 101.186 19.9283C101.22 19.7788 101.253 19.6293 101.295 19.4819C101.342 19.3153 101.396 19.1509 101.455 18.9875C101.488 18.8967 101.7 18.3586 101.562 18.6981C101.432 19.0163 101.545 18.7419 101.581 18.664C101.628 18.5636 101.674 18.4611 101.723 18.3607C101.828 18.1429 101.938 17.9282 102.051 17.7147C102.313 17.2213 102.596 16.7398 102.889 16.2635C103.475 15.311 103.127 13.8716 102.122 13.342C101.076 12.7931 99.821 13.0921 99.1963 14.1097Z" fill="#19B9AA"/>
<path d="M109.93 20.8298C111.421 21.0294 113.024 21.0593 114.351 20.2243C115.825 19.2953 116.646 17.7171 116.336 15.9776C116.052 14.3876 114.615 13.1052 113.063 12.8062C111.576 12.52 110.123 12.9365 108.844 13.6989C106.424 15.1415 104.481 17.9232 106.01 20.7208C107.196 22.8928 109.993 24.4988 112.464 24.4219C115.251 24.3343 117.945 22.6643 120.15 21.0796C121.286 20.2628 122.34 19.3658 123.376 18.4272C123.478 18.3353 123.582 18.2499 123.685 18.1591C123.924 17.9477 123.268 18.408 123.719 18.1474C123.811 18.094 123.908 18.0385 123.999 17.9819C124.417 17.716 123.6 18.0748 124.06 17.9766C123.835 18.0246 123.701 18.0097 123.488 17.9627C123.871 18.047 123.239 17.8345 123.168 17.7694C123.204 17.8025 122.86 17.3134 122.901 17.3209C122.933 17.4149 122.956 17.511 122.975 17.6082C122.94 17.3156 122.928 17.2515 122.935 17.4181C122.924 17.5163 122.979 17.7139 122.924 17.7982C122.935 17.7203 122.946 17.6434 122.956 17.5654C122.941 17.6594 122.925 17.7534 122.908 17.8463C122.838 18.2521 122.765 18.66 122.727 19.07C122.646 19.936 122.815 20.8586 123.269 21.6093C124.097 22.9782 125.599 23.7182 127.156 23.841C128.701 23.9638 130.195 23.3092 131.546 22.644C132.61 22.1197 133.628 21.5046 134.593 20.8169C139.054 17.6359 142.312 13.2344 146.116 9.35819C146.9 8.56053 146.971 7.12325 146.116 6.33841C145.27 5.5621 143.932 5.48629 143.096 6.33841C140.195 9.29413 137.643 12.5926 134.57 15.3807C134.236 15.6839 133.897 15.9808 133.55 16.2691C133.354 16.4314 133.154 16.5884 132.957 16.7486C132.691 16.9632 133.364 16.4528 132.918 16.7763C132.804 16.8596 132.691 16.945 132.576 17.0283C131.736 17.6359 130.857 18.189 129.941 18.6738C129.702 18.7998 129.461 18.9216 129.218 19.039C129.103 19.0946 128.986 19.149 128.87 19.2045C128.496 19.3818 128.767 19.2526 128.849 19.2206C128.581 19.3263 128.311 19.4234 128.032 19.4971C127.909 19.5302 127.783 19.5494 127.661 19.5826C127.504 19.6114 127.538 19.6071 127.76 19.5719C127.665 19.5804 127.57 19.5847 127.475 19.5836C127.376 19.5836 127.064 19.652 127.367 19.5975C127.649 19.5462 127.34 19.5879 127.209 19.5516C127.152 19.5356 126.96 19.4491 126.922 19.4576C126.962 19.4491 127.383 19.6637 127.028 19.48C126.694 19.3071 127.076 19.4929 127.098 19.5623C127.103 19.5793 126.881 19.3722 126.886 19.3636C126.835 19.4672 127.172 19.715 126.924 19.3903C126.848 19.2494 126.871 19.3092 126.993 19.5708C126.98 19.5238 126.966 19.4768 126.953 19.4299C126.961 19.4961 126.969 19.5623 126.977 19.6285C126.971 19.5356 126.972 19.4427 126.977 19.3498C126.979 19.2825 127.032 18.8949 126.989 19.1661C126.935 19.4929 127.046 18.8789 127.044 18.8874C127.066 18.7625 127.085 18.6386 127.103 18.5126C127.211 17.7651 127.257 17.071 127.061 16.3257C126.657 14.7848 125.244 13.6604 123.635 13.7544C122.219 13.8366 121.1 14.7165 120.103 15.6423C119.713 16.0043 119.313 16.3556 118.902 16.6941C118.781 16.7934 118.658 16.8906 118.537 16.9888C118.478 17.0369 118.213 17.2291 118.524 17.0006C118.272 17.1864 118.022 17.3743 117.766 17.5548C116.844 18.2029 115.88 18.7913 114.88 19.3145C114.656 19.432 114.43 19.5462 114.201 19.6541C114.086 19.7086 113.969 19.7641 113.851 19.8132C114.209 19.6637 113.896 19.7908 113.826 19.8132C113.553 19.9008 113.287 19.9979 113.007 20.0673C112.854 20.1047 112.701 20.1378 112.546 20.1634C112.852 20.1133 112.665 20.1453 112.464 20.1517C112.308 20.157 112.154 20.1496 111.999 20.1432C112.092 20.1474 112.412 20.2382 112.011 20.1367C111.843 20.094 111.677 20.0503 111.513 19.9937C111.526 19.9979 111.257 19.9114 111.255 19.8965C111.261 19.9531 111.693 20.0972 111.306 19.905C111.083 19.794 110.866 19.6701 110.656 19.5356C110.57 19.4811 110.49 19.4192 110.405 19.3658C110.141 19.2035 110.78 19.7086 110.418 19.3775C110.271 19.2441 110.122 19.1159 109.984 18.9728C109.992 18.9814 109.787 18.7774 109.791 18.7582C109.776 18.8148 110.037 19.1512 109.834 18.7977C109.791 18.723 109.751 18.6322 109.697 18.566C109.622 18.4197 109.648 18.4912 109.776 18.7796C109.752 18.7208 109.732 18.66 109.716 18.5991C109.724 18.5361 109.631 18.1976 109.693 18.5788C109.779 19.1084 109.724 18.1186 109.697 18.6269C109.679 18.9589 109.687 18.6781 109.729 18.5831C109.778 18.4304 109.747 18.4934 109.635 18.771C109.664 18.7059 109.696 18.6429 109.731 18.5809C109.779 18.4976 109.827 18.4133 109.88 18.3332C109.92 18.2713 109.963 18.2104 110.008 18.1506C109.842 18.3631 109.81 18.409 109.914 18.2894C110.106 18.1122 110.272 17.9136 110.472 17.7427C110.529 17.6936 110.805 17.5014 110.566 17.6626C110.306 17.8377 110.751 17.5452 110.802 17.5121C111.016 17.3743 111.237 17.2483 111.465 17.1351C111.562 17.0871 111.761 16.9098 111.537 17.0935C111.369 17.1618 111.369 17.1639 111.537 17.0977C111.618 17.0668 111.7 17.0411 111.783 17.0187C111.853 16.9995 112.216 16.9119 111.923 16.9696C111.625 17.0283 112.169 16.9803 112.242 16.976C112.547 16.9621 111.889 16.8895 112.181 16.9792C112.329 17.0241 112.294 17.0006 112.073 16.9087C112.141 16.9397 112.206 16.976 112.269 17.0177C112.523 17.1255 112.002 16.7582 112.191 16.96C112.301 17.0721 112.271 17.023 112.103 16.8105C112.146 16.8703 112.186 16.9333 112.221 16.9995C112.394 17.2227 112.096 16.629 112.174 16.8981C112.215 17.0593 112.208 16.991 112.156 16.693C112.149 16.8874 112.154 16.8906 112.172 16.7026C112.177 16.6567 112.183 16.6097 112.189 16.5638C112.132 16.7432 112.135 16.7496 112.199 16.5809C112.273 16.4165 112.265 16.4175 112.175 16.5841C112.354 16.3716 112.39 16.3246 112.284 16.4421C112.222 16.4966 112.034 16.7475 112.226 16.5275C112.418 16.3065 112.083 16.5948 112.001 16.6493C111.771 16.8009 112.365 16.5713 112.095 16.6055C112.042 16.6119 111.473 16.7219 111.749 16.6962C112.026 16.6706 111.624 16.692 111.56 16.693C111.369 16.6973 111.178 16.6898 110.987 16.677C110.634 16.6535 110.285 16.6065 109.936 16.5596C108.824 16.4111 107.753 17.6477 107.8 18.6952C107.852 19.9787 108.738 20.6707 109.93 20.8298Z" fill="#19B9AA"/>
<path d="M131.286 14.7401C136.975 14.7231 142.665 14.706 148.355 14.6889C149.472 14.6857 150.542 13.7086 150.49 12.5532C150.439 11.3989 149.552 10.4144 148.355 10.4176C142.665 10.4347 136.975 10.4518 131.286 10.4689C130.169 10.4721 129.099 11.4491 129.15 12.6045C129.201 13.7588 130.089 14.7433 131.286 14.7401Z" fill="#19B9AA"/>
<path d="M1.54963 4.18303C11.5875 6.70308 22.0279 7.71858 32.3616 7.12274C35.3708 6.94868 38.3662 6.6262 41.3498 6.20014C40.9717 4.82693 40.5927 3.45478 40.2146 2.08157C34.2079 4.51512 28.6818 7.85205 23.7226 12.0262C18.9141 16.0732 14.7387 20.8997 11.3899 26.2175C9.45925 29.2832 7.84892 32.5251 6.49808 35.8855C6.08055 36.9245 6.95299 38.2763 7.98988 38.5123C9.22539 38.7942 10.1694 38.1332 10.6168 37.0206C10.6873 36.8454 10.7588 36.6693 10.8304 36.4941C10.8581 36.4269 10.8816 36.3297 10.9233 36.2688C10.8902 36.3169 10.7385 36.6992 10.8977 36.3308C11.0472 35.9826 11.1988 35.6367 11.3547 35.2918C11.6665 34.602 11.9922 33.9186 12.3307 33.2426C12.9971 31.9143 13.7147 30.6115 14.4825 29.3387C15.2641 28.0424 16.096 26.777 16.9748 25.5458C17.1788 25.2596 17.386 24.9756 17.5953 24.6937C17.7085 24.542 17.8216 24.3904 17.9359 24.2399C17.985 24.1747 18.0341 24.1106 18.0833 24.0466C18.3267 23.7241 17.9338 24.2345 18.0961 24.0295C18.5478 23.4561 19.0038 22.8859 19.4726 22.3263C21.4193 20.007 23.5432 17.8362 25.8199 15.8393C26.3688 15.3577 26.9262 14.8868 27.4922 14.4255C27.7858 14.1863 28.0816 13.9504 28.3796 13.7176C28.4426 13.6685 28.5045 13.6129 28.5718 13.5681C28.559 13.5766 28.2685 13.7998 28.4607 13.6546C28.6337 13.5243 28.8046 13.393 28.9776 13.2627C30.1896 12.3561 31.4358 11.4965 32.7151 10.686C34.13 9.78908 35.5844 8.95404 37.0719 8.18415C37.8162 7.79973 38.5691 7.43027 39.3294 7.07895C39.7223 6.89743 40.1164 6.72017 40.5136 6.54825C40.5884 6.51621 40.6621 6.48418 40.7368 6.45215C40.7859 6.43079 41.1212 6.29197 40.8553 6.40089C40.583 6.51301 40.9087 6.37953 40.9749 6.35284C41.0999 6.30158 41.2248 6.25033 41.3508 6.20014C42.3824 5.78262 43.226 4.75859 42.8426 3.57331C42.4497 2.35813 41.4053 1.91178 40.2157 2.08157C40.047 2.10506 39.8793 2.12855 39.7106 2.15311C39.3208 2.21077 40.22 2.08797 39.5707 2.17233C39.3005 2.20757 39.0314 2.24174 38.7613 2.27484C38.1206 2.35386 37.4777 2.42647 36.8359 2.49161C35.5844 2.62081 34.3307 2.72546 33.076 2.80661C30.5655 2.96892 28.0485 3.03726 25.5326 3.01057C23.0509 2.98494 20.5703 2.86641 18.0972 2.65712C16.8435 2.55034 15.592 2.42113 14.3436 2.26737C14.0735 2.23426 13.8044 2.19903 13.5342 2.16486C12.8849 2.08157 13.7841 2.20223 13.3943 2.14564C13.2256 2.12108 13.0579 2.09865 12.8892 2.07409C12.2837 1.9876 11.6783 1.8947 11.0739 1.79646C8.25471 1.33943 5.45585 0.75854 2.68583 0.0623229C1.60302 -0.206767 0.318386 0.414703 0.057829 1.5562C-0.194185 2.66353 0.391001 3.89259 1.54963 4.18303Z" fill="#19B9AA"/>
<path d="M14.9065 17.1548C23.0276 19.0961 31.4348 19.3321 39.6605 17.9279C40.7647 17.7389 41.4834 16.3229 41.1523 15.301C40.7668 14.1104 39.7086 13.6075 38.5254 13.8093C38.0246 13.8947 37.5227 13.9759 37.0186 14.0485C36.9332 14.0613 36.2359 14.1542 36.6801 14.0965C36.411 14.1307 36.1419 14.1638 35.8728 14.1959C34.9299 14.3048 33.9849 14.3902 33.0377 14.4532C31.1102 14.5803 29.1763 14.6123 27.2445 14.5493C25.3139 14.4863 23.3842 14.3315 21.4706 14.0752C21.9149 14.135 21.2176 14.0367 21.1321 14.0239C20.8972 13.9887 20.6633 13.9535 20.4284 13.915C19.9596 13.8403 19.4919 13.7591 19.0263 13.6726C18.0268 13.4868 17.0326 13.2733 16.0427 13.0373C14.9578 12.7778 13.6774 13.3779 13.4158 14.529C13.1659 15.6235 13.7447 16.8771 14.9065 17.1548Z" fill="#19B9AA"/>
<path d="M47.3689 13.8164C48.4859 13.8164 49.5559 12.834 49.5046 11.6808C49.4523 10.5233 48.566 9.54517 47.3689 9.54517C46.252 9.54517 45.182 10.5276 45.2332 11.6808C45.2855 12.8383 46.1719 13.8164 47.3689 13.8164Z" fill="#19B9AA"/>
<path d="M52.7107 13.6866C53.8277 13.6866 54.8977 12.7042 54.8464 11.5509C54.7941 10.3934 53.9078 9.41528 52.7107 9.41528C51.5937 9.41528 50.5238 10.3977 50.575 11.5509C50.6273 12.7084 51.5137 13.6866 52.7107 13.6866Z" fill="#19B9AA"/>
<path d="M43.1837 16.5654C42.1596 18.3465 41.2872 20.2536 41.7069 22.353C42.1094 24.3626 43.7732 25.9878 45.8544 26.085C47.784 26.1747 49.6923 24.9018 50.9246 23.5051C52.08 22.1949 52.9375 20.5932 53.2216 18.858C53.401 17.7603 52.9364 16.5056 51.7298 16.2312C50.7014 15.9973 49.295 16.544 49.1028 17.7229C49.0558 18.0123 48.996 18.2974 48.916 18.5793C48.8797 18.7074 48.8401 18.8345 48.7964 18.9594C48.7526 19.0865 48.6768 19.5297 48.7771 19.0427C48.697 19.4325 48.2635 20.1565 47.972 20.4191C48.3415 20.086 47.9827 20.3946 47.9036 20.4843C47.8161 20.5847 47.7242 20.6818 47.6313 20.7769C47.4936 20.9178 47.1764 21.3268 46.9778 21.3663C47.0365 21.3193 47.0963 21.2723 47.1551 21.2264C47.0899 21.2734 47.0248 21.3193 46.9575 21.3642C46.84 21.4432 46.7215 21.5201 46.5987 21.5905C46.5346 21.6279 46.0157 21.85 46.4428 21.6973C46.2997 21.7486 46.1459 21.7774 46.0039 21.8297C45.88 21.8554 45.8854 21.8575 46.0199 21.834C46.1844 21.8137 46.1587 21.8094 45.9441 21.8201C46.053 21.7294 46.2751 21.9589 45.9473 21.7998C45.7935 21.7486 45.8565 21.7753 46.1374 21.8799C46.0979 21.8564 46.0584 21.834 46.0178 21.8105C45.8672 21.7069 45.8651 21.708 46.0125 21.8126C46.1545 21.9248 46.1587 21.9184 46.0231 21.7945C45.9922 21.7603 45.9612 21.7251 45.9292 21.6909C46.1 21.9226 46.1417 21.9728 46.053 21.8404C46.0391 21.8116 45.8544 21.5585 45.8768 21.5297C45.9826 21.7988 46.0082 21.8575 45.9537 21.7069C45.9292 21.6386 45.9067 21.5703 45.8875 21.4998C45.8608 21.4047 45.6996 21.0641 45.8405 21.3578C45.9665 21.6194 45.8459 21.3449 45.8459 21.2115C45.8459 21.0844 45.9452 20.653 45.8373 21.0897C45.911 20.7907 45.9847 20.5003 46.0829 20.2077C46.21 19.8308 46.0018 20.3348 46.1182 20.1202C46.1919 19.9845 46.2527 19.8393 46.3243 19.7016C46.4962 19.3695 46.682 19.0459 46.8678 18.7224C47.4252 17.7539 47.1262 16.3422 46.1011 15.8008C45.0877 15.2616 43.7785 15.5317 43.1837 16.5654Z" fill="#19B9AA"/>
<path d="M59.148 13.4719C58.3151 15.4014 57.29 17.2424 56.079 18.9605C55.9402 19.157 55.8003 19.3513 55.6572 19.5435C55.6262 19.5862 55.3283 19.9813 55.4981 19.7581C55.6487 19.5606 55.4148 19.8638 55.3881 19.897C55.071 20.2963 54.7442 20.6882 54.4068 21.0705C53.6934 21.882 52.9342 22.6509 52.1397 23.3834C51.3153 24.1415 51.3142 25.645 52.1397 26.4032C53.0217 27.2126 54.2807 27.2126 55.1596 26.4032C58.4219 23.4005 61.0766 19.6983 62.8353 15.6267C63.0724 15.079 63.2166 14.5824 63.0511 13.9812C62.9144 13.4858 62.5321 12.9487 62.0697 12.7052C61.1492 12.2193 59.6211 12.3763 59.148 13.4719Z" fill="#19B9AA"/>
<path d="M59.6437 21.5165C59.9427 21.2752 59.3586 21.7269 59.4697 21.6489C59.5594 21.5859 59.6448 21.5176 59.7334 21.4525C59.9897 21.2656 60.2492 21.083 60.5108 20.9047C61.1195 20.4882 61.741 20.0878 62.3764 19.7108C62.6828 19.5282 62.9936 19.3521 63.3086 19.1844C63.6023 19.0285 64.0839 18.9046 64.3284 18.6868C64.3263 18.6889 63.9087 18.8374 64.1148 18.7808C64.2024 18.7562 64.2857 18.7167 64.3733 18.6889C64.4341 18.6697 64.8773 18.5896 64.8869 18.564C64.872 18.6035 64.4758 18.5768 64.731 18.595C64.8474 18.6035 64.9691 18.5875 65.0866 18.5907C65.1154 18.5918 65.3589 18.5864 65.3685 18.6089C65.0738 18.564 65.0076 18.5619 65.1688 18.6003C65.2179 18.6121 65.266 18.6259 65.313 18.643C65.597 18.7082 64.9563 18.4786 65.2094 18.6142C65.4144 18.7242 65.0802 18.5074 65.0716 18.4999C65.3418 18.7103 65.0642 18.4807 65.0108 18.4124C64.9627 18.3504 64.8805 17.997 64.9691 18.3782C64.9649 18.3579 64.9179 17.981 64.9243 18.2309C64.9318 18.5394 65.0215 17.8763 64.9424 18.1839C64.8826 18.4167 64.8335 18.6516 64.7641 18.8822C64.4672 19.8796 64.2622 20.8769 64.4736 21.917C64.7225 23.1407 65.5917 24.1038 66.7717 24.5021C67.7498 24.8321 68.8337 24.6271 69.8044 24.3761C71.6539 23.8967 73.434 23.0926 75.085 22.1412C76.0535 21.5838 76.4732 20.1839 75.8517 19.2197C75.2216 18.2426 73.9658 17.8571 72.93 18.453C72.5029 18.6986 72.0704 18.9356 71.6283 19.1545C71.4404 19.2474 71.2513 19.3382 71.0613 19.4257C70.9577 19.4738 70.853 19.5197 70.7494 19.5656C70.4227 19.7119 70.8071 19.5731 70.8082 19.5411C70.8028 19.6297 69.8898 19.8881 69.7745 19.9265C69.4798 20.0259 69.1818 20.1177 68.8818 20.1999C68.5924 20.2789 68.2976 20.3334 68.0072 20.4081C67.7061 20.4861 68.3446 20.4295 68.051 20.3964C68.0371 20.3953 67.8011 20.3996 67.8011 20.3975C67.8182 20.3088 68.2272 20.501 68.2784 20.5352C68.3436 20.5918 68.4076 20.6484 68.4728 20.7039C68.3489 20.5736 68.3478 20.58 68.4706 20.7221C68.4899 20.7584 68.7205 21.0595 68.6703 21.1065C68.6458 21.1289 68.6223 20.8566 68.6031 20.8481C68.665 20.8737 68.6127 21.3948 68.6447 21.0018C68.65 20.9335 68.6543 20.8566 68.6532 20.7883C68.6479 20.5 68.5593 21.2069 68.634 20.9271C68.6522 20.8577 68.6629 20.7861 68.6789 20.7157C68.7355 20.4797 68.8145 20.2501 68.8839 20.0173C69.2448 18.8011 69.3644 17.4876 68.7387 16.3323C68.1492 15.2452 67.0077 14.5544 65.801 14.392C63.8447 14.1294 62.1436 14.9078 60.4884 15.8646C59.1418 16.643 57.8369 17.5175 56.6249 18.4935C55.7503 19.1972 55.8368 20.7904 56.6249 21.5133C57.5518 22.3686 58.7115 22.2672 59.6437 21.5165Z" fill="#19B9AA"/>
<path d="M95.8813 2.1473C89.9152 4.33526 84.8012 8.62041 81.7151 14.1955C80.0268 17.2441 77.9755 21.8678 81.4054 24.5181C83.0649 25.8005 85.2786 25.823 87.2167 25.2474C89 24.7178 90.7396 23.9233 92.4108 23.116C96.0319 21.367 99.3839 19.1042 102.425 16.4785C103.274 15.746 103.232 14.1998 102.425 13.4587C101.521 12.629 100.31 12.6771 99.4053 13.4587C99.1244 13.7011 98.8414 13.9413 98.5552 14.1773C98.4121 14.2948 98.268 14.4123 98.1228 14.5286C98.0501 14.5863 97.9775 14.644 97.9049 14.7016C97.8729 14.7262 97.5685 14.9654 97.7554 14.8202C97.9434 14.6739 97.6988 14.8629 97.6775 14.8789C97.6038 14.9344 97.529 14.991 97.4553 15.0465C97.3069 15.1576 97.1574 15.2686 97.0079 15.3776C96.6833 15.6146 96.3555 15.8474 96.0244 16.0748C94.7259 16.9697 93.3783 17.793 91.9901 18.5415C91.3098 18.9088 90.62 19.258 89.9205 19.588C89.5852 19.7471 89.2478 19.9008 88.9082 20.0503C88.7384 20.1251 88.5686 20.1988 88.3978 20.2724C88.7673 20.1133 88.259 20.328 88.1372 20.3771C87.4025 20.6739 86.6593 20.9719 85.8947 21.1822C85.7078 21.2335 85.5188 21.2751 85.3288 21.3178C85.2989 21.3242 84.9828 21.3744 85.2316 21.3403C85.4804 21.3072 85.1632 21.3435 85.1323 21.3445C84.9507 21.3509 84.7713 21.3499 84.5898 21.3488C84.5311 21.3488 84.2684 21.3104 84.5631 21.3541C84.8738 21.4011 84.5215 21.3371 84.4617 21.3221C84.3869 21.304 83.9149 21.1715 84.1968 21.2602C84.4691 21.3456 84.0473 21.1577 83.9683 21.1246C83.7526 21.0338 84.1007 21.1908 84.089 21.2356C84.0911 21.226 83.9341 21.0947 83.9202 21.0808C83.9074 21.068 83.7707 20.911 83.7643 20.9131C83.854 20.88 83.9608 21.2911 83.8295 20.9516C83.6832 20.5746 83.8722 21.2452 83.8049 20.848C83.7355 20.4369 83.7857 21.1854 83.79 20.7615C83.79 20.7006 83.7537 20.2788 83.8028 20.2554C83.8081 20.2532 83.7259 20.6601 83.7814 20.3963C83.806 20.2831 83.8241 20.1678 83.8498 20.0546C83.9331 19.6862 84.0473 19.3242 84.1776 18.9697C84.2342 18.8159 84.2929 18.6632 84.3538 18.5116C84.3837 18.4369 84.4147 18.3632 84.4435 18.2895C84.5546 18.0065 84.2887 18.6344 84.4147 18.3578C84.6912 17.7503 84.971 17.1491 85.2892 16.5618C85.6064 15.9755 85.947 15.4032 86.3123 14.8458C86.4874 14.5778 86.6678 14.314 86.8526 14.0535C86.9455 13.9232 87.0395 13.794 87.1345 13.6658C87.1826 13.6018 87.2306 13.5377 87.2787 13.4736C87.4549 13.2387 87.2552 13.4224 87.2381 13.526C87.2723 13.3156 87.7058 12.9493 87.8468 12.7838C88.0721 12.5201 88.3027 12.2617 88.5387 12.0075C88.9926 11.5195 89.4656 11.0486 89.9569 10.5991C90.2324 10.3471 90.5132 10.1015 90.7994 9.86122C90.9425 9.74162 91.0877 9.62309 91.2329 9.5067C91.2853 9.46505 91.3589 9.38176 91.4209 9.35827C91.1998 9.4437 91.2084 9.52058 91.4337 9.35293C92.0317 8.90659 92.65 8.488 93.2864 8.09825C93.9229 7.70849 94.5775 7.34864 95.247 7.02082C95.5823 6.85638 95.923 6.70475 96.2636 6.55312C96.4921 6.45167 96.1227 6.61185 96.1216 6.61291C96.1333 6.57661 96.3779 6.50934 96.4185 6.49332C96.6171 6.41537 96.8168 6.34062 97.0165 6.26694C98.0619 5.88359 98.8841 4.80083 98.5083 3.64011C98.1772 2.6118 97.0047 1.73512 95.8813 2.1473Z" fill="#19B9AA"/>
<path d="M92.6702 10.2427C88.056 13.3543 83.555 16.6272 79.1575 20.0367C74.9576 23.2925 70.8143 26.6582 66.8793 30.2312C64.7009 32.2098 62.6495 34.3775 61.1502 36.9274C60.5832 37.8917 60.8982 39.3119 61.9169 39.849C62.9432 40.3914 64.2342 40.1117 64.8386 39.0823C65.1494 38.5537 65.4836 38.039 65.8435 37.5414C65.915 37.4421 65.9887 37.3439 66.0613 37.2457C66.4116 36.7726 65.8894 37.4421 66.1211 37.1698C66.34 36.9136 66.5482 36.6477 66.7693 36.3925C67.5777 35.4624 68.4522 34.5911 69.3535 33.7518C71.2116 32.0219 73.1594 30.3828 75.1061 28.7533C77.1692 27.0256 79.2622 25.3331 81.3819 23.6758C81.62 23.489 81.8592 23.3032 82.0984 23.1174C82.1689 23.0629 82.5149 22.7949 82.2244 23.0191C82.3312 22.9369 82.438 22.8547 82.5448 22.7725C83.1043 22.3421 83.6671 21.9139 84.2309 21.4879C85.2785 20.6977 86.3314 19.916 87.3918 19.1429C89.8372 17.3586 92.3167 15.6213 94.8273 13.9288C95.752 13.3052 96.2464 12.0195 95.5929 11.0072C94.9981 10.0878 93.6601 9.57422 92.6702 10.2427Z" fill="#19B9AA"/>
<path d="M133.497 16.9656C132.643 19.1376 132.336 21.6427 134.139 23.458C135.672 25.002 138.057 25.1344 140.103 24.9967C144.056 24.7287 147.84 23.3106 150.855 20.718C151.705 19.9865 151.661 18.4382 150.855 17.6982C149.949 16.8674 148.742 16.9187 147.835 17.6982C147.688 17.8252 147.537 17.947 147.388 18.0698C147.267 18.1659 147.301 18.1392 147.489 17.9907C147.399 18.058 147.308 18.1232 147.217 18.1883C146.94 18.3837 146.656 18.5695 146.367 18.7446C146.073 18.9219 145.773 19.0895 145.469 19.2465C145.289 19.3383 145.108 19.427 144.925 19.5124C144.87 19.538 144.358 19.7591 144.623 19.6501C144.886 19.5423 144.282 19.7793 144.227 19.8007C144.061 19.8616 143.896 19.9203 143.729 19.9758C143.393 20.0879 143.054 20.1894 142.711 20.2791C142.338 20.3773 141.962 20.4627 141.582 20.5364C141.377 20.5759 141.17 20.608 140.964 20.6432C140.499 20.7233 141.334 20.6112 140.82 20.6614C140.075 20.7329 139.329 20.781 138.581 20.7575C138.405 20.7521 138.129 20.7852 137.965 20.7201C138.037 20.7308 138.111 20.7425 138.184 20.7532C138.068 20.7361 137.955 20.7158 137.841 20.6913C137.672 20.655 137.512 20.6058 137.346 20.5578C136.882 20.4222 137.634 20.7169 137.252 20.5044C136.849 20.2791 137.472 20.7361 137.161 20.4371C136.846 20.1349 137.382 20.7308 137.069 20.2844C136.997 20.1435 137.016 20.1926 137.126 20.4328C137.092 20.3335 137.063 20.2332 137.041 20.1307C136.915 19.7313 137.015 20.5268 137.045 20.0794C137.052 19.9833 137.126 19.4825 137.032 19.9288C137.072 19.7409 137.11 19.5572 137.163 19.3725C137.285 18.939 137.452 18.5182 137.618 18.0997C138.028 17.0575 137.169 15.7099 136.126 15.4728C134.895 15.1941 133.936 15.8498 133.497 16.9656Z" fill="#19B9AA"/>
</svg>
