<svg width="100" height="100" viewBox="0 0 100 100" fill="none" xmlns="http://www.w3.org/2000/svg">
<circle cx="50" cy="50" r="50" fill="#19B9AA"/>
<g clip-path="url(#clip0_1801_7262)">
<path fill-rule="evenodd" clip-rule="evenodd" d="M45.2859 20.3776C43.5936 20.3776 41.9707 21.0335 40.7741 22.2009L35 27.8342V30.4127C35 32.2344 35.8021 33.8734 37.0805 35.0118C35.8021 36.1502 35 37.7891 35 39.6109V42.1894L40.7741 47.8227C41.9707 48.9901 43.5936 49.6459 45.2859 49.6459C47.1532 49.6459 48.8332 48.8634 50 47.6162C51.1668 48.8634 52.8468 49.6459 54.7141 49.6459C56.4064 49.6459 58.0293 48.9901 59.2259 47.8227L65 42.1894V39.6109C65 37.7891 64.198 36.1502 62.9195 35.0118C64.198 33.8734 65 32.2344 65 30.4127V27.8342L59.2259 22.2009C58.0293 21.0335 56.4064 20.3776 54.7141 20.3776C52.8468 20.3776 51.1668 21.1602 50 22.4074C48.8332 21.1602 47.1532 20.3776 45.2859 20.3776ZM54.3191 35.0118C54.2472 34.9478 54.1766 34.882 54.1075 34.8145L50 30.8072L45.8926 34.8145C45.8234 34.882 45.7528 34.9478 45.6809 35.0118C45.7528 35.0758 45.8234 35.1416 45.8926 35.2091L50 39.2163L54.1075 35.2091C54.1766 35.1416 54.2472 35.0758 54.3191 35.0118ZM51.6667 42.1894V43.4209C51.6667 45.0628 53.0311 46.3939 54.7141 46.3939C55.5223 46.3939 56.2974 46.0807 56.8689 45.5231L61.6667 40.8423V39.6109C61.6667 37.9689 60.3023 36.6378 58.6193 36.6378C57.8111 36.6378 57.036 36.951 56.4645 37.5086L51.6667 42.1894ZM48.3333 42.1894L43.5355 37.5086C42.964 36.951 42.1889 36.6378 41.3807 36.6378C39.6977 36.6378 38.3333 37.9689 38.3333 39.6109V40.8423L43.1311 45.5231C43.7026 46.0807 44.4777 46.3939 45.2859 46.3939C46.9689 46.3939 48.3333 45.0628 48.3333 43.4209V42.1894ZM48.3333 26.6027V27.8342L43.5355 32.515C42.964 33.0725 42.1889 33.3858 41.3807 33.3858C39.6977 33.3858 38.3333 32.0547 38.3333 30.4127V29.1812L43.1311 24.5005C43.7026 23.9429 44.4777 23.6297 45.2859 23.6297C46.9689 23.6297 48.3333 24.9608 48.3333 26.6027ZM56.4645 32.515L51.6667 27.8342V26.6027C51.6667 24.9608 53.0311 23.6297 54.7141 23.6297C55.5223 23.6297 56.2974 23.9429 56.8689 24.5005L61.6667 29.1812V30.4127C61.6667 32.0547 60.3023 33.3858 58.6193 33.3858C57.8111 33.3858 57.036 33.0725 56.4645 32.515Z" fill="white"/>
</g>
<g clip-path="url(#clip1_1801_7262)">
<path fill-rule="evenodd" clip-rule="evenodd" d="M20.2074 59.0625V75H16V59.0625H20.2074Z" fill="#283841"/>
<path fill-rule="evenodd" clip-rule="evenodd" d="M22.3111 59.0625H31.2519C34.1565 59.0625 36.5111 61.441 36.5111 64.375C36.5111 67.309 34.1565 69.6875 31.2519 69.6875H26.5185V75H22.3111V59.0625ZM26.5185 65.4375H31.2519C31.8328 65.4375 32.3037 64.9618 32.3037 64.375C32.3037 63.7882 31.8328 63.3125 31.2519 63.3125H26.5185V65.4375Z" fill="#283841"/>
<path fill-rule="evenodd" clip-rule="evenodd" d="M52.2889 59.0625V67.2969C52.2889 69.204 53.8194 70.75 55.7074 70.75C57.5954 70.75 59.126 69.204 59.126 67.2969V59.0625H63.3335V67.2969C63.3335 71.5512 59.9192 75 55.7074 75C51.4957 75 48.0815 71.5512 48.0815 67.2969V59.0625H52.2889Z" fill="#283841"/>
<path fill-rule="evenodd" clip-rule="evenodd" d="M38.0889 66.5C38.0889 62.3924 41.3854 59.0625 45.4519 59.0625H46.5037V63.3125H45.4519C43.7091 63.3125 42.2963 64.7396 42.2963 66.5V67.0313C42.2963 71.4323 38.7643 75 34.4074 75H33.8815V70.75H34.4074C36.4407 70.75 38.0889 69.0851 38.0889 67.0313V66.5Z" fill="#283841"/>
<path d="M87 59.5938C87 60.474 86.2938 61.1875 85.422 61.1875C84.5507 61.1875 83.8445 60.474 83.8445 59.5938C83.8445 58.7135 84.5507 58 85.422 58C86.2938 58 87 58.7135 87 59.5938Z" fill="#283841"/>
<path d="M67.851 75L69.8588 66.5077L71.3514 71.6167C72.2412 74.6639 76.5143 74.6639 77.4045 71.6167L78.8968 66.5077L80.9045 75H85.23L82.0733 61.6463C81.3225 58.4707 76.8924 58.3531 75.9774 61.4845L74.378 66.9604L72.7782 61.4845C71.8636 58.3531 67.433 58.4706 66.6822 61.6463L63.5255 75H67.851Z" fill="#283841"/>
</g>
<defs>
<clipPath id="clip0_1801_7262">
<rect width="30" height="30" fill="white" transform="translate(35 20)"/>
</clipPath>
<clipPath id="clip1_1801_7262">
<rect width="71" height="17" fill="white" transform="translate(16 58)"/>
</clipPath>
</defs>
</svg>
