<?xml version="1.0" encoding="utf-8"?>
<!-- Generator: Adobe Illustrator 23.0.2, SVG Export Plug-In . SVG Version: 6.00 Build 0)  -->
<svg version="1.1" id="圖層_1" xmlns="http://www.w3.org/2000/svg" xmlns:xlink="http://www.w3.org/1999/xlink" x="0px" y="0px"
	 viewBox="0 0 288 288" style="enable-background:new 0 0 288 288;" xml:space="preserve">
<style type="text/css">
	.st0{clip-path:url(#SVGID_2_);}
	.st1{fill:#FFFFFF;}
	.st2{fill:#FFBF61;}
	.st3{fill:#605532;stroke:#605532;stroke-width:0.3622;stroke-miterlimit:10;}
	.st4{fill:#605532;}
	.st5{fill:none;stroke:#605532;stroke-width:0.3622;stroke-miterlimit:10;}
</style>
<g>
	<defs>
		<path id="SVGID_1_" d="M144,0L144,0c79.5,0,144,64.5,144,144l0,0c0,79.5-64.5,144-144,144l0,0C64.5,288,0,223.5,0,144l0,0
			C0,64.5,64.5,0,144,0z"/>
	</defs>
	<use xlink:href="#SVGID_1_"  style="overflow:visible;fill:#19B9AA;"/>
	<clipPath id="SVGID_2_">
		<use xlink:href="#SVGID_1_"  style="overflow:visible;"/>
	</clipPath>
	<g class="st0">
		<path class="st1" d="M181.8,132.2c-2.5,4.7-8.3,13.1-15.4,17.3c0,2.5,0.2,5,0.5,7.5c0,0-0.4,15.3-20.1,15.3
			c-19.7,0-20.1-15.4-20.1-15.4c0.3-2.5,0.5-5.4,0.5-7.6c-3.4-2.1-6.5-4.8-9-7.9c-3.5-4.3-6.1-9.3-7.6-14.7l-1.5-0.2
			c-1.7-0.3-3.3-1-4.6-2.1c-1.6-1.4-2.9-3.1-3.8-5c-1.9-3.8-2.7-8.1-2.4-12.3c0-1.1,0.3-2.2,0.8-3.1c0.9-1.4,2.3-2.4,4-2.6
			c1.7-0.2,3.4,0.3,4.7,1.4c0,0-5.5-33.7,38.6-33.7c42,0,39.6,33.7,39.6,33.7c1.3-1.1,3-1.6,4.7-1.4c1.6,0.2,3.1,1.2,4,2.6
			c0.5,1,0.8,2,0.8,3.1c0.4,4.3-0.5,8.5-2.4,12.3c-0.9,1.9-2.2,3.6-3.8,5c-1.3,1.1-2.9,1.8-4.6,2.1c0,0-0.3,0-0.8,0.1
			c-0.4,1.4-0.8,2.6-1,3.2C182.6,130.5,182.2,131.4,181.8,132.2z"/>
		<path class="st1" d="M160.3,184.1c5.7-5.6,9.4-12.4,13.6-19.2c-1.6-3.1-3.6-5.9-6.2-8.3c-5.1,5.1-11.1,9.3-17.7,12.3
			c-0.4,0.2-0.8,0.4-0.9,0.8c-0.1,0.3,0,0.7,0.2,1c1.1,1.6,2.4,3.2,3.7,4.7C155.5,178.4,158.7,182.1,160.3,184.1z"/>
		<path class="st1" d="M133.7,184.1c-5.7-5.6-9.4-12.4-13.6-19.2c1.6-3.1,3.6-5.9,6.2-8.3c5.1,5.1,11.1,9.3,17.7,12.3
			c0.4,0.2,0.8,0.4,0.9,0.8c0.1,0.3,0,0.7-0.2,1c-1.1,1.6-2.4,3.2-3.7,4.7C138.4,178.4,135.3,182.1,133.7,184.1z"/>
		<path class="st1" d="M139.7,256c3.2,0.7,15.9,4,20.9,5.8c1.5-4.8,3.7-11.6,5.2-16.7c-2.1-0.7-4.2-1.4-6.4-2l-5.9-10.3
			c-1-1.8-2.1-3.6-3.9-4.7c-1.7-1-3.9-1.1-5.9-1.1c-2.9-0.2-5.9-0.1-8.8,0.3l-6.6,0.8l4.7,26.6L139.7,256z"/>
		<path class="st1" d="M82.9,233.6c2.7,0.1,5.3,2,5.3,5.3c-0.1,3.9-4.1,4.8-6.8,4.3c-2.6-0.5-4.4-3-3.9-5.6c0-0.1,0-0.2,0.1-0.3
			C78,234.7,80.7,233.5,82.9,233.6z"/>
		<path class="st1" d="M134.9,266.4c-0.6-3.5-1.3-7.5-2.1-11.8l1.1,0.2l5.5,1.1c3.2,0.7,15.9,4,20.9,5.8l-1.4,1.1
			c-6.3,5.1-17.9,13.8-20.6,15.7c-0.4,0.3-0.8,0.5-1.1,0.7l-0.2-1C136.6,275.7,135.8,271.5,134.9,266.4z"/>
		<path class="st1" d="M137,278.2c-2.1-12.1-10.3-58.7-12.5-72.2c-0.3-1.7-1.7-3-3.4-3c-14.9-0.7-71-3.5-90.3-4.2
			c-1.4-0.1-2.5,1-2.6,2.4c0,0.2,0,0.3,0,0.5c2.2,14.1,8.8,53.8,11.4,68.9c0.3,1.8,1.8,3.1,3.6,3.2c5.8,0.3,11.5,0.7,17.1,1.1
			c-0.8-3-1.5-6.5-2.1-9.6c-0.9-4.4-1.4-7.1-1.2-9.5c0.1-1.8,1.1-3,2.6-3.3c2.4-0.4,3.8,1.5,4.2,3.2l-0.1-0.7
			c-0.9-3.5-0.4-5.9,1.9-6.7c2-0.7,4.7,0.5,5.7,4.8l0.9,3.8l0.3-2.1c0.3-2,2.6-2.9,4.1-2.4c1.4,0.4,2.6,1.6,3,3
			c1.1,3,2.1,6.1,2.8,9.2c0.2,0.9,0.4,1.8,0.7,2.6c0.3-0.8,0.5-1.4,0.5-1.4c0.7-1.9,3.2-1.9,4.7-1c1.8,1.2,3.7,6.6,4.4,9.6
			c0.1,0.6,0.3,1.1,0.5,1.7c0.6,0.1,2.1,1,3.8,1.5c0,0,0,0,0,0c11.6,0.9,23.3,1.8,35.7,2.5c1.2,0,2.4-0.1,3.6-0.5
			c0.4-0.1,0.8-0.3,1.2-0.5C137.1,278.7,137,278.2,137,278.2z M81.3,243.2c-2.6-0.5-4.4-3-3.9-5.6c0-0.1,0-0.2,0.1-0.3
			c0.6-2.6,3.3-3.8,5.4-3.7c2.7,0.1,5.3,2,5.3,5.3C88.1,242.8,84,243.7,81.3,243.2z"/>
		<path class="st1" d="M63.6,255.8c-0.4-1.7-1.8-3.7-4.2-3.2c-1.5,0.3-2.5,1.5-2.6,3.3c-0.1,2.4,0.4,5.1,1.2,9.5
			c0.7,3.4,1.5,7.3,2.4,10.5c1.4,3.3,3.5,5.4,6.5,5.9c1.8,0.3,13.4,1.4,18.6,1.2c4.5-0.5,11.2-0.4,11.1-5.2
			c-1.7-0.5-3.1-1.4-3.8-1.5c-0.2-0.5-0.4-1.1-0.5-1.7c-0.7-3-2.5-8.4-4.4-9.6c-1.5-1-3.9-1-4.7,1c0,0-0.2,0.5-0.5,1.4
			c-0.2-0.8-0.4-1.7-0.7-2.6c-0.8-3.1-1.7-6.2-2.8-9.2c-0.4-1.4-1.6-2.6-3-3c-1.6-0.5-3.9,0.5-4.1,2.4l-0.3,2.1l-0.9-3.8
			c-1-4.3-3.7-5.5-5.7-4.8c-2.2,0.8-2.7,3.2-1.9,6.7"/>
		<path class="st2" d="M179.7,58.5c6,3.3,9,9,10.9,13.9c2.8,7.2,3.6,19.4,0.6,28.9c-0.1,0-0.3-0.1-0.4-0.1c-1.7-0.2-3.4,0.3-4.7,1.4
			l-4.4-4.8c-1-2.5-1.7-4.4-2.7-6.9c-0.8-2.1-1.7-4.2-2.8-6.2c-0.9-1.5-2.8-1.1-4.6-1.4c-5.7-1-4.5-2.2-8.7-5.9
			c-5.7,6.1-11.8,8.6-19.6,11.1c-4.2,1.3-11.8,2.6-16.9,2.4c-5.2,3-12.8,5.3-17.4,6.8l-1.2,4.9c-1.3-1.1-3-1.6-4.7-1.4
			c-0.2,0-0.3,0.1-0.5,0.1l-0.5-1.3c-2.9-7.7-2.8-20.1-0.4-28.8c2.4-9,8-17.7,16-21.3l7.2-4.9c7-6,27.7-5.6,34.8-3
			c6.8,2.4,12,6.7,14.4,11.7L179.7,58.5z"/>
		<path class="st2" d="M239.3,250.8c-1.2-10.7-15.5-55.4-20.4-61.7c-2.5-4.3-6.4-5.9-8.4-7c-12.2-6.6-22.6-12-36.9-17.8h0
			c0.1,0.2,0.2,0.4,0.3,0.6c-4.2,6.8-7.9,13.6-13.6,19.2c-1.7-2-4.8-5.8-7.3-8.8c-1.3-1.5-2.5-3.1-3.7-4.7h-4.8
			c-1.1,1.6-2.4,3.2-3.7,4.7c-2.5,3-5.6,6.7-7.3,8.8c-5.6-5.6-9.3-12.3-13.4-19c-0.1,0-0.2,0-0.2,0c-12.3,5.1-21.8,10.1-32.8,16.1
			c-2.1,1.2-4.1,2.6-6,4.2c-2.7,1.7-5.6,8.2-6.7,15.3l0.1,0.2c19.4,0.9,38.7,1.9,46.6,2.3c1.7,0.1,3.1,1.4,3.4,3
			c0.7,4.5,2.1,12.7,3.8,22.1l6.6-0.8c2.9-0.4,5.9-0.4,8.8-0.3c2,0,4.1,0.1,5.9,1.1c1.8,1,2.9,2.9,3.9,4.7c2,3.4,4,6.8,5.9,10.3
			c2.1,0.6,4.3,1.3,6.4,2c-1.6,5.1-3.7,11.9-5.2,16.7l-0.3,0c-0.8,0.6-1.3,1.1-1.3,1.1c-6.3,5.1-17.9,13.8-20.6,15.7
			c-0.4,0.3-0.8,0.5-1.1,0.7c-0.4,0.2-0.8,0.4-1.2,0.5c-1.2,0.4-2.4,0.5-3.6,0.5c-12.4-0.7-24.1-1.6-35.7-2.5c0,2.6-2,3.8-4.6,4.4
			c0,6.4,0,0,0,9.2v0H203c0-10.2,0-4.5,0-11.3c3.3,0.7,6.6,1.2,9.9,1.5c5.4,0.2,23.2,3.6,26.3-12.2
			C239.9,263.2,240,256.9,239.3,250.8z"/>
		<path class="st3" d="M128.4,156.8c0.3-2.5,0.5-5.1,0.5-7.6c0-0.9-0.7-1.6-1.6-1.6c-0.9,0-1.6,0.7-1.6,1.6
			c-0.1,2.5-0.2,5.1-0.5,7.6c0,0.9,0.7,1.6,1.6,1.6C127.6,158.4,128.4,157.7,128.4,156.8z"/>
		<path class="st3" d="M164.8,149.5c0,2.5,0.2,5,0.5,7.4c0,0.9,0.7,1.6,1.6,1.6c0.8,0,1.7-0.7,1.6-1.6c-0.3-2.5-0.5-4.9-0.5-7.4
			c0-0.9-0.7-1.6-1.6-1.6C165.5,147.9,164.8,148.6,164.8,149.5z"/>
		<path class="st3" d="M204.6,291.4c0-8.5,0-2.8,0-11.3c0-2.1-3.3-2.1-3.3,0c0,8.5,0,2.8,0,11.3
			C201.4,293.4,204.6,293.5,204.6,291.4z"/>
		<path class="st3" d="M90.5,282.2c0,7.8,0,1.4,0,9.2c0,2.1,3.3,2.1,3.3,0c0-7.8,0-1.4,0-9.2C93.8,280.1,90.5,280.1,90.5,282.2z"/>
		<path class="st3" d="M145.5,170.9c0,11.1,0.2,22.2,0.3,33.3c0.1,5.3,0.1,10.5,0.2,15.8c0,2.1,3.3,2.1,3.3,0
			c-0.2-14.9-0.3-29.8-0.5-44.8c0-1.4,0-2.9,0-4.3C148.7,168.8,145.5,168.8,145.5,170.9z"/>
		<path class="st3" d="M145.9,272.5c0,8.8,0.1,3.4,0.1,12.2c0,2.1,0,4.3,0,6.4c0,2.1,3.3,2.1,3.3,0c0-9.5-0.1-4.8-0.1-14.2
			c0-1.4,0-2.9,0-4.3C149.1,270.4,145.9,270.4,145.9,272.5z"/>
		<path class="st3" d="M92.2,293H203c2.1,0,2.1-3.2,0-3.2H92.2C90.1,289.8,90.1,293,92.2,293z"/>
		<path class="st3" d="M173.9,166.1c6.6,2.7,13.2,5.6,19.6,8.8c5.8,2.9,11.5,6,17.3,9c2.7,1.4,5.1,3.2,6.8,5.9
			c1.1,1.8,3.9,0.2,2.8-1.6c-1.7-2.7-4-4.9-6.7-6.4c-2.6-1.5-5.2-2.8-7.8-4.2c-6.2-3.3-12.5-6.5-18.9-9.5c-4-1.8-8-3.5-12.1-5.2
			c-0.9-0.2-1.8,0.3-2,1.1C172.6,165,173.1,165.9,173.9,166.1z"/>
		<path class="st3" d="M209.7,197.6c-1.1,6.7-2.4,13.3-3.5,20c-1,6-1.8,12-2.3,18.1c-0.3,3.8-0.6,7.6-0.9,11.4
			c0,0.9,0.7,1.6,1.6,1.6c0.9,0,1.6-0.7,1.6-1.6c0.4-6,0.9-12.1,1.6-18.1c0.8-6.6,2-13.1,3.1-19.6c0.7-3.6,1.3-7.3,1.9-11
			c0.2-0.9-0.3-1.7-1.1-2C210.8,196.2,210,196.7,209.7,197.6z"/>
		<path class="st3" d="M76.1,201c0.5-3.9,1.7-7.6,3.5-11.1c0.6-1.1,1.3-2.2,2.2-3c0.4-0.3-0.2,0.2,0.1-0.1c0.1-0.1,0.3-0.2,0.4-0.3
			c0.4-0.3,0.8-0.6,1.2-0.9c0.9-0.7,1.9-1.4,2.9-2c3.4-2.1,7-3.9,10.6-5.7c3.5-1.9,7.1-3.7,10.7-5.4c4.2-2,8.6-4,12.9-5.8
			c0.8-0.3,1.3-1.1,1.1-2c-0.2-0.9-1.1-1.4-2-1.1c-7.9,3.3-15.7,7-23.3,11c-3.7,1.9-7.5,3.8-11.1,6c-1.8,1.1-3.5,2.4-5.2,3.7
			c-1.2,0.9-2.1,2-2.9,3.2c-2.4,3.8-3.7,8.4-4.4,12.9c-0.2,0.9,0.3,1.7,1.1,2C74.9,202.4,75.8,201.8,76.1,201z"/>
		<path class="st4" d="M161.5,185.3c4.3-4.3,7.6-9.4,10.8-14.5c0.8-1.3,1.6-2.6,2.3-3.9c0.4-0.7,1.1-1.5,0.9-2.4
			c-0.3-0.7-0.6-1.4-1-2c-1.5-2.6-3.4-5-5.5-7c-0.6-0.6-1.7-0.6-2.3,0c-4.3,4.3-9.3,8-14.8,10.8c-0.6,0.3-1.3,0.6-1.9,0.9
			c-0.7,0.3-1.4,0.7-1.9,1.3c-0.8,1.1-0.4,2.5,0.3,3.5c1.6,2.2,3.4,4.3,5.2,6.4c1.9,2.3,3.8,4.6,5.7,6.9
			C159.8,185.9,160.8,185.9,161.5,185.3c0.6-0.6,0.6-1.6,0-2.3c-1.9-2.4-3.9-4.7-5.9-7.1c-1.1-1.3-2.2-2.6-3.2-4
			c-0.4-0.5-0.7-0.9-1.1-1.4c-0.2-0.3-0.5-0.6-0.5-0.9l-0.2,0.8l-0.1,0.1c0.1-0.1,0.2-0.1,0.3-0.2c0.2-0.1,0.4-0.2,0.6-0.3
			c0.4-0.2,0.8-0.4,1.1-0.5c0.8-0.4,1.6-0.8,2.4-1.3c1.7-0.9,3.3-1.9,4.9-3c3.2-2.2,6.2-4.7,9-7.4h-2.3c2.4,2.3,4.4,5,5.9,8v-1.6
			c-4,6.6-7.8,13.4-13.3,18.9C157.7,184.4,160,186.7,161.5,185.3z"/>
		<path class="st5" d="M161.5,185.3c4.3-4.3,7.6-9.4,10.8-14.5c0.8-1.3,1.6-2.6,2.3-3.9c0.4-0.7,1.1-1.5,0.9-2.4
			c-0.3-0.7-0.6-1.4-1-2c-1.5-2.6-3.4-5-5.5-7c-0.6-0.6-1.7-0.6-2.3,0c-4.3,4.3-9.3,8-14.8,10.8c-0.6,0.3-1.3,0.6-1.9,0.9
			c-0.7,0.3-1.4,0.7-1.9,1.3c-0.8,1.1-0.4,2.5,0.3,3.5c1.6,2.2,3.4,4.3,5.2,6.4c1.9,2.3,3.8,4.6,5.7,6.9
			C159.8,185.9,160.8,185.9,161.5,185.3z M161.5,185.3c0.6-0.6,0.6-1.6,0-2.3c-1.9-2.4-3.9-4.7-5.9-7.1c-1.1-1.3-2.2-2.6-3.2-4
			c-0.4-0.5-0.7-0.9-1.1-1.4c-0.2-0.3-0.5-0.6-0.5-0.9l-0.2,0.8l-0.1,0.1c0.1-0.1,0.2-0.1,0.3-0.2c0.2-0.1,0.4-0.2,0.6-0.3
			c0.4-0.2,0.8-0.4,1.1-0.5c0.8-0.4,1.6-0.8,2.4-1.3c1.7-0.9,3.3-1.9,4.9-3c3.2-2.2,6.2-4.7,9-7.4h-2.3c2.4,2.3,4.4,5,5.9,8v-1.6
			c-4,6.6-7.8,13.4-13.3,18.9C157.7,184.4,160,186.7,161.5,185.3z"/>
		<path class="st3" d="M134.8,183c-5.5-5.5-9.3-12.3-13.3-18.9v1.6c1.5-3,3.5-5.7,5.9-8h-2.3c2.8,2.8,5.8,5.2,9,7.4
			c1.6,1.1,3.2,2.1,4.8,3c0.8,0.4,1.6,0.9,2.4,1.3c0.4,0.2,0.8,0.4,1.3,0.6c0.2,0.1,0.3,0.2,0.5,0.2c0.1,0,0.2,0.1,0.3,0.2
			c0.1,0.1,0.1,0.1,0,0l-0.2-0.8c0.1,0.6-1.1,1.7-1.5,2.2c-1.1,1.4-2.2,2.7-3.3,4.1c-2,2.4-3.9,4.7-5.9,7.1c-0.6,0.6-0.6,1.7,0,2.3
			c0.6,0.6,1.7,0.6,2.3,0c3.5-4.3,7.1-8.4,10.4-12.8c0.7-0.7,1.1-1.7,1.2-2.8c-0.1-1.8-1.9-2.3-3.2-3c-2.7-1.3-5.3-2.9-7.8-4.6
			c-2.8-2-5.5-4.2-8-6.7c-0.6-0.6-1.7-0.6-2.3,0c-2.1,2-4,4.4-5.5,6.9c-0.5,0.6-0.8,1.4-1.1,2.1c-0.2,0.9,0.4,1.6,0.8,2.3
			c0.8,1.3,1.6,2.7,2.4,4c3.1,5.2,6.5,10.3,10.8,14.5C134,186.7,136.3,184.4,134.8,183z"/>
		<path class="st3" d="M160.8,260.2c-4.1-1.5-8.3-2.6-12.5-3.7c-3.1-0.8-6.2-1.7-9.3-2.3l-4.6-0.9c-0.9-0.2-1.7,0.3-2,1.1
			c-0.2,0.9,0.3,1.8,1.1,2c6.7,1.4,13.3,3,19.9,4.9c2.2,0.6,4.4,1.3,6.5,2c0.9,0.2,1.8-0.3,2-1.1
			C162.2,261.3,161.7,260.4,160.8,260.2z"/>
		<path class="st3" d="M166.2,243.7c-2.2-0.7-4.4-1.5-6.6-2.2l1,0.7l-4.6-8c-1.3-2.3-2.6-4.9-4.6-6.7c-2.3-1.9-5.1-2.1-7.9-2.2
			c-2.8-0.1-5.6,0-8.4,0.2c-0.9,0-1.6,0.7-1.6,1.6c0,0.9,0.7,1.6,1.6,1.6c2.5-0.3,5.1-0.4,7.6-0.3c2.1,0,4.6-0.1,6.4,1.3
			c1.9,1.4,2.9,3.9,4,5.9l4.1,7.1c0.5,0.8,0.8,1.5,1.7,1.8c0.7,0.2,1.4,0.4,2.1,0.7c1.4,0.5,2.9,1,4.3,1.5
			C167.4,247.5,168.2,244.3,166.2,243.7z"/>
		<path class="st3" d="M96.7,279.4c11.2,0.9,22.4,1.7,33.6,2.4c2.5,0.1,4.8,0.2,7.1-0.9c1.2-0.6,2.4-1.4,3.5-2.2
			c2.8-2.1,5.7-4.2,8.5-6.3c3.6-2.8,7.2-5.5,10.8-8.4c0.6-0.6,0.6-1.7,0-2.3c-0.6-0.6-1.7-0.6-2.3,0c-5.8,4.7-11.7,9.1-17.7,13.6
			c-0.8,0.6-1.7,1.3-2.5,1.8c-1.7,1.2-3.7,1.7-5.8,1.5c-5.6-0.3-11.2-0.7-16.8-1.1c-6.1-0.4-12.2-0.9-18.3-1.4
			c-0.9,0-1.6,0.7-1.6,1.6C95.1,278.7,95.8,279.4,96.7,279.4z"/>
		<path class="st3" d="M60.3,273.4c-3.6-0.3-7.2-0.5-10.8-0.7c-1.8-0.1-3.7-0.2-5.5-0.3c-1.1-0.1-2.2-0.2-2.6-1.4
			c-0.3-0.8-0.4-1.6-0.5-2.4c-0.1-0.8-0.3-1.6-0.4-2.5c-0.3-1.9-0.6-3.7-0.9-5.6c-1.6-9.4-3.1-18.9-4.7-28.3
			c-1.4-8.8-2.9-17.5-4.3-26.3c-0.3-1.5-0.6-2.9-0.7-4.4c0-0.7,0.5-1,1.3-1c0.7,0,1.4,0,2.1,0.1c3.4,0.1,6.9,0.3,10.3,0.4
			c9,0.4,18,0.8,27,1.2c9.4,0.4,18.8,0.9,28.2,1.3c6.9,0.3,13.8,0.7,20.7,1c1.4,0.1,3.1-0.1,3.5,1.6c0.3,1.3,0.5,2.7,0.7,4
			c0.6,3.6,1.2,7.2,1.9,10.9c1.6,9.3,3.2,18.7,4.8,28c1.4,8.2,2.9,16.5,4.3,24.7c0.2,1.3,1,3.4-0.2,4.4c-0.6,0.6-0.6,1.7,0,2.3
			c0.6,0.6,1.7,0.6,2.3,0c2.1-1.7,1.6-4.5,1.2-6.8c-0.3-1.7-0.6-3.4-0.9-5.1c-0.7-4.3-1.5-8.6-2.2-12.8c-1.7-9.7-3.4-19.5-5.1-29.2
			c-0.7-4.2-1.5-8.5-2.2-12.7c-0.3-1.7-0.6-3.3-0.9-5c-0.3-1.6-0.3-3.4-1.2-4.8c-0.8-1.3-2-2.2-3.5-2.5c-0.7-0.1-1.5-0.2-2.2-0.2
			l-4.1-0.2c-3.6-0.2-7.1-0.4-10.7-0.5c-9.3-0.5-18.6-0.9-28-1.3c-9.6-0.5-19.2-0.9-28.8-1.3c-3.9-0.2-7.8-0.3-11.8-0.5
			c-1.5-0.1-3.1-0.1-4.6-0.2c-1.1-0.1-2.2,0-3.2,0.5c-1.3,0.8-2.1,2.2-2.1,3.8c0.2,1.7,0.4,3.4,0.8,5c0.3,1.9,0.6,3.8,0.9,5.7
			c0.8,4.6,1.5,9.3,2.3,13.9c1.6,10,3.3,20,5,30c0.7,4,1.3,8,2,12c0.3,2,0.5,4.2,2.1,5.8c1.2,1,2.7,1.6,4.2,1.6
			c1.9,0.1,3.8,0.2,5.7,0.4c3.6,0.2,7.2,0.5,10.8,0.7c0.9,0,1.6-0.7,1.6-1.6C61.9,274.1,61.1,273.4,60.3,273.4z"/>
		<path class="st3" d="M84.9,266.4C84.8,266.7,85.2,265.9,84.9,266.4c0.2-0.2,0.2-0.2,0.1-0.1c0.1-0.1,0.2-0.1,0.3-0.2
			c0.2-0.1,0.2-0.1,0,0c0.1,0,0.2-0.1,0.3-0.1c0.2,0,0.2,0,0,0c0.1,0,0.2,0,0.3,0s0.2,0,0.3,0c-0.2,0-0.2,0,0,0
			c0.2,0,0.4,0.1,0.6,0.2c-0.3-0.1,0.2,0.1,0.3,0.2c0.2,0.1,0.2,0.2,0,0c0.5,0.5,0.9,1,1.1,1.6c0.4,0.8,0.8,1.5,1.1,2.3
			c0.7,1.7,1.1,3.5,1.6,5.3c0.1,0.5,0.3,1,0.6,1.5c0.2,0.4,0.6,0.7,1.1,0.8c0.1,0,0.5,0.2,0.2,0.1c1.1,0.5,2.2,1,3.3,1.4
			c2,0.6,2.9-2.5,0.9-3.1c-1.2-0.4-2.4-1.2-3.6-1.5l1.1,1.1c-0.7-1.6-1-3.4-1.5-5.1c-0.6-1.8-1.3-3.5-2.3-5.1
			c-0.8-1.5-2.3-2.5-3.9-2.8c-2.1-0.4-4.2,0.7-5,2.7c-0.2,0.9,0.3,1.8,1.1,2C83.8,267.7,84.7,267.2,84.9,266.4z"/>
		<path class="st3" d="M86,273c-1.4-5.7-2.8-11.4-4.7-16.9c-0.3-1.2-0.9-2.2-1.6-3.2c-0.8-1-2-1.7-3.3-2c-2.5-0.5-5.3,1.1-5.8,3.6
			c-0.2,0.9,0.3,1.7,1.1,2c0.9,0.2,1.8-0.3,2-1.1c0.3-1.6,2-1.6,3.1-0.8c0.5,0.5,0.9,1.1,1.1,1.8c0.4,1,0.7,2,1.1,3.1
			c1.5,4.8,2.7,9.7,3.9,14.5C83.4,275.9,86.5,275.1,86,273z"/>
		<path class="st3" d="M77.5,273c-1.3-5.5-2.7-11-4-16.6c-0.5-2.3-0.9-4.9-2.2-7c-1.4-2-3.8-3.4-6.3-2.6c-3.8,1.3-3.8,5.4-3,8.7
			c0.5,2,3.6,1.2,3.1-0.9c-0.4-1.2-0.4-2.4-0.2-3.6c0.1-0.6,0.6-1.1,1.3-1.2c0,0,0.3-0.1,0.1,0c-0.2,0,0.1,0,0.1,0
			c0.1,0,0.2,0,0.3,0c0.3,0-0.3-0.1,0,0c0.4,0,0.7,0.2,1,0.4c0.7,0.6,1.3,1.4,1.6,2.3c0.6,1.8,0.9,3.8,1.4,5.7
			c0.6,2.5,1.2,5,1.8,7.5c0.7,2.7,1.3,5.4,2,8.1C74.8,275.8,78,275,77.5,273z"/>
		<path class="st3" d="M59.1,276.8c1.4,3.2,3.9,6,7.5,6.6c2.2,0.4,4.5,0.5,6.8,0.7c6.1,0.5,12.2,0.9,18.2-0.1
			c3.4-0.6,6.6-2.3,6.7-6.1c0.1-2.1-3.2-2.1-3.3,0c0,0.8-0.4,1.5-1.1,1.9c-1,0.5-2.1,0.9-3.3,1.1c-2.5,0.4-5,0.6-7.5,0.6
			c-5.2-0.1-10.4-0.5-15.6-1.1c-0.2,0,0.4,0.1-0.1,0c-0.3,0-0.6-0.1-0.8-0.2c-0.7-0.2-1.4-0.5-2-0.9c-1.3-1.1-2.3-2.5-2.9-4.1
			c-0.5-0.8-1.5-1-2.2-0.6C58.9,275,58.7,276,59.1,276.8z"/>
		<path class="st3" d="M69.3,272.1c-0.8-3.2-1.6-6.3-2.4-9.5c-0.4-1.5-0.7-3-1.1-4.6c-0.3-1.1-0.4-2.2-0.8-3.3
			c-0.5-1.7-1.7-3-3.4-3.7c-1.8-0.6-3.8-0.1-5.1,1.3c-2.2,2.6-1.2,6.7-0.7,9.7c0.8,4.8,1.8,9.5,3.1,14.2c0.5,2,3.7,1.2,3.1-0.9
			c-1-3.7-1.8-7.5-2.5-11.3c-0.3-1.6-0.6-3.2-0.9-4.8c-0.2-1.2-0.3-2.4-0.1-3.6c0.2-1.1,0.9-1.8,2-1.5c1,0.3,1.4,1.3,1.6,2.3
			c0.5,2.4,1.1,4.7,1.7,7c0.8,3.2,1.6,6.3,2.4,9.5C66.7,275,69.8,274.1,69.3,272.1z"/>
		<path class="st3" d="M217.5,189.9c0.9,1.3,1.6,2.6,2.2,4.1c0.2,0.5,0.4,1,0.7,1.5c0.1,0.3,0.2,0.5,0.3,0.8c0,0.1,0.2,0.4,0.1,0.1
			c0.1,0.2,0.1,0.3,0.2,0.5c0.5,1.2,1,2.5,1.5,3.7c2.4,6.2,4.5,12.4,6.6,18.7c2.1,6.4,4,12.8,5.8,19.3c0.7,2.6,1.4,5.1,1.9,7.7
			c0.2,1,0.4,2,0.6,3c0.1,0.4,0.1,0.8,0.2,1.3c0,0.1,0-0.4,0-0.1c0,0.1,0,0.2,0,0.2c0.1,0.5,0.1,1,0.2,1.6c0.4,4.7,0.4,9.5,0,14.3
			c-0.1,2-0.5,4.1-1.3,6c-0.6,1.4-1.4,2.6-2.4,3.7c-1.9,1.9-4.3,3.1-6.9,3.7c-0.7,0.2-1.4,0.3-2.1,0.4c-0.2,0,0,0,0,0
			c-0.1,0-0.2,0-0.2,0c-0.2,0-0.3,0-0.5,0.1c-0.4,0-0.7,0.1-1.1,0.1c-1.3,0.1-2.6,0.1-4,0.1c-2.1-0.1-4.1-0.3-6.1-0.4
			c-0.7,0-1.3-0.1-2-0.1c-0.2,0-0.4,0-0.6-0.1c-0.2,0-0.2,0,0,0c-0.1,0-0.3,0-0.4-0.1c-0.5-0.1-1-0.1-1.5-0.2
			c-5.6-0.9-11.2-2.2-16.7-3.4c-6.4-1.5-12.7-3.1-19-4.8c-2.6-0.7-5.1-1.5-7.7-2.3c-1-0.3-2-0.6-2.9-1c-0.4-0.1-0.8-0.3-1.2-0.4
			c-0.1,0-0.2-0.1-0.3-0.1c-0.1,0,0.4,0.2,0.1,0c-0.2-0.1-0.3-0.1-0.5-0.2c-0.2-0.1-0.4-0.2-0.7-0.3c-0.1,0-0.2-0.1-0.2-0.1
			c-0.3-0.2,0.3,0.3,0.1,0.1l0.4,1.6c2.3-7.9,5-15.7,7.4-23.6c0.5-1.6,1-3.2,1.4-4.8l-2,1.1c5.4,1.3,10.8,2.4,16.1,3.7
			c6,1.4,12,2.7,17.9,4.2c0.5,0.1,0.9,0.3,1.4,0.4c1.3,0.2,2.6,0.4,3.9,0.5c2.8,0.3,5.6,0.6,8.5,0.8c2.1,0.1,2.1-3.1,0-3.2
			c-2.5-0.1-4.9-0.4-7.4-0.7c-1.7-0.1-3.4-0.3-5.1-0.7c-2.5-0.6-5-1.2-7.5-1.8c-6.5-1.5-13-3-19.5-4.4c-2.5-0.6-5.1-1.1-7.6-1.7
			c-0.9-0.2-1.7,0.3-2,1.1c-0.9,3.6-2.1,7.1-3.2,10.6c-1.4,4.5-2.8,9-4.2,13.5c-0.5,1.4-0.9,2.9-1.3,4.3c-0.2,0.6,0,1.2,0.4,1.6
			c1,0.9,2.5,1.4,3.8,1.9c2.2,0.8,4.4,1.5,6.6,2.1c6.1,1.8,12.3,3.4,18.6,4.9c6.1,1.5,12.2,2.9,18.4,4c3.8,0.7,7.6,1.1,11.5,1.4
			c5.5,0.4,11.4,0.4,16.4-2.3c2.8-1.5,5.1-3.9,6.5-6.8c2-4.3,2.1-9.3,2.2-14c0.1-3.8-0.2-7.6-0.7-11.4c-0.4-2.2-0.9-4.3-1.4-6.5
			c-1.5-6.2-3.4-12.4-5.3-18.5c-2.1-6.7-4.3-13.3-6.7-19.9c-1.7-4.8-3.5-9.6-5.9-14.1c-0.3-0.6-0.6-1.1-1-1.6
			c-0.5-0.8-1.4-1-2.2-0.6C217.3,188.1,217.1,189.1,217.5,189.9z"/>
		<path class="st3" d="M187.2,103.7c1.8-1.4,4.4-1.2,5.8,0.5c0.8,1.1,0.9,2.6,0.9,3.9c0.1,1.4,0,2.8-0.3,4.2
			c-0.9,5.2-3.6,11.4-9.4,12.4c-0.9,0.2-1.4,1.1-1.1,2c0.3,0.9,1.1,1.4,2,1.1c5.8-1,9.3-6.4,10.9-11.6c0.9-2.8,1.3-5.8,1.1-8.8
			c-0.2-2.9-1-5.6-3.6-7.1c-2.8-1.6-6.2-1.2-8.6,0.9c-0.6,0.6-0.6,1.7,0,2.3C185.6,104.3,186.6,104.3,187.2,103.7z"/>
		<path class="st3" d="M183.1,122c-0.1,1.7-0.4,3.4-0.9,5c-0.2,0.6-0.4,1.2-0.6,1.8c-0.1,0.2-0.1,0.3-0.2,0.5c0,0.1-0.1,0.1-0.1,0.2
			c-0.1,0.3,0.1-0.2,0,0c-0.8,1.6-1.6,3.2-2.6,4.8c-2.8,4.5-6.3,8.6-10.4,11.9c-2.3,1.9-4.9,3.2-7.7,3.9c-2,0.5-1.2,3.6,0.9,3.1
			c5.8-1.3,10.7-5.5,14.5-9.9c3.2-3.6,5.9-7.6,8-11.9c1.4-3,2.2-6.2,2.3-9.4C186.4,119.9,183.1,119.9,183.1,122z"/>
		<path class="st3" d="M109,101.4c-2.1-1.8-5-2.4-7.6-1.4c-2.8,1.1-4.2,3.5-4.6,6.4c-0.7,5.8,0.8,11.7,4.2,16.4
			c1.9,2.6,4.5,4.6,7.7,5.1c0.9,0.2,1.7-0.3,2-1.1c0.2-0.9-0.3-1.8-1.1-2c-5.8-1-8.5-7.3-9.4-12.4c-0.2-1.4-0.3-2.8-0.3-4.2
			c0-1.3,0.1-2.8,0.9-3.9c1.5-1.7,4.1-2,5.8-0.5c0.6,0.6,1.7,0.6,2.3,0C109.6,103.1,109.6,102,109,101.4z"/>
		<path class="st3" d="M107.8,121.4c0.9,5.8,2.9,11.3,5.9,16.4c3.4,5.5,8.3,10.6,14.1,13.6c3.1,1.6,6.4,2.6,9.9,3
			c0.9,0,1.6-0.7,1.6-1.6c0-0.9-0.7-1.6-1.6-1.6c-11.8-1.2-20.9-11.7-24.6-22.3c-0.9-2.7-1.6-5.4-2.1-8.2c-0.2-0.9-1.1-1.4-2-1.1
			C108.1,119.7,107.6,120.6,107.8,121.4z"/>
		<path class="st3" d="M175.6,52.8c-3.6-7.2-11.6-12.1-19.5-13.4c-7.4-1.3-14.9-1.2-22.2,0.2c-3.6,0.7-7.3,1.8-10.2,4.2
			c-0.6,0.6-0.6,1.7,0,2.3c0.6,0.6,1.7,0.6,2.3,0c0.1-0.1,0.2-0.2,0.3-0.3c-0.2,0.2,0.1-0.1,0.1-0.1c0.3-0.2,0.6-0.4,0.8-0.5
			c0.6-0.3,1.2-0.6,1.8-0.9c1.4-0.6,2.9-1,4.4-1.3c3.5-0.7,7-1.1,10.5-1.2c6.5-0.1,12.9,0.2,18.8,3.3c4.1,2.1,7.8,5.2,9.9,9.4
			C173.7,56.3,176.5,54.7,175.6,52.8z"/>
		<path class="st3" d="M116.9,48.5c-7,3.2-11.9,9.9-14.9,16.8c-3,7.1-4,15.1-3.6,22.8c0.1,4.2,0.8,8.3,2.2,12.3
			c0.3,0.8,1.1,1.3,2,1.1c0.9-0.2,1.4-1.1,1.1-2c-2.5-6.6-2.5-14.2-1.7-21.1c0.8-7.1,3.2-14.1,7.6-19.8c2.4-3.1,5.4-5.6,9-7.3
			c0.8-0.5,1-1.4,0.6-2.2C118.7,48.3,117.7,48,116.9,48.5z"/>
		<path class="st3" d="M178.9,59.9c4.9,2.7,7.9,7.4,10,12.5c2.1,5.3,2.8,11.2,2.6,16.9c-0.1,3.6-0.6,7.2-1.6,10.7
			c-0.6,2,2.6,2.9,3.1,0.9c1.8-6.6,2.2-13.5,1.2-20.3c-0.7-5.8-2.7-11.3-5.9-16.1c-2-3-4.7-5.5-7.8-7.3
			C178.7,56.1,177,58.9,178.9,59.9z"/>
		<path class="st3" d="M163,74.9c-3.4,4-7.7,7.2-12.5,9.3c-4.7,2.1-9.7,3.5-14.8,4.3c-3,0.5-6.1,0.8-9.1,0.7c-2.1,0-2.1,3.2,0,3.2
			c2.9,0,5.8-0.2,8.7-0.6c2.7-0.4,5.4-0.9,8-1.6c5.2-1.5,10.4-3.4,14.8-6.5c2.7-1.8,5.1-4,7.2-6.5c0.6-0.6,0.6-1.6,0-2.3
			C164.6,74.3,163.6,74.3,163,74.9z"/>
		<path class="st3" d="M135.9,82.5c-2.9,2.4-6.1,4.4-9.4,6.1c-3.8,2-7.7,3.9-11.8,5.4c-2,0.8-4.1,1.5-6.1,2.1
			c-2,0.6-1.2,3.7,0.9,3.1c4-1.2,8-2.8,11.8-4.5c4-1.8,7.9-3.8,11.7-6.2c1.8-1.1,3.6-2.4,5.3-3.8c0.6-0.6,0.6-1.7,0-2.3
			C137.6,81.8,136.5,81.8,135.9,82.5z"/>
		<path class="st3" d="M165.3,82.2c1.2,1.1,2.6,1.9,4.2,2.3c1.2,0.3,2.3,0.5,3.5,0.5c0.6,0,1.4,0,1.8,0.6c0.5,0.8,1,1.7,1.3,2.7
			c0.4,0.9,0.8,1.8,1.1,2.7c1,2.4,1.9,4.8,2.8,7.2c0.3,0.8,1.1,1.3,2,1.1c0.9-0.2,1.4-1.1,1.1-2c-1-2.5-1.9-4.9-2.9-7.4
			c-0.7-2.1-1.6-4.1-2.7-6c-0.6-1-1.6-1.7-2.8-2c-1-0.2-2.1-0.2-3.1-0.4c-0.6-0.1-1.2-0.2-1.8-0.4c-0.2-0.1-0.4-0.1-0.6-0.2
			c0,0-0.5-0.2-0.3-0.1c-0.3-0.1-0.6-0.3-0.9-0.5c0.3,0.2-0.1-0.1-0.1-0.1c-0.1-0.1-0.3-0.3-0.4-0.4
			C166.1,78.4,163.8,80.7,165.3,82.2z"/>
		<path class="st4" d="M82.9,235.2c0.1,0,0.3,0,0.4,0c-0.4,0-0.1,0,0,0c0.2,0.1,0.5,0.1,0.7,0.2c0.1,0,0.2,0.1,0.3,0.1
			c0.4,0.1-0.3-0.2,0.1,0c0.2,0.1,0.5,0.2,0.7,0.4c0,0,0.3,0.3,0.2,0.1c-0.2-0.1,0.1,0.1,0.1,0.1c0.2,0.2,0.3,0.3,0.5,0.5
			c-0.2-0.3,0,0.1,0.1,0.1c0.1,0.1,0.1,0.2,0.2,0.3c0.1,0.1,0.1,0.2,0.2,0.3c-0.2-0.3,0,0.1,0.1,0.2c0.1,0.3,0.1,0.5,0.2,0.8
			c0-0.3,0,0,0,0c0,0.2,0,0.3,0,0.5c0,0.1,0,0.2,0,0.4c0,0.2,0.1-0.3,0,0c-0.1,0.3-0.1,0.5-0.2,0.7c0.1-0.4-0.1,0.1-0.1,0.3
			c-0.1,0.1-0.1,0.2-0.2,0.3c0.2-0.3,0.1-0.1,0,0c-0.1,0.1-0.3,0.3-0.5,0.4c0,0,0.3-0.2,0.1-0.1c-0.1,0.1-0.3,0.2-0.4,0.2
			c-0.1,0.1-0.7,0.3-0.2,0.1c-0.2,0.1-0.4,0.1-0.5,0.2c-0.2,0.1-0.4,0.1-0.6,0.1c-0.1,0-0.2,0-0.3,0.1c-0.4,0.1,0.3,0,0,0
			c-0.4,0-0.8,0-1.3,0c-0.1,0-0.5-0.1-0.5,0c0.1-0.1,0.3,0.1,0,0c-0.2,0-0.3-0.1-0.5-0.1c-0.1,0-0.2-0.1-0.3-0.1
			c-0.2-0.1,0.3,0.2-0.1,0c-0.2-0.1-0.4-0.2-0.6-0.4c0.3,0.2-0.1-0.1-0.1-0.1c-0.1-0.1-0.2-0.2-0.3-0.2c-0.1-0.1-0.2-0.2-0.2-0.3
			c0.2,0.3-0.1-0.1-0.1-0.2c-0.1-0.1-0.1-0.2-0.2-0.3c0,0-0.2-0.5-0.1-0.1c-0.1-0.2-0.2-0.5-0.2-0.7c0,0-0.1-0.5,0-0.2
			c0,0.2,0-0.2,0-0.2c0-0.2,0-0.3,0-0.5c0-0.1,0.1-0.5,0-0.2c0.1-0.3,0.1-0.6,0.2-0.9c-0.1,0.3,0.1-0.1,0.1-0.1
			c0.1-0.1,0.1-0.2,0.2-0.4c0.2-0.4-0.2,0.2,0.1-0.1c0.1-0.1,0.2-0.2,0.3-0.3c0.1-0.1,0.2-0.2,0.3-0.3c-0.3,0.2,0,0,0.1-0.1
			c0.2-0.1,0.5-0.3,0.7-0.4c-0.3,0.2,0.1,0,0.1,0c0.1,0,0.3-0.1,0.4-0.1c0.1,0,0.3-0.1,0.4-0.1c0.1,0,0.2,0,0.3,0
			c-0.2,0-0.2,0-0.1,0C82.3,235.3,82.6,235.2,82.9,235.2c0.9,0,1.6-0.7,1.6-1.6s-0.7-1.6-1.6-1.6h0c-2.9-0.1-5.6,1.5-6.8,4.2
			c-1.1,3,0.1,6.3,2.9,7.9c2.2,1.2,5.1,1.1,7.3,0.1c1.1-0.5,2-1.3,2.7-2.3c0.7-1.3,1-2.8,0.7-4.3c-0.5-3.3-3.6-5.5-6.8-5.6
			c-0.9,0-1.6,0.7-1.6,1.6C81.3,234.5,82,235.2,82.9,235.2z"/>
		<path class="st5" d="M82.9,235.2c0.1,0,0.3,0,0.4,0c-0.4,0-0.1,0,0,0c0.2,0.1,0.5,0.1,0.7,0.2c0.1,0,0.2,0.1,0.3,0.1
			c0.4,0.1-0.3-0.2,0.1,0c0.2,0.1,0.5,0.2,0.7,0.4c0,0,0.3,0.3,0.2,0.1c-0.2-0.1,0.1,0.1,0.1,0.1c0.2,0.2,0.3,0.3,0.5,0.5
			c-0.2-0.3,0,0.1,0.1,0.1c0.1,0.1,0.1,0.2,0.2,0.3c0.1,0.1,0.1,0.2,0.2,0.3c-0.2-0.3,0,0.1,0.1,0.2c0.1,0.3,0.1,0.5,0.2,0.8
			c0-0.3,0,0,0,0c0,0.2,0,0.3,0,0.5c0,0.1,0,0.2,0,0.4c0,0.2,0.1-0.3,0,0c-0.1,0.3-0.1,0.5-0.2,0.7c0.1-0.4-0.1,0.1-0.1,0.3
			c-0.1,0.1-0.1,0.2-0.2,0.3c0.2-0.3,0.1-0.1,0,0c-0.1,0.1-0.3,0.3-0.5,0.4c0,0,0.3-0.2,0.1-0.1c-0.1,0.1-0.3,0.2-0.4,0.2
			c-0.1,0.1-0.7,0.3-0.2,0.1c-0.2,0.1-0.4,0.1-0.5,0.2c-0.2,0.1-0.4,0.1-0.6,0.1c-0.1,0-0.2,0-0.3,0.1c-0.4,0.1,0.3,0,0,0
			c-0.4,0-0.8,0-1.3,0c-0.1,0-0.5-0.1-0.5,0c0.1-0.1,0.3,0.1,0,0c-0.2,0-0.3-0.1-0.5-0.1c-0.1,0-0.2-0.1-0.3-0.1
			c-0.2-0.1,0.3,0.2-0.1,0c-0.2-0.1-0.4-0.2-0.6-0.4c0.3,0.2-0.1-0.1-0.1-0.1c-0.1-0.1-0.2-0.2-0.3-0.2c-0.1-0.1-0.2-0.2-0.2-0.3
			c0.2,0.3-0.1-0.1-0.1-0.2c-0.1-0.1-0.1-0.2-0.2-0.3c0,0-0.2-0.5-0.1-0.1c-0.1-0.2-0.2-0.5-0.2-0.7c0,0-0.1-0.5,0-0.2
			c0,0.2,0-0.2,0-0.2c0-0.2,0-0.3,0-0.5c0-0.1,0.1-0.5,0-0.2c0.1-0.3,0.1-0.6,0.2-0.9c-0.1,0.3,0.1-0.1,0.1-0.1
			c0.1-0.1,0.1-0.2,0.2-0.4c0.2-0.4-0.2,0.2,0.1-0.1c0.1-0.1,0.2-0.2,0.3-0.3c0.1-0.1,0.2-0.2,0.3-0.3c-0.3,0.2,0,0,0.1-0.1
			c0.2-0.1,0.5-0.3,0.7-0.4c-0.3,0.2,0.1,0,0.1,0c0.1,0,0.3-0.1,0.4-0.1c0.1,0,0.3-0.1,0.4-0.1c0.1,0,0.2,0,0.3,0
			c-0.2,0-0.2,0-0.1,0C82.3,235.3,82.6,235.2,82.9,235.2z M82.9,235.2c0.9,0,1.6-0.7,1.6-1.6s-0.7-1.6-1.6-1.6h0
			c-2.9-0.1-5.6,1.5-6.8,4.2c-1.1,3,0.1,6.3,2.9,7.9c2.2,1.2,5.1,1.1,7.3,0.1c1.1-0.5,2-1.3,2.7-2.3c0.7-1.3,1-2.8,0.7-4.3
			c-0.5-3.3-3.6-5.5-6.8-5.6c-0.9,0-1.6,0.7-1.6,1.6C81.3,234.5,82,235.2,82.9,235.2z"/>
		<path class="st4" d="M162.6,118.9c5.6,0.2,12,0,15.6-5.1c2.7-3.9,3.3-10.7-0.5-14.1c-0.6-0.4-1.4-0.7-2.1-0.9
			c-0.8-0.2-1.6-0.4-2.3-0.6c-1.5-0.3-3.1-0.6-4.6-0.8c-3.1-0.3-6.3-0.2-9.4,0.4c-2.6,0.5-5.9,1-7.4,3.4c-1.1,1.8-1.6,3.9-1.4,6.1
			c0.2,3.2,1.5,6.2,3.7,8.4C156.3,117.9,159.5,118.8,162.6,118.9c2.1,0.1,2.1-3.2,0-3.2c-2.4-0.1-5.1-0.8-6.7-2.7
			c-1.7-2-2.5-4.6-2.2-7.2c0.1-0.7,0.3-1.4,0.6-2.1c0.5-1.1,0.9-1.3,2-1.7c3-1,6.2-1.4,9.4-1.4c3.6,0.1,7.2,0.7,10.6,1.9l-0.7-0.4
			c2.6,2.7,2,7.5-0.1,10.3c-2.9,3.8-8.4,3.4-12.7,3.3C160.5,115.6,160.5,118.8,162.6,118.9z"/>
		<path class="st5" d="M162.6,118.9c5.6,0.2,12,0,15.6-5.1c2.7-3.9,3.3-10.7-0.5-14.1c-0.6-0.4-1.4-0.7-2.1-0.9
			c-0.8-0.2-1.6-0.4-2.3-0.6c-1.5-0.3-3.1-0.6-4.6-0.8c-3.1-0.3-6.3-0.2-9.4,0.4c-2.6,0.5-5.9,1-7.4,3.4c-1.1,1.8-1.6,3.9-1.4,6.1
			c0.2,3.2,1.5,6.2,3.7,8.4C156.3,117.9,159.5,118.8,162.6,118.9z M162.6,118.9c2.1,0.1,2.1-3.2,0-3.2c-2.4-0.1-5.1-0.8-6.7-2.7
			c-1.7-2-2.5-4.6-2.2-7.2c0.1-0.7,0.3-1.4,0.6-2.1c0.5-1.1,0.9-1.3,2-1.7c3-1,6.2-1.4,9.4-1.4c3.6,0.1,7.2,0.7,10.6,1.9l-0.7-0.4
			c2.6,2.7,2,7.5-0.1,10.3c-2.9,3.8-8.4,3.4-12.7,3.3C160.5,115.6,160.5,118.8,162.6,118.9z"/>
		<path class="st3" d="M118.7,102.5c4.9-1.8,10.2-2.3,15.3-1.6c1.3,0.2,2.6,0.5,3.9,0.9c0.6,0.1,1.2,0.3,1.8,0.6
			c0.2,0.1,0.3,0.3,0.5,0.5c0.8,1.2,1.2,2.6,1.1,4.1c-0.1,2.2-0.8,4.3-2.2,6c-1.3,1.6-3.4,2.4-5.4,2.7c-2.4,0.3-4.8,0.3-7.1,0.1
			c-2.1-0.2-4.5-0.8-6.1-2.3c-2.9-2.6-3.9-8.3-1-11.3c1.5-1.5-0.8-3.8-2.3-2.3c-3.5,3.6-3.3,9.9-0.6,14c3.5,5.1,9.8,5.3,15.4,5.2
			c2.7,0,5.3-0.8,7.6-2.2c2.3-1.7,3.9-4.1,4.5-6.9c0.6-2.2,0.5-4.5-0.2-6.7c-0.3-1.1-0.9-2.1-1.7-2.9c-1-1-2.4-1.3-3.7-1.7
			c-6.8-1.8-14-1.5-20.6,0.8c-0.9,0.3-1.4,1.1-1.1,2C117,102.2,117.9,102.7,118.7,102.5z"/>
		<path class="st4" d="M144.7,107.6C145,107.5,144.3,107.8,144.7,107.6c0.1-0.1,0.3-0.1,0.4-0.1c0.3-0.1,0.5-0.1,0.8-0.2
			c0.1,0,0.4,0-0.1,0c0.1,0,0.1,0,0.2,0c0.2,0,0.3,0,0.5,0c0.3,0,0.7,0,1,0c0.3,0,0.6,0,1,0c0.2,0,0.3,0,0.5,0c0.1,0,0.4,0.1-0.1,0
			c0.1,0,0.1,0,0.2,0c0.3,0,0.6,0.1,0.9,0.2c0.1,0,0.2,0.1,0.4,0.1c0.1,0,0.6,0.2,0.1,0c0.4,0.2,0.8,0.3,1.3,0.2
			c0.4-0.1,0.8-0.4,1-0.7c0.4-0.7,0.3-1.9-0.6-2.2c-1.4-0.6-2.9-0.9-4.5-0.8c-1.5-0.1-3,0.2-4.4,0.8c-0.8,0.5-1,1.4-0.6,2.2
			C142.9,107.8,143.9,108.1,144.7,107.6z"/>
		<path class="st5" d="M144.7,107.6C144.3,107.8,145,107.5,144.7,107.6z M144.7,107.6c0.1-0.1,0.3-0.1,0.4-0.1
			c0.3-0.1,0.5-0.1,0.8-0.2c0.1,0,0.4,0-0.1,0c0.1,0,0.1,0,0.2,0c0.2,0,0.3,0,0.5,0c0.3,0,0.7,0,1,0c0.3,0,0.6,0,1,0
			c0.2,0,0.3,0,0.5,0c0.1,0,0.4,0.1-0.1,0c0.1,0,0.1,0,0.2,0c0.3,0,0.6,0.1,0.9,0.2c0.1,0,0.2,0.1,0.4,0.1c0.1,0,0.6,0.2,0.1,0
			c0.4,0.2,0.8,0.3,1.3,0.2c0.4-0.1,0.8-0.4,1-0.7c0.4-0.7,0.3-1.9-0.6-2.2c-1.4-0.6-2.9-0.9-4.5-0.8c-1.5-0.1-3,0.2-4.4,0.8
			c-0.8,0.5-1,1.4-0.6,2.2C142.9,107.8,143.9,108.1,144.7,107.6z"/>
		<path class="st3" d="M181.4,105.7c0.1,0,0.1-0.1,0.2-0.1l-0.4,0.2c1.1-0.5,2.2-0.8,3.3-1c0.4-0.1,0.8-0.4,1-0.7
			c0.2-0.4,0.3-0.8,0.2-1.3c-0.1-0.4-0.4-0.8-0.7-1c-0.4-0.2-0.8-0.3-1.3-0.2c-1.3,0.3-2.7,0.7-3.9,1.3c-0.4,0.2-0.6,0.6-0.7,1
			c-0.1,0.4-0.1,0.9,0.2,1.3c0.2,0.4,0.6,0.6,1,0.7l0.4,0.1C180.9,106,181.2,105.9,181.4,105.7z"/>
		<path class="st3" d="M114.7,102.9c-1.2-0.6-2.5-1-3.9-1.3c-0.4-0.1-0.9,0-1.3,0.2c-0.8,0.5-1,1.4-0.6,2.2c0.2,0.4,0.6,0.6,1,0.7
			c1.1,0.2,2.2,0.6,3.3,1l-0.4-0.2c0.1,0,0.1,0.1,0.2,0.1c0.2,0.1,0.4,0.2,0.6,0.2c0.2,0,0.4,0,0.7,0c0.4-0.1,0.8-0.4,1-0.7
			c0.2-0.4,0.3-0.8,0.2-1.3C115.3,103.5,115,103.1,114.7,102.9z"/>
		<path class="st3" d="M140.8,133.7c2.3,1.2,4.8,1.8,7.4,1.7c2.6,0,5.3-0.5,7.4-2.1c0.6-0.6,0.6-1.7,0-2.3c-0.6-0.6-1.7-0.6-2.3,0
			c0.5-0.4,0,0-0.1,0c-0.1,0.1-0.3,0.2-0.5,0.3c-0.1,0-0.6,0.3-0.3,0.1c-0.2,0.1-0.4,0.2-0.6,0.2c-1.2,0.4-2.6,0.6-3.9,0.5
			c-1.2,0-2.5-0.1-3.7-0.5c-0.2-0.1-0.5-0.2-0.7-0.2c-0.1,0-0.1-0.1-0.2-0.1c0.4,0.1,0.1,0,0,0c-0.3-0.1-0.6-0.3-0.9-0.4
			c-0.8-0.4-1.8-0.2-2.2,0.6C139.8,132.2,140,133.2,140.8,133.7z"/>
		<path class="st3" d="M147.5,116.2c0.3,1.3,0.6,2.5,0.8,3.8l-0.1-0.4c0,0.2,0,0.4,0,0.5l0.1-0.4c0,0.1,0,0.2-0.1,0.2l0.2-0.4
			c0,0.1-0.1,0.1-0.1,0.1l0.3-0.3c0,0-0.1,0.1-0.1,0.1l0.3-0.3c-0.1,0.1-0.2,0.1-0.3,0.2l0.4-0.2c-0.2,0.1-0.3,0.1-0.5,0.1l0.4-0.1
			c-0.2,0-0.3,0-0.5,0l0.4,0.1c-0.2,0-0.4-0.1-0.5-0.1c-0.4-0.1-0.9,0-1.3,0.2c-0.8,0.5-1,1.4-0.6,2.2c0.2,0.4,0.6,0.6,1,0.7
			c0.4,0.1,0.8,0.1,1.1,0.2c0.6,0,1.1-0.1,1.6-0.4c0.6-0.3,1.1-0.8,1.3-1.5c0.1-0.6,0.1-1.1,0-1.7c-0.2-1.2-0.5-2.4-0.8-3.6
			c-0.2-0.9-1.1-1.4-2-1.1C147.8,114.4,147.2,115.3,147.5,116.2z"/>
		<path class="st3" d="M127.1,105.5c-0.6,2.1-0.2,6.8,3.7,7.2c5.2,0,5.4-5.8,3.7-8.5C133,102,128.8,101.1,127.1,105.5z"/>
		<path class="st3" d="M168.5,105.5c0.6,2.1,0.2,6.8-3.7,7.2c-5.2,0-5.4-5.8-3.7-8.5C162.5,102,166.7,101.1,168.5,105.5z"/>
	</g>
</g>
</svg>
