<svg xmlns="http://www.w3.org/2000/svg" viewBox="0 0 80 80"><defs><style>.cls-1{fill:#f6ba62;}.cls-2{fill:#fff;}.cls-3{fill:#6b5240;}.cls-4{fill:#23afa2;}</style></defs><title>自然科學</title><g id="圖層_2" data-name="圖層 2"><g id="圖層_1-2" data-name="圖層 1"><circle class="cls-1" cx="40" cy="40" r="38.4"/><path class="cls-1" d="M40,80A40,40,0,1,1,80,40,40,40,0,0,1,40,80ZM40,3.2A36.8,36.8,0,1,0,76.8,40,36.84,36.84,0,0,0,40,3.2Z"/><path class="cls-2" d="M56.14,64.75H23.6A4.4,4.4,0,0,1,19.86,58L33.2,36.71l-.06-8.54H46.61l-.1,8.54L59.86,58A4.38,4.38,0,0,1,56.14,64.75Z"/><path class="cls-3" d="M56.15,65.55H23.6a5.21,5.21,0,0,1-4.42-7.95L32.4,36.49l-.06-8.31a.79.79,0,0,1,.23-.57.76.76,0,0,1,.57-.24H46.61a.82.82,0,0,1,.57.24.81.81,0,0,1,.23.57l-.09,8.31L60.54,57.6a5.19,5.19,0,0,1-4.39,7.95ZM33.94,29,34,36.71a.82.82,0,0,1-.12.43L20.54,58.45a3.53,3.53,0,0,0-.1,3.63A3.57,3.57,0,0,0,23.6,64H56.15a3.58,3.58,0,0,0,3-5.49L45.83,37.14a.82.82,0,0,1-.12-.43L45.8,29Z"/><rect class="cls-2" x="30.95" y="22.64" width="17.84" height="5.52"/><path class="cls-3" d="M48.79,29H31a.8.8,0,0,1-.8-.8V22.64a.8.8,0,0,1,.8-.8H48.79a.8.8,0,0,1,.8.8v5.52A.8.8,0,0,1,48.79,29Zm-17-1.6H48V23.44H31.75Z"/><path class="cls-4" d="M55,60H24.69L30,51.45a11.72,11.72,0,0,1,6.08-1.38c2.66.19,3.81,1.51,6.69,2a15.5,15.5,0,0,0,6.85-.67Z"/><path class="cls-3" d="M55,60.76H24.69a.81.81,0,0,1-.7-.41.83.83,0,0,1,0-.82L29.36,51a.86.86,0,0,1,.29-.28,12.76,12.76,0,0,1,6.53-1.47,11,11,0,0,1,3.64,1,12.47,12.47,0,0,0,3.1,1,14.81,14.81,0,0,0,6.47-.63.79.79,0,0,1,.94.33l5.37,8.61a.79.79,0,0,1,0,.81A.82.82,0,0,1,55,60.76Zm-28.89-1.6H53.58L49.3,52.3a16.58,16.58,0,0,1-6.62.51,13.76,13.76,0,0,1-3.47-1.06,9.39,9.39,0,0,0-3.15-.88,11,11,0,0,0-5.46,1.18Z"/><path class="cls-1" d="M49.65,51.35A15.5,15.5,0,0,1,42.8,52c-2.88-.44-4-1.76-6.69-2A11.72,11.72,0,0,0,30,51.45l4.32-6.88a14.09,14.09,0,0,0,3.88.29c1.4-.1,2-.39,3.42-.48a12.05,12.05,0,0,1,3.36.25c.06,0,.22,0,.64.35Z"/><path class="cls-3" d="M44.61,53a11.93,11.93,0,0,1-1.93-.14,13.76,13.76,0,0,1-3.47-1.06,9.39,9.39,0,0,0-3.15-.88,10.87,10.87,0,0,0-5.64,1.28.81.81,0,0,1-1-.16.78.78,0,0,1-.09-1l4.32-6.88a.81.81,0,0,1,.84-.36,13.06,13.06,0,0,0,3.65.28,13.77,13.77,0,0,0,1.64-.23,14.39,14.39,0,0,1,1.78-.25,12.32,12.32,0,0,1,3.52.26,1.88,1.88,0,0,1,1.06.53,1,1,0,0,1,.16.19l4,6.37a.8.8,0,0,1,.07.69.82.82,0,0,1-.49.49A16.73,16.73,0,0,1,44.61,53Zm-9.18-3.71q.38,0,.75,0a11,11,0,0,1,3.64,1,12.47,12.47,0,0,0,3.1,1,14.72,14.72,0,0,0,5.49-.34L45,45.52a.75.75,0,0,0-.16-.11,12.13,12.13,0,0,0-3.18-.24,13.71,13.71,0,0,0-1.59.23,14,14,0,0,1-1.83.25,14.68,14.68,0,0,1-3.54-.19L32,49.77A12.15,12.15,0,0,1,35.43,49.24Z"/><circle class="cls-2" cx="59.68" cy="20.6" r="3.24"/><path class="cls-3" d="M59.68,24.65a4,4,0,1,1,4-4A4.06,4.06,0,0,1,59.68,24.65Zm0-6.49a2.45,2.45,0,1,0,2.44,2.44A2.45,2.45,0,0,0,59.68,18.16Z"/><circle class="cls-2" cx="48.79" cy="12.89" r="3.24"/><path class="cls-3" d="M48.79,16.94a4.05,4.05,0,1,1,4-4.05A4.06,4.06,0,0,1,48.79,16.94Zm0-6.5a2.45,2.45,0,1,0,2.44,2.45A2.45,2.45,0,0,0,48.79,10.44Z"/><circle class="cls-2" cx="20.16" cy="33.84" r="5.68"/><path class="cls-3" d="M20.16,40.33a6.49,6.49,0,1,1,6.49-6.49A6.49,6.49,0,0,1,20.16,40.33Zm0-11.37a4.89,4.89,0,1,0,4.89,4.88A4.89,4.89,0,0,0,20.16,29Z"/></g></g></svg>