<svg width="16" height="16" viewBox="0 0 16 16" fill="none" xmlns="http://www.w3.org/2000/svg">
<path d="M14.4483 0.395454L14.8597 0.829539C15.4265 1.42843 15.3408 2.4901 14.6665 3.20082L6.1828 12.1525L3.43416 13.2135C3.08901 13.3474 2.75292 13.1737 2.68459 12.8272C2.6615 12.7015 2.67237 12.5715 2.71597 12.452L3.74096 9.52668L12.201 0.599253C12.8752 -0.111469 13.8814 -0.203436 14.4483 0.395454ZM5.81255 1.2857C5.90412 1.2857 5.99479 1.30473 6.07938 1.3417C6.16398 1.37867 6.24085 1.43287 6.3056 1.50119C6.37034 1.56951 6.4217 1.65061 6.45675 1.73988C6.49179 1.82914 6.50982 1.92481 6.50982 2.02143C6.50982 2.11805 6.49179 2.21372 6.45675 2.30299C6.4217 2.39225 6.37034 2.47336 6.3056 2.54168C6.24085 2.61 6.16398 2.66419 6.07938 2.70116C5.99479 2.73814 5.90412 2.75717 5.81255 2.75717H3.02346C2.65361 2.75717 2.2989 2.9122 2.03737 3.18815C1.77584 3.46411 1.62892 3.83838 1.62892 4.22864V13.0575C1.62892 13.4477 1.77584 13.822 2.03737 14.098C2.2989 14.3739 2.65361 14.529 3.02346 14.529H11.3907C11.7606 14.529 12.1153 14.3739 12.3768 14.098C12.6383 13.822 12.7853 13.4477 12.7853 13.0575V10.1145C12.7853 9.91941 12.8587 9.73227 12.9895 9.59429C13.1203 9.45631 13.2976 9.3788 13.4825 9.3788C13.6675 9.3788 13.8448 9.45631 13.9756 9.59429C14.1064 9.73227 14.1798 9.91941 14.1798 10.1145V13.0575C14.1798 13.838 13.886 14.5866 13.3629 15.1385C12.8399 15.6904 12.1304 16.0004 11.3907 16.0004H3.02346C2.28375 16.0004 1.57434 15.6904 1.05128 15.1385C0.528224 14.5866 0.234375 13.838 0.234375 13.0575V4.22864C0.234375 3.44812 0.528224 2.69957 1.05128 2.14766C1.57434 1.59576 2.28375 1.2857 3.02346 1.2857H5.81255Z" fill="#19B9AA"/>
</svg>
