<?xml version="1.0" encoding="UTF-8"?>
<svg xmlns="http://www.w3.org/2000/svg" version="1.1" viewBox="0 0 48 48">
  <defs>
    <style>
      .cls-1 {
        fill: #ffbf61;
      }
    </style>
  </defs>
  <!-- Generator: Adobe Illustrator 28.6.0, SVG Export Plug-In . SVG Version: 1.2.0 Build 709)  -->
  <g>
    <g id="_圖層_1" data-name="圖層_1">
      <g id="_圖層_2">
        <g id="ICON">
          <path class="cls-1" d="M47.9,18.3c-.2-.5-.5-1-.9-1.5-.5-.5-1.4-1-2.1-1l-11.5-1.9c-.3,0-.5-.2-.7-.5l-5.3-10.5c-.7-1-2.1-1.9-3.4-1.9s-2.7.9-3.4,2.1l-5.3,10.5c0,.2-.3.3-.7.5l-11.5,1.9c-.7,0-1.4.5-2.1,1-.5.3-.9,1-1,1.5-.3.9-.2,1.7,0,2.6.2.5.5.9.9,1.2l8.2,8.2c.2.2.3.5.2.7l-1.7,10.6v.9c-.3,1.4.2,2.7,1.4,3.6,1.2.9,2.6,1,3.9.3l1.2-.7,9.1-4.6h.7l9.3,4.6,1.2.7c.5.3,1.2.3,1.7.3s1.5-.2,2.2-.7c1.2-.9,1.7-2.2,1.5-3.6v-.9l-1.7-10.6c0-.3,0-.5.2-.7l8.2-8.2c.3-.3.7-.9.9-1.4.3-.7.3-1.7,0-2.4h0l.5-.2Z"/>
        </g>
      </g>
    </g>
  </g>
</svg>