<?xml version="1.0" encoding="utf-8"?>
<!-- Generator: Adobe Illustrator 23.0.2, SVG Export Plug-In . SVG Version: 6.00 Build 0)  -->
<svg version="1.1" id="圖層_1" xmlns="http://www.w3.org/2000/svg" xmlns:xlink="http://www.w3.org/1999/xlink" x="0px" y="0px"
	 viewBox="0 0 48 48" style="enable-background:new 0 0 48 48;" xml:space="preserve">
<style type="text/css">
	.st0{fill:#FFFFFF;}
</style>
<g>
	<g id="_圖層_1">
		<g id="_圖層_1-2">
			<path class="st0" d="M44.5,39.8l-7.8-8c-0.8-0.8-2.1-1.2-3.2-0.8l-1.5-1.5c5.8-6.9,4.9-17.4-2.1-23.3C22.7,0.4,12.3,1.4,6.4,8.4
				S1.4,25.7,8.4,31.6c5.9,4.9,14.7,5.1,20.9,0.2l1.5,1.5c-0.4,1.2,0,2.3,0.8,3.2l7.8,8c0.7,0.7,1.5,1,2.3,1c1.9,0,3.4-1.5,3.4-3.4
				s-0.4-1.7-1-2.3L44.5,39.8L44.5,39.8z M18.9,30.5c-6.3,0-11.4-5.1-11.4-11.4S12.7,7.6,18.9,7.6s11.4,5.1,11.4,11.4
				S25.2,30.5,18.9,30.5C18.9,30.5,18.9,30.5,18.9,30.5z"/>
		</g>
	</g>
</g>
</svg>
