<svg width="50" height="49" viewBox="0 0 50 49" fill="none" xmlns="http://www.w3.org/2000/svg">
<g clip-path="url(#clip0_889_9250)">
<path d="M43.346 9.21582H6.7275C5.7079 9.21582 4.88135 10.0813 4.88135 11.149V36.8211C4.88135 37.8888 5.7079 38.7543 6.7275 38.7543H43.346C44.3656 38.7543 45.1921 37.8888 45.1921 36.8211V11.149C45.1921 10.0813 44.3656 9.21582 43.346 9.21582Z" fill="#1434CB" stroke="#1434CB" stroke-width="0.923077" stroke-miterlimit="10"/>
<path d="M20.977 19.1654L16.6882 29.0254H13.8843L11.8074 21.1554C11.7889 20.9712 11.7207 20.795 11.6096 20.6441C11.4984 20.4933 11.3483 20.373 11.1739 20.2954C10.3452 19.911 9.46943 19.6288 8.56738 19.4554L8.62969 19.1654H13.1366C13.4299 19.1644 13.7138 19.2648 13.9367 19.4483C14.1597 19.6318 14.3069 19.8862 14.3516 20.1654L15.4732 25.8654L18.2251 19.1554L20.977 19.1654ZM31.9535 25.8054C31.9535 23.2054 28.2151 23.0654 28.2358 21.9054C28.2358 21.5454 28.5993 21.1754 29.3574 21.0754C30.2549 20.9939 31.1586 21.1458 31.9743 21.5154L32.4416 19.4254C31.6473 19.1405 30.8073 18.9916 29.9597 18.9854C27.3428 18.9854 25.5047 20.3254 25.4839 22.2454C25.4839 23.6654 26.8028 24.4554 27.7997 24.9354C28.7966 25.4154 29.1808 25.7254 29.1808 26.1554C29.1808 26.8154 28.3501 27.1054 27.592 27.1554C26.6585 27.1577 25.7399 26.9305 24.9232 26.4954L24.4455 28.6554C25.3854 29.0085 26.3858 29.1883 27.3947 29.1854C30.1674 29.1854 31.9951 27.8554 32.0055 25.8054M38.9112 29.0254H41.362L39.2228 19.1654H36.9174C36.6746 19.1642 36.4369 19.2331 36.2352 19.3632C36.0334 19.4933 35.8768 19.6787 35.7855 19.8954L31.8082 29.0254H34.5912L35.1416 27.5554H38.5374L38.9112 29.0254ZM35.962 25.5354L37.3535 21.8354L38.1532 25.5354H35.962ZM24.7674 19.1654L22.5762 29.0254H19.9282L22.1193 19.1654H24.7674Z" fill="white"/>
</g>
<defs>
<clipPath id="clip0_889_9250">
<rect width="49.8462" height="48" fill="white" transform="translate(0 0.0859375)"/>
</clipPath>
</defs>
</svg>
