<svg width="16" height="16" viewBox="0 0 16 16" fill="none" xmlns="http://www.w3.org/2000/svg">
<path d="M14.4483 0.395024L14.8597 0.829109C15.4265 1.428 15.3408 2.48967 14.6665 3.20039L6.1828 12.1521L3.43416 13.213C3.08901 13.3469 2.75292 13.1733 2.68459 12.8268C2.6615 12.7011 2.67237 12.571 2.71597 12.4515L3.74096 9.52625L12.201 0.598823C12.8752 -0.111898 13.8814 -0.203865 14.4483 0.395024ZM5.81255 1.28527C5.90412 1.28527 5.99479 1.3043 6.07938 1.34127C6.16398 1.37824 6.24085 1.43244 6.3056 1.50076C6.37034 1.56908 6.4217 1.65018 6.45675 1.73945C6.49179 1.82871 6.50982 1.92438 6.50982 2.021C6.50982 2.11762 6.49179 2.21329 6.45675 2.30256C6.4217 2.39182 6.37034 2.47293 6.3056 2.54125C6.24085 2.60957 6.16398 2.66376 6.07938 2.70073C5.99479 2.73771 5.90412 2.75674 5.81255 2.75674H3.02346C2.65361 2.75674 2.2989 2.91177 2.03737 3.18772C1.77584 3.46368 1.62892 3.83795 1.62892 4.22821V13.0571C1.62892 13.4473 1.77584 13.8216 2.03737 14.0975C2.2989 14.3735 2.65361 14.5285 3.02346 14.5285H11.3907C11.7606 14.5285 12.1153 14.3735 12.3768 14.0975C12.6383 13.8216 12.7853 13.4473 12.7853 13.0571V10.1141C12.7853 9.91898 12.8587 9.73184 12.9895 9.59386C13.1203 9.45588 13.2976 9.37837 13.4825 9.37837C13.6675 9.37837 13.8448 9.45588 13.9756 9.59386C14.1064 9.73184 14.1798 9.91898 14.1798 10.1141V13.0571C14.1798 13.8376 13.886 14.5861 13.3629 15.138C12.8399 15.6899 12.1304 16 11.3907 16H3.02346C2.28375 16 1.57434 15.6899 1.05128 15.138C0.528224 14.5861 0.234375 13.8376 0.234375 13.0571V4.22821C0.234375 3.44769 0.528224 2.69914 1.05128 2.14724C1.57434 1.59533 2.28375 1.28527 3.02346 1.28527H5.81255Z" fill="white"/>
</svg>
