<svg xmlns="http://www.w3.org/2000/svg" viewBox="0 0 80 80"><defs><style>.cls-1{fill:#f6ba62;}.cls-2{fill:#fff;}.cls-3{fill:#6b5240;}.cls-4{fill:#23afa2;}</style></defs><title>多元語言</title><g id="圖層_2" data-name="圖層 2"><g id="圖層_1-2" data-name="圖層 1"><circle class="cls-1" cx="40" cy="40" r="38.4"/><path class="cls-1" d="M40,80A40,40,0,1,1,80,40,40,40,0,0,1,40,80ZM40,3.2A36.8,36.8,0,1,0,76.8,40,36.84,36.84,0,0,0,40,3.2Z"/><path class="cls-2" d="M47,35.09H61.08c3.51,0,6.4,2.6,6.4,5.8V51.13c0,3.2-2.89,5.82-6.4,5.82H58.69a4.41,4.41,0,0,0-.46,2.14,5.32,5.32,0,0,0,1.62,3.62A12.91,12.91,0,0,1,54,60.44,11.07,11.07,0,0,1,51,57H42.12a6.13,6.13,0,0,1-6.4-5.82v-6"/><path class="cls-3" d="M59.85,63.51h-.12a13.58,13.58,0,0,1-6.16-2.42,11.79,11.79,0,0,1-3.08-3.33H42.12c-4,0-7.2-3-7.2-6.62v-6a.8.8,0,1,1,1.6,0v6c0,2.77,2.52,5,5.6,5H51a.79.79,0,0,1,.69.41,10.17,10.17,0,0,0,2.88,3.24A11.58,11.58,0,0,0,58,61.5a5.58,5.58,0,0,1-.58-2.39A5.2,5.2,0,0,1,58,56.6a.8.8,0,0,1,.72-.45h2.39c3.08,0,5.6-2.25,5.6-5V40.89c0-2.76-2.52-5-5.6-5H47a.8.8,0,0,1,0-1.6H61.08c4,0,7.2,3,7.2,6.6V51.13c0,3.65-3.23,6.62-7.2,6.62H59.22A3.47,3.47,0,0,0,59,59.06a4.58,4.58,0,0,0,1.38,3.08.8.8,0,0,1-.56,1.37Z"/><path class="cls-1" d="M56,51.33a.81.81,0,0,1-.74-.5l-3.53-8.56H51.5l-3.59,8.57a.8.8,0,1,1-1.48-.62L50,41.66a1.73,1.73,0,0,1,1.61-1.07h0a1.73,1.73,0,0,1,1.61,1.07l3.53,8.56a.8.8,0,0,1-.43,1.05A.85.85,0,0,1,56,51.33Z"/><path class="cls-1" d="M54.58,47.81H48.65a.8.8,0,0,1,0-1.6h5.93a.8.8,0,0,1,0,1.6Z"/><path class="cls-2" d="M45.77,29V39.19A5.84,5.84,0,0,1,40,45H27.15a10.42,10.42,0,0,1-2.88,3.62A11,11,0,0,1,19,50.9a5.59,5.59,0,0,0,1.47-3.61A5.38,5.38,0,0,0,20,45H18.35a5.83,5.83,0,0,1-5.83-5.82V29a5.83,5.83,0,0,1,5.83-5.82H40A5.84,5.84,0,0,1,45.77,29Z"/><path class="cls-3" d="M19,51.7a.8.8,0,0,1-.7-.42.79.79,0,0,1,.11-.92,4.84,4.84,0,0,0,1.26-3.09,4,4,0,0,0-.23-1.45H18.35a6.64,6.64,0,0,1-6.63-6.63V29a6.64,6.64,0,0,1,6.63-6.62H40A6.63,6.63,0,0,1,46.57,29V39.19A6.64,6.64,0,0,1,40,45.82H27.64a11.37,11.37,0,0,1-2.87,3.44,11.83,11.83,0,0,1-5.65,2.43Zm-.64-27.77a5,5,0,0,0-5,5V39.19a5,5,0,0,0,5,5H20a.78.78,0,0,1,.73.47,6,6,0,0,1,0,5,10,10,0,0,0,3-1.65,9.75,9.75,0,0,0,2.66-3.34.78.78,0,0,1,.72-.45H40a5,5,0,0,0,5-5V29a5,5,0,0,0-5-5Z"/><path class="cls-4" d="M29.4,40.26a5.21,5.21,0,0,1-3.68-1.61.79.79,0,0,1,.05-1.13.8.8,0,0,1,1.13,0,3.45,3.45,0,0,0,4.17.63c1.43-.8,1.52-2.72,1.34-4.2a1,1,0,0,0-1-.85H24.06a.8.8,0,0,1-.63-1.29l2.88-3.72a.8.8,0,0,1,1.27,1l-1.89,2.43h5.68A2.61,2.61,0,0,1,34,33.8c.34,2.79-.43,4.84-2.16,5.8A5,5,0,0,1,29.4,40.26Z"/></g></g></svg>