<?xml version="1.0" encoding="UTF-8"?>
<svg xmlns="http://www.w3.org/2000/svg" version="1.1" viewBox="0 0 48 48">
  <defs>
    <style>
      .cls-1 {
        fill: #fff;
      }
    </style>
  </defs>
  <!-- Generator: Adobe Illustrator 28.6.0, SVG Export Plug-In . SVG Version: 1.2.0 Build 709)  -->
  <g>
    <g id="_圖層_2">
      <g id="ICON">
        <path class="cls-1" d="M38,45.2c-.4,0-.7-.1-1-.3l-17.9-11.9c-.9-.6-1.1-1.8-.5-2.6.6-.9,1.8-1.1,2.6-.5l15.6,10.3,6.8-32.7L7.1,24.6l7,2.3c1,.3,1.5,1.4,1.2,2.4-.3,1-1.4,1.6-2.4,1.2l-11.6-3.7c-.7-.2-1.3-.9-1.3-1.7,0-.8.4-1.5,1.1-1.8L45.3,2.4c.7-.3,1.4-.2,2,.2.6.4.8,1.2.7,1.9l-8.1,39.1c-.1.6-.6,1.1-1.1,1.4-.2,0-.5.1-.7.1Z"/>
        <path class="cls-1" d="M20.1,45.8c-.3,0-.6,0-.8-.2-.7-.3-1.1-1-1.1-1.7v-12.5c0-.5.2-1,.5-1.3L44.7,2.8c.7-.8,1.9-.8,2.7,0,.8.7.8,1.9,0,2.7l-25.5,26.7v7.7s5.3-4.4,5.3-4.4c.8-.7,2-.5,2.7.3.7.8.5,2-.3,2.7l-8.4,6.9c-.3.3-.8.4-1.2.4Z"/>
      </g>
    </g>
  </g>
</svg>