<?xml version="1.0" encoding="UTF-8"?>
<svg xmlns="http://www.w3.org/2000/svg" version="1.1" viewBox="0 0 48 48">
  <defs>
    <style>
      .cls-1 {
        fill: #f39848;
      }
    </style>
  </defs>
  <!-- Generator: Adobe Illustrator 28.6.0, SVG Export Plug-In . SVG Version: 1.2.0 Build 709)  -->
  <g>
    <g id="_圖層_2">
      <g id="ICON">
        <path class="cls-1" d="M38.9,48H6C2.7,48,0,45.3,0,42V9.1C0,5.8,2.7,3.1,6,3.1h10.8c1.1,0,2,.9,2,2s-.9,2-2,2H6c-1.1,0-1.9.9-1.9,1.9v32.9c0,1.1.9,1.9,1.9,1.9h32.9c1.1,0,1.9-.9,1.9-1.9v-10.4c0-1.1.9-2,2-2s2,.9,2,2v10.4c0,3.3-2.7,6-6,6Z"/>
        <path class="cls-1" d="M45.3,4.8s0,0,0,0l-18.9-.7c-1.1,0-2-1-2-2.1,0-1.1,1-2,2.1-2l18.9.7c1.1,0,2,1,2,2.1,0,1.1-.9,2-2,2Z"/>
        <path class="cls-1" d="M46,23.7c-1.1,0-2-.9-2-2l-.7-18.9c0-1.1.8-2.1,2-2.1,1,0,2.1.8,2.1,2l.7,18.9c0,1.1-.8,2.1-2,2.1,0,0,0,0,0,0Z"/>
        <path class="cls-1" d="M18.3,31.7c-.5,0-1-.2-1.4-.6-.8-.8-.8-2.1,0-2.9L43.8,1.3c.8-.8,2.1-.8,2.9,0,.8.8.8,2.1,0,2.9l-27,26.9c-.4.4-.9.6-1.4.6Z"/>
      </g>
    </g>
  </g>
</svg>