<?xml version="1.0" encoding="UTF-8"?>
<svg xmlns="http://www.w3.org/2000/svg" version="1.1" viewBox="0 0 48 48">
  <defs>
    <style>
      .cls-1 {
        fill: #fff;
      }

      .cls-2 {
        fill: #23afa2;
      }
    </style>
  </defs>
  <!-- Generator: Adobe Illustrator 28.6.0, SVG Export Plug-In . SVG Version: 1.2.0 Build 709)  -->
  <g>
    <g id="_圖層_2">
      <g id="ICON">
        <g>
          <path class="cls-2" d="M29.8,46l16.2-16.2c1.3-1.3,1.3-3.4,0-4.8L22.9,2c-.7-.7-1.6-1-2.6-1L5.1,2c-1.7.1-3,1.5-3.1,3.1l-1,15.2c0,1,.3,1.9,1,2.6l23.1,23.1c1.3,1.3,3.4,1.3,4.8,0Z"/>
          <path class="cls-2" d="M27.5,48c-1.2,0-2.2-.5-3.1-1.3L1.3,23.6C.4,22.7,0,21.5,0,20.3l1-15.2c.1-2.2,1.9-3.9,4-4L20.3,0c1.2,0,2.5.4,3.3,1.3l23.1,23.1c.8.8,1.3,1.9,1.3,3.1s-.5,2.2-1.3,3.1l-16.2,16.2c-.8.8-1.9,1.3-3.1,1.3ZM20.6,1.9c0,0-.1,0-.2,0l-15.2,1c-1.2,0-2.2,1-2.2,2.2l-1,15.2c0,.7.2,1.4.7,1.9l23.1,23.1c.9.9,2.5.9,3.4,0l16.2-16.2c.9-.9.9-2.5,0-3.4L22.3,2.6c-.4-.4-1.1-.7-1.7-.7ZM29.8,46h0,0Z"/>
        </g>
        <circle class="cls-1" cx="16.1" cy="16.1" r="4.3"/>
      </g>
    </g>
  </g>
</svg>