<svg width="24" height="24" viewBox="0 0 24 24" fill="none" xmlns="http://www.w3.org/2000/svg">
<g clip-path="url(#clip0_994_6201)">
<path d="M21.3254 8.30798L19.871 5.79097C19.7986 5.6656 19.6844 5.56966 19.5485 5.51989C19.4125 5.47012 19.2634 5.4697 19.1272 5.51868L17.9716 5.95036C17.8609 5.9979 17.7386 6.01129 17.6202 5.98881C17.5019 5.96632 17.393 5.90899 17.3075 5.82418C17.0761 5.61671 16.8321 5.42374 16.5769 5.24639C16.4876 5.18492 16.416 5.101 16.3693 5.00307C16.3227 4.90514 16.3027 4.79666 16.3113 4.68853L16.4176 3.45992C16.4338 3.31356 16.3972 3.16621 16.3144 3.04444C16.2316 2.92266 16.108 2.83449 15.966 2.7958L14.5647 2.41725L13.1833 2.03871C13.0438 2.00012 12.8951 2.01233 12.7638 2.07314C12.6324 2.13395 12.5269 2.23942 12.4661 2.37077L11.9945 3.43999C11.9463 3.54142 11.8714 3.62779 11.7778 3.68981C11.6842 3.75182 11.5754 3.78715 11.4632 3.79198C11.1246 3.8148 10.7876 3.85693 10.4538 3.91816C10.3449 3.94236 10.2314 3.93594 10.1259 3.8996C10.0204 3.86327 9.92699 3.79843 9.85607 3.71228L9.12554 2.83565C9.03164 2.7203 8.89888 2.64316 8.75216 2.61871C8.60544 2.59426 8.45484 2.62416 8.3286 2.70282L5.8116 4.15724C5.68645 4.22973 5.59107 4.34425 5.54243 4.48045C5.49379 4.61665 5.49503 4.76569 5.54595 4.90105L5.93778 5.97692C5.97502 6.08114 5.98357 6.19345 5.96254 6.3021C5.94151 6.41075 5.89167 6.51176 5.81824 6.59455C5.59524 6.84949 5.39104 7.12027 5.20725 7.40478C5.14657 7.49938 5.06148 7.57585 4.96096 7.62611C4.86043 7.67638 4.7482 7.69857 4.63611 7.69035L3.48719 7.58409C3.34083 7.56783 3.19348 7.6044 3.0717 7.68721C2.94993 7.77001 2.86175 7.8936 2.82307 8.03569L2.0859 10.8383C2.04591 10.9778 2.05745 11.127 2.11842 11.2587C2.17939 11.3904 2.28571 11.4957 2.41796 11.5555L3.53367 12.0735C3.63311 12.119 3.71836 12.1905 3.78034 12.2806C3.84233 12.3706 3.87872 12.4758 3.88566 12.5849C3.91363 12.8947 3.95797 13.2029 4.01848 13.508C4.04399 13.6173 4.0389 13.7316 4.00375 13.8382C3.9686 13.9448 3.90477 14.0397 3.81924 14.1124L2.86292 14.9159C2.74601 15.0035 2.66478 15.1305 2.63426 15.2733C2.60373 15.4162 2.62598 15.5653 2.69689 15.693L4.1513 18.21C4.2228 18.3361 4.33726 18.4323 4.47381 18.4811C4.61036 18.5299 4.75989 18.5279 4.89511 18.4756L6.16358 18.0174C6.2635 17.9794 6.37186 17.9692 6.47712 17.9879C6.58237 18.0066 6.68058 18.0535 6.76129 18.1236C6.9738 18.2963 7.19296 18.4557 7.4254 18.6084C7.5193 18.6694 7.59485 18.7548 7.64398 18.8554C7.69311 18.956 7.71397 19.068 7.70433 19.1796L7.58479 20.5078C7.56712 20.6544 7.60313 20.8024 7.68615 20.9245C7.76917 21.0466 7.89358 21.1345 8.03639 21.1719L9.44432 21.5505L10.8655 21.9622C11.0058 22.0003 11.1551 21.9872 11.2866 21.9251C11.4181 21.863 11.5231 21.7561 11.5828 21.6235L12.1871 20.2953C12.2343 20.1958 12.3071 20.1107 12.3982 20.0488C12.4893 19.9869 12.5953 19.9505 12.7051 19.9433C12.9459 19.9232 13.1853 19.8899 13.4224 19.8437C13.5303 19.8229 13.6418 19.8311 13.7456 19.8672C13.8494 19.9034 13.9418 19.9663 14.0134 20.0496L14.9366 21.1586C15.0287 21.27 15.1573 21.3452 15.2995 21.3707C15.4418 21.3963 15.5885 21.3705 15.7136 21.2981L18.2372 19.8437C18.3624 19.7712 18.4578 19.6567 18.5064 19.5205C18.555 19.3843 18.5538 19.2352 18.5029 19.0999L18.0048 17.7716C17.9676 17.6674 17.959 17.5551 17.98 17.4465C18.0011 17.3378 18.0509 17.2368 18.1243 17.154C18.2837 16.9681 18.4298 16.7821 18.5693 16.5829C18.6305 16.4913 18.7152 16.4177 18.8144 16.3698C18.9137 16.3219 19.024 16.3015 19.1338 16.3106L20.5683 16.4434C20.7155 16.4594 20.8636 16.4218 20.9855 16.3377C21.1074 16.2536 21.195 16.1285 21.2324 15.9852L21.6043 14.5839L21.9563 13.156C21.9959 13.0175 21.9841 12.8692 21.9231 12.7386C21.8621 12.6081 21.756 12.5039 21.6242 12.4454L20.3823 11.8676C20.2823 11.8194 20.1969 11.7454 20.1351 11.6531C20.0732 11.5609 20.0371 11.4538 20.0304 11.343C20.0304 11.0707 19.9772 10.7984 19.9374 10.5261C19.9183 10.4212 19.9272 10.3131 19.9634 10.2128C19.9996 10.1125 20.0616 10.0236 20.1433 9.95499L21.1793 9.08499C21.2918 8.9938 21.3682 8.86561 21.395 8.7233C21.4217 8.58099 21.3971 8.4338 21.3254 8.30798ZM16.0855 11.1504C16.1254 11.3538 16.1454 11.5607 16.1453 11.768C16.1721 12.6435 15.9236 13.5052 15.4347 14.2319C15.32 14.4001 15.1935 14.5599 15.0561 14.7101C14.7661 15.0289 14.4277 15.3001 14.0533 15.5137C13.681 15.7338 13.2748 15.8909 12.8512 15.9785C12.6531 16.0272 12.4507 16.0562 12.2469 16.0649C11.3751 16.1301 10.5052 15.9161 9.7631 15.4539C9.58284 15.3496 9.41372 15.2273 9.25837 15.0886C8.88221 14.7833 8.56489 14.412 8.32196 13.9928C8.12108 13.6441 7.97124 13.2684 7.877 12.8771C7.67222 11.9095 7.79123 10.9014 8.2157 10.0081L8.26883 9.90186C8.41764 9.63283 8.59583 9.38114 8.80013 9.1514C9.09932 8.8027 9.45656 8.50836 9.85607 8.28141C10.2534 8.04969 10.6866 7.88584 11.1378 7.79661C11.3574 7.75659 11.5792 7.72997 11.8019 7.71691C12.7202 7.68318 13.6246 7.9489 14.3787 8.47401C14.5515 8.59541 14.7157 8.72855 14.8702 8.87248C15.1584 9.15118 15.4065 9.46856 15.6073 9.81552C15.842 10.2298 16.0037 10.6813 16.0855 11.1504Z" fill="#898989"/>
</g>
<defs>
<clipPath id="clip0_994_6201">
<rect width="24" height="24" fill="white"/>
</clipPath>
</defs>
</svg>
