<?xml version="1.0" encoding="utf-8"?>
<!-- Generator: Adobe Illustrator 23.0.2, SVG Export Plug-In . SVG Version: 6.00 Build 0)  -->
<svg version="1.1" id="圖層_1" xmlns="http://www.w3.org/2000/svg" xmlns:xlink="http://www.w3.org/1999/xlink" x="0px" y="0px"
	 viewBox="0 0 24 24" style="enable-background:new 0 0 24 24;" xml:space="preserve">
<style type="text/css">
	.st0{clip-path:url(#SVGID_2_);}
	.st1{fill:#FFBC59;}
</style>
<g>
	<defs>
		<rect id="SVGID_1_" width="24" height="24"/>
	</defs>
	<clipPath id="SVGID_2_">
		<use xlink:href="#SVGID_1_"  style="overflow:visible;"/>
	</clipPath>
	<g class="st0">
		<path class="st1" d="M21.3,8.3l-1.5-2.5c-0.1-0.1-0.2-0.2-0.3-0.3c-0.1,0-0.3-0.1-0.4,0L18,6c-0.1,0-0.2,0.1-0.4,0
			c-0.1,0-0.2-0.1-0.3-0.2c-0.2-0.2-0.5-0.4-0.7-0.6c-0.1-0.1-0.2-0.1-0.2-0.2c0-0.1-0.1-0.2-0.1-0.3l0.1-1.2c0-0.1,0-0.3-0.1-0.4
			c-0.1-0.1-0.2-0.2-0.3-0.2l-1.4-0.4L13.2,2c-0.1,0-0.3,0-0.4,0c-0.1,0.1-0.2,0.2-0.3,0.3L12,3.4c0,0.1-0.1,0.2-0.2,0.2
			c-0.1,0.1-0.2,0.1-0.3,0.1c-0.3,0-0.7,0.1-1,0.1c-0.1,0-0.2,0-0.3,0c-0.1,0-0.2-0.1-0.3-0.2L9.1,2.8C9,2.7,8.9,2.6,8.8,2.6
			s-0.3,0-0.4,0.1L5.8,4.2C5.7,4.2,5.6,4.3,5.5,4.5c0,0.1,0,0.3,0,0.4L5.9,6c0,0.1,0,0.2,0,0.3c0,0.1-0.1,0.2-0.1,0.3
			C5.6,6.8,5.4,7.1,5.2,7.4C5.1,7.5,5.1,7.6,5,7.6C4.9,7.7,4.7,7.7,4.6,7.7L3.5,7.6c-0.1,0-0.3,0-0.4,0.1C2.9,7.8,2.9,7.9,2.8,8
			l-0.7,2.8c0,0.1,0,0.3,0,0.4c0.1,0.1,0.2,0.2,0.3,0.3l1.1,0.5c0.1,0,0.2,0.1,0.2,0.2c0.1,0.1,0.1,0.2,0.1,0.3
			c0,0.3,0.1,0.6,0.1,0.9c0,0.1,0,0.2,0,0.3c0,0.1-0.1,0.2-0.2,0.3l-1,0.8c-0.1,0.1-0.2,0.2-0.2,0.4c0,0.1,0,0.3,0.1,0.4l1.5,2.5
			c0.1,0.1,0.2,0.2,0.3,0.3c0.1,0,0.3,0,0.4,0L6.2,18c0.1,0,0.2,0,0.3,0c0.1,0,0.2,0.1,0.3,0.1c0.2,0.2,0.4,0.3,0.7,0.5
			c0.1,0.1,0.2,0.1,0.2,0.2s0.1,0.2,0.1,0.3l-0.1,1.3c0,0.1,0,0.3,0.1,0.4C7.8,21,7.9,21.1,8,21.2l1.4,0.4l1.4,0.4
			c0.1,0,0.3,0,0.4,0s0.2-0.2,0.3-0.3l0.6-1.3c0-0.1,0.1-0.2,0.2-0.2c0.1-0.1,0.2-0.1,0.3-0.1c0.2,0,0.5-0.1,0.7-0.1
			c0.1,0,0.2,0,0.3,0c0.1,0,0.2,0.1,0.3,0.2l0.9,1.1c0.1,0.1,0.2,0.2,0.4,0.2c0.1,0,0.3,0,0.4-0.1l2.5-1.5c0.1-0.1,0.2-0.2,0.3-0.3
			c0-0.1,0-0.3,0-0.4L18,17.8c0-0.1,0-0.2,0-0.3c0-0.1,0.1-0.2,0.1-0.3c0.2-0.2,0.3-0.4,0.4-0.6c0.1-0.1,0.1-0.2,0.2-0.2
			c0.1,0,0.2-0.1,0.3-0.1l1.4,0.1c0.1,0,0.3,0,0.4-0.1s0.2-0.2,0.2-0.4l0.4-1.4l0.4-1.4c0-0.1,0-0.3,0-0.4c-0.1-0.1-0.2-0.2-0.3-0.3
			l-1.2-0.6c-0.1,0-0.2-0.1-0.2-0.2c-0.1-0.1-0.1-0.2-0.1-0.3c0-0.3-0.1-0.5-0.1-0.8c0-0.1,0-0.2,0-0.3s0.1-0.2,0.2-0.3l1-0.9
			c0.1-0.1,0.2-0.2,0.2-0.4C21.4,8.6,21.4,8.4,21.3,8.3z M16.1,11.2c0,0.2,0.1,0.4,0.1,0.6c0,0.9-0.2,1.7-0.7,2.5
			c-0.1,0.2-0.2,0.3-0.4,0.5c-0.3,0.3-0.6,0.6-1,0.8c-0.4,0.2-0.8,0.4-1.2,0.5c-0.2,0-0.4,0.1-0.6,0.1c-0.9,0.1-1.7-0.1-2.5-0.6
			c-0.2-0.1-0.3-0.2-0.5-0.4c-0.4-0.3-0.7-0.7-0.9-1.1c-0.2-0.3-0.4-0.7-0.4-1.1c-0.2-1-0.1-2,0.3-2.9l0.1-0.1
			c0.1-0.3,0.3-0.5,0.5-0.8c0.3-0.3,0.7-0.6,1.1-0.9c0.4-0.2,0.8-0.4,1.3-0.5c0.2,0,0.4-0.1,0.7-0.1c0.9,0,1.8,0.2,2.6,0.8
			c0.2,0.1,0.3,0.3,0.5,0.4c0.3,0.3,0.5,0.6,0.7,0.9C15.8,10.2,16,10.7,16.1,11.2z"/>
	</g>
</g>
</svg>
