<svg width="24" height="24" viewBox="0 0 24 24" fill="none" xmlns="http://www.w3.org/2000/svg">
<g clip-path="url(#clip0_994_6217)">
<path d="M22.083 18.4065H17.1752C17.1182 18.4051 17.0628 18.3877 17.0153 18.3564C16.9677 18.3251 16.9299 18.2811 16.906 18.2294C15.9433 16.465 14.3297 15.1462 12.409 14.5539C12.3555 14.539 12.3073 14.5094 12.2698 14.4686C12.2323 14.4277 12.2069 14.3772 12.1966 14.3226C12.1863 14.2681 12.1914 14.2118 12.2114 14.1601C12.2314 14.1083 12.2655 14.0632 12.3098 14.0298C13.0204 13.4422 13.9028 13.1016 14.8239 13.0596H15.2276C19.0519 13.1162 22.1538 15.3187 22.3733 18.0807C22.3762 18.1213 22.3709 18.162 22.3578 18.2005C22.3447 18.239 22.3239 18.2745 22.2969 18.3048C22.2698 18.3352 22.2369 18.3598 22.2002 18.3773C22.1635 18.3948 22.1236 18.4047 22.083 18.4065Z" fill="#898989"/>
<path d="M8.92788 14.0013C11.259 14.0013 13.1487 12.1115 13.1487 9.78042C13.1487 7.44931 11.259 5.55957 8.92788 5.55957C6.59677 5.55957 4.70703 7.44931 4.70703 9.78042C4.70703 12.1115 6.59677 14.0013 8.92788 14.0013Z" fill="#898989"/>
<path d="M19.2157 6.77833C19.3354 7.3909 19.3186 8.02232 19.1666 8.62768C19.0146 9.23304 18.7311 9.79748 18.3363 10.2809C17.9415 10.7643 17.445 11.1548 16.8822 11.4246C16.3193 11.6944 15.704 11.8369 15.0799 11.8419C14.8424 11.8412 14.6054 11.8199 14.3717 11.7782C14.3294 11.7695 14.2894 11.7518 14.2544 11.7265C14.2195 11.7011 14.1903 11.6686 14.1688 11.6311C14.1474 11.5935 14.1342 11.5519 14.1301 11.5089C14.126 11.4659 14.1311 11.4225 14.145 11.3816C14.3081 10.8614 14.3893 10.3191 14.3858 9.774C14.385 8.88681 14.1662 8.01341 13.7489 7.23052C13.3315 6.44764 12.7283 5.77924 11.9921 5.28403C11.955 5.26217 11.9231 5.2325 11.8986 5.19709C11.8741 5.16168 11.8575 5.12137 11.8501 5.07894C11.8427 5.03652 11.8446 4.99299 11.8557 4.95136C11.8668 4.90974 11.8867 4.87102 11.9142 4.83787C12.4378 4.25913 13.1107 3.83577 13.8591 3.61423C14.6074 3.3927 15.4023 3.38155 16.1566 3.582C16.9109 3.78246 17.5954 4.18678 18.135 4.75061C18.6746 5.31444 19.0485 6.016 19.2157 6.77833Z" fill="#898989"/>
<path d="M15.5837 20.5595H2.26963C2.18079 20.5609 2.09274 20.5426 2.01181 20.506C1.93087 20.4693 1.85905 20.4152 1.80151 20.3475C1.74396 20.2798 1.70212 20.2002 1.67898 20.1144C1.65584 20.0286 1.65197 19.9388 1.66766 19.8513C2.13507 17.2239 5.20865 15.1914 8.93376 15.1914C12.6589 15.1914 15.7254 17.2239 16.1857 19.8513C16.2014 19.9388 16.1975 20.0286 16.1744 20.1144C16.1512 20.2002 16.1094 20.2798 16.0519 20.3475C15.9943 20.4152 15.9225 20.4693 15.8416 20.506C15.7606 20.5426 15.6726 20.5609 15.5837 20.5595Z" fill="#898989"/>
</g>
<defs>
<clipPath id="clip0_994_6217">
<rect width="24" height="24" fill="white"/>
</clipPath>
</defs>
</svg>
