<svg width="24" height="24" viewBox="0 0 24 24" fill="none" xmlns="http://www.w3.org/2000/svg">
<g clip-path="url(#clip0_994_6196)">
<path d="M10.108 9.25125C10.108 9.41548 10.0593 9.57601 9.96803 9.71257C9.87679 9.84912 9.7471 9.95554 9.59538 10.0184C9.44365 10.0812 9.2767 10.0977 9.11562 10.0656C8.95455 10.0336 8.8066 9.95452 8.69047 9.83839C8.57434 9.72227 8.49526 9.57431 8.46322 9.41324C8.43118 9.25217 8.44763 9.08521 8.51047 8.93349C8.57332 8.78176 8.67975 8.65208 8.8163 8.56084C8.95285 8.4696 9.11339 8.4209 9.27762 8.4209C9.49784 8.4209 9.70904 8.50838 9.86476 8.6641C10.0205 8.81982 10.108 9.03102 10.108 9.25125Z" fill="#898989"/>
<path d="M15.5943 14.7346C15.5943 14.8989 15.5456 15.0594 15.4544 15.196C15.3631 15.3325 15.2334 15.4389 15.0817 15.5018C14.93 15.5646 14.763 15.5811 14.602 15.549C14.4409 15.517 14.2929 15.4379 14.1768 15.3218C14.0607 15.2057 13.9816 15.0577 13.9495 14.8966C13.9175 14.7356 13.934 14.5686 13.9968 14.4169C14.0596 14.2652 14.1661 14.1355 14.3026 14.0442C14.4392 13.953 14.5997 13.9043 14.7639 13.9043C14.9842 13.9043 15.1954 13.9918 15.3511 14.1475C15.5068 14.3032 15.5943 14.5144 15.5943 14.7346Z" fill="#898989"/>
<path d="M21.7458 12.0807C22.0529 11.6072 22.1691 11.0349 22.0708 10.4792C21.9725 9.92342 21.6671 9.42564 21.2162 9.08622L20.0132 8.17741C19.8836 8.08146 19.7751 7.96006 19.6941 7.82064C19.6132 7.68123 19.5615 7.52675 19.5424 7.36667L19.3659 5.86943C19.2957 5.30848 19.0162 4.79474 18.5834 4.43104C18.1506 4.06734 17.5964 3.88052 17.0318 3.90797L15.5215 3.99297C15.1988 4.00474 14.8843 3.88975 14.6453 3.6726L13.5469 2.6461C13.1331 2.26098 12.5888 2.04688 12.0235 2.04688C11.4582 2.04688 10.9139 2.26098 10.5001 2.6461L9.37555 3.67914C9.13422 3.89669 8.81759 4.01161 8.4929 3.99951L6.98912 3.91451C6.42409 3.8855 5.86907 4.07177 5.43593 4.43575C5.00278 4.79974 4.72372 5.31439 4.65498 5.87597L4.47191 7.37321C4.45251 7.53248 4.40144 7.68625 4.32172 7.82548C4.242 7.96471 4.13523 8.08659 4.0077 8.18395L2.83737 9.08622C2.38754 9.42659 2.08345 9.92482 1.98638 10.4805C1.88932 11.0362 2.0065 11.608 2.31431 12.0807L3.13812 13.3491C3.22607 13.4826 3.28542 13.6328 3.31243 13.7904C3.33944 13.9479 3.33352 14.1093 3.29504 14.2645L2.95505 15.7356C2.83496 16.2831 2.92489 16.8557 3.20703 17.3401C3.48917 17.8245 3.94294 18.1852 4.47845 18.3508L5.92339 18.7954C6.07648 18.8407 6.21868 18.9169 6.34124 19.0192C6.4638 19.1215 6.56413 19.2479 6.63605 19.3904L7.32256 20.7373C7.50598 21.1013 7.78596 21.4079 8.1319 21.6236C8.47784 21.8392 8.8764 21.9555 9.28402 21.9599C9.58601 21.9704 9.8868 21.9169 10.1667 21.803L11.5528 21.2146C11.7001 21.1499 11.8593 21.1165 12.0203 21.1165C12.1812 21.1165 12.3404 21.1499 12.4877 21.2146L13.8804 21.803C14.3998 22.0234 14.9834 22.0387 15.5137 21.8458C16.0439 21.6529 16.4812 21.2661 16.7376 20.7634L17.4241 19.4166C17.496 19.274 17.5963 19.1477 17.7189 19.0454C17.8414 18.9431 17.9836 18.8669 18.1367 18.8216L19.5817 18.377C20.1172 18.2113 20.5709 17.8506 20.8531 17.3663C21.1352 16.8819 21.2252 16.3092 21.1051 15.7617L20.7585 14.2906C20.7229 14.1349 20.7191 13.9736 20.7472 13.8163C20.7752 13.6591 20.8347 13.5091 20.922 13.3753L21.7458 12.0807ZM7.13949 9.24967C7.13949 8.82682 7.26488 8.41346 7.49981 8.06187C7.73474 7.71028 8.06864 7.43625 8.45931 7.27443C8.84998 7.11261 9.27985 7.07027 9.69458 7.15277C10.1093 7.23526 10.4903 7.43888 10.7893 7.73789C11.0883 8.03689 11.2919 8.41784 11.3744 8.83257C11.4569 9.2473 11.4145 9.67718 11.2527 10.0678C11.0909 10.4585 10.8169 10.7924 10.4653 11.0273C10.1137 11.2623 9.70034 11.3877 9.27748 11.3877C8.71098 11.3859 8.16818 11.1601 7.7676 10.7596C7.36702 10.359 7.14122 9.81617 7.13949 9.24967ZM9.32325 15.6179C9.26216 15.6785 9.1897 15.7264 9.11004 15.7589C9.03038 15.7915 8.94508 15.808 8.85904 15.8075C8.68751 15.8068 8.52315 15.7387 8.40136 15.6179C8.27959 15.4954 8.21124 15.3297 8.21124 15.1569C8.21124 14.9842 8.27959 14.8185 8.40136 14.696L14.7238 8.36702C14.8463 8.24524 15.012 8.17689 15.1847 8.17689C15.3575 8.17689 15.5232 8.24524 15.6457 8.36702C15.707 8.4278 15.7556 8.50011 15.7888 8.57978C15.822 8.65946 15.8391 8.74492 15.8391 8.83123C15.8391 8.91754 15.822 9.003 15.7888 9.08267C15.7556 9.16235 15.707 9.23466 15.6457 9.29544L9.32325 15.6179ZM14.763 16.8732C14.3402 16.8732 13.9268 16.7478 13.5752 16.5129C13.2236 16.278 12.9496 15.9441 12.7878 15.5534C12.626 15.1627 12.5836 14.7328 12.6661 14.3181C12.7486 13.9034 12.9522 13.5224 13.2512 13.2234C13.5502 12.9244 13.9312 12.7208 14.3459 12.6383C14.7607 12.5558 15.1905 12.5982 15.5812 12.76C15.9719 12.9218 16.3058 13.1958 16.5407 13.5474C16.7756 13.899 16.901 14.3124 16.901 14.7352C16.901 15.3022 16.6758 15.846 16.2748 16.247C15.8739 16.6479 15.3301 16.8732 14.763 16.8732Z" fill="#898989"/>
</g>
<defs>
<clipPath id="clip0_994_6196">
<rect width="24" height="24" fill="white"/>
</clipPath>
</defs>
</svg>
