<svg width="24" height="24" viewBox="0 0 24 24" fill="none" xmlns="http://www.w3.org/2000/svg">
<g clip-path="url(#clip0_994_6212)">
<path d="M15.5435 4.93159C15.1863 4.89204 14.8273 4.87167 14.4679 4.87056C9.47917 4.87056 5.42104 8.59306 5.42104 13.1699C5.42195 13.946 5.54026 14.7176 5.77193 15.4583L5.58886 15.5804L5.16932 15.8626L2.19437 17.8154C2.15067 17.8429 2.09956 17.8563 2.04798 17.8537C1.99641 17.8512 1.94686 17.8329 1.90606 17.8012C1.86525 17.7696 1.83517 17.7262 1.81988 17.6768C1.80459 17.6275 1.80484 17.5747 1.8206 17.5255L3.10974 13.475C3.12391 13.4276 3.12715 13.3775 3.11923 13.3287C3.1113 13.2798 3.09241 13.2333 3.06397 13.1928C2.25533 12.0856 1.81987 10.7498 1.8206 9.37875C1.8206 5.50369 5.29136 2.36856 9.57071 2.36856C10.6897 2.35747 11.7987 2.57965 12.8271 3.02094C13.8554 3.46222 14.7806 4.11294 15.5435 4.93159Z" fill="#898989"/>
<path d="M22.2315 21.2857L20.9424 17.2428C20.9289 17.1965 20.926 17.1478 20.9339 17.1003C20.9418 17.0527 20.9604 17.0076 20.9882 16.9682C21.7908 15.8584 22.2232 14.5238 22.2239 13.1542C22.166 11.5629 21.5773 10.0369 20.5516 8.81897C19.5259 7.60109 18.1221 6.76147 16.5639 6.43385C15.8697 6.24879 15.1541 6.15645 14.4357 6.15924C10.1563 6.15924 6.68555 9.29437 6.68555 13.1694C6.68977 14.197 6.93815 15.2088 7.41021 16.1215C8.10408 17.3734 9.12646 18.4123 10.3672 19.1261C11.6079 19.8398 13.0198 20.2015 14.4509 20.172C15.723 20.1776 16.979 19.8878 18.12 19.3253C18.1681 19.3182 18.2169 19.3182 18.2649 19.3253C18.327 19.3279 18.3874 19.3463 18.4404 19.3787L21.8273 21.6137C21.8721 21.6264 21.9197 21.6264 21.9646 21.6137C22.0059 21.6164 22.0472 21.6092 22.0852 21.5927C22.1232 21.5761 22.1566 21.5507 22.1827 21.5186C22.2089 21.4865 22.2269 21.4486 22.2354 21.4081C22.2439 21.3676 22.2426 21.3256 22.2315 21.2857ZM11.3692 14.1382C11.2183 14.1382 11.0708 14.0935 10.9454 14.0096C10.8199 13.9258 10.7222 13.8067 10.6644 13.6673C10.6067 13.5279 10.5916 13.3745 10.621 13.2266C10.6505 13.0786 10.7231 12.9427 10.8298 12.836C10.9365 12.7293 11.0724 12.6567 11.2204 12.6272C11.3683 12.5978 11.5217 12.6129 11.6611 12.6706C11.8005 12.7284 11.9196 12.8262 12.0034 12.9516C12.0872 13.077 12.132 13.2245 12.132 13.3754C12.132 13.5777 12.0516 13.7717 11.9086 13.9148C11.7655 14.0578 11.5715 14.1382 11.3692 14.1382ZM14.4967 14.1382C14.3458 14.1382 14.1983 14.0935 14.0729 14.0096C13.9474 13.9258 13.8497 13.8067 13.7919 13.6673C13.7342 13.5279 13.7191 13.3745 13.7485 13.2266C13.778 13.0786 13.8506 12.9427 13.9573 12.836C14.064 12.7293 14.1999 12.6567 14.3479 12.6272C14.4958 12.5978 14.6492 12.6129 14.7886 12.6706C14.928 12.7284 15.0471 12.8262 15.1309 12.9516C15.2148 13.077 15.2595 13.2245 15.2595 13.3754C15.2595 13.5777 15.1791 13.7717 15.0361 13.9148C14.893 14.0578 14.699 14.1382 14.4967 14.1382ZM17.6318 14.1382C17.4809 14.1382 17.3335 14.0935 17.208 14.0096C17.0826 13.9258 16.9848 13.8067 16.9271 13.6673C16.8693 13.5279 16.8542 13.3745 16.8837 13.2266C16.9131 13.0786 16.9858 12.9427 17.0924 12.836C17.1991 12.7293 17.335 12.6567 17.483 12.6272C17.631 12.5978 17.7843 12.6129 17.9237 12.6706C18.0631 12.7284 18.1822 12.8262 18.2661 12.9516C18.3499 13.077 18.3946 13.2245 18.3946 13.3754C18.3946 13.5777 18.3143 13.7717 18.1712 13.9148C18.0281 14.0578 17.8341 14.1382 17.6318 14.1382Z" fill="#898989"/>
</g>
<defs>
<clipPath id="clip0_994_6212">
<rect width="24" height="24" fill="white"/>
</clipPath>
</defs>
</svg>
