<svg width="24" height="24" viewBox="0 0 24 24" fill="none" xmlns="http://www.w3.org/2000/svg">
<g clip-path="url(#clip0_994_6204)">
<path d="M11.7668 2.90051C10.9029 2.89619 10.0422 3.00633 9.20726 3.22807C5.29939 4.22599 2.44276 7.4635 2.44276 11.3257C2.44695 12.966 2.96364 14.564 3.92059 15.8963C3.95661 15.9433 3.98093 15.9982 3.99153 16.0565C4.00212 16.1148 3.9987 16.1748 3.98153 16.2315L2.45799 21.0915C2.44195 21.1381 2.43746 21.1879 2.44489 21.2367C2.45233 21.2854 2.47148 21.3316 2.50069 21.3713C2.5299 21.411 2.56831 21.443 2.61262 21.4646C2.65693 21.4862 2.70581 21.4967 2.75508 21.4953C2.81376 21.4934 2.87118 21.4778 2.92267 21.4496L6.99051 18.7605C7.05454 18.7197 7.128 18.6961 7.20381 18.692C7.26344 18.6981 7.32221 18.7109 7.37901 18.7301C8.74264 19.406 10.2448 19.7555 11.7668 19.7508C12.8001 19.75 13.8273 19.5933 14.8139 19.2861L14.9967 18.3568C15.0115 17.9851 15.1541 17.6299 15.4004 17.3513L18.1199 14.1442L18.6075 13.5805L18.8817 13.2606L19.255 12.8264C19.4806 12.5622 19.7578 12.3469 20.0695 12.1937C20.3813 12.0404 20.721 11.9524 21.068 11.9351C21.068 11.737 21.068 11.5313 21.068 11.3257C21.0528 6.66365 16.8783 2.90051 11.7668 2.90051ZM7.95796 12.4912C7.8368 12.4964 7.71586 12.4767 7.60265 12.4332C7.48945 12.3897 7.38641 12.3234 7.29995 12.2384C7.21348 12.1533 7.14545 12.0514 7.10008 11.939C7.0547 11.8265 7.03297 11.7059 7.03622 11.5847C7.03622 11.4676 7.05927 11.3517 7.10406 11.2436C7.14885 11.1355 7.2145 11.0372 7.29727 10.9544C7.38003 10.8717 7.47828 10.806 7.58641 10.7612C7.69455 10.7165 7.81044 10.6934 7.92749 10.6934C8.04453 10.6934 8.16043 10.7165 8.26856 10.7612C8.3767 10.806 8.47495 10.8717 8.55771 10.9544C8.64047 11.0372 8.70612 11.1355 8.75091 11.2436C8.7957 11.3517 8.81876 11.4676 8.81876 11.5847C8.8218 11.7007 8.80194 11.8162 8.76032 11.9246C8.7187 12.033 8.65613 12.1321 8.57619 12.2163C8.49625 12.3005 8.4005 12.3681 8.29443 12.4152C8.18835 12.4624 8.07401 12.4882 7.95796 12.4912ZM11.7211 12.4912C11.5997 12.4976 11.4782 12.4787 11.3645 12.4356C11.2508 12.3925 11.1473 12.3262 11.0605 12.241C10.9738 12.1557 10.9058 12.0533 10.8609 11.9403C10.8159 11.8273 10.795 11.7062 10.7994 11.5847C10.7994 11.3483 10.8933 11.1216 11.0604 10.9544C11.2275 10.7873 11.4542 10.6934 11.6906 10.6934C11.9264 10.6954 12.1519 10.7899 12.3186 10.9566C12.4854 11.1234 12.5799 11.3489 12.5819 11.5847C12.585 11.7033 12.5641 11.8213 12.5206 11.9316C12.4771 12.042 12.4118 12.1425 12.3286 12.2271C12.2455 12.3117 12.1461 12.3787 12.0365 12.424C11.9269 12.4694 11.8093 12.4922 11.6906 12.4912H11.7211ZM15.4842 12.4912C15.3631 12.4964 15.2421 12.4767 15.1289 12.4332C15.0157 12.3897 14.9127 12.3234 14.8262 12.2384C14.7398 12.1533 14.6717 12.0514 14.6263 11.939C14.581 11.8265 14.5592 11.7059 14.5625 11.5847C14.551 11.4612 14.5655 11.3367 14.6049 11.2192C14.6443 11.1016 14.7077 10.9936 14.7913 10.9019C14.8748 10.8103 14.9765 10.7371 15.0899 10.687C15.2033 10.637 15.326 10.6111 15.4499 10.6111C15.5739 10.6111 15.6965 10.637 15.81 10.687C15.9234 10.7371 16.0251 10.8103 16.1086 10.9019C16.1922 10.9936 16.2556 11.1016 16.295 11.2192C16.3344 11.3367 16.3489 11.4612 16.3374 11.5847C16.3415 11.7029 16.3217 11.8207 16.279 11.9311C16.2363 12.0414 16.1718 12.142 16.0892 12.2267C16.0066 12.3114 15.9078 12.3785 15.7985 12.4239C15.6893 12.4694 15.572 12.4923 15.4538 12.4912H15.4842Z" fill="#898989"/>
<path d="M21.0132 16.62L20.9218 16.7343L18.2785 19.8195C18.2023 19.9109 16.3664 20.5812 16.3664 20.5812C16.3074 20.5872 16.2478 20.5808 16.1914 20.5624C16.135 20.5441 16.0831 20.5141 16.0389 20.4746C15.9514 20.3982 15.8945 20.2926 15.8789 20.1775L16.1608 18.7454C16.1866 18.5491 16.2378 18.3571 16.3131 18.174L18.9488 15.0813L19.0479 14.9746C19.3677 15.035 19.673 15.1566 19.9467 15.3326C20.0565 15.3942 20.1588 15.4683 20.2515 15.5536C20.5911 15.8392 20.8531 16.2061 21.0132 16.62Z" fill="#898989"/>
<path d="M22.1509 15.3027L21.9148 15.577L21.7777 15.7293C21.5347 15.3679 21.2424 15.0423 20.9093 14.7619C20.7543 14.6291 20.5887 14.5094 20.4141 14.4039C20.2218 14.2756 20.0178 14.1659 19.8047 14.0763L19.9342 13.9163L20.178 13.6345C20.342 13.4379 20.5629 13.2969 20.8102 13.2307C21.0759 13.1552 21.3587 13.1671 21.6171 13.2646C21.8755 13.3622 22.0956 13.5402 22.245 13.7725C22.3944 14.0047 22.4652 14.2788 22.4469 14.5544C22.4286 14.83 22.3222 15.0923 22.1433 15.3027H22.1509Z" fill="#898989"/>
</g>
<defs>
<clipPath id="clip0_994_6204">
<rect width="24" height="24" fill="white"/>
</clipPath>
</defs>
</svg>
