<svg width="35" height="35" viewBox="0 0 35 35" fill="none" xmlns="http://www.w3.org/2000/svg">
<g clip-path="url(#clip0_889_9014)">
<path d="M17.9805 34.0859C27.3693 34.0859 34.9805 26.4748 34.9805 17.0859C34.9805 7.6971 27.3693 0.0859375 17.9805 0.0859375C8.59163 0.0859375 0.980469 7.6971 0.980469 17.0859C0.980469 26.4748 8.59163 34.0859 17.9805 34.0859Z" fill="#231815"/>
<path d="M26.4033 12.4605C25.6806 12.9018 25.0819 13.5193 24.6631 14.2552C24.2444 14.9912 24.0193 15.8213 24.0091 16.668C24.0122 17.6217 24.2951 18.5535 24.8226 19.348C25.3502 20.1425 26.0992 20.7647 26.977 21.1376C26.631 22.2533 26.1201 23.3109 25.4612 24.2755C24.512 25.6355 23.5274 27.0026 22.0258 27.0026C20.5241 27.0026 20.1062 26.1242 18.3991 26.1242C16.692 26.1242 16.1041 27.0026 14.7299 27.0026C13.3558 27.0026 12.3995 25.7417 11.2945 24.1692C9.84606 22.0172 9.0447 19.4951 8.98535 16.9017C8.98535 12.6022 11.7762 10.3213 14.5245 10.3213C15.9908 10.3213 17.2091 11.2847 18.1229 11.2847C19.0366 11.2847 20.3612 10.2647 22.0187 10.2647C22.8737 10.2424 23.721 10.4311 24.4857 10.814C25.2504 11.197 25.909 11.7625 26.4033 12.4605ZM21.2324 8.45133C21.9645 7.5885 22.3794 6.50124 22.4083 5.37008C22.4096 5.22026 22.3953 5.07071 22.3658 4.92383C21.1076 5.04844 19.9446 5.64895 19.1145 6.60258C18.3742 7.43041 17.9436 8.48925 17.8962 9.59883C17.8967 9.73216 17.911 9.86508 17.9387 9.99549C18.0376 10.0046 18.1372 10.0046 18.2362 9.99549C18.8161 9.95008 19.3807 9.78727 19.8958 9.51695C20.4109 9.24663 20.8656 8.87444 21.2324 8.423V8.45133Z" fill="white"/>
</g>
<defs>
<clipPath id="clip0_889_9014">
<rect width="34" height="34" fill="white" transform="translate(0.980469 0.0859375)"/>
</clipPath>
</defs>
</svg>
