<svg width="91" height="91" viewBox="0 0 91 91" fill="none" xmlns="http://www.w3.org/2000/svg">
<g clip-path="url(#clip0_889_1201)">
<path d="M88.2228 47.6031C88.2228 56.3691 84.4686 62.9764 79.6257 62.9764H77.7487V32.9431C75.2078 26.3218 70.7188 20.6267 64.8743 16.6094C59.0298 12.5921 52.1044 10.4415 45.0123 10.4415C37.9203 10.4415 30.9949 12.5921 25.1504 16.6094C19.3058 20.6267 14.8169 26.3218 12.276 32.9431V59.2223C19.2992 65.1479 28.3837 68.0501 37.5415 67.2937C38.0085 67.2914 38.4596 67.4632 38.8066 67.7756C39.1537 68.088 39.3719 68.5185 39.4186 68.9831C39.4214 69.4472 39.2523 69.8958 38.9437 70.2424C38.6352 70.5891 38.2093 70.8092 37.748 70.8602C36.7532 70.8602 35.7771 70.9916 34.801 70.9916C27.1363 70.9942 19.6479 68.6921 13.3084 64.3843C12.6514 63.9525 11.9944 63.4645 11.4313 62.9764H10.5115C5.63112 62.9764 1.87695 56.3128 1.87695 47.6031C1.87695 40.0948 4.65504 34.0506 8.57814 32.5865C11.2381 25.0325 16.1768 18.4903 22.7128 13.8623C29.2489 9.23444 37.0601 6.74902 45.0686 6.74902C53.0772 6.74902 60.8884 9.23444 67.4245 13.8623C73.9605 18.4903 78.8992 25.0325 81.5591 32.5865C85.4447 34.0694 88.2228 40.0385 88.2228 47.6031Z" fill="#19B9AA"/>
<path d="M45.0493 13.4775C38.6886 13.5173 32.4815 15.4362 27.2081 18.993C21.9346 22.5498 17.83 27.5859 15.4102 33.4685V57.6265C20.9643 61.9919 27.83 64.3532 34.8943 64.3277C35.7014 64.3277 36.5086 64.3277 37.3345 64.2339H37.7099C38.9403 64.2397 40.1234 64.7082 41.0241 65.5464C41.9249 66.3845 42.4773 67.5309 42.5716 68.7576C42.63 69.4043 42.5552 70.0562 42.3518 70.6728C42.1484 71.2895 41.8207 71.8579 41.389 72.3429C40.9669 72.8293 40.4526 73.2273 39.876 73.514C39.2993 73.8007 38.6716 73.9705 38.029 74.0135C36.9403 74.0135 35.9079 74.1261 34.8943 74.1261C31.6712 74.1269 28.4589 73.7553 25.3212 73.0186C29.1994 75.8251 33.6298 77.7754 38.3188 78.7403C43.0077 79.7052 47.8482 79.6627 52.5195 78.6156C57.1908 77.5684 61.5862 75.5406 65.4146 72.6664C69.243 69.7922 72.4169 66.1373 74.726 61.9438V33.4872C72.3045 27.5968 68.1949 22.554 62.9143 18.9936C57.6337 15.4331 51.418 13.5139 45.0493 13.4775Z" fill="#19B9AA"/>
<path d="M33.7876 42.6848C33.7876 43.4273 33.5675 44.1532 33.1549 44.7705C32.7424 45.3879 32.1561 45.8691 31.4701 46.1532C30.7841 46.4374 30.0293 46.5117 29.3011 46.3669C28.5728 46.222 27.9039 45.8645 27.3789 45.3394C26.8538 44.8144 26.4963 44.1455 26.3514 43.4172C26.2066 42.689 26.2809 41.9342 26.5651 41.2482C26.8492 40.5622 27.3304 39.9759 27.9478 39.5634C28.5651 39.1508 29.291 38.9307 30.0335 38.9307C31.0291 38.9307 31.984 39.3262 32.6881 40.0302C33.3921 40.7343 33.7876 41.6892 33.7876 42.6848Z" fill="white"/>
<path d="M50.1187 42.685C50.1374 43.4498 49.9277 44.2028 49.5163 44.8478C49.105 45.4929 48.5108 46.0006 47.8095 46.3063C47.1082 46.612 46.3317 46.7018 45.5792 46.564C44.8267 46.4263 44.1323 46.0675 43.5847 45.5332C43.0371 44.999 42.6612 44.3137 42.5049 43.5648C42.3487 42.8159 42.4192 42.0374 42.7075 41.3288C42.9958 40.6202 43.4888 40.0136 44.1234 39.5865C44.7581 39.1593 45.5057 38.9311 46.2707 38.9309C46.7716 38.9183 47.2698 39.0062 47.7362 39.1892C48.2026 39.3723 48.6276 39.6468 48.9862 39.9967C49.3448 40.3466 49.6297 40.7647 49.8243 41.2264C50.0188 41.6881 50.1189 42.184 50.1187 42.685Z" fill="white"/>
<path d="M55.3738 55.6932C55.7117 57.3074 50.4371 60.536 45.0686 60.536C39.7002 60.536 34.4256 57.3074 34.7635 55.6932C34.7749 55.6169 34.8074 55.5454 34.8573 55.4867C34.8915 55.4024 34.9504 55.3304 35.0262 55.2802C35.3816 54.9827 35.7889 54.7536 36.2276 54.6044C36.5842 54.4731 36.9784 54.3792 37.4101 54.2666C37.8419 54.1539 38.8367 53.985 39.6439 53.8724L40.4886 53.7785C41.6148 53.6659 42.8537 53.6096 44.0738 53.5908C44.712 53.5908 45.3502 53.5908 45.9509 53.5908C47.2085 53.5908 48.4286 53.5908 49.5736 53.7785L50.3996 53.8724C51.2255 53.985 51.9763 54.1164 52.6145 54.2666C53.0206 54.3581 53.4216 54.4709 53.8159 54.6044C54.2612 54.7515 54.675 54.9807 55.036 55.2802C55.1066 55.3359 55.1642 55.4064 55.2049 55.4867C55.274 55.5439 55.3314 55.6141 55.3738 55.6932Z" fill="white"/>
</g>
<defs>
<clipPath id="clip0_889_1201">
<rect width="90.1" height="90.1" fill="white"/>
</clipPath>
</defs>
</svg>
