<svg width="95" height="91" viewBox="0 0 95 91" fill="none" xmlns="http://www.w3.org/2000/svg">
<g clip-path="url(#clip0_994_6257)" filter="url(#filter0_d_994_6257)">
<path d="M47.4991 13.4775C41.0733 13.521 34.8034 15.4411 29.4749 18.9972C24.1465 22.5533 19.9965 27.5873 17.5449 33.4685V57.6453C23.1692 61.9949 30.106 64.3482 37.2426 64.3277C38.0578 64.3277 38.873 64.3277 39.7072 64.3277H40.0674C41.3133 64.3288 42.513 64.7953 43.4268 65.6339C44.3405 66.4725 44.9011 67.6215 44.9966 68.8515C45.0556 69.4982 44.9801 70.15 44.7747 70.7667C44.5692 71.3833 44.2383 71.9517 43.8022 72.4367C43.3749 72.9205 42.855 73.3155 42.2725 73.5991C41.69 73.8826 41.0565 74.049 40.4087 74.0886C39.2901 74.0886 38.2474 74.22 37.2237 74.22C33.974 74.2145 30.7358 73.8366 27.5739 73.0937C31.4957 75.8972 35.9746 77.8432 40.7137 78.8026C45.4528 79.762 50.3438 79.7129 55.0622 78.6586C59.7807 77.6042 64.2189 75.5687 68.0825 72.687C71.946 69.8053 75.1467 66.1433 77.4722 61.9438V33.4872C75.0265 27.5968 70.8759 22.554 65.5425 18.9936C60.2092 15.4331 53.9314 13.5139 47.4991 13.4775Z" fill="#19B9AA"/>
<path d="M84.3746 32.5865C81.6881 25.0325 76.7001 18.4902 70.0987 13.8623C63.4974 9.23444 55.6082 6.74902 47.5196 6.74902C39.431 6.74902 31.5418 9.23444 24.9405 13.8623C18.3392 18.4902 13.3511 25.0325 10.6646 32.5865C6.70232 34.0694 3.89648 40.0948 3.89648 47.6031C3.89648 56.3128 7.68815 62.9764 12.6173 62.9764H13.3757C20.1752 68.206 28.5395 71.0458 37.1494 71.0479C38.1352 71.0479 39.14 71.0479 40.1448 70.9353C40.6107 70.8842 41.0409 70.6642 41.3525 70.3175C41.6641 69.9709 41.835 69.5222 41.8321 69.0582C41.7806 68.597 41.5583 68.171 41.2082 67.8625C40.8581 67.5539 40.405 67.3848 39.9363 67.3876C30.6726 68.0645 21.5141 65.0891 14.4563 59.1096V32.8305C17.0225 26.2092 21.5563 20.514 27.4592 16.4967C33.3622 12.4794 40.3567 10.3288 47.5196 10.3288C54.6825 10.3288 61.6771 12.4794 67.58 16.4967C73.4829 20.514 78.0167 26.2092 80.5829 32.8305V62.8638H82.4788C87.3131 62.9952 91.1048 56.3128 91.1048 47.6031C91.1048 40.0385 88.3179 34.0694 84.3746 32.5865Z" fill="#19B9AA"/>
<path d="M47.5008 43.173C46.7284 43.1544 45.9678 43.3641 45.3164 43.7754C44.6649 44.1867 44.152 44.781 43.8433 45.4823C43.5346 46.1836 43.4439 46.96 43.583 47.7126C43.7221 48.4651 44.0846 49.1595 44.6241 49.7071C45.1637 50.2546 45.8559 50.6306 46.6122 50.7868C47.3686 50.943 48.1549 50.8725 48.8706 50.5842C49.5862 50.296 50.1989 49.803 50.6303 49.1683C51.0617 48.5336 51.2922 47.7861 51.2925 47.021C51.2928 46.0165 50.8963 45.0517 50.1879 44.3327C49.4794 43.6137 48.515 43.1975 47.5008 43.173Z" fill="white"/>
<path d="M62.8189 43.1729C62.0462 43.1731 61.2912 43.4013 60.6502 43.8285C60.0092 44.2556 59.5113 44.8622 59.2201 45.5708C58.9289 46.2794 58.8577 47.0579 59.0155 47.8068C59.1733 48.5557 59.553 49.241 60.106 49.7752C60.6591 50.3094 61.3604 50.6683 62.1205 50.806C62.8805 50.9437 63.6647 50.854 64.373 50.5483C65.0813 50.2426 65.6815 49.7349 66.097 49.0898C66.5124 48.4448 66.7242 47.6918 66.7054 46.927C66.6806 45.9228 66.2602 44.968 65.5341 44.2665C64.8079 43.5651 63.8334 43.1726 62.8189 43.1729Z" fill="white"/>
<path d="M28.3332 46.9271C28.3519 47.6653 28.59 48.3817 29.0178 48.9866C29.4456 49.5915 30.0441 50.0581 30.7384 50.3279C31.4326 50.5977 32.1918 50.6588 32.921 50.5035C33.6502 50.3482 34.3169 49.9835 34.8377 49.4549C35.3585 48.9263 35.7104 48.2574 35.8491 47.5318C35.9879 46.8063 35.9075 46.0563 35.6179 45.3758C35.3284 44.6952 34.8426 44.1144 34.2212 43.7059C33.5999 43.2973 32.8707 43.0793 32.1249 43.0791C31.6189 43.0789 31.118 43.1791 30.6516 43.3736C30.1853 43.5681 29.763 43.853 29.4097 44.2116C29.0563 44.5703 28.779 44.9953 28.5942 45.4616C28.4093 45.928 28.3206 46.4263 28.3332 46.9271Z" fill="white"/>
</g>
<defs>
<filter id="filter0_d_994_6257" x="-1" y="-3" width="97" height="96.0996" filterUnits="userSpaceOnUse" color-interpolation-filters="sRGB">
<feFlood flood-opacity="0" result="BackgroundImageFix"/>
<feColorMatrix in="SourceAlpha" type="matrix" values="0 0 0 0 0 0 0 0 0 0 0 0 0 0 0 0 0 0 127 0" result="hardAlpha"/>
<feMorphology radius="1" operator="dilate" in="SourceAlpha" result="effect1_dropShadow_994_6257"/>
<feOffset/>
<feGaussianBlur stdDeviation="1"/>
<feComposite in2="hardAlpha" operator="out"/>
<feColorMatrix type="matrix" values="0 0 0 0 0 0 0 0 0 0 0 0 0 0 0 0 0 0 0.3 0"/>
<feBlend mode="normal" in2="BackgroundImageFix" result="effect1_dropShadow_994_6257"/>
<feBlend mode="normal" in="SourceGraphic" in2="effect1_dropShadow_994_6257" result="shape"/>
</filter>
<clipPath id="clip0_994_6257">
<rect width="91" height="90.1" fill="white" transform="translate(2)"/>
</clipPath>
</defs>
</svg>
