<svg width="39" height="39" viewBox="0 0 39 39" fill="none" xmlns="http://www.w3.org/2000/svg">
<rect width="38" height="38" rx="19" transform="matrix(1 0 0 -1 0.205078 38.8477)" fill="#F87700"/>
<path d="M25.5809 14.8163C25.7595 14.6377 25.8598 14.3955 25.8598 14.1429C25.8598 13.8903 25.7595 13.6481 25.5809 13.4695C25.4023 13.2909 25.16 13.1906 24.9075 13.1906C24.6549 13.1906 24.4127 13.2909 24.2341 13.4695L19.2041 18.501L14.1726 13.4711C13.994 13.2925 13.7518 13.1921 13.4992 13.1921C13.2466 13.1921 13.0044 13.2925 12.8258 13.4711C12.6472 13.6497 12.5469 13.8919 12.5469 14.1445C12.5469 14.3971 12.6472 14.6393 12.8258 14.8179L17.8573 19.8478L12.8274 24.8793C12.6488 25.0579 12.5485 25.3002 12.5485 25.5527C12.5485 25.8053 12.6488 26.0475 12.8274 26.2261C13.006 26.4047 13.2482 26.5051 13.5008 26.5051C13.7534 26.5051 13.9956 26.4047 14.1742 26.2261L19.2041 21.1946L24.2356 26.2269C24.4142 26.4055 24.6565 26.5059 24.909 26.5059C25.1616 26.5059 25.4038 26.4055 25.5824 26.2269C25.761 26.0483 25.8614 25.8061 25.8614 25.5535C25.8614 25.3009 25.761 25.0587 25.5824 24.8801L20.5509 19.8478L25.5809 14.8163Z" fill="white"/>
</svg>
