<?xml version="1.0" encoding="utf-8"?>
<!-- Generator: Adobe Illustrator 23.0.2, SVG Export Plug-In . SVG Version: 6.00 Build 0)  -->
<svg version="1.1" id="圖層_1" xmlns="http://www.w3.org/2000/svg" xmlns:xlink="http://www.w3.org/1999/xlink" x="0px" y="0px"
	 viewBox="0 0 229 50" style="enable-background:new 0 0 229 50;" xml:space="preserve">
<g>
	<defs>
		<path id="SVGID_1_" d="M10.7,0h52c5.5,0,10,4.5,10,10v30c0,5.5-4.5,10-10,10h-52c-5.5,0-10-4.5-10-10V10C0.7,4.5,5.2,0,10.7,0z"/>
	</defs>
	<clipPath id="SVGID_2_">
		<use xlink:href="#SVGID_1_"  style="overflow:visible;"/>
	</clipPath>
	<g transform="matrix(1 0 0 1 0 5.960464e-08)" style="clip-path:url(#SVGID_2_);">
		
			<image style="overflow:visible;" width="1024" height="680" xlink:href="topic-pic02.jpg"  transform="matrix(7.606748e-02 0 0 7.606748e-02 -2.1254 -0.8629)">
		</image>
	</g>
</g>
<g>
	<defs>
		<path id="SVGID_3_" d="M88.7,0h52c5.5,0,10,4.5,10,10v30c0,5.5-4.5,10-10,10h-52c-5.5,0-10-4.5-10-10V10C78.7,4.5,83.2,0,88.7,0z"
			/>
	</defs>
	<clipPath id="SVGID_4_">
		<use xlink:href="#SVGID_3_"  style="overflow:visible;"/>
	</clipPath>
	<g transform="matrix(1 0 0 1 0 5.960464e-08)" style="clip-path:url(#SVGID_4_);">
		
			<image style="overflow:visible;" width="1024" height="680" xlink:href="topic-pic02.jpg"  transform="matrix(7.606748e-02 0 0 7.606748e-02 75.8565 -0.8629)">
		</image>
	</g>
</g>
<g>
	<defs>
		<path id="SVGID_5_" d="M166.7,0h52c5.5,0,10,4.5,10,10v30c0,5.5-4.5,10-10,10h-52c-5.5,0-10-4.5-10-10V10
			C156.7,4.5,161.2,0,166.7,0z"/>
	</defs>
	<clipPath id="SVGID_6_">
		<use xlink:href="#SVGID_5_"  style="overflow:visible;"/>
	</clipPath>
	<g transform="matrix(1 0 0 1 0 5.960464e-08)" style="clip-path:url(#SVGID_6_);">
		
			<image style="overflow:visible;" width="1024" height="680" xlink:href="topic-pic02.jpg"  transform="matrix(7.606748e-02 0 0 7.606748e-02 153.7874 -0.8629)">
		</image>
	</g>
</g>
</svg>
