<?xml version="1.0" encoding="utf-8"?>
<!-- Generator: Adobe Illustrator 23.0.2, SVG Export Plug-In . SVG Version: 6.00 Build 0)  -->
<svg version="1.1" id="b" xmlns="http://www.w3.org/2000/svg" xmlns:xlink="http://www.w3.org/1999/xlink" x="0px" y="0px"
	 viewBox="0 0 300.5 300.5" style="enable-background:new 0 0 300.5 300.5;" xml:space="preserve">
<style type="text/css">
	.st0{display:none;clip-path:url(#SVGID_2_);}
	.st1{display:inline;fill:#FFFFFF;}
	.st2{display:inline;fill:#FFBF61;}
	.st3{display:inline;fill:#605532;stroke:#605532;stroke-width:0.3622;stroke-miterlimit:10;}
	.st4{display:inline;fill:#605532;}
	.st5{display:inline;fill:none;stroke:#605532;stroke-width:0.3622;stroke-miterlimit:10;}
	.st6{clip-path:url(#SVGID_2_);}
	.st7{fill:#FFFFFF;}
	.st8{fill:#FFBF61;}
	.st9{fill:#605532;}
</style>
<g>
	<g>
		<defs>
			<path id="SVGID_1_" d="M150.3,6.3L150.3,6.3c79.5,0,144,64.5,144,144l0,0c0,79.5-64.5,144-144,144l0,0c-79.5,0-144-64.5-144-144
				l0,0C6.3,70.7,70.7,6.3,150.3,6.3z"/>
		</defs>
		<use xlink:href="#SVGID_1_"  style="overflow:visible;fill:#19B9AA;"/>
		<clipPath id="SVGID_2_">
			<use xlink:href="#SVGID_1_"  style="overflow:visible;"/>
		</clipPath>
		<g class="st0">
			<path class="st1" d="M203.2,189.8c-3.9,7.3-12.8,20.2-23.8,26.7c0.1,3.9,0.3,7.7,0.8,11.6c0,0-0.6,23.7-31,23.7
				c-30.4,0-31.1-23.8-31.1-23.8c0.4-3.9,0.7-8.3,0.8-11.8c-5.3-3.3-10-7.4-14-12.2c-5.5-6.7-9.4-14.4-11.7-22.7l-2.3-0.4
				c-2.6-0.4-5-1.5-7.1-3.2c-2.5-2.1-4.5-4.8-5.9-7.8c-3-5.9-4.2-12.5-3.7-19.1c0.1-1.7,0.5-3.3,1.3-4.8c1.3-2.2,3.6-3.7,6.1-4.1
				c2.6-0.4,5.2,0.4,7.2,2.1c0,0-8.6-52,59.7-52c64.8,0,61.2,52,61.2,52c2-1.7,4.6-2.5,7.2-2.1c2.5,0.4,4.8,1.8,6.1,4.1
				c0.8,1.5,1.2,3.1,1.3,4.8c0.5,6.6-0.7,13.2-3.7,19.1c-1.4,3-3.4,5.6-5.9,7.8c-2,1.7-4.5,2.7-7.1,3.2c0,0-0.4,0.1-1.2,0.2
				c-0.6,2.2-1.2,4-1.5,5C204.5,187.3,203.8,188.5,203.2,189.8z"/>
			<path class="st1" d="M170,270c8.8-8.7,14.5-19.2,21-29.7c-2.4-4.8-5.6-9.1-9.5-12.8c-7.9,7.9-17.1,14.3-27.3,19
				c-0.6,0.3-1.2,0.6-1.4,1.2c-0.1,0.5,0,1.1,0.3,1.5c1.7,2.5,3.6,4.9,5.6,7.3C162.6,261.1,167.4,266.8,170,270z"/>
			<path class="st1" d="M128.8,270c-8.8-8.7-14.5-19.2-21-29.7c2.4-4.8,5.6-9.1,9.5-12.8c7.9,7.9,17.1,14.3,27.3,19
				c0.6,0.3,1.2,0.6,1.4,1.2c0.1,0.5,0,1.1-0.3,1.5c-1.7,2.5-3.6,4.9-5.6,7.3C136.2,261.1,131.4,266.8,128.8,270z"/>
			<path class="st1" d="M138.2,381c4.9,1.1,24.6,6.2,32.3,9c2.3-7.4,5.6-17.9,8.1-25.8c-3.3-1.1-6.5-2.1-9.8-3l-9.2-15.8
				c-1.6-2.8-3.3-5.6-6.1-7.2c-2.7-1.6-6-1.7-9.1-1.7c-4.6-0.3-9.1-0.1-13.7,0.4l-10.3,1.3l7.3,41.1L138.2,381z"/>
			<path class="st1" d="M50.4,346.5c4.1,0.1,8.2,3.1,8.1,8.2c-0.1,6-6.4,7.4-10.6,6.7c-4.1-0.7-6.8-4.6-6.1-8.7
				c0-0.2,0.1-0.3,0.1-0.5C42.9,348.2,47,346.4,50.4,346.5z"/>
			<path class="st1" d="M130.8,397.1c-1-5.5-2-11.7-3.2-18.2l1.8,0.4l8.5,1.7c4.9,1.1,24.5,6.2,32.2,8.9l-2.1,1.7
				c-9.8,7.9-27.6,21.3-31.9,24.3c-0.6,0.4-1.2,0.8-1.8,1.1l-0.3-1.6C133.3,411.4,132.2,404.9,130.8,397.1z"/>
			<path class="st1" d="M134,415.4c-3.3-18.7-15.9-90.7-19.3-111.5c-0.4-2.6-2.6-4.6-5.3-4.7c-23.1-1.1-109.6-5.4-139.5-6.4
				c-2.1-0.1-3.9,1.6-4,3.7c0,0.2,0,0.5,0,0.8c3.5,21.8,13.6,83.2,17.6,106.5c0.5,2.7,2.8,4.8,5.5,4.9c9,0.5,17.8,1.1,26.4,1.7
				c-1.2-4.7-2.4-10.1-3.3-14.8c-1.3-6.8-2.1-11-1.9-14.7c0.2-2.8,1.7-4.7,4-5.1c3.7-0.7,5.9,2.3,6.5,5l-0.2-1.1
				c-1.3-5.4-0.6-9.1,2.9-10.3c3.1-1.1,7.3,0.7,8.8,7.4l1.3,5.9l0.4-3.3c0.4-3,4-4.6,6.4-3.7c2.2,0.7,4,2.4,4.6,4.6
				c1.7,4.7,3.2,9.4,4.4,14.2c0.3,1.4,0.7,2.8,1,4c0.5-1.3,0.8-2.1,0.8-2.1c1.1-3,5-3,7.2-1.5c2.8,1.9,5.7,10.2,6.7,14.8
				c0.2,0.9,0.5,1.8,0.8,2.6c1,0.2,3.3,1.6,5.9,2.4c0,0,0,0,0,0.1c17.9,1.4,36,2.7,55.1,3.8c1.9,0.1,3.8-0.2,5.6-0.8
				c0.6-0.2,1.3-0.5,1.9-0.8C134.1,416.1,134,415.4,134,415.4z M47.9,361.3c-4.1-0.7-6.8-4.6-6.1-8.7c0-0.2,0.1-0.3,0.1-0.5
				c0.9-4,5-5.8,8.4-5.7c4.1,0.1,8.2,3.1,8.1,8.2C58.4,360.6,52.1,362,47.9,361.3z"/>
			<path class="st1" d="M20.7,380.7c-0.6-2.7-2.8-5.7-6.5-5c-2.3,0.4-3.8,2.4-4,5.1c-0.2,3.7,0.6,7.9,1.9,14.7
				c1,5.2,2.3,11.3,3.7,16.3c2.2,5.1,5.3,8.4,10,9.1c2.9,0.5,20.7,2.2,28.7,1.9c6.9-0.7,17.3-0.6,17.2-8.1c-2.6-0.8-4.9-2.2-5.9-2.4
				c-0.3-0.8-0.6-1.7-0.8-2.6c-1.1-4.6-3.9-12.9-6.7-14.8c-2.3-1.5-6.1-1.5-7.2,1.5c0,0-0.3,0.8-0.8,2.1c-0.3-1.3-0.7-2.6-1-4
				c-1.2-4.8-2.7-9.6-4.4-14.2c-0.7-2.2-2.4-4-4.6-4.6c-2.4-0.8-6,0.7-6.4,3.7l-0.4,3.3l-1.3-5.9c-1.5-6.7-5.7-8.5-8.8-7.4
				c-3.5,1.2-4.2,4.9-2.9,10.3"/>
			<path class="st2" d="M199.9,76c9.3,5.1,13.8,13.9,16.8,21.5c4.4,11.1,5.6,29.9,1,44.6c-0.2-0.1-0.5-0.1-0.7-0.1
				c-2.6-0.4-5.2,0.4-7.2,2.1l-6.8-7.4c-1.5-3.8-2.7-6.8-4.2-10.6c-1.2-3.3-2.7-6.5-4.3-9.6c-1.4-2.4-4.4-1.7-7.1-2.2
				c-8.7-1.5-6.9-3.5-13.4-9.1c-8.8,9.5-18.2,13.3-30.2,17.1c-6.5,2-18.2,4-26.1,3.7c-8,4.6-19.7,8.2-26.9,10.5l-1.8,7.6
				c-2-1.7-4.6-2.5-7.2-2.1c-0.3,0-0.5,0.1-0.8,0.2l-0.8-2c-4.5-11.8-4.3-31-0.7-44.5c3.7-13.8,12.4-27.3,24.7-32.9l11.1-7.5
				c10.8-9.3,42.8-8.6,53.8-4.7c10.5,3.7,18.5,10.4,22.3,18.1L199.9,76z"/>
			<path class="st2" d="M292,373c-1.8-16.5-24-85.6-31.5-95.3c-3.9-6.6-9.8-9.1-13-10.9c-18.8-10.2-34.9-18.5-57-27.4h0
				c0.2,0.3,0.4,0.7,0.5,1c-6.5,10.5-12.2,21-21,29.7c-2.6-3.2-7.4-8.9-11.2-13.6c-2-2.3-3.9-4.8-5.6-7.3h-7.5
				c-1.7,2.5-3.6,4.9-5.6,7.3c-3.8,4.7-8.7,10.4-11.2,13.6c-8.7-8.6-14.4-19-20.7-29.4c-0.1,0-0.3-0.1-0.4-0.1
				c-19,7.9-33.7,15.6-50.6,24.8c-3.3,1.9-6.4,4-9.3,6.4c-4.2,2.6-8.7,12.7-10.4,23.6l0.1,0.4c29.9,1.4,59.8,2.9,71.9,3.5
				c2.7,0.1,4.9,2.1,5.3,4.7c1.1,6.9,3.3,19.6,5.8,34.1l10.1-1.2c4.5-0.5,9.1-0.7,13.6-0.4c3.1,0.1,6.4,0.1,9.1,1.7
				c2.8,1.6,4.5,4.5,6.1,7.2c3.1,5.3,6.1,10.6,9.2,15.8c3.3,1,6.6,2,9.8,3.1c-2.4,7.9-5.7,18.4-8.1,25.8l-0.5,0
				c-1.2,0.9-2,1.6-2,1.6c-9.8,7.9-27.6,21.3-31.9,24.3c-0.6,0.4-1.2,0.8-1.8,1.1c-0.6,0.3-1.2,0.6-1.9,0.8
				c-1.8,0.6-3.7,0.8-5.6,0.8c-19.1-1.1-37.2-2.4-55.1-3.8c0,4.1-3.1,5.8-7,6.8c0,9.9,0,0.1,0,14.1v0h171.2c0-15.7,0-7,0-17.5
				c5.1,1.1,10.2,1.9,15.3,2.4c8.3,0.3,35.8,5.6,40.6-18.9C293,392.1,293.1,382.5,292,373z"/>
			<path class="st3" d="M120.7,227.9c0.4-3.9,0.7-7.8,0.8-11.8c0-1.4-1.1-2.5-2.5-2.5c-1.4,0-2.5,1.1-2.5,2.5
				c-0.1,3.9-0.4,7.9-0.8,11.8c0,1.4,1.1,2.5,2.5,2.5C119.5,230.3,120.6,229.2,120.7,227.9z"/>
			<path class="st3" d="M176.9,216.6c0.1,3.8,0.3,7.7,0.8,11.5c0,1.4,1.1,2.5,2.5,2.5c1.2-0.1,2.7-1.1,2.5-2.5
				c-0.5-3.8-0.7-7.6-0.8-11.5c0-1.4-1.1-2.5-2.5-2.5C178,214.1,176.9,215.2,176.9,216.6z"/>
			<path class="st3" d="M238.4,435.7c0-13.1,0-4.3,0-17.4c0-3.2-5-3.2-5,0c0,13.1,0,4.3,0,17.4C233.4,438.9,238.4,438.9,238.4,435.7
				z"/>
			<path class="st3" d="M62.2,421.5c0,12,0,2.2,0,14.1c0,3.2,5,3.2,5,0c0-12,0-2.2,0-14.1C67.2,418.3,62.2,418.3,62.2,421.5z"/>
			<path class="st3" d="M147.1,249.6c0,17.2,0.3,34.3,0.5,51.5c0.1,8.1,0.2,16.2,0.3,24.4c0,3.2,5.1,3.2,5,0
				c-0.3-23.1-0.5-46.1-0.7-69.1c0-2.2,0-4.5,0-6.7C152.1,246.3,147.1,246.3,147.1,249.6z"/>
			<path class="st3" d="M147.7,406.5c0,13.5,0.1,5.3,0.1,18.8c0,3.3,0,6.6,0,9.9c0,3.2,5,3.2,5,0c0-14.6-0.1-7.4-0.1-22
				c0-2.2,0-4.5,0-6.7C152.7,403.2,147.7,403.2,147.7,406.5z"/>
			<path class="st3" d="M64.7,438.2h171.2c3.2,0,3.2-5,0-5H64.7C61.5,433.2,61.5,438.2,64.7,438.2z"/>
			<path class="st3" d="M191,242.2c10.2,4.2,20.3,8.7,30.2,13.6c9,4.5,17.8,9.3,26.7,14c4.2,2.2,7.9,4.9,10.4,9.1
				c1.7,2.8,6,0.2,4.3-2.5c-2.6-4.1-6.1-7.5-10.4-9.9c-4-2.3-8-4.3-12.1-6.5c-9.6-5.1-19.3-10.1-29.3-14.6c-6.2-2.8-12.4-5.5-18.6-8
				c-1.3-0.4-2.7,0.4-3.1,1.8C188.9,240.5,189.7,241.8,191,242.2z"/>
			<path class="st3" d="M246.3,290.8c-1.7,10.3-3.7,20.6-5.4,30.9c-1.6,9.3-2.8,18.6-3.6,27.9c-0.5,5.9-1,11.7-1.4,17.6
				c0,1.4,1.1,2.5,2.5,2.5c1.4,0,2.5-1.1,2.5-2.5c0.7-9.3,1.3-18.6,2.4-27.9c1.2-10.2,3-20.2,4.9-30.3c1-5.6,2.1-11.3,3-16.9
				c0.3-1.3-0.4-2.7-1.8-3.1C248,288.7,246.7,289.5,246.3,290.8z"/>
			<path class="st3" d="M39.8,296.1c0.8-6,2.6-11.8,5.3-17.1c0.9-1.8,2-3.3,3.4-4.7c0.6-0.5-0.4,0.3,0.2-0.2
				c0.2-0.2,0.5-0.3,0.7-0.5c0.6-0.5,1.2-0.9,1.8-1.4c1.5-1.1,2.9-2.2,4.5-3.1c5.2-3.3,10.9-6,16.3-8.9c5.5-2.9,11-5.6,16.5-8.3
				c6.6-3.2,13.2-6.1,19.9-9c1.3-0.4,2.1-1.8,1.8-3.1c-0.4-1.3-1.8-2.1-3.1-1.8c-12.3,5.1-24.3,10.8-36,17c-5.7,3-11.6,5.8-17.1,9.2
				c-2.8,1.7-5.4,3.7-8,5.7c-1.8,1.4-3.3,3.1-4.4,5c-3.7,5.9-5.7,13-6.7,19.9c-0.3,1.3,0.4,2.7,1.8,3.1
				C38.1,298.2,39.5,297.4,39.8,296.1z"/>
			<path class="st4" d="M171.8,271.8c6.6-6.6,11.8-14.5,16.6-22.5c1.2-2,2.4-4,3.6-6c0.7-1.1,1.7-2.3,1.4-3.7
				c-0.4-1.1-1-2.1-1.6-3.1c-2.3-4-5.2-7.7-8.5-10.9c-1-0.9-2.6-0.9-3.5,0c-6.7,6.7-14.4,12.3-22.8,16.7c-1,0.5-2,1-3,1.5
				c-1.1,0.4-2.1,1-2.9,1.9c-1.3,1.7-0.7,3.8,0.5,5.4c2.4,3.5,5.3,6.7,8,10c2.9,3.5,5.9,7,8.8,10.6
				C169.2,272.8,170.8,272.8,171.8,271.8c1-1,1-2.5,0-3.5c-3-3.7-6-7.3-9.1-11c-1.7-2-3.4-4.1-5-6.1c-0.6-0.7-1.2-1.4-1.7-2.2
				c-0.3-0.4-0.8-0.9-0.7-1.4l-0.3,1.3l-0.2,0.1c0.2-0.1,0.3-0.2,0.5-0.3c0.3-0.2,0.6-0.3,1-0.4c0.6-0.3,1.2-0.6,1.8-0.8
				c1.3-0.6,2.5-1.3,3.7-2c2.6-1.4,5.1-3,7.6-4.7c5-3.4,9.6-7.2,13.9-11.5h-3.5c3.7,3.6,6.8,7.7,9.1,12.3v-2.5
				c-6.2,10.2-12.1,20.7-20.6,29.2C165.9,270.5,169.5,274.1,171.8,271.8z"/>
			<path class="st5" d="M171.8,271.8c6.6-6.6,11.8-14.5,16.6-22.5c1.2-2,2.4-4,3.6-6c0.7-1.1,1.7-2.3,1.4-3.7
				c-0.4-1.1-1-2.1-1.6-3.1c-2.3-4-5.2-7.7-8.5-10.9c-1-0.9-2.6-0.9-3.5,0c-6.7,6.7-14.4,12.3-22.8,16.7c-1,0.5-2,1-3,1.5
				c-1.1,0.4-2.1,1-2.9,1.9c-1.3,1.7-0.7,3.8,0.5,5.4c2.4,3.5,5.3,6.7,8,10c2.9,3.5,5.9,7,8.8,10.6
				C169.2,272.8,170.8,272.8,171.8,271.8z M171.8,271.8c1-1,1-2.5,0-3.5c-3-3.7-6-7.3-9.1-11c-1.7-2-3.4-4.1-5-6.1
				c-0.6-0.7-1.2-1.4-1.7-2.2c-0.3-0.4-0.8-0.9-0.7-1.4l-0.3,1.3l-0.2,0.1c0.2-0.1,0.3-0.2,0.5-0.3c0.3-0.2,0.6-0.3,1-0.4
				c0.6-0.3,1.2-0.6,1.8-0.8c1.3-0.6,2.5-1.3,3.7-2c2.6-1.4,5.1-3,7.6-4.7c5-3.4,9.6-7.2,13.9-11.5h-3.5c3.7,3.6,6.8,7.7,9.1,12.3
				v-2.5c-6.2,10.2-12.1,20.7-20.6,29.2C165.9,270.5,169.5,274.1,171.8,271.8z"/>
			<path class="st3" d="M130.6,268.2c-8.5-8.5-14.3-19-20.6-29.2v2.5c2.3-4.6,5.4-8.8,9.1-12.3h-3.5c4.3,4.3,8.9,8.1,13.9,11.5
				c2.4,1.6,4.9,3.2,7.4,4.6c1.2,0.7,2.5,1.3,3.7,2c0.6,0.3,1.3,0.6,2,0.9c0.3,0.1,0.5,0.2,0.8,0.4c0.2,0.1,0.3,0.2,0.5,0.3
				c0.2,0.1,0.2,0.1,0,0l-0.3-1.3c0.1,1-1.7,2.7-2.3,3.4c-1.7,2.1-3.4,4.2-5.1,6.3c-3,3.7-6.1,7.3-9.1,11c-0.9,1-0.9,2.5,0,3.5
				c1,1,2.6,1,3.5,0c5.4-6.6,11-13,16.1-19.7c1.1-1.2,1.7-2.7,1.8-4.3c-0.1-2.8-2.9-3.6-5-4.6c-4.2-2.1-8.3-4.5-12.1-7.2
				c-4.4-3.1-8.5-6.5-12.3-10.3c-1-0.9-2.6-0.9-3.5,0c-3.3,3.1-6.2,6.7-8.4,10.7c-0.7,1-1.3,2.1-1.7,3.2c-0.4,1.3,0.6,2.5,1.2,3.5
				c1.2,2,2.5,4.1,3.7,6.2c4.9,8,10,15.8,16.6,22.5C129.3,274.1,132.9,270.5,130.6,268.2z"/>
			<path class="st3" d="M170.8,387.5c-6.3-2.3-12.8-4-19.3-5.7c-4.8-1.3-9.5-2.6-14.4-3.6l-7.1-1.4c-1.3-0.3-2.7,0.4-3.1,1.8
				c-0.4,1.3,0.4,2.7,1.8,3.1c10.4,2.1,20.6,4.6,30.7,7.6c3.4,1,6.7,1.9,10,3.1c1.3,0.4,2.7-0.4,3.1-1.8
				C172.9,389.3,172.1,387.9,170.8,387.5z"/>
			<path class="st3" d="M179.1,362c-3.4-1.1-6.7-2.3-10.1-3.3l1.5,1.1l-7.1-12.3c-2.1-3.5-3.9-7.6-7.1-10.3
				c-3.5-2.9-7.9-3.3-12.2-3.4c-4.3-0.2-8.6-0.1-12.9,0.4c-1.4,0-2.5,1.1-2.5,2.5c0,1.4,1.1,2.5,2.5,2.5c3.9-0.4,7.9-0.5,11.8-0.4
				c3.3,0.1,7.1-0.2,9.8,2c2.9,2.2,4.5,6,6.2,9.1l6.4,11c0.7,1.2,1.2,2.3,2.6,2.8c1.1,0.4,2.2,0.7,3.3,1c2.2,0.7,4.4,1.5,6.6,2.2
				C180.9,367.9,182.2,363,179.1,362z"/>
			<path class="st3" d="M71.7,417.3c17.3,1.4,34.6,2.6,51.9,3.7c3.8,0.2,7.5,0.3,11-1.3c1.9-1,3.7-2.1,5.4-3.5
				c4.4-3.2,8.7-6.5,13.1-9.8c5.6-4.3,11.2-8.5,16.6-12.9c1-1,1-2.6,0-3.5c-1-0.9-2.6-0.9-3.5,0c-8.9,7.2-18.1,14.1-27.3,20.9
				c-1.3,1-2.6,1.9-3.9,2.9c-2.6,1.8-5.8,2.7-8.9,2.4c-8.6-0.5-17.3-1.1-25.9-1.7c-9.4-0.7-18.9-1.4-28.3-2.1
				c-1.4,0-2.5,1.1-2.5,2.5C69.2,416.1,70.3,417.2,71.7,417.3z"/>
			<path class="st3" d="M15.4,407.9c-5.5-0.4-11.1-0.8-16.6-1.1c-2.8-0.2-5.7-0.4-8.5-0.5c-1.7-0.1-3.3-0.4-4.1-2.1
				c-0.4-1.2-0.6-2.4-0.7-3.6c-0.2-1.3-0.4-2.5-0.6-3.8c-0.5-2.9-1-5.7-1.4-8.6c-2.4-14.6-4.8-29.2-7.2-43.7
				c-2.2-13.5-4.4-27.1-6.6-40.7c-0.5-2.3-0.9-4.5-1.1-6.8c0-1.1,0.8-1.6,2-1.5c1.1,0,2.1,0.1,3.2,0.1c5.3,0.2,10.6,0.4,15.9,0.6
				c13.9,0.6,27.8,1.2,41.7,1.9c14.5,0.7,29,1.4,43.5,2.1c10.7,0.5,21.3,1,32,1.6c2.1,0.1,4.7-0.1,5.4,2.5c0.5,2,0.7,4.1,1.1,6.2
				c0.9,5.6,1.9,11.2,2.9,16.8c2.5,14.4,5,28.8,7.5,43.3c2.2,12.7,4.4,25.4,6.7,38.1c0.4,2,1.5,5.3-0.4,6.9c-1,1-1,2.6,0,3.5
				c1,0.9,2.6,0.9,3.6,0c3.2-2.6,2.5-7,1.9-10.5c-0.5-2.6-0.9-5.2-1.4-7.9c-1.2-6.6-2.3-13.2-3.5-19.8c-2.6-15-5.2-30.1-7.8-45.1
				c-1.1-6.6-2.2-13.1-3.4-19.7c-0.4-2.6-0.9-5.2-1.3-7.7c-0.4-2.4-0.5-5.3-1.8-7.4c-1.2-2-3.1-3.3-5.4-3.8
				c-1.2-0.2-2.3-0.3-3.5-0.3l-6.3-0.3c-5.5-0.3-11-0.5-16.5-0.8c-14.4-0.7-28.8-1.4-43.2-2.1c-14.8-0.7-29.6-1.4-44.4-2
				c-6.1-0.3-12.1-0.5-18.2-0.8c-2.4-0.1-4.8-0.2-7.2-0.3c-1.7-0.2-3.4,0-5,0.8c-2.1,1.2-3.3,3.4-3.2,5.8c0.3,2.6,0.7,5.2,1.2,7.8
				c0.5,3,1,5.9,1.4,8.9c1.2,7.1,2.3,14.3,3.5,21.4c2.5,15.5,5.1,30.9,7.7,46.4c1,6.2,2.1,12.4,3.1,18.6c0.5,3.1,0.7,6.6,3.2,8.9
				c1.8,1.6,4.1,2.5,6.6,2.4c2.9,0.2,5.8,0.4,8.7,0.5c5.5,0.4,11.1,0.7,16.6,1.1c1.4,0,2.5-1.1,2.5-2.5
				C17.9,409,16.8,407.9,15.4,407.9z"/>
			<path class="st3" d="M53.5,397.1c-0.2,0.5,0.4-0.7,0.1-0.1c0.2-0.2,0.2-0.2,0-0.1c0.1-0.1,0.3-0.2,0.4-0.2c0.3-0.1,0.3-0.1,0,0
				c0.1-0.1,0.3-0.1,0.4-0.1c0.3-0.1,0.3-0.1,0,0c0.2,0,0.3,0,0.5,0c0.2,0,0.3,0,0.5,0c-0.3-0.1-0.3,0,0,0c0.3,0.1,0.6,0.1,0.9,0.3
				c-0.5-0.2,0.3,0.2,0.5,0.2c0.3,0.2,0.3,0.3,0.1,0c0.7,0.7,1.3,1.5,1.8,2.5c0.6,1.2,1.2,2.4,1.6,3.6c1,2.7,1.7,5.4,2.5,8.2
				c0.2,0.8,0.5,1.6,0.9,2.3c0.4,0.6,1,1,1.6,1.2c0.1,0,0.8,0.3,0.4,0.1c1.7,0.7,3.3,1.6,5.1,2.2c3.1,1,4.4-3.8,1.3-4.8
				c-1.9-0.6-3.7-1.9-5.6-2.3l1.8,1.8c-1-2.5-1.5-5.3-2.4-7.9c-0.9-2.8-2-5.4-3.5-7.9c-1.3-2.3-3.5-3.8-6.1-4.3
				c-3.2-0.7-6.5,1.1-7.7,4.2c-0.4,1.3,0.4,2.7,1.8,3.1C51.8,399.2,53.1,398.4,53.5,397.1z"/>
			<path class="st3" d="M55.2,407.3c-2.2-8.8-4.3-17.6-7.3-26.2c-0.5-1.8-1.3-3.5-2.4-5c-1.3-1.6-3.1-2.7-5.1-3.1
				c-3.8-0.8-8.3,1.6-8.9,5.6c-0.3,1.3,0.4,2.7,1.8,3.1c1.3,0.4,2.7-0.4,3.1-1.8c0.4-2.5,3-2.5,4.7-1.2c0.8,0.7,1.4,1.7,1.7,2.7
				c0.6,1.6,1.1,3.1,1.6,4.7c2.4,7.3,4.2,14.9,6,22.4C51.1,411.8,56,410.5,55.2,407.3z"/>
			<path class="st3" d="M42,407.2c-2.1-8.5-4.2-17-6.2-25.6c-0.8-3.6-1.3-7.6-3.4-10.7c-2.1-3.2-5.9-5.3-9.8-4
				c-5.8,2-5.8,8.4-4.6,13.4c0.7,3.1,5.6,1.8,4.8-1.3c-0.6-1.8-0.7-3.7-0.3-5.5c0.2-1,1-1.7,1.9-1.8c0.1,0,0.5-0.1,0.2-0.1
				c-0.3,0,0.1,0,0.2,0c0.1,0,0.3,0,0.4,0c0.4,0-0.4-0.1,0,0c0.5,0,1.1,0.3,1.5,0.6c1.1,0.9,2,2.2,2.4,3.6c0.9,2.8,1.4,5.9,2.1,8.8
				c0.9,3.8,1.8,7.7,2.8,11.5c1,4.2,2,8.4,3,12.5C37.9,411.7,42.8,410.4,42,407.2z"/>
			<path class="st3" d="M13.6,413.1c2.2,5,6,9.3,11.6,10.2c3.5,0.6,7,0.8,10.5,1.1c9.4,0.8,18.8,1.4,28.1-0.2
				c5.2-0.9,10.2-3.5,10.4-9.4c0.1-3.2-4.9-3.2-5,0c0,1.2-0.6,2.3-1.7,2.9c-1.6,0.8-3.3,1.4-5.1,1.6c-3.8,0.6-7.7,0.9-11.6,0.9
				c-8-0.2-16.1-0.8-24-1.7c-0.4,0,0.6,0.1-0.1,0c-0.4-0.1-0.9-0.1-1.3-0.2c-1.1-0.2-2.1-0.7-3-1.4c-2-1.7-3.5-3.9-4.5-6.3
				c-0.7-1.2-2.2-1.6-3.4-0.9C13.4,410.4,13,411.9,13.6,413.1z"/>
			<path class="st3" d="M29.4,405.9c-1.3-4.9-2.5-9.7-3.7-14.6c-0.6-2.3-1.2-4.7-1.7-7c-0.4-1.7-0.6-3.4-1.2-5.1
				c-0.8-2.6-2.7-4.7-5.2-5.7c-2.8-1-5.9-0.2-7.9,2c-3.4,4-1.9,10.4-1.1,15c1.3,7.4,2.8,14.7,4.8,21.9c0.8,3.1,5.7,1.8,4.8-1.3
				c-1.6-5.8-2.8-11.6-3.9-17.5c-0.5-2.5-1-5-1.3-7.5c-0.3-1.8-0.4-3.7-0.2-5.6c0.3-1.6,1.4-2.8,3.1-2.3c1.5,0.4,2.1,2.1,2.5,3.5
				c0.8,3.6,1.7,7.3,2.6,10.9c1.2,4.9,2.4,9.8,3.7,14.6C25.4,410.4,30.3,409,29.4,405.9z"/>
			<path class="st3" d="M258.4,278.9c1.4,2,2.5,4.1,3.5,6.3c0.3,0.8,0.7,1.5,1,2.3c0.2,0.4,0.4,0.8,0.5,1.2c0.1,0.2,0.3,0.6,0.1,0.2
				c0.1,0.3,0.2,0.5,0.3,0.8c0.8,1.9,1.6,3.8,2.3,5.7c3.7,9.5,7,19.2,10.2,28.9c3.2,9.9,6.2,19.8,8.9,29.8c1.1,3.9,2.1,7.9,3,11.9
				c0.3,1.5,0.7,3.1,0.9,4.6c0.1,0.6,0.2,1.3,0.3,2c0,0.2-0.1-0.6,0-0.1c0,0.1,0,0.2,0,0.4c0.1,0.8,0.2,1.6,0.3,2.4
				c0.7,7.3,0.7,14.7,0,22c-0.2,3.2-0.8,6.3-2,9.2c-0.9,2.1-2.1,4-3.7,5.7c-2.9,2.9-6.6,4.9-10.7,5.7c-1.1,0.2-2.2,0.4-3.3,0.6
				c-0.3,0,0,0,0.1,0c-0.1,0-0.2,0-0.4,0c-0.2,0-0.5,0.1-0.7,0.1c-0.6,0.1-1.1,0.1-1.7,0.1c-2,0.1-4.1,0.2-6.1,0.1
				c-3.2-0.1-6.3-0.4-9.5-0.6c-1-0.1-2.1-0.1-3.1-0.2c-0.3,0-0.6-0.1-1-0.1c-0.3,0-0.3,0,0,0c-0.2,0-0.4-0.1-0.7-0.1
				c-0.8-0.1-1.5-0.2-2.3-0.4c-8.7-1.4-17.3-3.3-25.8-5.3c-9.8-2.3-19.6-4.7-29.3-7.4c-4-1.1-7.9-2.2-11.9-3.5c-1.5-0.5-3-1-4.5-1.5
				c-0.6-0.2-1.2-0.4-1.8-0.7c-0.1-0.1-0.3-0.1-0.4-0.2c-0.2-0.1,0.6,0.3,0.1,0.1c-0.2-0.1-0.5-0.2-0.7-0.3c-0.3-0.2-0.7-0.3-1-0.5
				c-0.1-0.1-0.2-0.2-0.4-0.2c-0.5-0.3,0.5,0.4,0.1,0.1l0.7,2.4c3.6-12.2,7.7-24.3,11.4-36.5c0.8-2.5,1.5-5,2.2-7.5l-3.1,1.8
				c8.3,2,16.6,3.8,24.9,5.7c9.2,2.1,18.5,4.1,27.7,6.5c0.7,0.2,1.5,0.4,2.2,0.6c2,0.4,4,0.6,6,0.7c4.3,0.5,8.7,1,13.1,1.2
				c3.2,0.2,3.2-4.9,0-5c-3.8-0.2-7.6-0.6-11.4-1c-2.6-0.2-5.2-0.5-7.8-1.1c-3.8-1-7.7-1.9-11.5-2.8c-10-2.3-20.1-4.6-30.1-6.9
				c-3.9-0.9-7.8-1.7-11.7-2.7c-1.3-0.3-2.7,0.4-3.1,1.8c-1.4,5.5-3.2,10.9-4.9,16.4c-2.2,7-4.4,13.9-6.6,20.9
				c-0.7,2.2-1.4,4.5-2.1,6.7c-0.2,0.9,0,1.8,0.6,2.4c1.6,1.5,3.9,2.2,5.9,2.9c3.3,1.2,6.7,2.3,10.1,3.3c9.5,2.8,19,5.3,28.7,7.6
				c9.4,2.3,18.9,4.4,28.4,6.2c5.9,1,11.8,1.7,17.7,2.1c8.5,0.6,17.6,0.5,25.3-3.6c4.4-2.3,7.9-6,10-10.5c3.1-6.7,3.2-14.4,3.3-21.7
				c0.1-5.9-0.3-11.8-1.2-17.7c-0.6-3.4-1.3-6.7-2.2-10c-2.4-9.6-5.2-19.2-8.2-28.6c-3.2-10.3-6.6-20.6-10.4-30.8
				c-2.7-7.3-5.4-14.9-9.1-21.8c-0.5-0.9-1-1.7-1.6-2.5c-0.7-1.2-2.2-1.6-3.4-0.9C258.1,276.2,257.7,277.7,258.4,278.9z"/>
			<path class="st3" d="M211.6,145.8c2.7-2.2,6.7-1.9,9,0.8c1.3,1.7,1.4,4,1.4,6c0.1,2.2-0.1,4.4-0.4,6.5c-1.4,8-5.6,17.7-14.5,19.2
				c-1.3,0.4-2.1,1.8-1.8,3.1c0.4,1.3,1.8,2.1,3.1,1.8c9-1.5,14.3-9.9,16.9-17.9c1.4-4.4,2-9,1.7-13.6c-0.3-4.4-1.5-8.6-5.6-10.9
				c-4.3-2.4-9.7-1.8-13.3,1.4c-1,1-1,2.6,0,3.5C209,146.7,210.6,146.7,211.6,145.8z"/>
			<path class="st3" d="M205.1,174.1c-0.1,2.6-0.6,5.2-1.5,7.7c-0.3,0.9-0.6,1.9-0.9,2.8c-0.1,0.2-0.2,0.5-0.3,0.7
				c0,0.1-0.1,0.2-0.1,0.3c-0.2,0.5,0.1-0.3,0-0.1c-1.2,2.5-2.5,5-4,7.3c-4.3,7-9.7,13.3-16,18.5c-3.5,2.9-7.6,4.9-12,6
				c-3.2,0.7-1.8,5.6,1.3,4.8c9-2.1,16.5-8.5,22.4-15.3c5-5.5,9.2-11.7,12.4-18.4c2.1-4.6,3.4-9.5,3.6-14.5
				C210.3,170.9,205.2,170.9,205.1,174.1z"/>
			<path class="st3" d="M90.7,142.2c-3.2-2.8-7.7-3.7-11.7-2.2c-4.3,1.7-6.5,5.3-7.1,9.8c-1.1,9,1.2,18,6.4,25.4c2.9,4,7,7.1,12,7.9
				c1.3,0.3,2.7-0.4,3.1-1.8c0.4-1.3-0.4-2.7-1.8-3.1c-8.9-1.5-13.1-11.2-14.5-19.2c-0.4-2.2-0.5-4.3-0.4-6.5c0.1-2,0.1-4.4,1.4-6
				c2.3-2.7,6.3-3.1,9-0.8c1,0.9,2.6,0.9,3.5,0C91.7,144.8,91.7,143.2,90.7,142.2z"/>
			<path class="st3" d="M88.9,173.2c1.4,8.9,4.5,17.5,9.1,25.3c5.2,8.6,12.8,16.3,21.8,21c4.8,2.5,9.9,4.1,15.3,4.6
				c1.4,0,2.5-1.1,2.5-2.5c0-1.4-1.1-2.5-2.5-2.5c-18.2-1.9-32.3-18.1-38-34.5c-1.4-4.1-2.5-8.4-3.2-12.7c-0.4-1.3-1.8-2.1-3.1-1.8
				C89.4,170.5,88.6,171.8,88.9,173.2z"/>
			<path class="st3" d="M193.6,67.2C188,56,175.6,48.5,163.5,46.4c-11.4-1.9-23-1.8-34.3,0.3c-5.5,1.1-11.3,2.8-15.7,6.6
				c-1,1-1,2.6,0,3.5c1,1,2.6,1,3.5,0c0.2-0.1,0.3-0.3,0.5-0.4c-0.3,0.3,0.1-0.1,0.2-0.2c0.4-0.3,0.9-0.6,1.3-0.8
				c0.9-0.5,1.9-1,2.8-1.4c2.2-0.9,4.4-1.5,6.8-2c5.3-1.1,10.8-1.7,16.3-1.8c10-0.2,20,0.3,29,5c6.4,3.3,12,8.1,15.2,14.5
				C190.7,72.6,195,70.1,193.6,67.2z"/>
			<path class="st3" d="M103,60.5c-10.8,5-18.5,15.2-23,26c-4.6,11-6.1,23.4-5.6,35.3c0.1,6.5,1.3,12.9,3.4,19
				c0.4,1.3,1.8,2.1,3.1,1.8c1.3-0.4,2.1-1.8,1.8-3.1c-3.8-10.2-3.9-21.9-2.6-32.7c1.3-11,4.9-21.9,11.7-30.6
				c3.6-4.8,8.4-8.7,13.8-11.3c1.2-0.7,1.6-2.2,0.9-3.4C105.7,60.2,104.2,59.8,103,60.5z"/>
			<path class="st3" d="M198.6,78.2c7.6,4.2,12.3,11.5,15.4,19.3c3.3,8.2,4.3,17.3,4,26.1c-0.1,5.6-0.9,11.1-2.4,16.5
				c-0.9,3.1,4,4.4,4.8,1.3c2.7-10.2,3.4-20.9,1.8-31.3c-1.1-8.9-4.2-17.4-9.1-24.9c-3.1-4.7-7.2-8.5-12.1-11.3
				C198.3,72.3,195.8,76.6,198.6,78.2z"/>
			<path class="st3" d="M174.1,101.3c-5.3,6.2-11.9,11.1-19.3,14.4c-7.3,3.2-14.9,5.4-22.8,6.7c-4.7,0.8-9.4,1.2-14.1,1.1
				c-3.2-0.1-3.2,4.9,0,5c4.5,0,9-0.3,13.4-1c4.2-0.6,8.3-1.4,12.3-2.5c8-2.3,16-5.3,22.9-10c4.1-2.9,7.9-6.2,11.1-10.1
				c0.9-1,0.9-2.5,0-3.5C176.7,100.3,175.1,100.3,174.1,101.3z"/>
			<path class="st3" d="M132.3,113c-4.5,3.6-9.4,6.8-14.6,9.4c-5.9,3.2-11.9,6-18.2,8.4c-3.1,1.2-6.3,2.3-9.5,3.3
				c-3.1,0.9-1.8,5.8,1.3,4.8c6.2-1.9,12.4-4.3,18.3-7c6.2-2.7,12.2-5.9,18-9.5c2.8-1.8,5.6-3.7,8.1-5.9c1-1,1-2.6,0-3.5
				C134.9,112,133.3,112,132.3,113z"/>
			<path class="st3" d="M177.7,112.6c1.8,1.8,4.1,3,6.5,3.5c1.8,0.4,3.6,0.7,5.4,0.8c1,0.1,2.1,0,2.8,0.9c0.8,1.3,1.5,2.7,2,4.1
				c0.6,1.4,1.2,2.8,1.8,4.2c1.5,3.7,2.9,7.4,4.4,11.2c0.4,1.3,1.8,2.1,3.1,1.8c1.3-0.4,2.1-1.8,1.8-3.1c-1.5-3.8-3-7.6-4.5-11.4
				c-1.1-3.2-2.5-6.3-4.2-9.2c-1-1.6-2.5-2.7-4.3-3c-1.6-0.3-3.2-0.2-4.8-0.5c-0.9-0.2-1.8-0.4-2.7-0.6c-0.3-0.1-0.6-0.2-0.9-0.3
				c0,0-0.7-0.3-0.4-0.2c-0.5-0.2-1-0.5-1.4-0.8c0.4,0.3-0.1-0.1-0.2-0.2c-0.2-0.2-0.4-0.4-0.6-0.6
				C179,106.7,175.4,110.3,177.7,112.6z"/>
			<path class="st4" d="M50.4,349c0.2,0,0.4,0,0.6,0c-0.6,0-0.1,0,0.1,0c0.4,0.1,0.7,0.2,1.1,0.3c0.1,0,0.3,0.1,0.4,0.1
				c0.6,0.2-0.4-0.2,0.2,0.1c0.4,0.2,0.7,0.4,1.1,0.6c0,0,0.5,0.4,0.2,0.2c-0.3-0.2,0.2,0.2,0.2,0.2c0.3,0.2,0.5,0.5,0.7,0.7
				c-0.4-0.4,0.1,0.1,0.1,0.2c0.1,0.1,0.2,0.3,0.3,0.4c0.1,0.2,0.2,0.3,0.3,0.5c-0.3-0.5,0.1,0.2,0.1,0.3c0.1,0.4,0.2,0.8,0.3,1.2
				c-0.1-0.5,0,0,0,0c0,0.3,0,0.5,0,0.7c0,0.2,0,0.4,0,0.6c0.1,0.4,0.1-0.5,0,0.1c-0.1,0.4-0.2,0.8-0.3,1.1c0.2-0.6-0.1,0.2-0.2,0.4
				c-0.1,0.2-0.2,0.3-0.3,0.4c0.4-0.5,0.1-0.1,0,0c-0.2,0.2-0.5,0.4-0.7,0.7c0.1-0.1,0.5-0.3,0.1-0.1c-0.2,0.1-0.4,0.2-0.6,0.4
				c-0.2,0.1-1,0.4-0.4,0.2c-0.3,0.1-0.6,0.2-0.8,0.3c-0.3,0.1-0.6,0.2-0.9,0.2c-0.2,0-0.4,0.1-0.5,0.1c-0.6,0.1,0.5,0,0,0
				c-0.6,0.1-1.3,0.1-1.9,0.1c-0.2,0-0.7-0.1-0.8-0.1c0.2-0.1,0.5,0.1,0.1,0c-0.3-0.1-0.5-0.1-0.7-0.2c-0.2-0.1-0.3-0.1-0.5-0.2
				c-0.4-0.1,0.5,0.3-0.1-0.1c-0.3-0.2-0.6-0.4-0.9-0.6c0.5,0.3-0.1-0.1-0.2-0.1c-0.1-0.1-0.3-0.3-0.4-0.4c-0.1-0.1-0.2-0.3-0.4-0.4
				c0.3,0.4-0.1-0.2-0.2-0.3c-0.1-0.2-0.2-0.3-0.3-0.5c0-0.1-0.3-0.7-0.1-0.2c-0.1-0.3-0.3-0.7-0.3-1.1c0,0-0.1-0.7-0.1-0.3
				s0-0.4,0-0.4c0-0.2,0-0.5,0-0.7c0-0.1,0.1-0.8,0-0.3c0.1-0.5,0.2-0.9,0.4-1.4c-0.2,0.5,0.1-0.1,0.1-0.2c0.1-0.2,0.2-0.4,0.3-0.6
				c0.3-0.6-0.3,0.3,0.1-0.2c0.1-0.1,0.3-0.3,0.4-0.5c0.2-0.1,0.3-0.3,0.5-0.4c-0.4,0.3,0.1,0,0.2-0.1c0.4-0.2,0.7-0.4,1.1-0.6
				c-0.5,0.3,0.1,0,0.2-0.1c0.2-0.1,0.4-0.1,0.6-0.2c0.2-0.1,0.4-0.1,0.6-0.1c0.1,0,0.3-0.1,0.4-0.1c-0.3,0-0.3,0-0.2,0
				C49.5,349,50,349,50.4,349c1.4,0,2.5-1.1,2.5-2.5s-1.1-2.5-2.5-2.5h0c-4.5-0.2-8.7,2.4-10.5,6.5c-1.7,4.6,0.2,9.7,4.4,12.2
				c3.4,1.9,7.8,1.7,11.3,0.2c1.7-0.7,3.1-2,4.1-3.5c1.1-2,1.5-4.4,1.1-6.7c-0.8-5.1-5.5-8.4-10.4-8.7c-1.4,0-2.5,1.1-2.5,2.5
				C47.9,347.8,49,348.9,50.4,349z"/>
			<path class="st5" d="M50.4,349c0.2,0,0.4,0,0.6,0c-0.6,0-0.1,0,0.1,0c0.4,0.1,0.7,0.2,1.1,0.3c0.1,0,0.3,0.1,0.4,0.1
				c0.6,0.2-0.4-0.2,0.2,0.1c0.4,0.2,0.7,0.4,1.1,0.6c0,0,0.5,0.4,0.2,0.2c-0.3-0.2,0.2,0.2,0.2,0.2c0.3,0.2,0.5,0.5,0.7,0.7
				c-0.4-0.4,0.1,0.1,0.1,0.2c0.1,0.1,0.2,0.3,0.3,0.4c0.1,0.2,0.2,0.3,0.3,0.5c-0.3-0.5,0.1,0.2,0.1,0.3c0.1,0.4,0.2,0.8,0.3,1.2
				c-0.1-0.5,0,0,0,0c0,0.3,0,0.5,0,0.7c0,0.2,0,0.4,0,0.6c0.1,0.4,0.1-0.5,0,0.1c-0.1,0.4-0.2,0.8-0.3,1.1c0.2-0.6-0.1,0.2-0.2,0.4
				c-0.1,0.2-0.2,0.3-0.3,0.4c0.4-0.5,0.1-0.1,0,0c-0.2,0.2-0.5,0.4-0.7,0.7c0.1-0.1,0.5-0.3,0.1-0.1c-0.2,0.1-0.4,0.2-0.6,0.4
				c-0.2,0.1-1,0.4-0.4,0.2c-0.3,0.1-0.6,0.2-0.8,0.3c-0.3,0.1-0.6,0.2-0.9,0.2c-0.2,0-0.4,0.1-0.5,0.1c-0.6,0.1,0.5,0,0,0
				c-0.6,0.1-1.3,0.1-1.9,0.1c-0.2,0-0.7-0.1-0.8-0.1c0.2-0.1,0.5,0.1,0.1,0c-0.3-0.1-0.5-0.1-0.7-0.2c-0.2-0.1-0.3-0.1-0.5-0.2
				c-0.4-0.1,0.5,0.3-0.1-0.1c-0.3-0.2-0.6-0.4-0.9-0.6c0.5,0.3-0.1-0.1-0.2-0.1c-0.1-0.1-0.3-0.3-0.4-0.4c-0.1-0.1-0.2-0.3-0.4-0.4
				c0.3,0.4-0.1-0.2-0.2-0.3c-0.1-0.2-0.2-0.3-0.3-0.5c0-0.1-0.3-0.7-0.1-0.2c-0.1-0.3-0.3-0.7-0.3-1.1c0,0-0.1-0.7-0.1-0.3
				s0-0.4,0-0.4c0-0.2,0-0.5,0-0.7c0-0.1,0.1-0.8,0-0.3c0.1-0.5,0.2-0.9,0.4-1.4c-0.2,0.5,0.1-0.1,0.1-0.2c0.1-0.2,0.2-0.4,0.3-0.6
				c0.3-0.6-0.3,0.3,0.1-0.2c0.1-0.1,0.3-0.3,0.4-0.5c0.2-0.1,0.3-0.3,0.5-0.4c-0.4,0.3,0.1,0,0.2-0.1c0.4-0.2,0.7-0.4,1.1-0.6
				c-0.5,0.3,0.1,0,0.2-0.1c0.2-0.1,0.4-0.1,0.6-0.2c0.2-0.1,0.4-0.1,0.6-0.1c0.1,0,0.3-0.1,0.4-0.1c-0.3,0-0.3,0-0.2,0
				C49.5,349,50,349,50.4,349z M50.4,349c1.4,0,2.5-1.1,2.5-2.5s-1.1-2.5-2.5-2.5h0c-4.5-0.2-8.7,2.4-10.5,6.5
				c-1.7,4.6,0.2,9.7,4.4,12.2c3.4,1.9,7.8,1.7,11.3,0.2c1.7-0.7,3.1-2,4.1-3.5c1.1-2,1.5-4.4,1.1-6.7c-0.8-5.1-5.5-8.4-10.4-8.7
				c-1.4,0-2.5,1.1-2.5,2.5C47.9,347.8,49,348.9,50.4,349z"/>
			<path class="st4" d="M173.5,169.2c8.7,0.3,18.6,0.1,24.1-7.8c4.2-6,5-16.5-0.8-21.7c-1-0.7-2.1-1.1-3.3-1.4
				c-1.2-0.4-2.4-0.7-3.6-1c-2.4-0.5-4.7-0.9-7.2-1.2c-4.8-0.5-9.7-0.3-14.5,0.6c-4.1,0.7-9.1,1.5-11.5,5.3
				c-1.7,2.8-2.4,6.1-2.2,9.4c0.3,4.9,2.3,9.5,5.8,13C163.9,167.7,168.8,169.1,173.5,169.2c3.2,0.1,3.2-4.9,0-5
				c-3.7-0.1-7.9-1.3-10.4-4.2c-2.6-3.1-3.9-7.1-3.5-11.2c0.2-1.1,0.5-2.2,0.9-3.2c0.8-1.7,1.4-2,3.1-2.6c4.7-1.5,9.6-2.2,14.5-2.1
				c5.6,0.1,11.1,1.1,16.3,2.9l-1.1-0.6c4,4.1,3.1,11.6-0.2,15.9c-4.5,5.8-13,5.3-19.6,5.1C170.3,164.1,170.3,169.2,173.5,169.2z"/>
			<path class="st5" d="M173.5,169.2c8.7,0.3,18.6,0.1,24.1-7.8c4.2-6,5-16.5-0.8-21.7c-1-0.7-2.1-1.1-3.3-1.4
				c-1.2-0.4-2.4-0.7-3.6-1c-2.4-0.5-4.7-0.9-7.2-1.2c-4.8-0.5-9.7-0.3-14.5,0.6c-4.1,0.7-9.1,1.5-11.5,5.3
				c-1.7,2.8-2.4,6.1-2.2,9.4c0.3,4.9,2.3,9.5,5.8,13C163.9,167.7,168.8,169.1,173.5,169.2z M173.5,169.2c3.2,0.1,3.2-4.9,0-5
				c-3.7-0.1-7.9-1.3-10.4-4.2c-2.6-3.1-3.9-7.1-3.5-11.2c0.2-1.1,0.5-2.2,0.9-3.2c0.8-1.7,1.4-2,3.1-2.6c4.7-1.5,9.6-2.2,14.5-2.1
				c5.6,0.1,11.1,1.1,16.3,2.9l-1.1-0.6c4,4.1,3.1,11.6-0.2,15.9c-4.5,5.8-13,5.3-19.6,5.1C170.3,164.1,170.3,169.2,173.5,169.2z"/>
			<path class="st3" d="M105.8,143.9c7.6-2.7,15.7-3.6,23.7-2.5c2,0.3,4,0.7,6,1.3c0.9,0.2,1.8,0.5,2.7,0.9c0.3,0.2,0.5,0.4,0.7,0.7
				c1.2,1.9,1.8,4.1,1.7,6.3c-0.1,3.4-1.3,6.6-3.4,9.2c-2,2.5-5.2,3.7-8.3,4.2c-3.7,0.5-7.4,0.5-11,0.1c-3.3-0.3-6.9-1.2-9.4-3.5
				c-4.4-4.1-6.1-12.8-1.6-17.4c2.3-2.3-1.3-5.9-3.6-3.5c-5.5,5.6-5.1,15.3-0.9,21.6c5.3,7.9,15.1,8.3,23.8,8
				c4.2,0,8.3-1.2,11.8-3.4c3.5-2.6,6-6.4,7-10.6c0.9-3.4,0.8-7-0.3-10.4c-0.5-1.7-1.4-3.3-2.6-4.5c-1.5-1.5-3.7-2-5.8-2.6
				c-10.5-2.8-21.6-2.3-31.9,1.3c-1.3,0.4-2.1,1.8-1.8,3.1C103,143.4,104.4,144.2,105.8,143.9z"/>
			<path class="st4" d="M145.8,151.9C146.3,151.6,145.3,152.1,145.8,151.9c0.2-0.1,0.4-0.1,0.6-0.2c0.4-0.1,0.8-0.2,1.2-0.3
				c0.2,0,0.5,0-0.2,0c0.1,0,0.2,0,0.3,0c0.3,0,0.5-0.1,0.7-0.1c0.5,0,1-0.1,1.5,0c0.5,0,1,0,1.5,0.1c0.3,0,0.5,0,0.8,0.1
				c0.2,0,0.6,0.1-0.1,0c0.1,0,0.2,0,0.3,0c0.4,0.1,0.9,0.2,1.4,0.3c0.2,0.1,0.4,0.1,0.5,0.2c0.2,0.1,1,0.4,0.1,0
				c0.6,0.3,1.3,0.4,1.9,0.3c0.6-0.2,1.2-0.6,1.5-1.1c0.6-1.1,0.4-2.9-0.9-3.4c-2.2-0.9-4.5-1.3-6.9-1.3c-2.3-0.1-4.7,0.3-6.8,1.3
				c-1.2,0.7-1.6,2.2-0.9,3.4C143.1,152.1,144.6,152.5,145.8,151.9z"/>
			<path class="st5" d="M145.8,151.9C145.3,152.1,146.3,151.6,145.8,151.9z M145.8,151.9c0.2-0.1,0.4-0.1,0.6-0.2
				c0.4-0.1,0.8-0.2,1.2-0.3c0.2,0,0.5,0-0.2,0c0.1,0,0.2,0,0.3,0c0.3,0,0.5-0.1,0.7-0.1c0.5,0,1-0.1,1.5,0c0.5,0,1,0,1.5,0.1
				c0.3,0,0.5,0,0.8,0.1c0.2,0,0.6,0.1-0.1,0c0.1,0,0.2,0,0.3,0c0.4,0.1,0.9,0.2,1.4,0.3c0.2,0.1,0.4,0.1,0.5,0.2
				c0.2,0.1,1,0.4,0.1,0c0.6,0.3,1.3,0.4,1.9,0.3c0.6-0.2,1.2-0.6,1.5-1.1c0.6-1.1,0.4-2.9-0.9-3.4c-2.2-0.9-4.5-1.3-6.9-1.3
				c-2.3-0.1-4.7,0.3-6.8,1.3c-1.2,0.7-1.6,2.2-0.9,3.4C143.1,152.1,144.6,152.5,145.8,151.9z"/>
			<path class="st3" d="M202.6,148.9c0.1,0,0.2-0.1,0.3-0.1l-0.6,0.3c1.6-0.7,3.4-1.3,5.1-1.6c0.6-0.2,1.2-0.6,1.5-1.1
				c0.3-0.6,0.4-1.3,0.3-1.9c-0.2-0.6-0.6-1.2-1.2-1.5c-0.6-0.3-1.3-0.4-1.9-0.3c-2.1,0.4-4.1,1.1-6,2c-0.6,0.3-1,0.9-1.2,1.5
				c-0.2,0.6-0.1,1.3,0.3,1.9c0.3,0.6,0.9,1,1.5,1.1l0.7,0.1C201.8,149.3,202.2,149.2,202.6,148.9z"/>
			<path class="st3" d="M99.5,144.6c-1.9-0.9-3.9-1.6-6-2c-0.7-0.2-1.4-0.1-1.9,0.3c-1.2,0.7-1.6,2.2-0.9,3.4c0.3,0.6,0.9,1,1.5,1.1
				c1.8,0.4,3.5,0.9,5.1,1.6l-0.6-0.3c0.1,0,0.2,0.1,0.3,0.1c0.3,0.2,0.6,0.3,0.9,0.3c0.3,0.1,0.7,0.1,1,0c0.6-0.2,1.2-0.6,1.5-1.1
				c0.3-0.6,0.4-1.3,0.3-1.9C100.5,145.5,100,144.9,99.5,144.6z"/>
			<path class="st3" d="M139.8,192.1c3.5,1.8,7.4,2.7,11.4,2.6c4,0,8.1-0.8,11.4-3.3c1-1,1-2.6,0-3.5c-1-0.9-2.6-0.9-3.5,0
				c0.7-0.6,0.1-0.1-0.1,0.1c-0.2,0.1-0.5,0.3-0.7,0.4c-0.1,0.1-1,0.4-0.4,0.2c-0.3,0.1-0.7,0.3-1,0.4c-1.9,0.6-3.9,0.9-6,0.8
				c-1.9,0-3.9-0.2-5.7-0.8c-0.4-0.1-0.7-0.2-1.1-0.4c-0.1,0-0.2-0.1-0.3-0.1c0.6,0.2,0.1,0,0,0c-0.4-0.2-0.9-0.4-1.3-0.7
				c-1.2-0.7-2.7-0.3-3.4,0.9C138.3,189.9,138.7,191.4,139.8,192.1z"/>
			<path class="st3" d="M150.2,165c0.5,1.9,1,3.9,1.3,5.9l-0.1-0.7c0,0.3,0,0.5,0,0.8l0.1-0.7c0,0.1-0.1,0.3-0.1,0.4l0.3-0.6
				c0,0.1-0.1,0.2-0.1,0.2l0.4-0.5c-0.1,0.1-0.1,0.1-0.2,0.2l0.5-0.4c-0.1,0.1-0.3,0.2-0.5,0.3l0.6-0.3c-0.3,0.1-0.5,0.2-0.8,0.2
				l0.7-0.1c-0.2,0-0.5,0-0.7,0l0.7,0.1c-0.3,0-0.6-0.1-0.8-0.1c-0.7-0.2-1.3-0.1-1.9,0.3c-1.2,0.7-1.6,2.2-0.9,3.4
				c0.3,0.6,0.9,1,1.5,1.1c0.6,0.1,1.2,0.2,1.8,0.3c0.9,0,1.7-0.2,2.5-0.6c1-0.4,1.7-1.3,2-2.3c0.2-0.9,0.2-1.7,0-2.6
				c-0.3-1.9-0.8-3.8-1.2-5.6c-0.4-1.3-1.7-2.1-3.1-1.8C150.6,162.3,149.8,163.7,150.2,165z"/>
			<path class="st3" d="M118.6,148.6c-1,3.2-0.3,10.5,5.7,11.1c8,0,8.4-8.9,5.7-13.1C127.8,143.2,121.4,141.8,118.6,148.6z"/>
			<path class="st3" d="M182.6,148.6c1,3.2,0.3,10.5-5.7,11.1c-8-0.1-8.4-8.9-5.7-13.1C173.4,143.2,179.8,141.8,182.6,148.6z"/>
		</g>
		<g id="c" class="st6">
			<g id="d">
				<path class="st7" d="M157.1,243.4c8.7-6.8,19.9-15.2,24.7-19c1.2-0.9,2.9-0.4,3.3,1c1.2,3.8,2.3,7.5,4.2,13.8
					c34.2,12.3,60.6,26.2,79.8,56.1c17.5,27.3,34.4,76.6,27.1,109.4c-4.4,19.7-22,29.3-40.2,34.3H89.5c0-27.1,0-75.4,0-75.4
					c-2.9,15-9.8,29.7-22,39c-15.7,12-39.5,10.7-52.1-5.3c-5.9-7.4-8.5-16.9-10.6-26.1c-5.4-23.9-8.4-48.4-11-72.8l49.7-25.8
					c15.9-17.6,47.2-28.8,65.4-32.8c1.9-6.6,3.1-10.4,4.3-14.3c0.4-1.4,2.1-2,3.3-1c5.9,4.7,21.6,16.3,30.2,23.4h4.9
					C153.2,246.5,155.1,245,157.1,243.4L157.1,243.4z"/>
				<path class="st7" d="M209.7,145.5c2-1.9,4.7-2.6,7-2.6c5,0.2,7.1,2.9,8,4.5c2.7,4.7,2.6,13.5,0.8,18.9
					c-1.3,3.8-3.4,9.7-8.5,13.9c-2.1,1.7-5.2,2.9-8.2,2.4c0,0-0.2,0-0.6-0.1c-1,2.8-2.2,5.3-2.6,6.6c-1.9,5.1-11.3,21.6-23.8,30.3
					c0,2.8,0,5.1,0,5.1c-5.9,4.7-21.6,16.3-30.2,23.4h-4.9c-8.6-7.1-24.3-18.7-30.2-23.4v-4.9c-4.7-3.2-9-7.3-13-12.1
					c-7-8.4-11.1-17.4-13.5-25c-3.1,0.7-6.4-0.4-8.6-2.3c-5.1-4.2-7.2-10-8.5-13.9c-1.8-5.4-1.9-14.1,0.8-18.9c0.9-1.6,3-4.3,8-4.5
					c2.3-0.1,5,0.6,7,2.6c0,0-13.7-63.1,63.1-63.1S209.7,145.5,209.7,145.5L209.7,145.5z"/>
				<path class="st7" d="M33.5,313.6c0.5,30.7,1.7,110.9,2.2,141.2c0.1,6.5,5.4,11.7,11.9,11.7c39,0,163.9,0,202.9,0
					c6.5,0,11.8-5.2,11.9-11.7c0.5-30.3,1.7-110.5,2.2-141.2c0.1-6.7-5.3-12.1-11.9-12.1c-40,0-167.3,0-207.3,0
					C38.8,301.5,33.4,306.9,33.5,313.6L33.5,313.6z"/>
				<path class="st7" d="M217.4,184.7c-8.8,0-15.5-8.2-15.5-22.7s8.1-21.7,15.5-21.7c7.6,0,17.6,6,17.6,21.7
					C235,175.7,227.3,184.7,217.4,184.7L217.4,184.7z"/>
				<g id="e">
					<path class="st8" d="M236.1,301.5c0-11.3,0-25.5,0-39.9c-12.6-8.5-26.9-15-43.1-21c-5.5,11.6-22.6,40.4-34.9,60.9
						C187.5,301.5,215.9,301.5,236.1,301.5L236.1,301.5z"/>
					<path class="st8" d="M63.7,301.5c20,0,47.7,0,76.2,0c-11.8-19.7-28.1-47.3-34.1-59.6c0,0-0.2-0.5-0.6-1.3
						c-11.8,2.9-27.7,8.5-41.5,16.3c0,4.4,0,8.6,0,12.7C63.7,281.8,63.7,292.7,63.7,301.5L63.7,301.5z"/>
					<path class="st8" d="M119.2,221.4l0-0.2c-5.7-3.4-11.1-8.2-15.8-13.9c-7-8.4-11.1-17.4-13.5-25c-3.1,0.7-6.4-0.4-8.6-2.3
						c-0.6-0.5-1.2-1-1.7-1.6c-2.2,3.5-3.7,7.5-4.4,12.8c-0.1,0.7-0.2,1.5-0.2,2.3c-0.1,1.5-0.2,3.1-0.1,4.8
						c0.1,5.6,1.5,11.3,1.8,16.9c0.3,5.6-1.2,11-6.5,12.8c-0.2,0.1-0.3,0.8-0.2,0.9c0,0.4,0.2,0.8,0.4,1.2c0.6,1,1.7,1.8,2.7,2.4
						c5.9,3.6,15,5.8,24.7,4.3c4.1-0.6,7.8-1.8,11-3.5c5.7-2.9,9.7-7,10.4-11.2L119.2,221.4L119.2,221.4z"/>
					<path class="st8" d="M88.3,146c-2-1.9-4.6-2.6-6.9-2.5c-0.7,0-1.4,0.1-2,0.2c-1-3.7-2.6-10.7-2.6-10.7
						c-1.6-6.9-1.8-21.5-0.1-30.1c6.5-31.8,38.5-57,72-55.2c10.1-0.6,20.1,1.4,29.3,5.2c16.3,6.8,30.1,19.6,37.6,35.2
						c1.2,2.6,2.3,5.2,3.2,7.9c0.3,1,0.7,2.1,0.9,3.1c0.3,1.2,0.6,2.5,0.9,3.7c2,9.8,4.5,29.1,0.1,41.4c-1.1-0.5-2.4-0.8-4-0.9
						c-2.3-0.1-4.9,0.6-6.9,2.5l-7.7-3.6c-8.3-5.5-16.8-15.3-20.3-21.2c-2.4-4.1-7.1-12.8-9.5-18.9c-22.6,18.1-44.5,36.3-81.9,42
						L88.3,146L88.3,146z"/>
				</g>
			</g>
			<g id="f">
				<path class="st9" d="M284.7,428c20.4,0,40.8,0,61.2,0h4.7c4.6,0,4.6-7.2,0-7.2c-14.2,0-28.3,0-42.5,0h-23.4
					C280.1,420.9,280.1,428,284.7,428L284.7,428z"/>
				<path class="st9" d="M-37.4,428h72.7c4.6,0,4.6-7.2,0-7.2h-72.7C-42,420.9-42.1,428-37.4,428L-37.4,428z"/>
				<path class="st9" d="M239.7,301.5v-39.9c0-4.6-7.2-4.6-7.2,0v39.9C232.5,306.1,239.7,306.1,239.7,301.5L239.7,301.5z"/>
				<path class="st9" d="M75.2,178.9c-3.2,6.4-4.4,13.6-4,20.8c0.2,4,1,8,1.4,12c0.3,2.9,0.6,5.9-0.2,8.8c-0.3,0.9-0.7,1.9-1.3,2.6
					c-1,1.2-2.6,1.3-3.7,2.4c-3.2,3.2,0,7.6,2.9,9.6c5.4,3.7,12.4,5.3,18.8,5.7c8.2,0.5,16.7-1.5,23.7-5.8c3.9-2.4,0.3-8.6-3.6-6.2
					c-5.9,3.6-12.9,5.1-19.8,4.8c-3.2-0.1-6.3-0.7-9.3-1.7c-1.4-0.4-2.7-1-3.9-1.6c-0.6-0.3-1.2-0.7-1.8-1c-0.3-0.2-0.6-0.5-0.9-0.6
					c-0.9-0.5,1-1.1-0.5,1.2l-2.1,1.6c9.2-3.4,9.7-13.1,8.6-21.5c-1.2-9.2-2.6-18.7,1.8-27.4C83.5,178.4,77.3,174.8,75.2,178.9
					L75.2,178.9L75.2,178.9z"/>
				<path class="st9" d="M82.9,142.7c-1.7-6.2-3.3-12.3-3.6-18.7c-0.5-8.3-0.2-16.7,2-24.8c4.5-15.7,15.4-29.2,29.2-37.7
					c7-4.4,14.6-7.5,22.7-9.1c4.1-0.8,8.2-1.2,12.3-1.2c5.1,0,10.2-0.2,15.3,0.6c18.6,2.7,36,13.7,46.6,29.2
					c6,8.7,9.3,18.3,10.9,28.7c1.6,9.9,2.4,20.5,0,30.3c-1.1,4.5,5.8,6.4,6.9,1.9c2.3-9.7,1.9-20,0.6-29.8
					c-1.3-10-3.6-19.6-8.5-28.6c-9.6-17.8-26.9-31.4-46.4-36.8c-5.5-1.6-11.3-2.4-17.1-2.6c-4.8-0.1-9.8-0.2-14.6,0.3
					c-9.2,0.9-18.2,3.5-26.5,7.6c-16.2,8.1-29.3,22-36.2,38.8c-6.2,15.1-6,32.4-2.2,48.1c0.5,1.9,1,3.9,1.5,5.8
					C77.2,149.1,84.1,147.2,82.9,142.7C82.9,142.7,82.9,142.7,82.9,142.7z"/>
				<path class="st9" d="M204,139.3c-13.2-8.9-22.2-23.1-28-37.7c-0.7-1.8-2.4-3.1-4.4-2.5c-1.7,0.5-3.2,2.6-2.5,4.4
					c6.5,16.5,16.4,31.9,31.3,42C204.2,148.1,207.8,141.9,204,139.3L204,139.3L204,139.3z"/>
				<path class="st9" d="M169.7,99.9c-17.8,14.3-35.9,28.2-57.8,35.6c-7.3,2.5-14.8,4.2-22.4,5.4c-1.9,0.3-3,2.7-2.5,4.4
					c0.6,2,2.5,2.8,4.4,2.5c13.3-2.1,26.2-6.1,38.4-11.9c10.5-5.1,20.3-11.7,29.6-18.7c5.2-4,10.3-8,15.4-12.1
					c1.5-1.2,1.3-3.8,0-5.1C173.3,98.4,171.2,98.7,169.7,99.9L169.7,99.9L169.7,99.9z"/>
				<path class="st9" d="M137.6,196.5c3.8,2,7.9,2.9,12.2,2.8c4.4,0,8.8-0.9,12.4-3.7c1.5-1.2,1.3-3.9,0-5.1c-1.6-1.4-3.5-1.2-5.1,0
					c1.1-0.9,0.4-0.3,0.1-0.1c-0.2,0.2-0.5,0.3-0.7,0.4c-0.3,0.2-1.2,0.4-0.2,0.1c-0.3,0.1-0.7,0.3-1,0.4c-0.9,0.3-1.9,0.5-2.8,0.6
					c0.5-0.1,0.2,0-0.1,0c-0.3,0-0.6,0.1-0.8,0.1c-0.7,0-1.3,0.1-2,0.1c-0.6,0-1.2,0-1.8-0.1c-0.3,0-0.6,0-0.8-0.1
					c-0.1,0-1.1-0.2-0.3,0c-0.9-0.2-1.8-0.3-2.7-0.6c-0.4-0.1-0.7-0.2-1.1-0.4c-0.9-0.3,0.6,0.3-0.1-0.1c-0.5-0.2-0.9-0.4-1.4-0.7
					c-1.7-0.9-4-0.5-4.9,1.3C135.4,193.3,135.8,195.6,137.6,196.5L137.6,196.5L137.6,196.5z"/>
				<path class="st9" d="M147.7,168.2c0.5,2,1,4,1.3,6l-0.1-1c0,0.3,0.1,0.6,0,0.8l0.1-1c0,0.1,0,0.3-0.1,0.4l0.4-0.9
					c0,0.1-0.1,0.2-0.1,0.2l0.6-0.7c-0.1,0.1-0.1,0.1-0.2,0.2l0.7-0.6c-0.2,0.1-0.3,0.2-0.5,0.3l0.9-0.4c-0.3,0.1-0.5,0.2-0.8,0.2
					l1-0.1c-0.3,0-0.5,0-0.8,0l1,0.1c-0.3,0-0.6-0.1-0.8-0.1c-0.5-0.1-1-0.2-1.4-0.1c-0.5,0-0.9,0.2-1.3,0.4
					c-0.7,0.4-1.5,1.3-1.6,2.1c-0.2,0.9-0.2,1.9,0.4,2.8c0.5,0.7,1.2,1.5,2.1,1.6c0.7,0.1,1.4,0.3,2.1,0.3c1.1,0,2.1-0.3,3.1-0.7
					c1.2-0.6,2.2-1.7,2.5-3c0.3-1.1,0.2-2.1,0-3.2c-0.3-1.9-0.8-3.9-1.3-5.8c-0.2-0.9-0.9-1.7-1.6-2.1c-0.8-0.4-1.9-0.6-2.8-0.4
					C148.3,164.4,147.2,166.2,147.7,168.2L147.7,168.2L147.7,168.2z"/>
				<path class="st9" d="M116.3,151c-1,3.3-0.4,10.8,5.8,11.4c8.2,0,8.6-9.1,5.9-13.4C125.8,145.5,119.2,144.1,116.3,151L116.3,151z
					"/>
				<path class="st9" d="M181.9,151c1,3.3,0.4,10.8-5.8,11.4c-8.2,0-8.6-9.1-5.9-13.4C172.4,145.5,179.1,144.1,181.9,151L181.9,151z
					"/>
				<path class="st9" d="M171.8,227.9c11.1-2.6,19.9-11.5,26.6-20.2c5.9-7.7,10.6-16.2,13.5-25.4c1.4-4.4-5.5-6.3-6.9-1.9
					c-0.7,2.4-1.7,4.6-2.6,6.9c-0.1,0.3-0.2,0.6-0.4,1c-0.3,0.7,0,0-0.1,0.3c-0.3,0.7-0.7,1.4-1,2.1c-2.2,4.3-4.9,8.5-7.8,12.3
					c-5.8,7.7-13.5,15.8-23.2,18.1C165.5,222,167.4,228.9,171.8,227.9L171.8,227.9L171.8,227.9z"/>
				<path class="st9" d="M85,178c2.8,12.2,8.6,23.6,16.9,33.1c8.1,9.3,18.9,17.2,31.4,19.1c1.9,0.3,3.9-0.5,4.4-2.5
					c0.5-1.7-0.6-4.1-2.5-4.4c-11.4-1.7-20.8-8.8-28.2-17.3c-7.4-8.5-12.5-18.9-15-29.9C90.9,171.6,84,173.5,85,178
					C85,178,85,178,85,178z"/>
				<path class="st9" d="M91,142.9c-4.2-3.8-10.2-4.6-15.3-2.3c-3.8,1.8-6,5.4-7,9.3c-2.3,9,0,19.5,5.2,27.2c3.5,5.1,9,9.8,15.6,8.9
					c1.9-0.3,3.6-1.5,3.6-3.6c0-1.7-1.7-3.8-3.6-3.6c-5.1,0.7-8.6-3.6-10.8-7.7c-1.8-3.4-3.2-7.2-3.6-11c-0.3-3.8-0.3-8.4,1.9-11.7
					c0.2-0.3,0.2-0.3,0,0c0.1-0.1,0.2-0.3,0.3-0.4c0.1-0.1,0.8-0.7,0.6-0.5c0.7-0.5,1.4-0.7,2.2-0.9c2-0.5,4.3-0.1,5.8,1.3
					C89.4,151.1,94.5,146,91,142.9L91,142.9L91,142.9z"/>
				<path class="st9" d="M168.4,263c-4.6-6-9.2-12.1-14.3-17.7v5.1c7.1-5.8,14.4-11.3,21.7-16.8c1.6-1.2,3.2-2.5,4.8-3.7
					c0.7-0.6,1.5-1.1,2.2-1.7c0.3-0.2,0.8-0.5,1-0.8l0.2-0.2c-0.8,0.6-1.6,0.5-2.3-0.3c-0.2,0.3,0.6,2.1,0.7,2.5
					c0.3,0.9,0.6,1.8,0.8,2.7c0.8,2.7,1.6,5.3,2.4,8c1.3,4.4,8.2,2.5,6.9-1.9c-0.9-3-1.8-6-2.7-8.9c-0.7-2.3-1.1-5.3-2.8-7.1
					c-4.3-4.6-9.5,1-12.7,3.5c-8.5,6.5-17.1,12.9-25.4,19.7c-1.5,1.3-1.2,3.8,0,5.1c4.7,5.1,8.9,10.7,13.1,16.2
					c1.2,1.5,3.1,2.3,4.9,1.3C168.6,267,169.5,264.5,168.4,263L168.4,263L168.4,263z"/>
				<path class="st9" d="M136,266.6c4.2-5.5,8.4-11.1,13.1-16.2c1.2-1.3,1.6-3.8,0-5.1c-8.3-6.8-16.9-13.1-25.4-19.7
					c-3.2-2.5-8.4-8.1-12.7-3.5c-1.7,1.8-2.1,4.8-2.8,7.1c-0.9,3-1.8,6-2.7,8.9c-1.3,4.4,5.6,6.3,6.9,1.9c0.8-2.7,1.6-5.3,2.4-8
					c0.3-0.9,0.6-1.8,0.8-2.7c0.1-0.4,0.9-2.2,0.7-2.5c-0.6,0.7-1.1,0.9-1.8,0.5c-0.6-0.3-0.7-0.3-0.3,0c0.2,0.3,0.6,0.5,0.9,0.7
					c0.8,0.6,1.6,1.2,2.3,1.8c1.6,1.2,3.2,2.5,4.8,3.7c7.3,5.5,14.6,11,21.7,16.8v-5.1c-5.1,5.6-9.6,11.7-14.3,17.7
					c-1.2,1.5-0.2,4,1.3,4.9C133,268.9,134.9,268.1,136,266.6L136,266.6L136,266.6z"/>
				<path class="st9" d="M161.3,303.3c10.1-16.8,20.3-33.7,29.7-50.9c1.8-3.3,3.6-6.6,5.2-10c0.8-1.7,0.5-3.9-1.3-4.9
					c-1.6-0.9-4.1-0.5-4.9,1.3c-3.2,6.8-7,13.3-10.7,19.8c-5.1,8.9-10.2,17.7-15.4,26.4c-2.9,4.9-5.8,9.7-8.7,14.6
					C152.7,303.6,158.9,307.2,161.3,303.3L161.3,303.3L161.3,303.3z"/>
				<path class="st9" d="M100.3,238.2c2.8,7.7,7.3,15,11.3,22.1c5.2,9.3,10.6,18.4,16,27.6c3,5.1,6.1,10.3,9.1,15.4
					c2.4,4,8.6,0.4,6.2-3.6c-10.3-17.4-20.8-34.7-30.4-52.5c-1.9-3.5-4-7.1-5.3-10.8c-0.7-1.8-2.4-3-4.4-2.5
					C101,234.3,99.6,236.4,100.3,238.2L100.3,238.2L100.3,238.2z"/>
				<path class="st9" d="M67.3,301.5v-42.1c0-4.6-7.2-4.6-7.2,0v42.1C60.1,306.1,67.3,306.1,67.3,301.5L67.3,301.5z"/>
				<path class="st9" d="M263.7,440.3c9-3.2,17.7-7.6,24.5-14.3c6.3-6.2,10.2-14.1,11.8-22.7c2.9-15.9,1-32.5-2.6-48.1
					c-3.8-16.4-9.6-32.4-17.2-47.4c-7.7-15.3-17.7-29.4-30.8-40.6c-16.2-13.8-35.6-22.7-55.4-30.1c-1.8-0.7-3.9,0.8-4.4,2.5
					c-0.6,2,0.7,3.7,2.5,4.4c16.9,6.3,33.6,13.7,48,24.7c12.9,9.9,23,22.5,30.8,36.7c7.6,13.7,13.4,28.4,17.5,43.5
					c4.1,14.9,6.8,30.6,5.5,46.1c-0.7,8.2-2.7,16.4-8,22.9c-6.2,7.6-15.1,12.4-24.2,15.6c-1.8,0.6-3,2.4-2.5,4.4
					C259.8,439.6,261.9,441,263.7,440.3L263.7,440.3L263.7,440.3z"/>
				<path class="st9" d="M30.7,440.3L30.7,440.3c1.8,0.7,3.9-0.7,4.4-2.5c0.5-2-0.7-3.8-2.5-4.4c-9.1-3.2-18-8-24.2-15.6
					c-5.3-6.5-7.3-14.7-8-22.9c-1.3-15.5,1.4-31.2,5.5-46.1c4.2-15.1,10-29.8,17.5-43.5c7.8-14.2,18-26.8,30.8-36.7
					c14.3-11,31.1-18.5,48-24.7c1.8-0.7,3.1-2.4,2.5-4.4c-0.5-1.7-2.6-3.2-4.4-2.5c-19.8,7.4-39.3,16.2-55.4,30.1
					C32,278.4,22,292.5,14.3,307.8c-7.6,15-13.4,31-17.2,47.4c-3.6,15.6-5.5,32.2-2.6,48.1C-4,411.9,0,419.8,6.2,426
					C13.1,432.8,21.8,437.2,30.7,440.3L30.7,440.3z"/>
				<path class="st9" d="M30,313.6c0.4,26.7,0.8,53.5,1.2,80.2c0.2,14.1,0.4,28.2,0.7,42.2c0.1,5.4,0.2,10.7,0.3,16.1
					c0.1,3.6,0.3,6.9,2.1,10.1c2,3.5,5.3,6.1,9.1,7.2c2.6,0.8,5.4,0.6,8.1,0.6c2.1,0,4.1,0,6.2,0c5.1,0,10.2,0,15.2,0
					c12.7,0,25.4,0,38.1,0c28.5,0,57,0,85.5,0c12,0,24.1,0,36.1,0c4.6,0,9.2,0,13.8,0c2.4,0,4.8,0.1,7.2-0.3c4-0.7,7.4-3.1,9.8-6.3
					c3.6-5.1,2.8-11.7,2.9-17.6c0.1-6,0.2-12.1,0.3-18.1c0.2-14.7,0.5-29.5,0.7-44.2c0.2-14.6,0.5-29.2,0.7-43.8
					c0.1-5.9,0.2-11.9,0.3-17.8c0.1-6.4,0.9-13-3.4-18.3c-2.7-3.3-6.7-5.3-11-5.7c-2-0.2-4.1,0-6.1,0c-4.7,0-9.3,0-14,0
					c-12.1,0-24.2,0-36.3,0c-28.5,0-57.1,0-85.6,0c-12.8,0-25.7,0-38.5,0c-9.2,0-18.5-0.2-27.8,0C36.8,298.1,30,305,30,313.6
					c0,4.6,7.1,4.6,7.2,0c0-3.2,1.6-6,4.4-7.5c2.2-1.2,4.6-1,6.9-1c4.3,0,8.7,0,13,0c11.3,0,22.7,0,34,0c27.8,0,55.6,0,83.4,0
					c22.9,0,45.8,0,68.7,0c1.9,0,3.8-0.1,5.7,0c3.1,0.2,5.9,2.1,7.1,4.9c1,2.3,0.7,5,0.6,7.5c0,2.6-0.1,5.1-0.1,7.6
					c-0.2,13-0.4,26-0.6,39c-0.4,27.4-0.8,54.9-1.3,82.3c-0.1,4.9,1,11.3-3.4,14.7c-3.4,2.6-8.7,1.7-12.7,1.7c-10.5,0-21,0-31.4,0
					c-27.2,0-54.4,0-81.7,0c-24.1,0-48.2,0-72.3,0c-2.1,0-4.1,0-6.2,0c-2.2,0-4.6,0.3-6.7-0.5c-2.8-1-4.9-3.6-5.3-6.6
					c-0.3-2.2-0.1-4.5-0.2-6.7c-0.2-12.2-0.4-24.5-0.6-36.7c-0.4-28.2-0.9-56.3-1.3-84.5c-0.1-4.8-0.1-9.5-0.2-14.3
					C37,309,29.9,309,30,313.6L30,313.6z"/>
				<path class="st9" d="M210.2,182.4c-4.7,8.5-10.2,16.8-18.4,22.4c-4.3,2.9-9,5.3-13.9,6.8c-5.3,1.6-10.6,2.1-16.1,2.3
					c-4.6,0.2-4.6,7.3,0,7.2c6.1-0.2,12.1-0.9,18-2.6c5.5-1.6,10.9-4.3,15.6-7.5c9.2-6.2,15.7-15.3,21-24.9
					C218.6,181.9,212.5,178.3,210.2,182.4L210.2,182.4L210.2,182.4z"/>
				<path class="st9" d="M217.4,181.1c-2.6,0-4.9-0.9-6.8-2.9c-2.3-2.3-3.7-5.7-4.4-9.1c-1.6-7.6-0.9-17.4,5.1-22.7
					c1.9-1.7,4.2-2.5,6.5-2.5c0.3,0,0.6,0,0.9,0c0.1,0,1.1,0.2,0.3,0c0.6,0.1,1.3,0.2,1.9,0.4c1.5,0.4,2,0.6,3.5,1.6
					c2.2,1.4,4.2,3.8,5.4,6.5c1.8,4,2,8.7,1.6,13c-0.5,4.1-1.9,8.4-4.8,11.4C224,179.7,220.9,181.1,217.4,181.1
					c-4.6,0.1-4.6,7.2,0,7.2c10.3-0.1,17.8-8.1,20.2-17.7c2.4-9.6,1-21.9-7-28.7c-6-5.1-14.7-6.9-21.6-2.7
					c-9.2,5.6-11.6,17.6-10.4,27.6c0.7,5.7,2.4,11.4,6.2,15.8c3.2,3.6,7.8,5.6,12.6,5.7C222,188.3,222,181.2,217.4,181.1
					L217.4,181.1z"/>
				<path class="st9" d="M155.1,217.1c-0.3-4.4,3.1-7.4,9.1-7.6c6-0.2,9.1,2.2,9.3,5.7c0.2,3.5-2.6,7.8-8.7,8.2
					C159.3,223.6,155.3,221,155.1,217.1z"/>
				<path class="st9" d="M158.7,217.1c0-0.4,0-0.7,0-1.1c0-0.7-0.2,0.9,0,0.1c0-0.1,0.1-0.3,0.1-0.4c0-0.2,0.1-0.4,0.2-0.6
					c0.1-0.3,0.2-0.1-0.1,0.3c0.2-0.2,0.5-0.7,0.6-1c-0.3,0.7-0.4,0.5-0.2,0.3c0.1-0.1,0.3-0.3,0.4-0.4c0.1-0.1,0.3-0.2,0.3-0.3
					l-0.4,0.3c0.1-0.1,0.2-0.2,0.3-0.2c0.3-0.2,0.6-0.4,0.9-0.5c0.5-0.3-0.2,0.2-0.2,0.1c0,0,0.6-0.2,0.7-0.2
					c0.4-0.1,0.8-0.2,1.2-0.3c0.2,0,0.6-0.2,0.8-0.1c-0.1,0-0.8,0.1-0.1,0c1.1-0.1,2.2-0.1,3.2,0c0.1,0,0.4,0,0.5,0.1
					c-0.8-0.3-0.2,0,0.1,0c0.4,0.1,0.8,0.2,1.2,0.3c0.1,0,0.3,0.1,0.4,0.1c0.7,0.2-0.7-0.4-0.1,0c0.3,0.2,0.6,0.4,0.9,0.6
					c0.4,0.2-0.6-0.6-0.2-0.2c0.1,0.1,0.2,0.2,0.3,0.2c0,0,0.3,0.4,0.4,0.4c-0.4,0.1-0.5-0.7-0.3-0.3c0.1,0.1,0.2,0.3,0.3,0.4
					c0.2,0.4-0.3,0-0.1-0.4c0,0,0.2,0.9,0.3,1c-0.3-0.5-0.1-0.8-0.1-0.3c0,0.1,0,0.3,0,0.4c0,0.1,0,0.2,0,0.4c0,0.7-0.2-0.1,0-0.2
					c-0.1,0-0.2,0.8-0.2,0.9c0,0.1-0.1,0.2-0.1,0.4c-0.2,0.6,0.4-0.8,0-0.1c-0.1,0.3-0.3,0.5-0.4,0.8c-0.3,0.4-0.5,0.3,0.1-0.1
					c-0.1,0.1-0.2,0.2-0.3,0.3c-0.2,0.3-0.5,0.5-0.8,0.7c-0.6,0.5,0.7-0.4,0,0c-0.2,0.1-0.4,0.2-0.6,0.4c-0.2,0.1-0.3,0.2-0.5,0.3
					c-0.4,0.2-0.5,0,0.1,0c-0.4,0-0.9,0.3-1.2,0.4c-0.2,0-0.3,0.1-0.5,0.1l-0.3,0.1c-0.4,0.1-0.4,0.1,0.1,0
					c-0.3,0.2-1.2,0.1-1.6,0.1c-0.4,0-1.1,0.1-1.5-0.1l0.4,0.1c-0.2,0-0.3-0.1-0.5-0.1c-0.2,0-0.5-0.1-0.7-0.2
					c-0.2-0.1-0.4-0.1-0.6-0.2c-0.1,0-0.2-0.1-0.3-0.1c-0.4-0.1-0.3-0.1,0.2,0.1c0,0-1-0.5-1.1-0.6c-0.5-0.3-0.1-0.3,0.1,0.1
					c-0.1-0.1-0.3-0.3-0.5-0.4c-0.1-0.1-0.3-0.4-0.4-0.5c0.3,0.1,0.4,0.6,0.1,0.1c-0.1-0.1-0.1-0.3-0.2-0.4
					c-0.1-0.2-0.1-0.1,0.2,0.4c0-0.1-0.1-0.3-0.1-0.4C158.7,217.4,158.7,217.3,158.7,217.1C158.4,216.2,158.7,217.7,158.7,217.1
					c-0.2-1.9-1.5-3.7-3.6-3.6c-1.8,0.1-3.7,1.6-3.6,3.6c0.2,2.5,1.1,4.8,2.9,6.5c1.8,1.7,4.1,2.7,6.5,3.1
					c5.4,0.8,10.9-0.6,14.2-5.2c2.6-3.6,2.5-8.6-0.4-12c-3.3-3.8-9.4-4.1-14-3.2c-5.3,1-9.5,5.2-9.2,10.8c0.1,1.9,1.6,3.7,3.6,3.6
					C156.9,220.6,158.8,219.1,158.7,217.1L158.7,217.1z"/>
			</g>
		</g>
	</g>
	<g>
		<path class="st7" d="M150.3,15c74.7,0,135.3,60.6,135.3,135.3S225,285.5,150.3,285.5S15,225,15,150.3S75.6,15,150.3,15 M150.3,6
			c-38.5,0-74.8,15-102,42.3C21,75.5,6,111.7,6,150.3s15,74.8,42.3,102c27.2,27.2,63.5,42.3,102,42.3s74.8-15,102-42.3
			c27.2-27.2,42.3-63.5,42.3-102s-15-74.8-42.3-102C225,21,188.8,6,150.3,6L150.3,6z"/>
	</g>
</g>
</svg>
