<?xml version="1.0" encoding="UTF-8"?><svg id="_圖層_2" xmlns="http://www.w3.org/2000/svg" viewBox="0 0 20 20"><defs><style>.cls-1{fill:#f6ba62;}</style></defs><g id="ICON"><path class="cls-1" d="M10,0C4.47,0,0,4.47,0,10s4.47,10,10,10,10-4.48,10-10S15.52,0,10,0ZM14.08,6.95c-.17.16-.6.24-1.29.24h-3.51v2.35h2.89c.66,0,1.07.07,1.22.22.19.17.28.39.28.64,0,.23-.09.44-.28.64-.15.13-.55.21-1.22.21h-2.89v2.4c0,.55-.01.9-.04,1.07-.04.28-.13.5-.29.65-.24.26-.54.39-.9.39s-.65-.12-.91-.37c-.15-.15-.25-.37-.29-.65-.03-.17-.04-.53-.04-1.08v-6.11c0-.62.01-1.01.04-1.17.03-.21.14-.4.31-.6.17-.17.38-.28.62-.31.18-.04.57-.06,1.17-.06h3.85c.43,0,.69,0,.81.01.21.04.37.11.49.23.17.17.26.39.26.67s-.09.48-.26.65Z"/></g></svg>