<svg width="68" height="68" viewBox="0 0 68 68" fill="none" xmlns="http://www.w3.org/2000/svg">
<g clip-path="url(#clip0_994_6254)">
<path d="M34 68C52.7777 68 68 52.7777 68 34C68 15.2223 52.7777 0 34 0C15.2223 0 0 15.2223 0 34C0 52.7777 15.2223 68 34 68Z" fill="#FF9D46"/>
<path d="M50.7756 40.1347L35.5181 24.863C35.3997 24.7652 35.2715 24.6798 35.1356 24.608C35.0337 24.5274 34.9247 24.4563 34.8098 24.3955C34.6831 24.3754 34.554 24.3754 34.4273 24.3955C34.2935 24.3537 34.1559 24.3253 34.0165 24.3105C33.8748 24.3105 33.7331 24.3105 33.5915 24.3814C33.4613 24.3961 33.3331 24.4246 33.209 24.4664C33.0941 24.5271 32.985 24.5982 32.8831 24.6789C32.7496 24.7473 32.6258 24.833 32.5148 24.9339L17.229 40.1347C16.8344 40.535 16.6133 41.0744 16.6133 41.6364C16.6133 42.1984 16.8344 42.7378 17.229 43.138C17.4247 43.3373 17.6585 43.4952 17.9164 43.6023C18.1744 43.7094 18.4513 43.7635 18.7306 43.7614C19.0102 43.7651 19.2875 43.7118 19.5458 43.6046C19.804 43.4974 20.0376 43.3387 20.2323 43.138L34.0023 29.368L47.7581 43.138C47.9528 43.3387 48.1864 43.4974 48.4447 43.6046C48.7029 43.7118 48.9802 43.7651 49.2598 43.7614C49.5391 43.7635 49.816 43.7094 50.074 43.6023C50.3319 43.4952 50.5658 43.3373 50.7615 43.138C51.1579 42.7397 51.3816 42.2013 51.3842 41.6393C51.3869 41.0773 51.1683 40.5368 50.7756 40.1347Z" fill="white"/>
</g>
<defs>
<clipPath id="clip0_994_6254">
<rect width="68" height="68" fill="white"/>
</clipPath>
</defs>
</svg>
