<svg width="35" height="35" viewBox="0 0 35 35" fill="none" xmlns="http://www.w3.org/2000/svg">
<g clip-path="url(#clip0_889_9053)">
<path d="M17.9805 34.0859C27.3693 34.0859 34.9805 26.4748 34.9805 17.0859C34.9805 7.6971 27.3693 0.0859375 17.9805 0.0859375C8.59163 0.0859375 0.980469 7.6971 0.980469 17.0859C0.980469 26.4748 8.59163 34.0859 17.9805 34.0859Z" fill="white"/>
<path d="M32.9279 17.4315C32.9312 16.3764 32.8399 15.323 32.6552 14.2842H18.2822V20.2327H26.4968C26.3193 21.1631 25.9566 22.0484 25.4304 22.8359C24.9042 23.6235 24.2251 24.2973 23.4334 24.8173V28.6256H28.3852C29.8817 27.1801 31.0589 25.4373 31.8413 23.5093C32.6236 21.5814 32.9938 19.5111 32.9279 17.4315Z" fill="#4285F4"/>
<path d="M18.2806 32.3406C21.9987 32.4363 25.6128 31.1077 28.3837 28.6267L23.4318 24.8079C22.2583 25.5619 20.9281 26.038 19.5426 26.1997C18.1571 26.3614 16.753 26.2045 15.4374 25.741C14.1218 25.2775 12.9294 24.5197 11.9512 23.5252C10.9731 22.5308 10.235 21.326 9.79328 20.0029H4.66309V23.9371C5.93008 26.4631 7.87473 28.5868 10.2796 30.0709C12.6845 31.5549 15.4547 32.3408 18.2806 32.3406Z" fill="#34A853"/>
<path d="M9.74315 19.9809C9.0858 18.1065 9.0858 16.0642 9.74315 14.1898V10.2451H4.66542C3.5968 12.3595 3.04004 14.6953 3.04004 17.0644C3.04004 19.4334 3.5968 21.7693 4.66542 23.8837L8.6206 20.7993L9.74315 19.9809Z" fill="#FBBC05"/>
<path d="M18.2826 7.90532C20.4526 7.87397 22.5492 8.69078 24.1262 10.1819L28.4695 5.80708C25.707 3.21486 22.0497 1.79028 18.2616 1.83092C15.433 1.82462 12.6585 2.60657 10.2495 4.08905C7.84046 5.57153 5.89212 7.69591 4.62305 10.2239L9.70078 14.1686C10.2958 12.3578 11.444 10.7794 12.9836 9.65573C14.5232 8.53208 16.3766 7.91986 18.2826 7.90532Z" fill="#EA4335"/>
</g>
<defs>
<clipPath id="clip0_889_9053">
<rect width="34" height="34" fill="white" transform="translate(0.980469 0.0859375)"/>
</clipPath>
</defs>
</svg>
