<svg width="481" height="49" viewBox="0 0 481 49" fill="none" xmlns="http://www.w3.org/2000/svg">
<path d="M21.7026 9.35342C22.6007 6.58949 26.5109 6.58949 27.4089 9.35342L29.2305 14.9595C29.6321 16.1956 30.784 17.0324 32.0836 17.0324H37.9782C40.8844 17.0324 42.0927 20.7513 39.7416 22.4595L34.9728 25.9242C33.9213 26.6882 33.4813 28.0423 33.8829 29.2783L35.7045 34.8844C36.6025 37.6483 33.4391 39.9467 31.0879 38.2385L26.3191 34.7738C25.2677 34.0098 23.8439 34.0098 22.7924 34.7738L18.0236 38.2385C15.6725 39.9467 12.509 37.6483 13.4071 34.8844L15.2286 29.2783C15.6302 28.0423 15.1902 26.6882 14.1388 25.9242L9.36997 22.4595C7.01883 20.7513 8.22716 17.0324 11.1333 17.0324H17.0279C18.3276 17.0324 19.4795 16.1956 19.8811 14.9595L21.7026 9.35342Z" fill="#DCDDDD"/>
<path d="M64.3452 9.35342C65.2432 6.58949 69.1535 6.58949 70.0515 9.35342L71.873 14.9595C72.2747 16.1956 73.4265 17.0324 74.7262 17.0324H80.6208C83.527 17.0324 84.7353 20.7513 82.3841 22.4595L77.6153 25.9242C76.5639 26.6882 76.1239 28.0423 76.5255 29.2783L78.347 34.8844C79.2451 37.6483 76.0817 39.9467 73.7305 38.2385L68.9617 34.7738C67.9102 34.0098 66.4865 34.0098 65.435 34.7738L60.6662 38.2385C58.315 39.9467 55.1516 37.6483 56.0497 34.8844L57.8712 29.2783C58.2728 28.0423 57.8328 26.6882 56.7814 25.9242L52.0126 22.4595C49.6614 20.7513 50.8697 17.0324 53.7759 17.0324H59.6705C60.9702 17.0324 62.122 16.1956 62.5237 14.9595L64.3452 9.35342Z" fill="#DCDDDD"/>
<path d="M106.988 9.35342C107.886 6.58949 111.796 6.58949 112.694 9.35342L114.516 14.9595C114.917 16.1956 116.069 17.0324 117.369 17.0324H123.263C126.17 17.0324 127.378 20.7513 125.027 22.4595L120.258 25.9242C119.206 26.6882 118.766 28.0423 119.168 29.2783L120.99 34.8844C121.888 37.6483 118.724 39.9467 116.373 38.2385L111.604 34.7738C110.553 34.0098 109.129 34.0098 108.078 34.7738L103.309 38.2385C100.958 39.9467 97.7942 37.6483 98.6922 34.8844L100.514 29.2783C100.915 28.0423 100.475 26.6882 99.4239 25.9242L94.6551 22.4595C92.304 20.7513 93.5123 17.0324 96.4185 17.0324H102.313C103.613 17.0324 104.765 16.1956 105.166 14.9595L106.988 9.35342Z" fill="#DCDDDD"/>
<path d="M149.631 9.35342C150.529 6.58949 154.44 6.58949 155.338 9.35342L157.159 14.9595C157.561 16.1956 158.713 17.0324 160.012 17.0324H165.907C168.813 17.0324 170.021 20.7513 167.67 22.4595L162.901 25.9242C161.85 26.6882 161.41 28.0423 161.812 29.2783L163.633 34.8844C164.531 37.6483 161.368 39.9467 159.017 38.2385L154.248 34.7738C153.196 34.0098 151.773 34.0098 150.721 34.7738L145.952 38.2385C143.601 39.9467 140.438 37.6483 141.336 34.8844L143.157 29.2783C143.559 28.0423 143.119 26.6882 142.067 25.9242L137.299 22.4595C134.948 20.7513 136.156 17.0324 139.062 17.0324H144.957C146.256 17.0324 147.408 16.1956 147.81 14.9595L149.631 9.35342Z" fill="#DCDDDD"/>
<path d="M192.274 9.35342C193.172 6.58949 197.082 6.58949 197.98 9.35342L199.802 14.9595C200.203 16.1956 201.355 17.0324 202.655 17.0324H208.549C211.456 17.0324 212.664 20.7513 210.313 22.4595L205.544 25.9242C204.493 26.6882 204.053 28.0423 204.454 29.2783L206.276 34.8844C207.174 37.6483 204.01 39.9467 201.659 38.2385L196.89 34.7738C195.839 34.0098 194.415 34.0098 193.364 34.7738L188.595 38.2385C186.244 39.9467 183.08 37.6483 183.978 34.8844L185.8 29.2783C186.202 28.0423 185.762 26.6882 184.71 25.9242L179.941 22.4595C177.59 20.7513 178.798 17.0324 181.705 17.0324H187.599C188.899 17.0324 190.051 16.1956 190.452 14.9595L192.274 9.35342Z" fill="#DCDDDD"/>
</svg>
