<svg width="181" height="181" viewBox="0 0 181 181" fill="none" xmlns="http://www.w3.org/2000/svg">
<path d="M80.7948 44.8672C83.19 34.2636 98.2986 34.2636 100.694 44.8672V44.8672C102.246 51.7395 110.132 55.0061 116.09 51.2443V51.2443C125.281 45.4401 135.965 56.1235 130.16 65.3151V65.3151C126.399 71.2722 129.665 79.1585 136.537 80.7108V80.7108C147.141 83.106 147.141 98.2147 136.537 100.61V100.61C129.665 102.162 126.399 110.048 130.16 116.006V116.006C135.965 125.197 125.281 135.881 116.09 130.076V130.076C110.132 126.315 102.246 129.581 100.694 136.453V136.453C98.2986 147.057 83.19 147.057 80.7948 136.453V136.453C79.2425 129.581 71.3562 126.315 65.3991 130.076V130.076C56.2075 135.881 45.5241 125.197 51.3283 116.006V116.006C55.0901 110.048 51.8235 102.162 44.9512 100.61V100.61C34.3475 98.2147 34.3475 83.106 44.9512 80.7108V80.7108C51.8235 79.1585 55.0901 71.2722 51.3283 65.3151V65.3151C45.5241 56.1235 56.2075 45.4401 65.3991 51.2443V51.2443C71.3562 55.0061 79.2425 51.7395 80.7948 44.8672V44.8672Z" fill="#C1E8E4"/>
</svg>
