<svg width="582" height="582" viewBox="0 0 582 582" fill="none" xmlns="http://www.w3.org/2000/svg">
<path d="M225.743 176.354C248.159 115.775 333.841 115.775 356.257 176.354L358.493 182.397C365.541 201.443 380.557 216.459 399.603 223.507L405.646 225.743C466.225 248.159 466.225 333.841 405.646 356.257L399.603 358.493C380.557 365.541 365.541 380.557 358.493 399.603L356.257 405.646C333.841 466.225 248.159 466.225 225.743 405.646L223.507 399.603C216.459 380.557 201.443 365.541 182.397 358.493L176.354 356.257C115.775 333.841 115.775 248.159 176.354 225.743L182.397 223.507C201.443 216.459 216.459 201.443 223.507 182.397L225.743 176.354Z" fill="#FFCDA4" fill-opacity="0.5"/>
</svg>
