<svg width="608" height="608" viewBox="0 0 608 608" fill="none" xmlns="http://www.w3.org/2000/svg">
<path d="M270.055 148.892C278.151 113.049 329.223 113.049 337.32 148.892V148.892C342.567 172.123 369.225 183.165 389.362 170.449V170.449C420.432 150.829 456.546 186.942 436.926 218.012V218.012C424.21 238.149 435.252 264.807 458.482 270.055V270.055C494.326 278.151 494.326 329.223 458.482 337.32V337.32C435.252 342.567 424.21 369.225 436.926 389.362V389.362C456.546 420.432 420.432 456.546 389.362 436.926V436.926C369.225 424.21 342.567 435.252 337.32 458.482V458.482C329.223 494.326 278.151 494.326 270.055 458.482V458.482C264.807 435.252 238.149 424.21 218.012 436.926V436.926C186.942 456.546 150.829 420.432 170.449 389.362V389.362C183.165 369.225 172.123 342.567 148.892 337.32V337.32C113.049 329.223 113.049 278.151 148.892 270.055V270.055C172.123 264.807 183.165 238.149 170.449 218.012V218.012C150.829 186.942 186.942 150.829 218.012 170.449V170.449C238.149 183.165 264.807 172.123 270.055 148.892V148.892Z" fill="#C1E8E4" fill-opacity="0.5"/>
</svg>
