<svg width="35" height="35" viewBox="0 0 35 35" fill="none" xmlns="http://www.w3.org/2000/svg">
<g clip-path="url(#clip0_889_9043)">
<path d="M17.9805 34.0859C27.3693 34.0859 34.9805 26.4748 34.9805 17.0859C34.9805 7.6971 27.3693 0.0859375 17.9805 0.0859375C8.59163 0.0859375 0.980469 7.6971 0.980469 17.0859C0.980469 26.4748 8.59163 34.0859 17.9805 34.0859Z" fill="#4CC764"/>
<path d="M29.3141 16.0941C29.3141 11.0153 24.2212 6.88574 17.9808 6.88574C11.7404 6.88574 6.64746 11.0153 6.64746 16.0941C6.64746 20.6487 10.685 24.4595 16.1391 25.182C16.5075 25.2599 17.0104 25.4228 17.1379 25.7416C17.2274 26.0768 17.2395 26.428 17.1733 26.7687L16.9891 27.7107C16.9395 28.0012 16.7554 28.8299 17.9666 28.3199C19.1779 27.8099 24.5045 24.4737 26.8845 21.7324C28.3944 20.2388 29.2654 18.2173 29.3141 16.0941Z" fill="white"/>
<path d="M25.5448 19.0269C25.6011 19.0269 25.6552 19.0045 25.695 18.9646C25.7349 18.9248 25.7573 18.8707 25.7573 18.8144V18.0069C25.7573 17.9499 25.7351 17.8951 25.6955 17.8541C25.6558 17.8131 25.6018 17.7891 25.5448 17.7873H23.3773V16.9515H25.5448C25.6011 16.9515 25.6552 16.9291 25.695 16.8892C25.7349 16.8494 25.7573 16.7953 25.7573 16.739V15.9315C25.7573 15.8751 25.7349 15.8211 25.695 15.7812C25.6552 15.7414 25.6011 15.719 25.5448 15.719H23.3773V14.8831H25.5448C25.6018 14.8813 25.6558 14.8574 25.6955 14.8164C25.7351 14.7754 25.7573 14.7206 25.7573 14.6636V13.8561C25.7555 13.8003 25.7325 13.7472 25.6931 13.7078C25.6536 13.6683 25.6006 13.6453 25.5448 13.6436H22.3502C22.2938 13.6436 22.2398 13.6659 22.1999 13.7058C22.1601 13.7456 22.1377 13.7997 22.1377 13.8561V18.8144C22.1377 18.8707 22.1601 18.9248 22.1999 18.9646C22.2398 19.0045 22.2938 19.0269 22.3502 19.0269H25.5448Z" fill="#4CC764"/>
<path d="M13.7307 19.027C13.7592 19.028 13.7876 19.0232 13.8142 19.0129C13.8408 19.0027 13.8651 18.9872 13.8855 18.9673C13.906 18.9475 13.9223 18.9238 13.9334 18.8975C13.9446 18.8713 13.9503 18.843 13.9503 18.8145V18.007C13.9484 17.95 13.9245 17.896 13.8835 17.8563C13.8425 17.8166 13.7877 17.7945 13.7307 17.7945H11.6057V13.8562C11.6038 13.7992 11.5799 13.7451 11.5389 13.7055C11.4979 13.6658 11.4431 13.6437 11.3861 13.6437H10.5574C10.5292 13.6427 10.5011 13.6475 10.4749 13.6578C10.4486 13.6682 10.4248 13.6838 10.4049 13.7037C10.385 13.7237 10.3693 13.7475 10.359 13.7737C10.3487 13.7999 10.3439 13.828 10.3449 13.8562V18.8145C10.3439 18.8427 10.3487 18.8708 10.359 18.897C10.3693 18.9232 10.385 18.947 10.4049 18.967C10.4248 18.9869 10.4486 19.0025 10.4749 19.0129C10.5011 19.0232 10.5292 19.028 10.5574 19.027H13.7307Z" fill="#4CC764"/>
<path d="M15.6636 13.6436H14.8631C14.7419 13.6436 14.6436 13.7419 14.6436 13.8631V18.8073C14.6436 18.9286 14.7419 19.0269 14.8631 19.0269H15.6636C15.7848 19.0269 15.8831 18.9286 15.8831 18.8073V13.8631C15.8831 13.7419 15.7848 13.6436 15.6636 13.6436Z" fill="#4CC764"/>
<path d="M21.1471 13.6438H20.3396C20.3114 13.6428 20.2833 13.6476 20.2571 13.658C20.2309 13.6683 20.2071 13.6839 20.1871 13.7038C20.1672 13.7238 20.1516 13.7476 20.1412 13.7738C20.1309 13.8 20.1261 13.8281 20.1271 13.8563V16.803L17.8604 13.743H16.8758C16.8473 13.742 16.8189 13.7468 16.7923 13.7571C16.7657 13.7673 16.7415 13.7828 16.721 13.8026C16.7005 13.8225 16.6842 13.8462 16.6731 13.8725C16.662 13.8987 16.6562 13.9269 16.6563 13.9555V18.9138C16.6581 18.9708 16.682 19.0248 16.723 19.0645C16.764 19.1042 16.8188 19.1263 16.8758 19.1263H17.6833C17.7391 19.1245 17.7922 19.1016 17.8316 19.0621C17.8711 19.0226 17.8941 18.9696 17.8958 18.9138V15.868L20.1625 18.935C20.1796 18.9557 20.1985 18.9746 20.2192 18.9917H21.1471C21.2041 18.9917 21.2589 18.9696 21.2999 18.9299C21.3409 18.8903 21.3648 18.8362 21.3667 18.7792V13.8209C21.3581 13.7696 21.331 13.7233 21.2905 13.6906C21.25 13.658 21.199 13.6413 21.1471 13.6438Z" fill="#4CC764"/>
</g>
<defs>
<clipPath id="clip0_889_9043">
<rect width="34" height="34" fill="white" transform="translate(0.980469 0.0859375)"/>
</clipPath>
</defs>
</svg>
