<svg width="152" height="39" viewBox="0 0 152 39" fill="none" xmlns="http://www.w3.org/2000/svg">
<path d="M99.5782 13.6086C98.1109 15.8907 95.6175 20.2396 98.9225 22.2175C100.03 22.8802 101.493 22.774 102.693 22.4452C103.95 22.1011 105.162 21.5078 106.252 20.8237C107.627 19.9619 108.926 18.9377 110 17.7451C110.729 16.9364 110.893 15.6406 110 14.8574C109.201 14.1549 107.758 13.9925 106.981 14.8574C106.593 15.2883 106.178 15.6957 105.739 16.0786C105.529 16.2614 105.316 16.4381 105.097 16.6096C104.988 16.6944 104.87 16.773 104.766 16.8628C105.289 16.4156 104.851 16.7965 104.693 16.9047C104.227 17.2263 103.742 17.5265 103.241 17.7971C103.019 17.9166 102.793 18.031 102.565 18.1392C102.455 18.1913 102.344 18.2393 102.233 18.2893C101.773 18.4946 102.723 18.1147 102.256 18.2801C101.837 18.4292 101.419 18.5497 100.98 18.6375C100.565 18.7202 101.437 18.6161 101.212 18.6079C101.129 18.6048 101.042 18.6202 100.959 18.6212C100.882 18.6222 100.797 18.6069 100.721 18.614C100.513 18.6334 101.111 18.6426 101.12 18.6681C101.119 18.6641 100.972 18.6396 100.962 18.6375C100.939 18.6324 100.773 18.6018 100.767 18.5783C100.771 18.5916 101.391 18.8673 101.06 18.6784C100.833 18.5487 101.548 19.1011 101.308 18.856C101.058 18.6018 101.646 19.3176 101.48 19.0705C101.458 19.0378 101.436 19.001 101.421 18.9653C101.415 18.951 101.593 19.5136 101.578 19.3135C101.577 19.2992 101.515 19.1062 101.524 19.1052C101.584 19.096 101.549 19.7924 101.57 19.3513C101.574 19.2512 101.579 19.1481 101.58 19.048C101.584 18.7049 101.458 19.6239 101.568 19.1726C101.602 19.0296 101.635 18.8867 101.677 18.7457C101.723 18.5865 101.778 18.4292 101.837 18.273C101.87 18.1862 102.082 17.6715 101.943 17.9963C101.814 18.3005 101.926 18.0381 101.963 17.9636C102.01 17.8676 102.056 17.7696 102.105 17.6736C102.209 17.4653 102.319 17.26 102.433 17.0558C102.695 16.5841 102.978 16.1236 103.271 15.6681C103.857 14.7573 103.509 13.3809 102.504 12.8744C101.458 12.3496 100.203 12.6355 99.5782 13.6086Z" fill="#19B9AA"/>
<path d="M110.311 20.0344C111.803 20.2254 113.406 20.254 114.732 19.4555C116.207 18.5671 117.028 17.0579 116.718 15.3945C116.433 13.8741 114.997 12.6478 113.445 12.3618C111.958 12.0882 110.505 12.4864 109.225 13.2155C106.806 14.595 104.863 17.255 106.391 19.9303C107.578 22.0072 110.374 23.5429 112.845 23.4694C115.633 23.3857 118.327 21.7887 120.532 20.2734C121.668 19.4922 122.722 18.6345 123.758 17.7369C123.859 17.6491 123.964 17.5674 124.067 17.4806C124.306 17.2785 123.65 17.7186 124.101 17.4694C124.193 17.4183 124.29 17.3653 124.38 17.3111C124.799 17.0569 123.982 17.4 124.441 17.306C124.217 17.352 124.083 17.3377 123.87 17.2928C124.252 17.3734 123.621 17.1702 123.55 17.1079C123.586 17.1396 123.242 16.6719 123.283 16.6791C123.315 16.7689 123.338 16.8608 123.356 16.9537C123.322 16.674 123.309 16.6127 123.317 16.772C123.306 16.8659 123.361 17.0548 123.306 17.1355C123.317 17.061 123.328 16.9874 123.338 16.9129C123.323 17.0028 123.307 17.0926 123.29 17.1815C123.22 17.5695 123.147 17.9595 123.109 18.3516C123.028 19.1797 123.197 20.062 123.651 20.7798C124.479 22.0889 125.981 22.7965 127.538 22.9139C129.083 23.0313 130.577 22.4054 131.928 21.7693C132.992 21.2679 134.009 20.6798 134.975 20.0222C139.436 16.9803 142.694 12.7713 146.498 9.06471C147.282 8.30195 147.353 6.92754 146.498 6.17703C145.652 5.43469 144.314 5.36219 143.478 6.17703C140.577 9.00344 138.025 12.1576 134.952 14.8237C134.618 15.1137 134.278 15.3976 133.931 15.6733C133.736 15.8285 133.536 15.9786 133.339 16.1318C133.073 16.337 133.746 15.8489 133.3 16.1583C133.186 16.238 133.073 16.3196 132.958 16.3993C132.118 16.9803 131.239 17.5092 130.323 17.9728C130.084 18.0933 129.843 18.2097 129.6 18.322C129.485 18.3751 129.367 18.4272 129.252 18.4803C128.878 18.6498 129.148 18.5262 129.231 18.4956C128.963 18.5967 128.692 18.6896 128.414 18.7601C128.291 18.7917 128.165 18.8101 128.043 18.8418C127.886 18.8693 127.919 18.8653 128.141 18.8316C128.046 18.8397 127.951 18.8438 127.856 18.8428C127.758 18.8428 127.446 18.9081 127.749 18.8561C128.03 18.807 127.722 18.8469 127.59 18.8122C127.534 18.7968 127.342 18.7141 127.304 18.7223C127.344 18.7141 127.765 18.9194 127.41 18.7437C127.076 18.5783 127.458 18.756 127.479 18.8224C127.485 18.8387 127.263 18.6406 127.268 18.6324C127.217 18.7315 127.554 18.9684 127.305 18.658C127.23 18.5232 127.253 18.5804 127.375 18.8305C127.362 18.7856 127.348 18.7407 127.335 18.6957C127.343 18.7591 127.351 18.8224 127.359 18.8857C127.352 18.7968 127.353 18.708 127.359 18.6192C127.361 18.5548 127.414 18.1842 127.37 18.4435C127.317 18.756 127.428 18.1689 127.426 18.177C127.447 18.0576 127.467 17.9391 127.485 17.8186C127.593 17.1039 127.639 16.4401 127.443 15.7274C127.038 14.254 125.626 13.1787 124.016 13.2686C122.6 13.3472 121.482 14.1886 120.485 15.0739C120.095 15.4201 119.695 15.756 119.284 16.0797C119.163 16.1746 119.04 16.2676 118.918 16.3615C118.86 16.4075 118.595 16.5913 118.906 16.3727C118.654 16.5504 118.404 16.7301 118.147 16.9027C117.226 17.5225 116.262 18.0851 115.262 18.5855C115.038 18.6978 114.811 18.807 114.583 18.9102C114.468 18.9623 114.351 19.0154 114.233 19.0623C114.59 18.9194 114.277 19.0409 114.208 19.0623C113.935 19.1461 113.669 19.239 113.389 19.3053C113.236 19.3411 113.083 19.3727 112.928 19.3972C113.234 19.3493 113.047 19.3799 112.845 19.386C112.69 19.3911 112.536 19.384 112.381 19.3778C112.474 19.3819 112.794 19.4687 112.393 19.3717C112.225 19.3309 112.058 19.289 111.895 19.2349C111.908 19.239 111.639 19.1563 111.637 19.142C111.643 19.1961 112.074 19.3339 111.688 19.1501C111.465 19.0439 111.248 18.9255 111.038 18.7968C110.952 18.7448 110.872 18.6855 110.787 18.6345C110.523 18.4793 111.161 18.9623 110.799 18.6457C110.653 18.5181 110.504 18.3955 110.366 18.2587C110.373 18.2669 110.168 18.0719 110.173 18.0535C110.158 18.1076 110.419 18.4292 110.215 18.0913C110.173 18.0198 110.133 17.933 110.079 17.8697C110.004 17.7298 110.03 17.7982 110.158 18.0739C110.134 18.0177 110.114 17.9595 110.098 17.9013C110.105 17.8411 110.012 17.5174 110.074 17.8819C110.161 18.3884 110.105 17.4418 110.079 17.9279C110.061 18.2454 110.069 17.9769 110.111 17.886C110.16 17.74 110.129 17.8002 110.017 18.0657C110.046 18.0034 110.078 17.9432 110.113 17.884C110.161 17.8043 110.209 17.7237 110.262 17.6471C110.302 17.5879 110.345 17.5296 110.389 17.4725C110.224 17.6757 110.192 17.7196 110.295 17.6052C110.488 17.4357 110.654 17.2458 110.854 17.0824C110.911 17.0354 111.187 16.8516 110.948 17.0058C110.687 17.1733 111.133 16.8935 111.184 16.8618C111.397 16.7301 111.619 16.6096 111.847 16.5014C111.944 16.4554 112.143 16.2859 111.919 16.4616C111.751 16.5269 111.751 16.529 111.919 16.4657C112 16.436 112.082 16.4115 112.165 16.3901C112.235 16.3717 112.598 16.288 112.305 16.3431C112.007 16.3993 112.551 16.3533 112.623 16.3493C112.929 16.336 112.271 16.2665 112.563 16.3523C112.711 16.3952 112.676 16.3727 112.455 16.2849C112.523 16.3145 112.588 16.3493 112.651 16.3891C112.905 16.4922 112.384 16.1409 112.573 16.3339C112.683 16.4412 112.653 16.3942 112.485 16.191C112.528 16.2482 112.568 16.3084 112.603 16.3717C112.776 16.5851 112.478 16.0174 112.556 16.2747C112.597 16.4289 112.59 16.3636 112.538 16.0787C112.53 16.2645 112.536 16.2676 112.554 16.0879C112.559 16.0439 112.565 15.999 112.571 15.9551C112.513 16.1267 112.517 16.1328 112.581 15.9714C112.654 15.8142 112.647 15.8152 112.557 15.9745C112.735 15.7713 112.772 15.7264 112.666 15.8387C112.604 15.8908 112.416 16.1307 112.607 15.9204C112.8 15.709 112.465 15.9847 112.383 16.0368C112.152 16.1818 112.747 15.9623 112.477 15.9949C112.424 16.0011 111.855 16.1062 112.131 16.0817C112.408 16.0572 112.006 16.0776 111.942 16.0787C111.751 16.0827 111.56 16.0756 111.369 16.0633C111.016 16.0409 110.667 15.996 110.318 15.951C109.206 15.8091 108.135 16.9915 108.182 17.9932C108.233 19.2206 109.12 19.8823 110.311 20.0344Z" fill="#19B9AA"/>
<path d="M131.668 14.2116C137.358 14.1952 143.047 14.1789 148.737 14.1625C149.854 14.1595 150.924 13.2252 150.872 12.1203C150.821 11.0165 149.934 10.0751 148.737 10.0781C143.047 10.0945 137.358 10.1108 131.668 10.1271C130.551 10.1302 129.481 11.0645 129.532 12.1694C129.584 13.2732 130.471 14.2146 131.668 14.2116Z" fill="#19B9AA"/>
<path d="M1.93171 4.11624C11.9696 6.52604 22.41 7.49711 32.7437 6.92734C35.7529 6.7609 38.7482 6.45252 41.7318 6.0451C41.3538 4.73197 40.9747 3.41985 40.5967 2.10671C34.59 4.4338 29.0638 7.62475 24.1047 11.6162C19.2961 15.4862 15.1208 20.1016 11.772 25.1867C9.84133 28.1183 8.231 31.2183 6.88016 34.4318C6.46263 35.4253 7.33507 36.718 8.37196 36.9437C9.60747 37.2132 10.5515 36.5812 10.9989 35.5172C11.0694 35.3497 11.1409 35.1812 11.2125 35.0138C11.2402 34.9495 11.2637 34.8565 11.3054 34.7983C11.2723 34.8443 11.1206 35.2098 11.2797 34.8576C11.4292 34.5247 11.5809 34.1938 11.7368 33.864C12.0486 33.2044 12.3743 32.5509 12.7128 31.9045C13.3791 30.6343 14.0967 29.3885 14.8645 28.1714C15.6462 26.9318 16.4781 25.7217 17.3569 24.5444C17.5609 24.2708 17.768 23.9991 17.9773 23.7296C18.0905 23.5846 18.2037 23.4396 18.318 23.2956C18.3671 23.2333 18.4162 23.1721 18.4654 23.1108C18.7088 22.8024 18.3159 23.2905 18.4782 23.0945C18.9299 22.5461 19.3858 22.0009 19.8546 21.4658C21.8013 19.248 23.9253 17.1721 26.202 15.2626C26.7509 14.8021 27.3083 14.3518 27.8743 13.9107C28.1679 13.6819 28.4637 13.4563 28.7616 13.2337C28.8246 13.1867 28.8866 13.1336 28.9539 13.0907C28.941 13.0989 28.6506 13.3123 28.8428 13.1734C29.0158 13.0488 29.1866 12.9233 29.3596 12.7987C30.5717 11.9318 31.8178 11.1098 33.0971 10.3348C34.5121 9.47703 35.9665 8.67853 37.454 7.94231C38.1983 7.57472 38.9511 7.22141 39.7115 6.88547C40.1044 6.71188 40.4985 6.54238 40.8957 6.37798C40.9705 6.34735 41.0441 6.31672 41.1189 6.28608C41.168 6.26566 41.5033 6.13292 41.2374 6.23707C40.9651 6.34429 41.2908 6.21665 41.357 6.19112C41.482 6.14211 41.6069 6.0931 41.7329 6.0451C42.7645 5.64585 43.6081 4.66662 43.2247 3.53319C42.8317 2.37118 41.7874 1.94436 40.5978 2.10671C40.4291 2.12918 40.2614 2.15164 40.0927 2.17513C39.7029 2.23027 40.602 2.11284 39.9528 2.19351C39.6826 2.2272 39.4135 2.25988 39.1434 2.29153C38.5026 2.36709 37.8598 2.43653 37.218 2.49882C35.9665 2.62237 34.7128 2.72244 33.4581 2.80004C30.9475 2.95525 28.4306 3.0206 25.9147 2.99507C23.433 2.97056 20.9524 2.85722 18.4792 2.65709C17.2256 2.55498 15.974 2.43142 14.7257 2.28438C14.4555 2.25273 14.1864 2.21903 13.9163 2.18636C13.267 2.10671 14.1662 2.2221 13.7764 2.16798C13.6077 2.14449 13.44 2.12305 13.2713 2.09956C12.6658 2.01686 12.0603 1.92802 11.4559 1.83408C8.63679 1.39705 5.83793 0.841566 3.06791 0.175807C1.9851 -0.0815105 0.700466 0.512771 0.439909 1.60433C0.187895 2.66321 0.773081 3.8385 1.93171 4.11624Z" fill="#19B9AA"/>
<path d="M15.2886 16.521C23.4097 18.3773 31.8169 18.603 40.0426 17.2602C41.1468 17.0795 41.8654 15.7255 41.5344 14.7483C41.1489 13.6098 40.0907 13.1289 38.9075 13.3219C38.4067 13.4035 37.9048 13.4811 37.4007 13.5506C37.3153 13.5628 36.618 13.6517 37.0622 13.5965C36.7931 13.6292 36.524 13.6609 36.2549 13.6915C35.312 13.7956 34.3669 13.8773 33.4198 13.9376C31.4923 14.0591 29.5584 14.0897 27.6266 14.0295C25.6959 13.9692 23.7663 13.8212 21.8527 13.5761C22.2969 13.6333 21.5996 13.5394 21.5142 13.5271C21.2793 13.4934 21.0454 13.4597 20.8105 13.4229C20.3417 13.3515 19.874 13.2739 19.4084 13.1912C18.4089 13.0135 17.4147 12.8093 16.4248 12.5836C15.3398 12.3355 14.0595 12.9093 13.7979 14.0101C13.548 15.0567 14.1268 16.2555 15.2886 16.521Z" fill="#19B9AA"/>
<path d="M47.751 13.3285C48.868 13.3285 49.938 12.3891 49.8867 11.2863C49.8344 10.1795 48.9481 9.24414 47.751 9.24414C46.634 9.24414 45.564 10.1836 45.6153 11.2863C45.6676 12.3932 46.5539 13.3285 47.751 13.3285Z" fill="#19B9AA"/>
<path d="M53.0931 13.2045C54.21 13.2045 55.28 12.2651 55.2288 11.1623C55.1764 10.0554 54.2901 9.12012 53.0931 9.12012C51.9761 9.12012 50.9061 10.0595 50.9573 11.1623C51.0097 12.2692 51.896 13.2045 53.0931 13.2045Z" fill="#19B9AA"/>
<path d="M43.5658 15.9572C42.5417 17.6604 41.6693 19.4841 42.0889 21.4916C42.4915 23.4133 44.1552 24.9674 46.2365 25.0603C48.1661 25.1461 50.0744 23.929 51.3067 22.5934C52.4621 21.3405 53.3196 19.8088 53.6036 18.1495C53.783 17.0998 53.3185 15.9 52.1118 15.6376C51.0835 15.414 49.6771 15.9368 49.4849 17.0641C49.4379 17.3408 49.3781 17.6134 49.298 17.883C49.2617 18.0055 49.2222 18.1271 49.1784 18.2465C49.1347 18.368 49.0588 18.7918 49.1592 18.3262C49.0791 18.6989 48.6456 19.3912 48.3541 19.6424C48.7235 19.3238 48.3647 19.6189 48.2857 19.7047C48.1981 19.8006 48.1063 19.8936 48.0134 19.9844C47.8757 20.1192 47.5585 20.5103 47.3599 20.5481C47.4186 20.5032 47.4784 20.4582 47.5371 20.4143C47.472 20.4593 47.4069 20.5032 47.3396 20.546C47.2221 20.6216 47.1036 20.6951 46.9808 20.7625C46.9167 20.7983 46.3977 21.0106 46.8249 20.8646C46.6818 20.9136 46.528 20.9412 46.386 20.9912C46.2621 21.0158 46.2675 21.0178 46.402 20.9953C46.5665 20.9759 46.5408 20.9718 46.3262 20.9821C46.4351 20.8953 46.6572 21.1148 46.3294 20.9627C46.1756 20.9136 46.2386 20.9392 46.5195 21.0392C46.48 21.0168 46.4405 20.9953 46.3999 20.9729C46.2493 20.8738 46.2472 20.8748 46.3945 20.9749C46.5366 21.0821 46.5408 21.076 46.4052 20.9575C46.3742 20.9249 46.3433 20.8912 46.3112 20.8585C46.4821 21.0801 46.5237 21.1281 46.4351 21.0015C46.4212 20.9739 46.2365 20.7319 46.2589 20.7043C46.3646 20.9616 46.3903 21.0178 46.3358 20.8738C46.3112 20.8085 46.2888 20.7431 46.2696 20.6757C46.2429 20.5848 46.0817 20.2591 46.2226 20.5399C46.3486 20.7901 46.2279 20.5277 46.2279 20.4C46.2279 20.2785 46.3273 19.866 46.2194 20.2836C46.2931 19.9977 46.3668 19.72 46.465 19.4402C46.5921 19.0797 46.3839 19.5617 46.5003 19.3565C46.5739 19.2268 46.6348 19.0879 46.7063 18.9562C46.8783 18.6386 47.0641 18.3292 47.2499 18.0198C47.8073 17.0937 47.5083 15.7438 46.4832 15.2261C45.4698 14.7104 44.1606 14.9688 43.5658 15.9572Z" fill="#19B9AA"/>
<path d="M59.5301 12.9986C58.6972 14.8437 57.672 16.6041 56.4611 18.247C56.3223 18.4349 56.1824 18.6208 56.0393 18.8046C56.0083 18.8454 55.7104 19.2232 55.8802 19.0098C56.0307 18.8209 55.7969 19.1109 55.7702 19.1425C55.453 19.5244 55.1263 19.8992 54.7888 20.2647C54.0755 21.0408 53.3163 21.776 52.5218 22.4764C51.6974 23.2014 51.6963 24.6391 52.5218 25.3641C53.4038 26.1381 54.6628 26.1381 55.5417 25.3641C58.804 22.4928 61.4587 18.9526 63.2174 15.0592C63.4545 14.5353 63.5987 14.0605 63.4331 13.4856C63.2965 13.0119 62.9142 12.4982 62.4518 12.2654C61.5313 11.8008 60.0032 11.9509 59.5301 12.9986Z" fill="#19B9AA"/>
<path d="M60.0258 20.6912C60.3248 20.4605 59.7407 20.8924 59.8517 20.8178C59.9414 20.7576 60.0269 20.6923 60.1155 20.63C60.3718 20.4513 60.6313 20.2767 60.8929 20.1061C61.5016 19.7079 62.1231 19.325 62.7585 18.9645C63.0649 18.7899 63.3757 18.6215 63.6907 18.4611C63.9844 18.3121 64.466 18.1936 64.7105 17.9853C64.7084 17.9874 64.2908 18.1293 64.4969 18.0752C64.5845 18.0517 64.6678 18.0139 64.7554 17.9874C64.8162 17.969 65.2594 17.8924 65.269 17.8679C65.254 17.9057 64.8579 17.8801 65.1131 17.8975C65.2295 17.9057 65.3512 17.8903 65.4687 17.8934C65.4975 17.8944 65.741 17.8893 65.7506 17.9108C65.4559 17.8679 65.3897 17.8658 65.5509 17.9026C65.6 17.9138 65.6481 17.9271 65.6951 17.9434C65.9791 18.0057 65.3384 17.7862 65.5915 17.9159C65.7965 18.021 65.4623 17.8138 65.4537 17.8066C65.7239 18.0078 65.4463 17.7882 65.3929 17.7229C65.3448 17.6637 65.2626 17.3257 65.3512 17.6902C65.3469 17.6708 65.3 17.3104 65.3064 17.5493C65.3138 17.8444 65.4035 17.2103 65.3245 17.5044C65.2647 17.727 65.2156 17.9516 65.1462 18.1722C64.8493 19.1259 64.6443 20.0796 64.8557 21.0741C65.1045 22.2443 65.9738 23.1654 67.1538 23.5462C68.1319 23.8618 69.2158 23.6657 70.1865 23.4257C72.036 22.9673 73.8161 22.1984 75.467 21.2886C76.4356 20.7556 76.8552 19.4169 76.2338 18.4948C75.6037 17.5605 74.3479 17.1919 73.3121 17.7617C72.8849 17.9965 72.4525 18.2232 72.0104 18.4326C71.8224 18.5214 71.6334 18.6082 71.4433 18.6919C71.3398 18.7379 71.2351 18.7818 71.1315 18.8257C70.8048 18.9656 71.1892 18.8328 71.1903 18.8022C71.1849 18.8869 70.2719 19.134 70.1566 19.1708C69.8618 19.2658 69.5639 19.3536 69.2638 19.4322C68.9745 19.5078 68.6797 19.5598 68.3893 19.6313C68.0881 19.7059 68.7267 19.6517 68.4331 19.6201C68.4192 19.6191 68.1832 19.6232 68.1832 19.6211C68.2003 19.5364 68.6092 19.7202 68.6605 19.7528C68.7256 19.807 68.7897 19.8611 68.8549 19.9142C68.731 19.7896 68.7299 19.7957 68.8527 19.9315C68.8719 19.9662 69.1026 20.2542 69.0524 20.2991C69.0278 20.3206 69.0044 20.0602 68.9851 20.052C69.0471 20.0765 68.9947 20.5748 69.0268 20.1991C69.0321 20.1337 69.0364 20.0602 69.0353 19.9948C69.03 19.7191 68.9413 20.3951 69.0161 20.1276C69.0343 20.0612 69.0449 19.9928 69.0609 19.9254C69.1175 19.6997 69.1966 19.4802 69.266 19.2576C69.6269 18.0946 69.7465 16.8386 69.1207 15.7338C68.5313 14.6943 67.3898 14.0336 66.1831 13.8784C64.2268 13.6272 62.5257 14.3716 60.8705 15.2865C59.5239 16.0309 58.219 16.8672 57.007 17.8005C56.1324 18.4734 56.2189 19.9969 57.007 20.6882C57.9339 21.5061 59.0936 21.4091 60.0258 20.6912Z" fill="#19B9AA"/>
<path d="M96.2634 2.16984C90.2973 4.26208 85.1833 8.35977 82.0972 13.6909C80.4089 16.6062 78.3576 21.0276 81.7875 23.5619C83.447 24.7883 85.6606 24.8097 87.5988 24.2594C89.3821 23.7529 91.1217 22.9932 92.7929 22.2212C96.414 20.5487 99.766 18.385 102.807 15.8741C103.656 15.1736 103.615 13.695 102.807 12.9864C101.903 12.193 100.692 12.2389 99.7873 12.9864C99.5065 13.2182 99.2235 13.4479 98.9373 13.6736C98.7942 13.7859 98.6501 13.8982 98.5048 14.0095C98.4322 14.0647 98.3596 14.1198 98.287 14.1749C98.255 14.1984 97.9506 14.4272 98.1375 14.2883C98.3254 14.1484 98.0809 14.3291 98.0595 14.3444C97.9859 14.3975 97.9111 14.4517 97.8374 14.5048C97.689 14.611 97.5395 14.7172 97.39 14.8213C97.0654 15.048 96.7375 15.2706 96.4065 15.4881C95.108 16.3438 93.7603 17.131 92.3721 17.8468C91.6919 18.1981 91.0021 18.532 90.3026 18.8475C89.9673 18.9997 89.6299 19.1467 89.2903 19.2896C89.1205 19.3611 88.9507 19.4316 88.7799 19.502C89.1493 19.3499 88.641 19.5551 88.5193 19.6021C87.7846 19.886 87.0414 20.1709 86.2768 20.372C86.0899 20.421 85.9009 20.4609 85.7108 20.5017C85.6809 20.5078 85.3649 20.5558 85.6137 20.5231C85.8625 20.4915 85.5453 20.5262 85.5143 20.5272C85.3328 20.5333 85.1534 20.5323 84.9719 20.5313C84.9131 20.5313 84.6505 20.4945 84.9452 20.5364C85.2559 20.5813 84.9035 20.5201 84.8437 20.5058C84.769 20.4884 84.297 20.3618 84.5789 20.4466C84.8512 20.5282 84.4294 20.3485 84.3504 20.3169C84.1347 20.2301 84.4828 20.3802 84.4711 20.4231C84.4732 20.4139 84.3162 20.2883 84.3023 20.275C84.2895 20.2628 84.1528 20.1127 84.1464 20.1147C84.2361 20.083 84.3429 20.4762 84.2116 20.1515C84.0653 19.791 84.2543 20.4323 84.187 20.0524C84.1176 19.6593 84.1678 20.3751 84.1721 19.9697C84.1721 19.9115 84.1357 19.5082 84.1849 19.4857C84.1902 19.4837 84.108 19.8727 84.1635 19.6205C84.1881 19.5122 84.2062 19.402 84.2319 19.2937C84.3151 18.9415 84.4294 18.5953 84.5597 18.2563C84.6163 18.1093 84.675 17.9632 84.7359 17.8182C84.7658 17.7468 84.7967 17.6763 84.8256 17.6058C84.9366 17.3353 84.6707 17.9357 84.7967 17.6712C85.0733 17.0902 85.3531 16.5153 85.6713 15.9537C85.9885 15.3931 86.3291 14.8458 86.6943 14.3128C86.8695 14.0565 87.0499 13.8043 87.2347 13.5551C87.3276 13.4306 87.4215 13.307 87.5166 13.1845C87.5646 13.1232 87.6127 13.0619 87.6607 13.0007C87.8369 12.776 87.6373 12.9517 87.6202 13.0507C87.6543 12.8496 88.0879 12.4993 88.2288 12.341C88.4542 12.0888 88.6848 11.8417 88.9208 11.5987C89.3747 11.1321 89.8477 10.6818 90.3389 10.2519C90.6144 10.0109 90.8953 9.77604 91.1815 9.54629C91.3246 9.43192 91.4698 9.31858 91.615 9.20728C91.6673 9.16746 91.741 9.08781 91.803 9.06535C91.5819 9.14704 91.5905 9.22056 91.8158 9.06024C92.4138 8.63342 93.0321 8.23315 93.6685 7.86045C94.305 7.48775 94.9596 7.14363 95.6291 6.83016C95.9644 6.67291 96.3051 6.52791 96.6457 6.38291C96.8742 6.28591 96.5047 6.43907 96.5037 6.44009C96.5154 6.40538 96.76 6.34105 96.8005 6.32573C96.9992 6.25119 97.1989 6.17971 97.3985 6.10926C98.444 5.74268 99.2662 4.70728 98.8903 3.59735C98.5593 2.61402 97.3868 1.7757 96.2634 2.16984Z" fill="#19B9AA"/>
<path d="M93.0523 9.91089C88.4381 12.8864 83.937 16.0161 79.5396 19.2764C75.3397 22.3898 71.1964 25.6083 67.2614 29.0249C65.0829 30.917 63.0316 32.9898 61.5323 35.4282C60.9653 36.3503 61.2803 37.7084 62.299 38.222C63.3252 38.7407 64.6163 38.4732 65.2207 37.4888C65.5314 36.9834 65.8657 36.4912 66.2255 36.0154C66.2971 35.9204 66.3708 35.8265 66.4434 35.7325C66.7936 35.2802 66.2715 35.9204 66.5032 35.66C66.7221 35.415 66.9303 35.1607 67.1514 34.9167C67.9597 34.0273 68.8343 33.1941 69.7356 32.3915C71.5937 30.7373 73.5414 29.1699 75.4881 27.6117C77.5512 25.9596 79.6442 24.3411 81.7639 22.7564C82.0021 22.5777 82.2413 22.4 82.4805 22.2223C82.551 22.1702 82.8969 21.914 82.6065 22.1284C82.7133 22.0498 82.8201 21.9711 82.9268 21.8925C83.4864 21.481 84.0492 21.0715 84.613 20.6641C85.6606 19.9085 86.7135 19.1611 87.7738 18.4218C90.2192 16.7155 92.6988 15.0542 95.2093 13.4357C96.1341 12.8394 96.6285 11.61 95.975 10.642C95.3802 9.76283 94.0422 9.27168 93.0523 9.91089Z" fill="#19B9AA"/>
<path d="M133.879 16.3393C133.025 18.4162 132.718 20.8117 134.521 22.5476C136.054 24.0241 138.439 24.1507 140.485 24.019C144.438 23.7627 148.222 22.4067 151.237 19.9275C152.087 19.228 152.043 17.7474 151.237 17.0398C150.331 16.2454 149.124 16.2944 148.217 17.0398C148.07 17.1613 147.919 17.2777 147.77 17.3951C147.649 17.487 147.683 17.4615 147.871 17.3196C147.781 17.3839 147.691 17.4462 147.599 17.5085C147.322 17.6953 147.038 17.873 146.749 18.0405C146.455 18.21 146.155 18.3703 145.851 18.5204C145.671 18.6082 145.49 18.6929 145.307 18.7746C145.252 18.7991 144.74 19.0105 145.005 18.9064C145.268 18.8032 144.664 19.0299 144.609 19.0503C144.443 19.1085 144.278 19.1647 144.111 19.2178C143.775 19.325 143.436 19.422 143.093 19.5078C142.72 19.6017 142.344 19.6834 141.964 19.7539C141.759 19.7917 141.553 19.8223 141.346 19.856C140.881 19.9326 141.716 19.8253 141.202 19.8733C140.457 19.9418 139.712 19.9877 138.963 19.9652C138.787 19.9601 138.511 19.9918 138.347 19.9295C138.419 19.9397 138.493 19.9509 138.566 19.9612C138.45 19.9448 138.337 19.9254 138.223 19.9019C138.054 19.8672 137.894 19.8202 137.729 19.7743C137.264 19.6446 138.016 19.9264 137.635 19.7232C137.231 19.5078 137.855 19.9448 137.543 19.6589C137.228 19.3699 137.764 19.9397 137.451 19.5129C137.379 19.3781 137.399 19.4251 137.509 19.6548C137.474 19.5599 137.446 19.4639 137.423 19.3659C137.297 18.984 137.397 19.7447 137.427 19.3168C137.434 19.2249 137.509 18.746 137.415 19.1729C137.454 18.9931 137.493 18.8175 137.545 18.6409C137.667 18.2263 137.834 17.824 138 17.4237C138.41 16.4271 137.551 15.1385 136.508 14.9118C135.277 14.6453 134.318 15.2723 133.879 16.3393Z" fill="#19B9AA"/>
</svg>
