<svg width="169" height="44" viewBox="0 0 169 44" fill="none" xmlns="http://www.w3.org/2000/svg">
<path d="M105.597 16.8749C109.947 18.0135 114.477 18.5828 118.989 18.5471C120.18 18.5374 121.323 17.5579 121.267 16.3824C121.212 15.2178 120.266 14.208 118.989 14.2178C116.87 14.234 114.754 14.1193 112.652 13.8628C113.117 13.919 112.371 13.8227 112.281 13.8097C112.028 13.774 111.775 13.7351 111.523 13.695C111.019 13.6149 110.516 13.5262 110.013 13.4298C108.936 13.2231 107.868 12.9763 106.808 12.6993C105.66 12.3995 104.28 13.0716 104.007 14.2113C103.732 15.3564 104.369 16.5534 105.597 16.8749Z" fill="#19B9AA"/>
<path d="M110.434 12.0814C110.143 15.7267 109.853 19.372 109.562 23.0172C109.472 24.1494 110.674 25.2317 111.84 25.1819C113.151 25.1256 114.021 24.2295 114.117 23.0172C114.408 19.372 114.698 15.7267 114.989 12.0814C115.079 10.9492 113.877 9.86691 112.711 9.91669C111.4 9.97189 110.53 10.8681 110.434 12.0814Z" fill="#19B9AA"/>
<path d="M102.531 23.4324C107.833 25.6111 113.58 26.6404 119.357 26.2183C120.542 26.1317 121.693 25.2854 121.635 24.0537C121.583 22.9551 120.629 21.7959 119.357 21.889C118.075 21.9832 116.788 22.0113 115.503 21.9637C114.844 21.9388 114.185 21.8966 113.528 21.8338C113.355 21.8176 113.182 21.7992 113.01 21.7808C112.965 21.7764 112.535 21.7277 112.795 21.758C113.094 21.7927 112.535 21.7223 112.479 21.7137C112.307 21.6888 112.135 21.6628 111.964 21.6357C110.696 21.4344 109.44 21.1627 108.205 20.8218C107.605 20.6562 107.008 20.4733 106.42 20.2752C106.092 20.1648 105.766 20.0501 105.442 19.93C105.313 19.8823 105.184 19.8326 105.055 19.7839C104.416 19.5414 105.462 19.9538 104.831 19.6951C104.247 19.4548 103.717 19.3087 103.076 19.4765C102.548 19.615 101.975 20.0025 101.715 20.4711C101.195 21.4041 101.363 22.9529 102.531 23.4324Z" fill="#19B9AA"/>
<path d="M109.108 25.1526C108.7 29.2286 108.312 33.3069 107.903 37.3829C107.79 38.514 109.032 39.5963 110.181 39.5476C111.512 39.4913 112.337 38.5941 112.458 37.3829C112.866 33.3069 113.254 29.2286 113.663 25.1526C113.776 24.0215 112.535 22.9392 111.385 22.9879C110.055 23.0453 109.23 23.9414 109.108 25.1526Z" fill="#19B9AA"/>
<path d="M111.441 32.0663C113.988 32.8932 116.68 33.0675 119.314 32.5458C120.482 32.3142 121.267 30.9472 120.904 29.8832C120.505 28.7089 119.355 28.1234 118.103 28.3712C118.01 28.3896 117.167 28.5217 117.705 28.4556C117.434 28.4892 117.16 28.5098 116.888 28.5217C116.404 28.5433 115.918 28.5368 115.435 28.5022C115.295 28.4924 115.155 28.4794 115.016 28.4654C115.271 28.5022 115.262 28.5 114.99 28.461C114.778 28.4253 114.566 28.3907 114.354 28.3474C113.777 28.2305 113.212 28.0736 112.653 27.8917C111.524 27.5259 110.114 28.3106 109.852 29.4038C109.562 30.6051 110.232 31.6734 111.441 32.0663Z" fill="#19B9AA"/>
<path d="M101.293 29.3704C101.263 29.8261 101.225 30.2817 101.173 30.7352C101.163 30.8229 101.047 31.6336 101.125 31.1303C101.095 31.324 101.065 31.5178 101.031 31.7104C100.868 32.6434 100.655 33.5688 100.394 34.4812C100.141 35.3622 99.8442 36.2313 99.5025 37.0853C99.4171 37.2985 99.3272 37.5106 99.2383 37.7228C99.137 37.9555 99.1336 37.9641 99.2281 37.7466C99.1871 37.8364 99.1461 37.9263 99.104 38.015C98.8933 38.462 98.6701 38.9025 98.4367 39.3387C97.898 40.3474 98.1223 41.7328 99.2531 42.3C100.292 42.8217 101.793 42.6009 102.369 41.5229C104.399 37.7239 105.572 33.624 105.848 29.3704C105.922 28.2383 104.748 27.156 103.57 27.2058C102.274 27.261 101.372 28.1571 101.293 29.3704Z" fill="#19B9AA"/>
<path d="M102.749 36.9607C107.845 41.3095 114.686 43.1755 121.434 42.2165C122.616 42.0488 123.372 40.5735 123.025 39.554C122.607 38.3277 121.49 37.8623 120.224 38.042C119.686 38.1188 120.606 38.0073 120.111 38.0571C119.931 38.0755 119.751 38.0939 119.57 38.1091C119.209 38.1394 118.847 38.1589 118.485 38.1697C117.79 38.1902 117.096 38.1751 116.403 38.1253C116.222 38.1123 116.042 38.0972 115.862 38.0798C115.794 38.0734 115.195 38.0063 115.535 38.0474C115.879 38.0896 115.368 38.0214 115.3 38.0117C115.121 37.9846 114.942 37.9543 114.764 37.9229C114.052 37.7952 113.347 37.6318 112.651 37.4337C112.304 37.3352 111.959 37.227 111.618 37.1101C111.476 37.0614 111.335 37.0116 111.193 36.9596C111.133 36.9369 110.583 36.7291 110.877 36.8438C111.171 36.9586 110.627 36.7378 110.567 36.7118C110.429 36.6523 110.293 36.5916 110.157 36.5289C109.831 36.3784 109.509 36.2204 109.191 36.0537C108.557 35.7214 107.942 35.3556 107.349 34.9595C107.201 34.8599 107.056 34.7571 106.909 34.6564C106.521 34.3891 107.197 34.8935 106.798 34.572C106.52 34.349 106.242 34.1304 105.971 33.8999C105.085 33.1433 103.613 33.007 102.75 33.8999C101.952 34.7246 101.803 36.1522 102.749 36.9607Z" fill="#19B9AA"/>
<path d="M123.414 21.351C128.412 21.693 133.409 22.0351 138.407 22.3771C139.598 22.4582 140.737 21.3229 140.684 20.2124C140.626 18.9699 139.682 18.1354 138.407 18.0477C133.409 17.7057 128.412 17.3637 123.414 17.0217C122.223 16.9405 121.084 18.0759 121.136 19.1864C121.194 20.4289 122.137 21.2644 123.414 21.351Z" fill="#19B9AA"/>
<path d="M124.886 21.804C124.603 25.3541 124.32 28.903 124.037 32.4531C123.947 33.5852 125.149 34.6675 126.315 34.6178C127.625 34.5615 128.495 33.6653 128.592 32.4531C128.875 28.903 129.158 25.3541 129.441 21.804C129.531 20.6719 128.329 19.5896 127.163 19.6393C125.852 19.6956 124.982 20.5918 124.886 21.804Z" fill="#19B9AA"/>
<path d="M130.711 21.5214C130.212 27.7891 129.712 34.0569 129.213 40.3247C129.112 41.5997 130.466 42.8184 131.779 42.7632C133.256 42.7004 134.235 41.6906 134.345 40.3247C134.843 34.0569 135.343 27.7891 135.842 21.5214C135.943 20.2464 134.589 19.0277 133.276 19.0829C131.8 19.1456 130.819 20.1555 130.711 21.5214Z" fill="#19B9AA"/>
<path d="M122.975 36.4032C125.523 36.5861 128.072 36.7701 130.62 36.953C131.812 37.0385 132.95 35.8967 132.898 34.7884C132.839 33.5426 131.896 32.7157 130.62 32.6237C128.072 32.4408 125.523 32.2568 122.975 32.0739C121.784 31.9884 120.645 33.1302 120.697 34.2385C120.757 35.4843 121.699 36.3112 122.975 36.4032Z" fill="#19B9AA"/>
<path d="M139.499 30.6639C141.485 30.7895 143.483 30.9875 145.472 31.0406C145.742 31.0644 145.767 31.0611 145.547 31.0319C145.35 30.9984 145.352 31.0016 145.553 31.0427C144.09 30.3695 144.446 28.9517 144.328 30.074C144.265 30.6585 144.402 29.7742 144.31 30.2158C144.278 30.3706 144.248 30.5254 144.211 30.6791C144.125 31.0297 144.017 31.3761 143.885 31.7127C143.858 31.7841 143.829 31.8556 143.798 31.9259C143.735 32.0764 143.76 32.0201 143.872 31.7571C143.873 31.8859 143.692 32.1153 143.63 32.2301C143.471 32.5169 143.296 32.795 143.107 33.0634C143.041 33.1565 142.942 33.3665 142.836 33.4282C143.034 33.1879 143.057 33.1598 142.903 33.3427C142.837 33.4195 142.77 33.4953 142.702 33.5711C142.253 34.0635 141.753 34.4975 141.23 34.9153C140.85 35.2184 141.567 34.6967 141.189 34.9424C141.015 35.056 140.845 35.174 140.668 35.2844C140.403 35.45 140.131 35.6058 139.855 35.7541C139.532 35.9262 139.202 36.0864 138.867 36.2347C138.758 36.2834 138.291 36.5334 138.832 36.2585C138.651 36.3505 138.438 36.4089 138.245 36.4771C137.132 36.8722 136.252 37.9588 136.654 39.1397C137.006 40.1744 138.26 41.076 139.455 40.6517C142.365 39.6181 144.911 38.0065 146.768 35.6145C147.648 34.4813 148.299 33.1295 148.62 31.7538C148.828 30.8598 149.04 29.8164 148.842 28.9062C148.528 27.4678 147.168 26.8552 145.772 26.7307C143.688 26.5456 141.588 26.4655 139.499 26.3346C138.308 26.2599 137.17 27.3834 137.222 28.4993C137.28 29.7364 138.223 30.5838 139.499 30.6639Z" fill="#19B9AA"/>
<path d="M126.412 23.1434L126.223 25.5176L132.128 25.9425L132.317 23.5683L126.412 23.1434Z" fill="#19B9AA"/>
<path d="M126.039 27.8328L125.85 30.207L131.755 30.632L131.944 28.2577L126.039 27.8328Z" fill="#19B9AA"/>
<path d="M137.221 28.4974C136.996 32.1113 139.131 35.3031 142.086 37.3985C145.09 39.5285 148.924 40.1833 152.554 39.4192C156.476 38.5934 160.034 36.2707 162.863 33.632C165.728 30.9586 168.58 27.3804 168.371 23.3585C168.247 20.9644 167.153 18.7142 165.02 17.3613C163.042 16.1069 160.305 15.9672 158.256 17.1307C157.233 17.7109 156.767 19.1038 157.438 20.092C158.102 21.0704 159.459 21.4893 160.554 20.868C160.618 20.8312 160.697 20.7988 160.759 20.7555C160.944 20.6267 160.607 20.815 160.568 20.8172C160.724 20.8107 160.933 20.6992 161.087 20.6656C161.15 20.6516 161.257 20.6505 161.314 20.6223C161.289 20.6343 160.855 20.6451 161.096 20.6591C161.276 20.67 161.461 20.6559 161.642 20.6613C162.069 20.6754 161.246 20.565 161.66 20.6689C161.838 20.7133 162.017 20.7728 162.195 20.8118C162.427 20.8637 162.042 20.7522 162.021 20.7317C162.065 20.7728 162.181 20.8031 162.238 20.8302C162.405 20.9102 162.561 21.0044 162.72 21.0964C162.771 21.1256 162.984 21.2858 162.746 21.1062C162.493 20.9157 162.76 21.1278 162.82 21.1797C162.938 21.2847 163.039 21.4027 163.153 21.5099C163.349 21.6939 163.044 21.3919 163.063 21.3919C163.086 21.3908 163.193 21.5726 163.207 21.5932C163.315 21.7523 163.406 21.919 163.502 22.0857C163.677 22.3898 163.469 22.0142 163.479 22.0142C163.493 22.0142 163.559 22.2253 163.566 22.2437C163.62 22.3985 163.668 22.5554 163.709 22.7134C163.75 22.8725 163.777 23.0338 163.813 23.1951C163.869 23.4494 163.789 23.0284 163.788 23.0273C163.845 23.1193 163.813 23.3368 163.816 23.4386C163.829 23.7709 163.802 24.0966 163.78 24.4278C163.761 24.6876 163.791 24.2612 163.804 24.2612C163.799 24.2612 163.76 24.4863 163.757 24.5036C163.707 24.7428 163.643 24.9787 163.57 25.2114C163.514 25.3889 163.453 25.5643 163.386 25.7375C163.353 25.824 163.316 25.9095 163.281 25.9961C163.293 25.9647 163.438 25.6855 163.318 25.9041C163.107 26.2894 162.914 26.678 162.678 27.0514C162.476 27.3707 162.259 27.6824 162.032 27.9865C161.952 28.0926 161.591 28.545 161.859 28.2203C161.723 28.3848 161.585 28.5461 161.445 28.7063C160.937 29.2875 160.401 29.8449 159.84 30.3796C159.259 30.9337 158.651 31.4619 158.016 31.9619C157.868 32.0788 157.717 32.1903 157.569 32.3061C157.305 32.5129 157.851 32.1113 157.573 32.3029C157.496 32.357 157.42 32.4122 157.342 32.4663C157.007 32.7012 156.666 32.9263 156.317 33.1428C155.628 33.5714 154.913 33.9643 154.173 34.3095C153.976 34.4015 153.778 34.4881 153.579 34.5736C153.176 34.749 153.849 34.4816 153.435 34.6288C153.033 34.7728 152.63 34.9102 152.218 35.026C151.87 35.1234 151.519 35.2079 151.163 35.2771C150.987 35.3118 150.81 35.3399 150.634 35.3702C150.58 35.3789 150.281 35.4081 150.583 35.3789C150.931 35.3453 150.423 35.3897 150.354 35.3951C150.015 35.4211 149.676 35.433 149.337 35.4276C149.182 35.4243 149.028 35.4178 148.873 35.4081C148.77 35.4016 148.667 35.3908 148.565 35.3832C148.25 35.3583 148.595 35.367 148.708 35.4048C148.426 35.3107 148.084 35.2999 147.79 35.2317C147.435 35.1483 147.084 35.0466 146.74 34.9286C146.599 34.8799 146.445 34.7944 146.3 34.7674C146.308 34.7684 146.707 34.9438 146.482 34.8377C146.411 34.8042 146.338 34.7749 146.267 34.7435C145.934 34.5931 145.61 34.4264 145.295 34.2446C145.138 34.1537 144.983 34.0595 144.831 33.9621C144.741 33.9047 144.236 33.5497 144.488 33.737C144.74 33.9242 144.306 33.5887 144.233 33.5292C144.095 33.4155 143.961 33.2975 143.83 33.1774C143.55 32.9198 143.291 32.646 143.039 32.3646C142.998 32.3191 142.847 32.1146 143.026 32.3527C143.217 32.607 143.012 32.3278 142.974 32.278C142.871 32.1395 142.772 31.9977 142.677 31.8526C142.475 31.5431 142.308 31.2205 142.137 30.8937C142.027 30.6805 142.218 31.0744 142.218 31.0777C142.209 30.9933 142.142 30.8883 142.111 30.8071C142.043 30.6253 141.984 30.4413 141.93 30.2551C141.884 30.0917 141.844 29.9261 141.811 29.7605C141.708 29.2604 141.819 30.0603 141.791 29.6858C141.762 29.2864 141.748 28.8968 141.773 28.4963C141.844 27.3642 140.675 26.2819 139.496 26.3317C138.204 26.3879 137.297 27.2841 137.221 28.4974Z" fill="#19B9AA"/>
<path d="M148.197 6.2932C148.062 7.49243 147.928 8.69273 147.794 9.89196C147.667 11.0219 148.931 12.1053 150.071 12.0566C151.413 11.9993 152.213 11.102 152.349 9.89196C152.483 8.69273 152.617 7.49243 152.752 6.2932C152.878 5.16325 151.614 4.07983 150.474 4.12854C149.133 4.1859 148.332 5.08315 148.197 6.2932Z" fill="#19B9AA"/>
<path d="M156.395 8.53239C155.56 9.37661 154.725 10.2208 153.892 11.065C153.075 11.8909 152.966 13.3185 153.892 14.1259C154.778 14.8987 156.241 15.0069 157.112 14.1259C157.947 13.2817 158.782 12.4374 159.615 11.5932C160.432 10.7674 160.541 9.33981 159.615 8.53239C158.73 7.75961 157.266 7.65029 156.395 8.53239Z" fill="#19B9AA"/>
<path d="M65.6333 0.731518C64.3271 1.42205 62.989 2.04764 61.6191 2.61478C61.0008 2.87129 62.037 2.45676 61.413 2.69703C61.224 2.76955 61.0361 2.84315 60.8459 2.9135C60.5304 3.03148 60.2127 3.1462 59.895 3.25768C59.1628 3.5142 58.4226 3.75123 57.6778 3.97094C56.251 4.3898 54.8025 4.74048 53.3391 5.02189C52.6069 5.16259 51.8724 5.28489 51.1334 5.38988C50.966 5.41369 50.7974 5.43642 50.63 5.45915C51.155 5.39096 50.482 5.4743 50.4273 5.47971C50.0231 5.52517 49.6177 5.56413 49.2123 5.59985C48.0291 5.70376 46.8766 6.52092 46.9347 7.76452C46.986 8.84793 47.9414 10.0407 49.2123 9.92918C55.7898 9.35013 62.1532 7.52424 67.9324 4.4699C68.9744 3.91899 69.406 2.47624 68.7501 1.50863C68.0691 0.505311 66.7481 0.142729 65.6333 0.731518Z" fill="#19B9AA"/>
<path d="M51.3782 15.6643C57.2998 15.9078 63.3068 14.9164 68.7774 12.742C69.3502 12.5147 69.8114 12.2788 70.1383 11.7473C70.4241 11.283 70.5448 10.6001 70.3683 10.0795C70.0278 9.07939 68.7433 8.09988 67.5669 8.56745C64.9523 9.60649 62.2284 10.3793 59.4395 10.8598C59.0956 10.9194 58.7506 10.9735 58.4055 11.0243C58.2325 11.0492 58.0594 11.073 57.8863 11.0969C58.2222 11.0514 57.9455 11.0882 57.7633 11.1098C57.0686 11.1889 56.3729 11.2506 55.6748 11.2949C54.2445 11.3848 52.8097 11.3956 51.3782 11.3361C50.1859 11.2873 49.0472 12.3664 49.1007 13.5007C49.1576 14.714 50.1017 15.6124 51.3782 15.6643Z" fill="#19B9AA"/>
<path d="M56.2936 8.20511C57.634 11.5538 58.6702 15.0022 59.3956 18.5176C59.6257 19.6313 61.0878 20.3705 62.197 20.0296C63.444 19.6464 64.0338 18.5598 63.7879 17.3671C63.0625 13.8516 62.025 10.4033 60.6859 7.05459C60.2634 5.99931 59.1314 5.15942 57.8845 5.54257C56.8015 5.87593 55.8404 7.07191 56.2936 8.20511Z" fill="#19B9AA"/>
<path d="M60.1286 27.9221C60.2333 28.3961 60.3301 28.8724 60.4155 29.3497C60.452 29.5542 60.4861 29.7599 60.5192 29.9644C60.5408 30.1008 60.5613 30.2383 60.5818 30.3757C60.5488 30.143 60.5499 30.1571 60.5852 30.4179C60.6877 31.313 60.7765 32.2081 60.8164 33.1086C60.9007 34.9778 60.8232 36.8481 60.5989 38.7064C60.4622 39.8353 61.7433 40.9198 62.8764 40.8711C64.227 40.8137 65.0082 39.9165 65.1539 38.7064C65.6356 34.7213 65.3862 30.6939 64.5219 26.7705C64.2771 25.66 62.84 24.9143 61.7206 25.2585C60.485 25.6394 59.8655 26.7326 60.1286 27.9221Z" fill="#19B9AA"/>
<path d="M55.9746 36.7355C59.9979 36.5721 64.02 36.4086 68.0433 36.2452C69.2321 36.1965 70.3777 35.2841 70.3208 34.0805C70.2673 32.9495 69.3187 31.8639 68.0433 31.9159C64.02 32.0793 59.9979 32.2427 55.9746 32.4062C54.7858 32.4549 53.6402 33.3673 53.6971 34.5708C53.7506 35.7019 54.7004 36.7874 55.9746 36.7355Z" fill="#19B9AA"/>
<path d="M54.8105 42.3095C59.9202 42.6634 65.0549 42.3225 70.078 41.3787C71.2486 41.159 72.0275 39.7715 71.6688 38.7162C71.2657 37.5321 70.1212 36.9682 68.8674 37.2042C68.2924 37.3124 67.715 37.4131 67.1365 37.505C66.8108 37.5559 66.4851 37.6046 66.1583 37.6501C66.0137 37.6706 65.8679 37.689 65.7233 37.7096C65.3487 37.7605 66.0501 37.675 65.6743 37.715C64.4707 37.8427 63.2704 37.9661 62.0622 38.0332C59.6457 38.1696 57.2236 38.1469 54.8105 37.9802C53.6194 37.8979 52.4806 39.0344 52.533 40.1449C52.5922 41.3874 53.5351 42.2208 54.8105 42.3095Z" fill="#19B9AA"/>
<path d="M76.8046 30.074C77.2636 29.9874 77.7248 29.9224 78.1848 29.8434C78.4513 29.7969 78.1552 29.8434 78.1131 29.8499C78.2201 29.8359 78.3272 29.824 78.4342 29.812C78.72 29.7796 79.0059 29.7514 79.2917 29.7287C80.2585 29.6486 81.2299 29.6161 82.199 29.6313C83.1726 29.6465 84.1337 29.732 85.1017 29.8207C85.3716 29.8456 85.0721 29.8153 85.0311 29.8099C85.1381 29.824 85.244 29.8391 85.3511 29.8543C85.5993 29.89 85.8476 29.9289 86.0958 29.9722C86.5912 30.0567 87.0831 30.1551 87.5728 30.2655C87.927 30.3456 88.28 30.4301 88.6273 30.5329C88.7332 30.5643 89.2707 30.7212 88.9815 30.6379C88.707 30.5578 88.9507 30.6238 89.0133 30.653C89.1113 30.6996 89.2092 30.745 89.3049 30.7948C89.3994 30.8446 89.4894 30.9009 89.5816 30.9539C89.6647 31.0015 89.7797 31.1498 89.6078 30.9658C89.3994 30.7418 89.7194 31.1 89.7809 31.1574C89.9574 31.323 89.6704 31.0297 89.6647 31.0221C89.8674 31.2797 89.7114 31.0524 89.6716 30.955C89.7046 31.0362 89.7308 31.1195 89.7558 31.2028C89.7706 31.2548 89.8572 31.6304 89.8037 31.3435C89.7535 31.0708 89.8014 31.3533 89.8014 31.4063C89.8025 31.5254 89.8093 31.6423 89.8071 31.7613C89.8048 31.9388 89.7923 32.1174 89.7763 32.2949C89.7684 32.3826 89.7547 32.4703 89.7479 32.5579C89.7262 32.8177 89.7718 32.4291 89.7695 32.4161C89.7934 32.6153 89.6852 32.9075 89.6431 33.1056C89.4791 33.8784 89.2434 34.636 88.9427 35.3709C88.9097 35.4521 88.8744 35.5333 88.8403 35.6144C88.9131 35.4445 88.9564 35.3677 88.8494 35.5787C88.7423 35.7898 88.6398 36.0008 88.526 36.2086C88.3141 36.5972 88.0818 36.976 87.8313 37.344C87.714 37.515 87.5944 37.6849 87.4692 37.8516C87.3974 37.9469 87.3234 38.0399 87.2517 38.1341C87.3656 37.9837 87.4202 37.935 87.2676 38.1092C86.9522 38.4685 86.6265 38.8149 86.2792 39.1472C85.4388 39.9513 85.3704 41.4157 86.2792 42.208C87.1856 42.9992 88.6034 43.0663 89.4996 42.208C90.931 40.8378 92.1256 39.2186 92.9307 37.4436C93.7666 35.5993 94.4339 33.5255 94.3587 31.494C94.3109 30.1952 93.8816 29.0046 92.9489 28.0392C92.1894 27.2523 91.1189 26.7729 90.0747 26.4319C87.9919 25.7522 85.6768 25.4816 83.4903 25.3507C80.8461 25.1927 78.1882 25.4102 75.5919 25.9005C74.4212 26.1213 73.6411 27.5067 74.001 28.563C74.4064 29.7449 75.5509 30.3099 76.8046 30.074Z" fill="#19B9AA"/>
<path d="M83.6789 22.2816C83.6538 22.9689 83.6083 23.6551 83.5343 24.3402C83.5138 24.5264 83.4899 24.7125 83.4682 24.8998C83.4181 25.3262 83.5035 24.7093 83.458 24.9745C83.3988 25.3132 83.3475 25.6542 83.2826 25.9929C83.0298 27.3156 82.6802 28.6219 82.2395 29.8991C82.0243 30.5236 81.7817 31.1373 81.5289 31.7488C81.2898 32.3278 81.7168 31.3537 81.4537 31.9241C81.3877 32.067 81.3216 32.2099 81.2533 32.3527C81.1041 32.6655 80.9493 32.9772 80.7887 33.2846C80.1453 34.5185 79.4085 35.7026 78.5909 36.839C77.9167 37.7763 78.3734 39.2807 79.4085 39.8003C80.5644 40.3804 81.8045 40.0243 82.5242 39.0232C86.0635 34.105 88.0233 28.229 88.2362 22.2816C88.2772 21.1484 87.1601 20.0661 85.9587 20.117C84.6878 20.1711 83.7222 21.0683 83.6789 22.2816Z" fill="#19B9AA"/>
<path d="M19.6947 24.7354C26.5535 24.8935 33.5888 23.7202 39.8679 21.0609C40.96 20.5988 41.3005 19.0077 40.6844 18.0997C39.9556 17.026 38.7371 16.8279 37.5688 17.3225C37.4093 17.3907 37.2499 17.4654 37.0848 17.5239C37.6018 17.3388 37.0848 17.5217 36.9698 17.5661C36.6042 17.7057 36.2353 17.8399 35.864 17.9676C35.158 18.2111 34.444 18.4341 33.7243 18.6387C32.1904 19.0738 30.6303 19.4266 29.0565 19.7058C28.2662 19.8455 27.4725 19.9688 26.6765 20.0717C27.2083 20.0035 26.5387 20.0857 26.4817 20.0922C26.2813 20.115 26.0809 20.1366 25.8805 20.1572C25.4796 20.1983 25.0776 20.2351 24.6757 20.2665C23.0188 20.3964 21.3573 20.444 19.6947 20.4061C18.5024 20.379 17.3625 21.4213 17.4172 22.5708C17.4741 23.7667 18.4181 24.7062 19.6947 24.7354Z" fill="#19B9AA"/>
<path d="M26.1902 14.9772C26.78 17.1148 27.2526 19.2795 27.5931 21.4658C27.6056 21.5448 27.7241 22.3706 27.6614 21.9139C27.699 22.1866 27.7343 22.4604 27.7685 22.7343C27.8357 23.2819 27.8949 23.8296 27.945 24.3783C28.0463 25.4758 28.1147 26.5765 28.1534 27.6784C28.1932 28.8083 29.1726 29.8971 30.4309 29.843C31.63 29.7922 32.7517 28.8906 32.7084 27.6784C32.5422 23.0081 31.8293 18.3465 30.5812 13.8267C30.2795 12.7313 28.9403 11.9575 27.7799 12.3146C26.5956 12.6794 25.8667 13.8029 26.1902 14.9772Z" fill="#19B9AA"/>
<path d="M31.9373 26.0176C28.4253 26.036 24.6344 27.101 22.0585 29.4367C20.1795 31.1414 18.9656 33.686 19.0214 36.171C19.084 38.9916 20.8445 41.4539 23.5298 42.639C26.2639 43.8458 29.1997 43.9833 32.1479 43.6045C33.9756 43.3696 35.7214 42.9053 37.3783 42.1152C41.6225 40.0901 45.4521 34.5139 42.3296 30.1857C40.0942 27.0881 35.71 26.009 31.9373 26.0176C30.7461 26.0209 29.6051 27.0112 29.6597 28.1823C29.7144 29.3523 30.6607 30.3502 31.9373 30.347C32.2447 30.3459 32.551 30.361 32.8574 30.3805C33.1079 30.3967 33.3584 30.4184 33.6078 30.4455C33.6705 30.4519 33.7331 30.4606 33.7957 30.466C34.1875 30.505 33.2457 30.387 33.5338 30.4325C33.7251 30.4628 33.9164 30.4877 34.1077 30.5201C34.84 30.6446 35.5654 30.8167 36.268 31.0526C36.4798 31.1241 37.0287 31.426 36.4137 31.0927C36.5732 31.1793 36.7542 31.2399 36.9182 31.32C37.0833 31.4012 37.2473 31.4867 37.4056 31.5776C37.4944 31.6284 37.581 31.6804 37.6664 31.7356C37.8418 31.846 38.1014 32.1415 37.655 31.7064C37.9124 31.9564 38.1993 32.175 38.451 32.4348C38.6936 32.6848 38.3348 32.306 38.3235 32.2735C38.3496 32.3536 38.4487 32.4456 38.4977 32.5192C38.5535 32.6036 38.607 32.6891 38.6571 32.7768C38.7254 32.898 38.7995 33.1924 38.6879 32.8017C38.7573 33.0452 38.9441 33.3569 38.9133 33.6124C38.919 33.568 38.8849 33.1047 38.8837 33.516C38.8837 33.621 38.8894 33.726 38.8871 33.831C38.8849 33.8829 38.8826 33.9349 38.8803 33.9868C38.8564 34.2315 38.8666 34.1936 38.9088 33.871C38.9259 33.9197 38.8564 34.1416 38.8496 34.1708C38.7938 34.4144 38.7209 34.6546 38.6332 34.8895C38.615 34.935 38.5979 34.9815 38.5797 35.027C38.4874 35.2467 38.5057 35.2077 38.6343 34.909C38.6412 34.9155 38.4988 35.1796 38.5068 35.1633C38.402 35.3636 38.2881 35.5584 38.1663 35.75C38.0775 35.8907 37.9841 36.0281 37.8862 36.1634C37.8304 36.2413 37.7712 36.316 37.7154 36.394C37.4272 36.7933 38.0308 36.0357 37.7871 36.3117C37.6243 36.4957 37.4648 36.6808 37.2906 36.855C37.0913 37.0553 36.8806 37.2468 36.6609 37.4276C36.6199 37.4611 36.4274 37.6386 36.3989 37.6354C36.6164 37.4785 36.6586 37.446 36.5253 37.5401C36.4582 37.5867 36.391 37.6332 36.3226 37.6776C35.9263 37.9384 35.5084 38.1711 35.078 38.3768C34.9402 38.4428 34.799 38.5023 34.6612 38.5662C34.3389 38.7134 34.7887 38.5045 34.791 38.5164C34.7967 38.5478 34.0907 38.7643 34.0485 38.7783C33.3163 39.0121 32.5624 39.1853 31.8006 39.3087C31.5683 39.3466 31.336 39.3779 31.1037 39.4083C30.6174 39.4732 31.7186 39.3509 31.1356 39.4018C30.8338 39.4288 30.532 39.4591 30.2291 39.4754C29.6825 39.5046 29.1348 39.5046 28.5881 39.4732C28.4071 39.4635 28.2272 39.444 28.0461 39.4321C27.9003 39.4234 27.6578 39.471 28.1156 39.4483C27.8149 39.4635 27.4437 39.3422 27.1544 39.2795C26.8994 39.2243 26.6466 39.1604 26.396 39.0868C26.2594 39.0468 26.1239 39.0035 25.9883 38.9569C25.8506 38.9093 25.477 38.8357 25.9815 38.9667C25.5602 38.8573 24.8496 38.4991 24.5569 38.1874C24.5922 38.2253 24.9338 38.5088 24.6423 38.2372C24.541 38.143 24.4328 38.0553 24.3337 37.9579C24.262 37.8876 24.0832 37.7588 24.057 37.6668C24.0638 37.6906 24.3485 38.0889 24.1242 37.7393C24.0821 37.6733 23.6971 37.1689 23.7416 37.0964C23.7484 37.0856 23.9283 37.6181 23.7985 37.2111C23.7541 37.0726 23.704 36.9394 23.6664 36.7987C23.6368 36.6883 23.6288 36.5552 23.5867 36.4492C23.4762 36.1742 23.6163 36.9968 23.5981 36.5282C23.5901 36.3128 23.573 36.0996 23.5799 35.8831C23.5833 35.763 23.5958 35.6439 23.6015 35.5238C23.6106 35.343 23.7233 35.2488 23.5764 35.6688C23.663 35.422 23.6823 35.1417 23.7564 34.8895C23.819 34.6785 23.8942 34.4739 23.9716 34.2683C24.1435 33.8093 23.7974 34.5973 23.9488 34.317C24.0069 34.2098 24.057 34.0994 24.1151 33.9923C24.2187 33.8018 24.3314 33.6156 24.4521 33.4338C24.5182 33.3342 24.5911 33.239 24.6583 33.1394C24.9008 32.78 24.3531 33.4576 24.6731 33.1167C24.7516 33.0322 25.8301 32.0343 25.8323 32.0408C25.8414 32.0603 25.3689 32.3536 25.7162 32.1317C25.8346 32.056 25.9496 31.9759 26.0692 31.9023C26.2856 31.7681 26.5088 31.6436 26.7354 31.5267C26.9586 31.412 27.1875 31.3102 27.4164 31.2053C27.7591 31.0483 27.2877 31.2615 27.2467 31.2702C27.3719 31.2431 27.4995 31.1739 27.6213 31.1306C28.062 30.9747 28.5118 30.8416 28.9674 30.7301C29.3773 30.6295 29.793 30.5461 30.2097 30.4779C30.343 30.4563 30.9989 30.3654 30.5115 30.4292C30.0196 30.4942 30.6356 30.4195 30.7484 30.4087C31.1447 30.3719 31.5421 30.347 31.9395 30.3448C33.1307 30.3383 34.2729 29.3534 34.2171 28.1801C34.1601 27.0145 33.2138 26.0111 31.9373 26.0176Z" fill="#19B9AA"/>
<path d="M33.3616 6.62803C33.1179 6.81852 32.8697 7.00468 32.6237 7.19301C32.4096 7.35644 32.9426 6.96572 32.5964 7.21141C32.4529 7.31315 32.3106 7.41597 32.1671 7.51662C31.6239 7.89652 31.0716 8.26452 30.5113 8.6206C29.352 9.35767 28.1598 10.046 26.9436 10.6944C25.6602 11.3784 24.3495 12.018 23.0182 12.6144C22.3179 12.9283 21.6119 13.2281 20.9024 13.5214C20.8375 13.5474 20.7726 13.5744 20.7077 13.6004C20.8922 13.5268 20.9104 13.5192 20.7612 13.5788C20.5972 13.6426 20.4332 13.7087 20.2681 13.7725C19.8718 13.9262 19.4744 14.0756 19.0747 14.2228C17.9678 14.6308 17.0784 15.6947 17.4838 16.8853C17.8323 17.9081 19.0963 18.8357 20.2852 18.3973C26.118 16.2456 31.7343 13.4814 36.5821 9.68887C37.5056 8.96587 37.4282 7.36618 36.5821 6.62803C35.6016 5.7719 34.3467 5.85741 33.3616 6.62803Z" fill="#19B9AA"/>
<path d="M2.83192 33.2259C4.7644 33.2897 6.69575 33.3536 8.62823 33.4174C9.14865 33.4348 9.66907 33.4521 10.1883 33.4694C10.4115 33.477 10.6347 33.4813 10.8568 33.4911C10.9627 33.4943 11.0686 33.4997 11.1734 33.5084C11.0777 33.4954 10.9821 33.4835 10.8875 33.4705C10.9912 33.4878 11.0925 33.5127 11.1916 33.5441C10.8568 33.464 10.5983 33.2703 10.4184 32.965C10.3603 32.7605 10.3022 32.557 10.243 32.3524C10.2999 32.0624 10.2954 32.0418 10.2305 32.2907C9.96742 32.8243 10.4138 31.9931 10.1861 32.3838C10.1075 32.5191 10.0392 32.6609 9.96401 32.7973C9.291 34.0236 8.52574 35.2055 7.71608 36.3527C7.29588 36.9491 6.85404 37.5292 6.40422 38.105C6.30174 38.2317 6.33704 38.1895 6.50899 37.9762C6.44294 38.0563 6.37689 38.1353 6.30971 38.2143C6.21291 38.3291 6.11498 38.4427 6.01591 38.5553C5.80296 38.7956 5.58431 39.0304 5.35656 39.2588C4.53779 40.0825 4.43188 41.5133 5.35656 42.3196C6.2448 43.0946 7.70356 43.1996 8.57699 42.3196C9.82621 41.062 10.8978 39.6268 11.8954 38.184C12.8758 36.7662 13.87 35.2801 14.5213 33.6945C15.1169 32.2442 14.6774 30.5287 13.2186 29.7083C12.1698 29.1173 10.916 29.1639 9.74081 29.1249C7.43709 29.0492 5.13336 28.9723 2.82964 28.8965C1.63735 28.8576 0.498586 29.9204 0.552108 31.0612C0.611324 32.268 1.55422 33.1837 2.83192 33.2259Z" fill="#19B9AA"/>
<path d="M7.35267 24.461C8.81257 24.461 10.3465 23.8571 11.3793 22.8765C12.3667 21.9381 13.1103 20.3979 13.0465 19.0494C12.9804 17.6499 12.4965 16.1985 11.3793 15.2222C10.2656 14.2503 8.8957 13.6377 7.35267 13.6377C5.89277 13.6377 4.35886 14.2416 3.326 15.2222C2.33869 16.1606 1.59507 17.7008 1.65884 19.0494C1.72489 20.4488 2.20887 21.9002 3.326 22.8765C4.44085 23.8484 5.80964 24.461 7.35267 24.461Z" fill="#19B9AA"/>
<path d="M50.1973 18.6787C47.7535 21.4311 47.6169 25.597 50.3089 28.2671C52.6741 30.6125 56.9069 31.2175 59.7379 29.2704C62.874 27.1133 64.0413 23.1563 62.0655 19.879C60.1843 16.7597 55.5563 15.2585 52.1833 17.1234C49.9012 18.3854 48.8945 21.6443 51.1026 23.4561C52.2289 24.3804 53.7753 24.6456 55.1179 23.9659C56.5311 23.2505 57.0686 21.7926 56.7953 20.3628C56.5824 19.2458 55.0917 18.5131 53.9939 18.8508C52.7333 19.2383 52.1753 20.3173 52.4031 21.5133C52.2881 20.9083 52.4521 20.3314 53.0863 20.1095C53.2879 20.0392 53.4804 20.024 53.691 20.0608C53.8209 20.0825 54.3117 20.3585 53.9837 20.1388C54.1579 20.2556 54.2536 20.3357 54.3709 20.5208C54.2923 20.3964 54.2194 20.2015 54.3993 20.6529C54.2718 20.3336 54.4085 20.6756 54.4107 20.7557C54.3561 21.0252 54.3504 21.0793 54.3914 20.917C54.4381 20.7654 54.413 20.8055 54.3185 21.0393C54.4882 20.7135 54.3322 20.9776 54.2604 21.0533C54.2946 21.0176 54.4426 20.8358 54.5121 20.8141C54.1135 20.9418 54.4085 20.9354 54.5622 20.8206C54.8025 20.6399 54.208 20.9137 54.5052 20.8325C54.5383 20.8239 55.2739 20.6496 55.2751 20.641C55.2705 20.6734 54.7 20.6756 55.1783 20.6604C55.3502 20.655 55.5187 20.6475 55.6907 20.6518C55.7374 20.6529 56.0255 20.681 56.0312 20.6723C55.9799 20.7405 55.5837 20.589 55.9333 20.6648C56.1849 20.72 56.4309 20.7752 56.6757 20.8553C56.7554 20.8812 57.0743 21.0338 56.801 20.8953C56.5231 20.7546 56.8454 20.9267 56.9137 20.9613C57.039 21.0252 57.162 21.0934 57.2827 21.1659C57.3453 21.2038 57.7052 21.4917 57.4672 21.2817C57.2018 21.049 57.6084 21.4192 57.6232 21.4321C57.7063 21.5101 57.7838 21.5923 57.8646 21.6724C57.9512 21.7579 58.0798 21.9863 57.843 21.6324C57.9067 21.7276 57.9785 21.8185 58.0411 21.9149C58.1037 22.0112 58.163 22.1097 58.2188 22.2093C58.2324 22.2331 58.4363 22.7277 58.3281 22.4138C58.2324 22.1378 58.344 22.4874 58.3657 22.5545C58.418 22.7169 58.4454 22.8868 58.4978 23.0481C58.5946 23.3446 58.483 22.6649 58.4932 22.9766C58.4978 23.113 58.5148 23.2483 58.5148 23.3847C58.5148 23.4875 58.508 23.5892 58.5046 23.6921C58.4966 23.9486 58.3827 23.7927 58.5296 23.5741C58.4374 23.7126 58.4329 24.0103 58.3816 24.1715C58.3714 24.2051 58.2324 24.69 58.3315 24.3469C58.4215 24.0373 58.2848 24.4356 58.245 24.5081C58.1322 24.7159 57.9921 24.901 57.8657 25.1002C57.7063 25.3513 58.139 24.8166 57.925 25.0287C57.8316 25.1218 57.7473 25.2225 57.6528 25.3145C57.5765 25.3881 57.4956 25.4552 57.4193 25.5277C57.2417 25.6955 57.2451 25.5396 57.5059 25.4822C57.3043 25.5266 57.0105 25.7875 56.8226 25.8914C56.4685 26.0873 56.8557 25.8567 56.9263 25.8654C56.875 25.8589 56.6871 25.9487 56.6211 25.9693C56.4958 26.0072 56.3683 26.0396 56.2396 26.0678C56.1348 26.0905 55.8524 26.2117 56.1542 26.0948C56.4662 25.9747 56.1007 26.0959 55.9868 26.1002C55.882 26.1046 55.7761 26.1057 55.6713 26.1046C55.5654 26.1035 55.4618 26.0948 55.3559 26.0905C54.8321 26.0678 55.8444 26.2085 55.3354 26.0862C55.1304 26.0364 54.9243 25.9974 54.7228 25.9346C54.7023 25.9282 54.4529 25.8686 54.4244 25.834C54.5087 25.8675 54.5929 25.9011 54.6761 25.9357C54.6043 25.9043 54.5326 25.8719 54.462 25.8372C54.2741 25.7463 54.0919 25.6446 53.9165 25.5331C53.8949 25.519 53.8732 25.505 53.8505 25.4909C53.65 25.3534 53.6785 25.3751 53.9347 25.5569C53.8527 25.5504 53.6967 25.3556 53.6432 25.3047C53.5487 25.2171 53.4633 25.1229 53.3722 25.0331C53.0863 24.7517 53.5179 25.2755 53.3915 25.0547C53.3255 24.9411 53.2412 24.8361 53.1752 24.7224C53.141 24.664 52.9224 24.257 53.0738 24.5558C53.2332 24.8696 53.026 24.4086 53.0135 24.3728C52.9725 24.2473 52.9372 24.1207 52.9064 23.9929C52.8609 23.8035 52.6957 23.599 52.8893 24.0243C52.8415 23.9183 52.8631 23.7429 52.8586 23.6304C52.8529 23.4983 52.8529 23.3674 52.8586 23.2353C52.862 23.1628 52.8962 22.7028 52.862 23.0513C52.8267 23.4171 52.8962 22.9139 52.9064 22.8716C52.9372 22.7428 52.9736 22.6162 53.0135 22.4907C53.0499 22.377 53.0795 22.2168 53.1501 22.1183C53.0032 22.3229 53.0237 22.3878 53.1649 22.1367C53.2298 22.0209 53.3095 21.9127 53.3756 21.798C53.5942 21.417 53.1 22.0934 53.42 21.733C54.1875 20.8682 54.3788 19.5078 53.42 18.6722C52.5716 17.9405 51.0172 17.7544 50.1973 18.6787Z" fill="#19B9AA"/>
<path d="M61.7049 17.872C59.2611 20.6244 59.1244 24.7903 61.8165 27.4604C64.1817 29.8059 68.4145 30.4109 71.2454 28.4638C74.3816 26.3067 75.5488 22.3497 73.5731 19.0724C71.6918 15.9531 67.0639 14.4519 63.6909 16.3167C61.4088 17.5787 60.4021 20.8376 62.6102 22.6495C63.7364 23.5738 65.2829 23.839 66.6255 23.1592C68.0387 22.4438 68.5762 20.9859 68.3029 19.5562C68.0899 18.4392 66.5993 17.7065 65.5015 18.0441C64.2409 18.4316 63.6829 19.5107 63.9107 20.7067C63.7956 20.1017 63.9596 19.5248 64.5939 19.3029C64.7955 19.2325 64.9879 19.2174 65.1986 19.2542C65.3284 19.2758 65.8192 19.5518 65.4913 19.3321C65.6655 19.449 65.7612 19.5291 65.8784 19.7142C65.7999 19.5897 65.727 19.3949 65.9069 19.8462C65.7794 19.5269 65.9172 19.869 65.9183 19.949C65.8636 20.2185 65.8579 20.2727 65.8989 20.1103C65.9456 19.9588 65.9206 19.9988 65.8261 20.2326C65.9957 19.9068 65.8397 20.1709 65.768 20.2467C65.8021 20.211 65.9502 20.0291 66.0197 20.0075C65.6211 20.1352 65.916 20.1287 66.0698 20.014C66.31 19.8332 65.7156 20.1071 66.0128 20.0259C66.0458 20.0172 66.7815 19.843 66.7826 19.8343C66.7781 19.8668 66.2075 19.869 66.6858 19.8538C66.8578 19.8484 67.0263 19.8408 67.1983 19.8451C67.245 19.8462 67.5331 19.8744 67.5388 19.8657C67.4875 19.9339 67.0912 19.7824 67.4408 19.8581C67.6925 19.9133 67.9385 19.9685 68.1833 20.0486C68.263 20.0746 68.5819 20.2272 68.3086 20.0887C68.0307 19.948 68.353 20.1201 68.4213 20.1547C68.5466 20.2185 68.6696 20.2867 68.7903 20.3592C68.8529 20.3971 69.2128 20.685 68.9747 20.4751C68.7094 20.2424 69.116 20.6125 69.1308 20.6255C69.2139 20.7034 69.2913 20.7857 69.3722 20.8658C69.4587 20.9513 69.5874 21.1797 69.3505 20.8257C69.4143 20.921 69.4861 21.0119 69.5487 21.1082C69.6113 21.2046 69.6705 21.303 69.7263 21.4026C69.74 21.4264 69.9438 21.9211 69.8357 21.6072C69.74 21.3312 69.8516 21.6808 69.8732 21.7479C69.9256 21.9102 69.9529 22.0802 70.0053 22.2414C70.1021 22.538 69.9905 21.8583 70.0008 22.17C70.0053 22.3064 70.0224 22.4417 70.0224 22.578C70.0224 22.6809 70.0156 22.7826 70.0122 22.8854C70.0042 23.1419 69.8903 22.9861 70.0372 22.7674C69.945 22.906 69.9404 23.2036 69.8892 23.3649C69.8789 23.3984 69.74 23.8833 69.8391 23.5402C69.929 23.2307 69.7924 23.629 69.7525 23.7015C69.6398 23.9093 69.4997 24.0944 69.3733 24.2935C69.2139 24.5446 69.6466 24.01 69.4325 24.2221C69.3392 24.3152 69.2549 24.4158 69.1604 24.5078C69.0841 24.5814 69.0032 24.6485 68.9269 24.7211C68.7493 24.8888 68.7527 24.733 69.0135 24.6756C68.8119 24.72 68.5181 24.9808 68.3302 25.0847C67.976 25.2806 68.3632 25.0501 68.4338 25.0587C68.3826 25.0522 68.1947 25.1421 68.1286 25.1626C68.0034 25.2005 67.8758 25.233 67.7472 25.2611C67.6424 25.2839 67.36 25.4051 67.6617 25.2882C67.9738 25.1681 67.6082 25.2893 67.4944 25.2936C67.3896 25.2979 67.2837 25.299 67.1789 25.2979C67.073 25.2969 66.9694 25.2882 66.8635 25.2839C66.3396 25.2611 67.352 25.4018 66.843 25.2795C66.638 25.2297 66.4319 25.1908 66.2303 25.128C66.2098 25.1215 65.9604 25.062 65.932 25.0274C66.0162 25.0609 66.1005 25.0945 66.1836 25.1291C66.1119 25.0977 66.0401 25.0652 65.9695 25.0306C65.7817 24.9397 65.5994 24.8379 65.4241 24.7265C65.4024 24.7124 65.3808 24.6983 65.358 24.6843C65.1576 24.5468 65.1861 24.5684 65.4423 24.7503C65.3603 24.7438 65.2043 24.549 65.1508 24.4981C65.0563 24.4104 64.9708 24.3163 64.8797 24.2264C64.5939 23.945 65.0255 24.4689 64.8991 24.2481C64.8331 24.1344 64.7488 24.0294 64.6827 23.9158C64.6486 23.8574 64.4299 23.4504 64.5814 23.7491C64.7408 24.063 64.5336 23.6019 64.521 23.5662C64.48 23.4407 64.4447 23.314 64.414 23.1863C64.3684 22.9969 64.2033 22.7923 64.3969 23.2177C64.3491 23.1116 64.3707 22.9363 64.3662 22.8237C64.3605 22.6917 64.3605 22.5607 64.3662 22.4287C64.3696 22.3562 64.4037 21.8962 64.3696 22.2447C64.3343 22.6105 64.4037 22.1072 64.414 22.065C64.4447 21.9362 64.4812 21.8096 64.521 21.684C64.5575 21.5704 64.5871 21.4102 64.6577 21.3117C64.5108 21.5163 64.5313 21.5812 64.6725 21.3301C64.7374 21.2143 64.8171 21.1061 64.8832 20.9913C65.1018 20.6104 64.6076 21.2868 64.9276 20.9264C65.6951 20.0616 65.8864 18.7011 64.9276 17.8656C64.0803 17.1339 62.5259 16.9477 61.7049 17.872Z" fill="#19B9AA"/>
</svg>
