<svg width="100" height="100" viewBox="0 0 100 100" fill="none" xmlns="http://www.w3.org/2000/svg">
<circle cx="50" cy="50" r="50" fill="#FF9D46"/>
<path d="M16.0164 54.729H18.2261V65.896H16.0164V54.729Z" fill="white"/>
<path d="M19.5077 62.0699C19.5063 61.2678 19.7357 60.4833 20.167 59.8156C20.5983 59.1479 21.2121 58.6272 21.9307 58.3192C22.6492 58.0112 23.4403 57.9298 24.2037 58.0854C24.9672 58.241 25.6687 58.6264 26.2195 59.1931C26.7703 59.7597 27.1457 60.4821 27.298 61.2686C27.4504 62.0552 27.3729 62.8707 27.0755 63.6119C26.778 64.353 26.2738 64.9866 25.6268 65.4324C24.9799 65.8782 24.2192 66.1161 23.441 66.1161C22.9234 66.1222 22.4099 66.0218 21.9305 65.8207C21.4511 65.6196 21.0155 65.3219 20.6492 64.945C20.2829 64.5682 19.9932 64.1198 19.7972 63.626C19.6012 63.1323 19.5028 62.6033 19.5077 62.0699ZM25.1497 62.0699C25.1411 61.7236 25.0335 61.3877 24.8405 61.1041C24.6475 60.8205 24.3777 60.6019 24.0648 60.4755C23.7519 60.3492 23.4098 60.3208 23.0813 60.3938C22.7528 60.4668 22.4525 60.638 22.2178 60.886C21.9833 61.134 21.8249 61.4479 21.7624 61.7883C21.7 62.1286 21.7363 62.4804 21.8668 62.7995C21.9974 63.1187 22.2164 63.3911 22.4963 63.5827C22.7763 63.7743 23.1049 63.8765 23.441 63.8766C23.6708 63.8833 23.8996 63.8408 24.1128 63.7517C24.326 63.6626 24.5189 63.529 24.6795 63.3592C24.8401 63.1894 24.9648 62.9872 25.0457 62.7654C25.1266 62.5434 25.162 62.3066 25.1497 62.0699Z" fill="white"/>
<path d="M36.257 58.2438V65.5164C36.257 68.0899 34.3051 69.1755 32.3312 69.1755C31.637 69.2287 30.9421 69.084 30.3224 68.7573C29.7026 68.4306 29.1822 67.9344 28.8178 67.3232L30.7181 66.1921C30.8689 66.5053 31.1075 66.7647 31.403 66.9366C31.6984 67.1085 32.0372 67.185 32.3754 67.1561C32.5979 67.1944 32.8259 67.1794 33.042 67.1124C33.258 67.0454 33.4562 66.9282 33.6214 66.7698C33.7864 66.6113 33.914 66.4159 33.9943 66.1986C34.0745 65.9813 34.1053 65.7479 34.0841 65.5164V64.8104C33.8244 65.1398 33.4929 65.4015 33.1167 65.5743C32.7405 65.747 32.3301 65.826 31.9187 65.8049C30.9185 65.8049 29.9593 65.3954 29.252 64.6665C28.5448 63.9375 28.1475 62.9489 28.1475 61.918C28.1475 60.8871 28.5448 59.8986 29.252 59.1697C29.9593 58.4407 30.9185 58.0312 31.9187 58.0312C32.3298 58.0118 32.7397 58.0917 33.1156 58.2643C33.4916 58.437 33.8232 58.6977 34.0841 59.0257V58.2665L36.257 58.2438ZM34.0841 61.918C34.0989 61.5489 34.0061 61.1836 33.8178 60.8691C33.6294 60.5546 33.3541 60.3054 33.0273 60.1536C32.7005 60.0016 32.337 59.954 31.9837 60.0167C31.6303 60.0793 31.3033 60.2495 31.0446 60.5052C30.7858 60.761 30.6071 61.0907 30.5316 61.4519C30.4561 61.8131 30.4871 62.1894 30.6207 62.5323C30.7543 62.8752 30.9843 63.1691 31.2813 63.3762C31.5782 63.5833 31.9285 63.6941 32.2869 63.6944C32.521 63.7115 32.7559 63.6779 32.9765 63.5956C33.1971 63.5134 33.3986 63.3845 33.5679 63.2172C33.7372 63.0498 33.8707 62.8477 33.9596 62.6239C34.0485 62.4002 34.0909 62.1598 34.0841 61.918Z" fill="white"/>
<path d="M37.5313 62.0699C37.5298 61.2678 37.7593 60.4833 38.1905 59.8156C38.6219 59.1479 39.2357 58.6272 39.9542 58.3192C40.6727 58.0112 41.4638 57.9298 42.2273 58.0854C42.9907 58.241 43.6923 58.6264 44.2431 59.1931C44.7939 59.7597 45.1692 60.4821 45.3216 61.2686C45.4739 62.0552 45.3965 62.8707 45.099 63.6119C44.8015 64.353 44.2974 64.9866 43.6505 65.4324C43.0034 65.8782 42.2427 66.1161 41.4645 66.1161C40.947 66.1222 40.4334 66.0218 39.954 65.8207C39.4746 65.6196 39.039 65.3219 38.6727 64.945C38.3064 64.5682 38.0167 64.1198 37.8207 63.626C37.6247 63.1323 37.5263 62.6033 37.5313 62.0699ZM43.1733 62.0699C43.1646 61.7236 43.057 61.3877 42.8641 61.1041C42.6711 60.8205 42.4013 60.6019 42.0883 60.4755C41.7755 60.3492 41.4334 60.3208 41.1048 60.3938C40.7763 60.4668 40.476 60.638 40.2414 60.886C40.0068 61.134 39.8484 61.4479 39.7859 61.7883C39.7235 62.1286 39.7599 62.4804 39.8904 62.7995C40.021 63.1187 40.2399 63.3911 40.5198 63.5827C40.7999 63.7743 41.1284 63.8765 41.4645 63.8766C41.6932 63.8811 41.9203 63.8371 42.1318 63.747C42.3432 63.657 42.5344 63.523 42.6933 63.3535C42.8523 63.184 42.9756 62.9825 43.0557 62.7617C43.1357 62.5408 43.1708 62.3053 43.1586 62.0699H43.1733Z" fill="white"/>
<path d="M46.4216 56.1941C46.4216 55.9208 46.5002 55.6537 46.6474 55.4265C46.7948 55.1993 47.0041 55.0222 47.2491 54.9176C47.4941 54.813 47.7635 54.7857 48.0236 54.839C48.2837 54.8923 48.5225 55.0239 48.71 55.2171C48.8975 55.4104 49.0251 55.6565 49.0768 55.9245C49.1286 56.1926 49.102 56.4704 49.0006 56.7228C48.8991 56.9753 48.7273 57.1911 48.5069 57.3429C48.2864 57.4947 48.0273 57.5757 47.7621 57.5757C47.4072 57.5738 47.0673 57.4276 46.8163 57.1689C46.5653 56.9102 46.4235 56.56 46.4216 56.1941ZM46.6499 58.2438H48.8595V65.896H46.6499V58.2438Z" fill="white"/>
<path d="M58.4936 62.0699C58.5204 62.5757 58.4499 63.082 58.2861 63.5596C58.1222 64.0372 57.8684 64.4767 57.5391 64.8528C57.2097 65.2289 56.8115 65.5341 56.3673 65.751C55.9231 65.9678 55.4417 66.0919 54.9508 66.1162C54.5386 66.1365 54.1271 66.0635 53.7454 65.9022C53.3636 65.7408 53.0207 65.4951 52.7411 65.1824V68.9781H50.5315V58.2438H52.7411V58.965C53.0207 58.6522 53.3636 58.4066 53.7454 58.2452C54.1271 58.0839 54.5386 58.0109 54.9508 58.0312C55.4411 58.0555 55.9219 58.1794 56.3655 58.3957C56.8093 58.6121 57.2072 58.9167 57.5363 59.2919C57.8656 59.6672 58.1195 60.1057 58.2838 60.5825C58.4481 61.0592 58.5194 61.5647 58.4936 62.0699ZM56.284 62.0699C56.2752 61.7136 56.1652 61.3677 55.9677 61.0752C55.7701 60.7827 55.4937 60.5563 55.1725 60.4241C54.8514 60.2918 54.4996 60.2596 54.161 60.3314C53.8222 60.4031 53.5113 60.5757 53.2668 60.8277C53.0222 61.0798 52.8548 61.4001 52.7852 61.7493C52.7156 62.0984 52.7469 62.4609 52.8751 62.7919C53.0034 63.1229 53.2231 63.4078 53.5069 63.6114C53.7908 63.815 54.1263 63.9284 54.472 63.9374C54.7133 63.9532 54.955 63.9156 55.181 63.8272C55.407 63.7387 55.612 63.6013 55.7823 63.4245C55.9525 63.2475 56.084 63.0351 56.168 62.8015C56.252 62.5679 56.2865 62.3184 56.2692 62.0699H56.284Z" fill="white"/>
<path d="M65.3731 63.6034C65.3731 65.3646 63.9 66.1161 62.2796 66.1161C61.6323 66.1752 60.9826 66.0332 60.4142 65.7085C59.8459 65.3838 59.3848 64.8912 59.0903 64.2942L61.0201 63.1631C61.0984 63.4392 61.2661 63.6794 61.4952 63.8437C61.7244 64.0081 62.0011 64.0867 62.2796 64.0664C62.8173 64.0664 63.0824 63.8918 63.0824 63.5882C63.0824 62.7455 59.3997 63.1934 59.3997 60.5516C59.3997 58.8814 60.7697 58.0388 62.3459 58.0388C62.9275 58.0206 63.5033 58.163 64.0136 58.4514C64.5239 58.7396 64.95 59.1634 65.2479 59.6785L63.3108 60.7262C63.2253 60.5257 63.085 60.3551 62.9072 60.2352C62.7293 60.1152 62.5216 60.0511 62.3091 60.0505C61.9261 60.0505 61.6904 60.2024 61.6904 60.4833C61.7199 61.3562 65.3731 60.7717 65.3731 63.6034Z" fill="white"/>
<path d="M73.5047 58.2438V65.896H71.295V65.1824C71.038 65.4995 70.7118 65.7493 70.3431 65.9117C69.9744 66.074 69.5737 66.144 69.1737 66.1162C67.7006 66.1162 66.3969 65.0154 66.3969 62.9429V58.2438H68.6066V62.6089C68.5871 62.7949 68.6082 62.9831 68.6681 63.1597C68.728 63.3363 68.8253 63.4969 68.9529 63.63C69.0806 63.763 69.2354 63.865 69.4061 63.9287C69.5767 63.9925 69.7591 64.0161 69.9397 63.9982C70.75 63.9982 71.3171 63.5123 71.3171 62.4267V58.2438H73.5047Z" fill="white"/>
<path d="M86.2766 61.2044V65.8959H84.0669V61.4018C84.0669 60.6427 83.7059 60.1416 82.9989 60.1416C82.2918 60.1416 81.8351 60.6806 81.8351 61.584V65.8959H79.6255V61.4018C79.6255 60.6427 79.2719 60.1416 78.5574 60.1416C77.843 60.1416 77.4011 60.6806 77.4011 61.584V65.8959H75.1914V58.2438H77.4011V58.9498C77.632 58.6379 77.9349 58.3906 78.2822 58.2302C78.6296 58.0697 79.0103 58.0013 79.3897 58.0312C79.7708 58.0121 80.1503 58.0951 80.491 58.272C80.8318 58.4489 81.1223 58.7138 81.3343 59.0409C81.5808 58.699 81.9073 58.427 82.2835 58.2504C82.6596 58.0739 83.073 57.9984 83.485 58.0312C85.1644 58.0312 86.2766 59.2914 86.2766 61.2044Z" fill="white"/>
<path d="M88.1623 58.1983C89.0734 58.1983 89.8121 57.4369 89.8121 56.4977C89.8121 55.5586 89.0734 54.7973 88.1623 54.7973C87.2511 54.7973 86.5123 55.5586 86.5123 56.4977C86.5123 57.4369 87.2511 58.1983 88.1623 58.1983Z" fill="white"/>
<path d="M41.0226 48.9367C45.2898 48.9367 48.749 45.3713 48.749 40.9732C48.749 36.5751 45.2898 33.0098 41.0226 33.0098C36.7553 33.0098 33.296 36.5751 33.296 40.9732C33.296 45.3713 36.7553 48.9367 41.0226 48.9367Z" fill="white"/>
<path d="M58.2948 48.9367C62.562 48.9367 66.0212 45.3713 66.0212 40.9732C66.0212 36.5751 62.562 33.0098 58.2948 33.0098C54.0276 33.0098 50.5683 36.5751 50.5683 40.9732C50.5683 45.3713 54.0276 48.9367 58.2948 48.9367Z" fill="white"/>
<path d="M31.4768 33.0098H16.0312V48.9291H31.4768V33.0098Z" fill="white"/>
</svg>
