<svg width="169" height="46" viewBox="0 0 169 46" fill="none" xmlns="http://www.w3.org/2000/svg">
<path d="M105.597 17.6275C109.947 18.8183 114.477 19.4137 118.989 19.3764C120.18 19.3662 121.323 18.3418 121.267 17.1125C121.212 15.8945 120.266 14.8384 118.989 14.8486C116.87 14.8656 114.754 14.7456 112.652 14.4773C113.117 14.5362 112.371 14.4355 112.281 14.4219C112.028 14.3845 111.775 14.3438 111.523 14.3019C111.019 14.2181 110.516 14.1253 110.013 14.0246C108.936 13.8084 107.868 13.5503 106.808 13.2605C105.66 12.947 104.28 13.6499 104.007 14.8418C103.732 16.0394 104.369 17.2913 105.597 17.6275Z" fill="#19B9AA"/>
<path d="M110.434 12.614C110.143 16.4263 109.853 20.2387 109.562 24.051C109.472 25.235 110.674 26.367 111.84 26.3149C113.151 26.256 114.021 25.3188 114.117 24.051C114.408 20.2387 114.698 16.4263 114.989 12.614C115.079 11.43 113.877 10.298 112.711 10.3501C111.4 10.4078 110.53 11.3451 110.434 12.614Z" fill="#19B9AA"/>
<path d="M102.531 24.4855C107.833 26.7641 113.58 27.8406 119.357 27.3991C120.543 27.3086 121.693 26.4234 121.635 25.1353C121.584 23.9863 120.629 22.774 119.357 22.8714C118.075 22.9699 116.788 22.9993 115.504 22.9495C114.844 22.9235 114.185 22.8793 113.528 22.8137C113.355 22.7967 113.182 22.7774 113.01 22.7582C112.965 22.7537 112.535 22.7027 112.796 22.7344C113.094 22.7706 112.535 22.6971 112.479 22.688C112.307 22.662 112.135 22.6348 111.964 22.6065C110.696 22.396 109.44 22.1119 108.205 21.7553C107.605 21.5821 107.008 21.3908 106.42 21.1837C106.092 21.0682 105.766 20.9482 105.443 20.8226C105.313 20.7728 105.184 20.7207 105.056 20.6698C104.417 20.4162 105.462 20.8475 104.831 20.577C104.247 20.3257 103.717 20.1729 103.076 20.3483C102.548 20.4932 101.975 20.8984 101.716 21.3886C101.195 22.3643 101.364 23.9841 102.531 24.4855Z" fill="#19B9AA"/>
<path d="M109.108 26.2848C108.7 30.5477 108.312 34.8128 107.903 39.0757C107.79 40.2585 109.032 41.3905 110.181 41.3395C111.512 41.2807 112.337 40.3423 112.458 39.0757C112.866 34.8128 113.254 30.5477 113.663 26.2848C113.776 25.1019 112.535 23.97 111.385 24.0209C110.055 24.0809 109.23 25.0182 109.108 26.2848Z" fill="#19B9AA"/>
<path d="M111.441 33.5153C113.988 34.3801 116.68 34.5624 119.314 34.0168C120.482 33.7745 121.267 32.3449 120.904 31.2322C120.505 30.0041 119.355 29.3917 118.103 29.6509C118.01 29.6701 117.167 29.8082 117.705 29.7392C117.434 29.7743 117.16 29.7958 116.888 29.8082C116.404 29.8309 115.918 29.8241 115.435 29.7879C115.295 29.7777 115.155 29.7641 115.016 29.7494C115.271 29.7879 115.262 29.7856 114.99 29.7448C114.778 29.7075 114.566 29.6713 114.354 29.626C113.777 29.5037 113.212 29.3396 112.653 29.1495C111.524 28.7669 110.114 29.5875 109.852 30.7308C109.562 31.9872 110.232 33.1044 111.441 33.5153Z" fill="#19B9AA"/>
<path d="M101.292 30.6955C101.263 31.1721 101.225 31.6486 101.173 32.1229C101.163 32.2146 101.046 33.0624 101.125 32.5361C101.094 32.7387 101.065 32.9413 101.031 33.1428C100.868 34.1185 100.655 35.0863 100.394 36.0405C100.141 36.9619 99.8439 37.8709 99.5023 38.764C99.4169 38.9869 99.3269 39.2088 99.2381 39.4307C99.1367 39.674 99.1333 39.6831 99.2279 39.4556C99.1869 39.5495 99.1459 39.6435 99.1037 39.7363C98.8931 40.2038 98.6699 40.6645 98.4364 41.1206C97.8978 42.1756 98.1221 43.6245 99.2529 44.2176C100.291 44.7632 101.792 44.5323 102.369 43.4049C104.399 39.4318 105.572 35.144 105.847 30.6955C105.922 29.5115 104.747 28.3796 103.57 28.4317C102.274 28.4894 101.372 29.4266 101.292 30.6955Z" fill="#19B9AA"/>
<path d="M102.749 38.634C107.845 43.1821 114.686 45.1336 121.434 44.1307C122.616 43.9552 123.372 42.4124 123.025 41.3461C122.607 40.0637 121.49 39.5769 120.223 39.7648C119.686 39.8452 120.606 39.7286 120.111 39.7807C119.931 39.7999 119.751 39.8192 119.57 39.835C119.209 39.8667 118.847 39.8871 118.485 39.8984C117.79 39.9199 117.095 39.9041 116.403 39.852C116.222 39.8384 116.042 39.8226 115.862 39.8044C115.794 39.7977 115.195 39.7275 115.535 39.7705C115.879 39.8146 115.368 39.7433 115.299 39.7331C115.121 39.7048 114.942 39.6731 114.764 39.6403C114.051 39.5067 113.346 39.3358 112.651 39.1287C112.303 39.0257 111.958 38.9125 111.618 38.7902C111.475 38.7393 111.334 38.6872 111.193 38.6329C111.133 38.6091 110.583 38.3918 110.876 38.5118C111.17 38.6318 110.627 38.4008 110.567 38.3737C110.429 38.3114 110.292 38.248 110.157 38.1824C109.831 38.025 109.509 37.8598 109.191 37.6855C108.557 37.338 107.942 36.9554 107.349 36.5411C107.201 36.4369 107.056 36.3294 106.909 36.2241C106.521 35.9445 107.197 36.472 106.797 36.1358C106.52 35.9027 106.242 35.674 105.971 35.4329C105.085 34.6417 103.612 34.4991 102.75 35.4329C101.952 36.2954 101.803 37.7885 102.749 38.634Z" fill="#19B9AA"/>
<path d="M123.414 22.3091C128.412 22.6668 133.408 23.0245 138.407 23.3822C139.598 23.4671 140.736 22.2797 140.684 21.1183C140.626 19.8189 139.682 18.9462 138.407 18.8545C133.408 18.4968 128.412 18.1391 123.414 17.7814C122.222 17.6965 121.084 18.8839 121.136 20.0453C121.194 21.3447 122.137 22.2186 123.414 22.3091Z" fill="#19B9AA"/>
<path d="M124.886 22.7831C124.603 26.4958 124.32 30.2074 124.037 33.9201C123.948 35.1041 125.149 36.2361 126.315 36.184C127.626 36.1252 128.496 35.1879 128.593 33.9201C128.875 30.2074 129.158 26.4958 129.441 22.7831C129.531 21.5991 128.329 20.4671 127.163 20.5192C125.853 20.578 124.983 21.5153 124.886 22.7831Z" fill="#19B9AA"/>
<path d="M130.711 22.4868C130.212 29.0419 129.712 35.5969 129.213 42.1519C129.112 43.4853 130.466 44.7599 131.779 44.7022C133.256 44.6365 134.235 43.5804 134.345 42.1519C134.843 35.5969 135.343 29.0419 135.842 22.4868C135.943 21.1534 134.589 19.8789 133.276 19.9366C131.8 20.0022 130.819 21.0583 130.711 22.4868Z" fill="#19B9AA"/>
<path d="M122.975 38.0513C125.524 38.2426 128.072 38.435 130.621 38.6263C131.812 38.7157 132.951 37.5215 132.898 36.3624C132.839 35.0596 131.896 34.1948 130.621 34.0986C128.072 33.9073 125.524 33.7148 122.975 33.5235C121.784 33.4341 120.645 34.6283 120.698 35.7874C120.757 37.0903 121.7 37.955 122.975 38.0513Z" fill="#19B9AA"/>
<path d="M139.499 32.049C141.485 32.1803 143.483 32.3875 145.472 32.4429C145.742 32.4678 145.767 32.4644 145.547 32.4339C145.35 32.3988 145.352 32.4022 145.553 32.4452C144.09 31.7411 144.446 30.2583 144.328 31.4321C144.265 32.0433 144.402 31.1186 144.31 31.5804C144.278 31.7422 144.248 31.9041 144.211 32.0648C144.125 32.4316 144.017 32.7938 143.885 33.1458C143.858 33.2206 143.829 33.2953 143.798 33.3688C143.735 33.5262 143.76 33.4673 143.872 33.1923C143.873 33.327 143.692 33.5669 143.63 33.6869C143.471 33.9869 143.296 34.2778 143.107 34.5585C143.041 34.6558 142.942 34.8754 142.836 34.94C143.034 34.6887 143.057 34.6592 142.903 34.8505C142.837 34.9309 142.77 35.0101 142.702 35.0894C142.253 35.6044 141.753 36.0583 141.23 36.4952C140.85 36.8122 141.567 36.2666 141.189 36.5235C141.015 36.6424 140.845 36.7658 140.668 36.8812C140.403 37.0544 140.131 37.2174 139.855 37.3725C139.532 37.5525 139.202 37.72 138.867 37.8751C138.758 37.926 138.291 38.1875 138.832 37.9C138.651 37.9962 138.438 38.0573 138.245 38.1286C137.132 38.5418 136.252 39.6782 136.654 40.9132C137.006 41.9953 138.26 42.9382 139.455 42.4945C142.365 41.4135 144.911 39.728 146.768 37.2265C147.648 36.0413 148.299 34.6275 148.62 33.1889C148.828 32.2539 149.04 31.1627 148.842 30.2107C148.528 28.7064 147.168 28.0657 145.772 27.9356C143.688 27.742 141.588 27.6582 139.499 27.5213C138.308 27.4432 137.17 28.6181 137.222 29.7851C137.28 31.0789 138.223 31.9652 139.499 32.049Z" fill="#19B9AA"/>
<path d="M126.412 24.183L126.223 26.666L132.128 27.1104L132.317 24.6274L126.412 24.183Z" fill="#19B9AA"/>
<path d="M126.039 29.088L125.85 31.571L131.755 32.0154L131.944 29.5324L126.039 29.088Z" fill="#19B9AA"/>
<path d="M137.221 29.7832C136.996 33.5627 139.131 36.9008 142.086 39.0922C145.09 41.3199 148.924 42.0047 152.554 41.2056C156.476 40.3419 160.034 37.9128 162.863 35.1531C165.728 32.3572 168.58 28.6151 168.371 24.4088C168.247 21.905 167.153 19.5517 165.02 18.1368C163.042 16.8248 160.305 16.6788 158.256 17.8956C157.233 18.5024 156.767 19.9592 157.438 20.9926C158.102 22.0159 159.459 22.4539 160.554 21.8042C160.618 21.7657 160.697 21.7318 160.759 21.6865C160.944 21.5518 160.607 21.7488 160.568 21.751C160.724 21.7442 160.933 21.6276 161.087 21.5925C161.15 21.5778 161.257 21.5767 161.314 21.5473C161.289 21.5597 160.855 21.571 161.096 21.5858C161.276 21.5971 161.461 21.5824 161.642 21.588C162.069 21.6027 161.246 21.4873 161.66 21.5959C161.838 21.6423 162.017 21.7046 162.195 21.7454C162.427 21.7997 162.042 21.6831 162.021 21.6616C162.065 21.7046 162.181 21.7363 162.238 21.7646C162.405 21.8484 162.561 21.9468 162.72 22.0431C162.771 22.0736 162.984 22.2411 162.746 22.0532C162.493 21.854 162.76 22.0759 162.82 22.1302C162.938 22.24 163.039 22.3634 163.153 22.4755C163.349 22.6679 163.044 22.3521 163.063 22.3521C163.086 22.3509 163.193 22.5411 163.207 22.5626C163.315 22.729 163.406 22.9033 163.502 23.0776C163.677 23.3957 163.469 23.0029 163.479 23.0029C163.493 23.0029 163.559 23.2237 163.566 23.2429C163.62 23.4048 163.668 23.5689 163.709 23.7342C163.75 23.9006 163.777 24.0692 163.813 24.2379C163.869 24.5039 163.789 24.0636 163.788 24.0624C163.845 24.1586 163.813 24.3862 163.816 24.4926C163.829 24.8401 163.802 25.1808 163.78 25.5271C163.761 25.7988 163.791 25.3528 163.804 25.3528C163.799 25.3528 163.76 25.5883 163.757 25.6064C163.707 25.8565 163.643 26.1033 163.57 26.3467C163.514 26.5323 163.453 26.7157 163.386 26.8968C163.353 26.9873 163.316 27.0768 163.281 27.1673C163.293 27.1345 163.438 26.8425 163.318 27.0711C163.107 27.4741 162.914 27.8804 162.678 28.271C162.476 28.6049 162.259 28.9309 162.032 29.2489C161.952 29.3599 161.591 29.833 161.859 29.4934C161.723 29.6655 161.585 29.8342 161.445 30.0017C160.937 30.6095 160.401 31.1925 159.84 31.7516C159.259 32.3312 158.651 32.8836 158.016 33.4065C157.868 33.5288 157.717 33.6454 157.569 33.7665C157.305 33.9827 157.851 33.5627 157.573 33.7631C157.496 33.8197 157.42 33.8774 157.342 33.934C157.007 34.1796 156.666 34.4151 156.317 34.6415C155.628 35.0897 154.913 35.5006 154.173 35.8617C153.976 35.9579 153.778 36.0485 153.579 36.1379C153.176 36.3213 153.849 36.0417 153.435 36.1956C153.033 36.3462 152.63 36.4899 152.218 36.611C151.87 36.7129 151.519 36.8012 151.163 36.8736C150.987 36.9099 150.81 36.9393 150.634 36.971C150.58 36.9801 150.281 37.0106 150.583 36.98C150.931 36.945 150.423 36.9914 150.354 36.997C150.015 37.0242 149.676 37.0366 149.337 37.031C149.182 37.0276 149.028 37.0208 148.873 37.0106C148.77 37.0038 148.667 36.9925 148.565 36.9846C148.25 36.9585 148.595 36.9676 148.708 37.0072C148.426 36.9087 148.084 36.8974 147.79 36.8261C147.435 36.7389 147.084 36.6325 146.74 36.5092C146.599 36.4582 146.445 36.3688 146.3 36.3405C146.308 36.3416 146.707 36.525 146.482 36.4141C146.411 36.379 146.338 36.3484 146.267 36.3156C145.934 36.1583 145.61 35.9839 145.295 35.7938C145.138 35.6987 144.983 35.6002 144.831 35.4983C144.741 35.4384 144.236 35.0671 144.488 35.2629C144.74 35.4587 144.306 35.1078 144.233 35.0456C144.095 34.9267 143.961 34.8033 143.83 34.6777C143.55 34.4083 143.291 34.1219 143.039 33.8276C142.998 33.7801 142.847 33.5661 143.026 33.8152C143.217 34.0812 143.012 33.7891 142.974 33.7371C142.871 33.5922 142.772 33.4439 142.677 33.2922C142.475 32.9685 142.308 32.6312 142.137 32.2893C142.027 32.0663 142.218 32.4784 142.218 32.4817C142.209 32.3935 142.142 32.2837 142.111 32.1988C142.043 32.0086 141.984 31.8162 141.93 31.6215C141.884 31.4506 141.844 31.2774 141.811 31.1042C141.708 30.5812 141.819 31.4177 141.791 31.0261C141.762 30.6084 141.748 30.2009 141.773 29.7821C141.844 28.5981 140.675 27.4661 139.496 27.5182C138.204 27.5771 137.297 28.5143 137.221 29.7832Z" fill="#19B9AA"/>
<path d="M148.197 6.56081C148.062 7.81499 147.928 9.07031 147.793 10.3245C147.667 11.5062 148.931 12.6393 150.071 12.5884C151.412 12.5284 152.213 11.59 152.348 10.3245C152.483 9.07031 152.617 7.81499 152.752 6.56081C152.878 5.37907 151.614 4.24601 150.474 4.29694C149.133 4.35694 148.332 5.29531 148.197 6.56081Z" fill="#19B9AA"/>
<path d="M156.395 8.90302C155.56 9.78593 154.725 10.6688 153.892 11.5517C153.075 12.4154 152.966 13.9084 153.892 14.7529C154.778 15.5611 156.241 15.6743 157.112 14.7529C157.947 13.8699 158.782 12.987 159.615 12.1041C160.432 11.2405 160.541 9.74745 159.615 8.90302C158.73 8.09482 157.266 7.9805 156.395 8.90302Z" fill="#19B9AA"/>
<path d="M65.6333 0.7445C64.3271 1.46667 62.989 2.12093 61.6191 2.71406C61.0008 2.98233 62.037 2.5488 61.413 2.80009C61.224 2.87593 61.0361 2.9529 60.8459 3.02648C60.5304 3.14986 60.2127 3.26984 59.895 3.38643C59.1628 3.6547 58.4226 3.9026 57.6778 4.13238C56.251 4.57044 54.8025 4.93718 53.3391 5.23148C52.6069 5.37864 51.8724 5.50654 51.1334 5.61634C50.966 5.64125 50.7974 5.66502 50.63 5.68879C51.155 5.61747 50.482 5.70463 50.4273 5.71029C50.0231 5.75783 49.6177 5.79858 49.2123 5.83594C48.0291 5.9446 46.8766 6.79921 46.9347 8.0998C46.986 9.23287 47.9414 10.4803 49.2123 10.3637C55.7898 9.75809 62.1532 7.84852 67.9324 4.6542C68.9744 4.07804 69.406 2.56918 68.7501 1.55723C68.0691 0.507926 66.7481 0.128728 65.6333 0.7445Z" fill="#19B9AA"/>
<path d="M51.3785 16.3613C57.3 16.6159 63.307 15.5791 68.7777 13.305C69.3505 13.0673 69.8117 12.8206 70.1385 12.2648C70.4243 11.7792 70.545 11.0649 70.3685 10.5205C70.028 9.47457 68.7435 8.45017 67.5672 8.93917C64.9526 10.0258 62.2286 10.834 59.4398 11.3366C59.0959 11.3989 58.7508 11.4555 58.4058 11.5087C58.2327 11.5347 58.0596 11.5596 57.8865 11.5845C58.2225 11.537 57.9457 11.5754 57.7635 11.5981C57.0689 11.6807 56.3731 11.7452 55.675 11.7916C54.2447 11.8856 52.8099 11.8969 51.3785 11.8347C50.1862 11.7837 49.0474 12.9123 49.1009 14.0985C49.1579 15.3674 50.1019 16.3069 51.3785 16.3613Z" fill="#19B9AA"/>
<path d="M56.2936 8.56082C57.634 12.063 58.6702 15.6694 59.3956 19.3459C59.6257 20.5106 61.0878 21.2838 62.197 20.9272C63.444 20.5265 64.0338 19.39 63.7879 18.1426C63.0625 14.4661 62.025 10.8598 60.6859 7.35757C60.2634 6.25394 59.1314 5.37556 57.8845 5.77626C56.8015 6.1249 55.8404 7.37568 56.2936 8.56082Z" fill="#19B9AA"/>
<path d="M60.1286 29.1811C60.2333 29.6769 60.3301 30.1749 60.4155 30.6741C60.452 30.888 60.4861 31.1031 60.5192 31.317C60.5408 31.4597 60.5613 31.6034 60.5818 31.7472C60.5488 31.5038 60.5499 31.5185 60.5852 31.7913C60.6877 32.7274 60.7765 33.6635 60.8164 34.6053C60.9007 36.5601 60.8232 38.5161 60.5989 40.4597C60.4622 41.6403 61.7433 42.7745 62.8764 42.7235C64.227 42.6635 65.0082 41.7252 65.1539 40.4597C65.6356 36.2919 65.3862 32.08 64.5219 27.9767C64.2771 26.8153 62.84 26.0354 61.7206 26.3954C60.485 26.7938 59.8655 27.9371 60.1286 29.1811Z" fill="#19B9AA"/>
<path d="M55.9744 38.3981C59.9977 38.2272 64.0198 38.0562 68.043 37.8853C69.2319 37.8344 70.3775 36.8802 70.3206 35.6215C70.267 34.4386 69.3184 33.3033 68.043 33.3576C64.0198 33.5285 59.9977 33.6994 55.9744 33.8704C54.7855 33.9213 53.6399 34.8755 53.6969 36.1342C53.7504 37.3171 54.7001 38.4524 55.9744 38.3981Z" fill="#19B9AA"/>
<path d="M54.8105 44.2277C59.9202 44.5978 65.0549 44.2413 70.078 43.2542C71.2486 43.0244 72.0275 41.5733 71.6688 40.4697C71.2657 39.2313 70.1212 38.6416 68.8674 38.8883C68.2924 39.0015 67.715 39.1068 67.1365 39.203C66.8108 39.2562 66.4851 39.3072 66.1583 39.3547C66.0137 39.3762 65.8679 39.3954 65.7233 39.417C65.3487 39.4702 66.0501 39.3807 65.6743 39.4226C64.4707 39.5562 63.2704 39.6852 62.0622 39.7554C59.6457 39.898 57.2236 39.8743 54.8105 39.6999C53.6194 39.6139 52.4806 40.8024 52.533 41.9638C52.5922 43.2633 53.5351 44.1349 54.8105 44.2277Z" fill="#19B9AA"/>
<path d="M76.8046 31.4318C77.2636 31.3412 77.7248 31.2733 78.1848 31.1907C78.4513 31.142 78.1552 31.1907 78.1131 31.1975C78.2201 31.1828 78.3272 31.1703 78.4342 31.1579C78.72 31.1239 79.0059 31.0945 79.2917 31.0707C80.2585 30.987 81.2299 30.953 82.199 30.9688C83.1726 30.9847 84.1337 31.0741 85.1017 31.1669C85.3716 31.193 85.0721 31.1613 85.0311 31.1556C85.1381 31.1703 85.244 31.1862 85.3511 31.202C85.5993 31.2394 85.8476 31.2801 86.0958 31.3254C86.5912 31.4137 87.0831 31.5167 87.5728 31.6322C87.927 31.7159 88.28 31.8042 88.6273 31.9117C88.7332 31.9446 89.2707 32.1087 88.9815 32.0215C88.707 31.9378 88.9507 32.0068 89.0133 32.0374C89.1113 32.0861 89.2092 32.1336 89.3049 32.1857C89.3994 32.2377 89.4894 32.2966 89.5816 32.3521C89.6647 32.4019 89.7797 32.5569 89.6078 32.3645C89.3994 32.1302 89.7194 32.5049 89.7809 32.5649C89.9574 32.738 89.6704 32.4313 89.6647 32.4234C89.8674 32.6928 89.7114 32.4551 89.6716 32.3532C89.7046 32.4381 89.7308 32.5252 89.7558 32.6124C89.7706 32.6667 89.8572 33.0595 89.8037 32.7596C89.7535 32.4743 89.8014 32.7697 89.8014 32.8252C89.8025 32.9497 89.8093 33.072 89.8071 33.1965C89.8048 33.3821 89.7923 33.5689 89.7763 33.7545C89.7684 33.8462 89.7547 33.9379 89.7479 34.0296C89.7262 34.3013 89.7718 33.8949 89.7695 33.8813C89.7934 34.0896 89.6852 34.3952 89.6431 34.6023C89.4791 35.4105 89.2434 36.2029 88.9427 36.9715C88.9097 37.0564 88.8744 37.1413 88.8403 37.2262C88.9131 37.0485 88.9564 36.9681 88.8494 37.1888C88.7423 37.4095 88.6398 37.6303 88.526 37.8476C88.3141 38.254 88.0818 38.6501 87.8313 39.035C87.714 39.2138 87.5944 39.3916 87.4692 39.5659C87.3974 39.6655 87.3234 39.7628 87.2517 39.8613C87.3656 39.704 87.4202 39.653 87.2676 39.8353C86.9522 40.2111 86.6265 40.5733 86.2792 40.9208C85.4388 41.7618 85.3704 43.2933 86.2792 44.1219C87.1856 44.9494 88.6034 45.0195 89.4996 44.1219C90.931 42.6889 92.1256 40.9955 92.9307 39.1391C93.7666 37.2103 94.4339 35.0415 94.3587 32.9169C94.3109 31.5586 93.8816 30.3134 92.9489 29.3038C92.1894 28.4808 91.1189 27.9794 90.0747 27.6228C87.9919 26.912 85.6768 26.629 83.4903 26.492C80.8461 26.3268 78.1882 26.5543 75.5919 27.0671C74.4212 27.298 73.6411 28.7469 74.001 29.8516C74.4064 31.0877 75.5509 31.6786 76.8046 31.4318Z" fill="#19B9AA"/>
<path d="M83.6789 23.2826C83.6538 24.0014 83.6083 24.7191 83.5343 25.4356C83.5138 25.6303 83.4899 25.825 83.4682 26.0208C83.4181 26.4668 83.5035 25.8216 83.458 26.0989C83.3988 26.4532 83.3475 26.8097 83.2826 27.164C83.0298 28.5473 82.6802 29.9135 82.2395 31.2492C82.0243 31.9023 81.7817 32.5441 81.5289 33.1837C81.2898 33.7892 81.7168 32.7705 81.4537 33.367C81.3877 33.5164 81.3216 33.6659 81.2533 33.8153C81.1041 34.1424 80.9493 34.4684 80.7887 34.7899C80.1453 36.0803 79.4085 37.3186 78.5909 38.5071C77.9167 39.4874 78.3734 41.0608 79.4085 41.6041C80.5644 42.2108 81.8045 41.8384 82.5242 40.7914C86.0635 35.6479 88.0233 29.5026 88.2362 23.2826C88.2772 22.0975 87.1601 20.9656 85.9587 21.0188C84.6878 21.0754 83.7222 22.0137 83.6789 23.2826Z" fill="#19B9AA"/>
<path d="M19.6949 25.8489C26.5537 26.0142 33.589 24.7871 39.8682 22.006C40.9603 21.5226 41.3008 19.8587 40.6847 18.909C39.9559 17.7861 38.7374 17.579 37.569 18.0963C37.4096 18.1676 37.2502 18.2457 37.085 18.3068C37.602 18.1133 37.085 18.3046 36.97 18.351C36.6045 18.497 36.2355 18.6373 35.8643 18.7709C35.1582 19.0256 34.4442 19.2588 33.7245 19.4727C32.1906 19.9278 30.6305 20.2968 29.0567 20.5888C28.2664 20.7348 27.4727 20.8639 26.6767 20.9714C27.2085 20.9001 26.5389 20.9861 26.482 20.9929C26.2816 21.0167 26.0811 21.0393 25.8807 21.0608C25.4799 21.1038 25.0779 21.1423 24.6759 21.1751C23.019 21.311 21.3575 21.3608 19.6949 21.3212C18.5027 21.2929 17.3628 22.3829 17.4174 23.585C17.4744 24.8358 18.4184 25.8183 19.6949 25.8489Z" fill="#19B9AA"/>
<path d="M26.1902 15.6429C26.78 17.8785 27.2526 20.1423 27.5931 22.4289C27.6056 22.5115 27.7241 23.3752 27.6614 22.8975C27.699 23.1827 27.7343 23.4691 27.7685 23.7555C27.8357 24.3282 27.8949 24.901 27.945 25.4749C28.0463 26.6227 28.1147 27.7738 28.1534 28.9262C28.1932 30.1079 29.1726 31.2466 30.4309 31.19C31.63 31.1368 32.7517 30.1939 32.7084 28.9262C32.5422 24.0419 31.8293 19.1666 30.5812 14.4397C30.2795 13.2942 28.9403 12.4848 27.7799 12.8584C26.5956 13.2398 25.8667 14.4148 26.1902 15.6429Z" fill="#19B9AA"/>
<path d="M31.9373 27.1899C28.4253 27.2091 24.6344 28.3229 22.0585 30.7657C20.1795 32.5484 18.9656 35.2096 19.0214 37.8085C19.084 40.7584 20.8445 43.3335 23.5298 44.573C26.2639 45.8351 29.1997 45.9788 32.1479 45.5827C33.9756 45.337 35.7214 44.8514 37.3783 44.0251C41.6225 41.9073 45.4521 36.0756 42.3296 31.549C40.0942 28.3094 35.71 27.1808 31.9373 27.1899C30.7461 27.1933 29.6051 28.229 29.6597 29.4537C29.7144 30.6774 30.6607 31.721 31.9373 31.7176C32.2447 31.7165 32.551 31.7323 32.8574 31.7527C33.1079 31.7697 33.3584 31.7923 33.6078 31.8206C33.6705 31.8274 33.7331 31.8365 33.7957 31.8421C34.1875 31.8829 33.2457 31.7595 33.5338 31.807C33.7251 31.8387 33.9164 31.8648 34.1077 31.8987C34.84 32.0289 35.5654 32.2089 36.268 32.4556C36.4798 32.5303 37.0287 32.8461 36.4137 32.4975C36.5732 32.5881 36.7542 32.6515 36.9182 32.7352C37.0833 32.8201 37.2473 32.9095 37.4056 33.0046C37.4944 33.0578 37.581 33.1121 37.6664 33.1699C37.8418 33.2853 38.1014 33.5944 37.655 33.1393C37.9124 33.4008 38.1993 33.6294 38.451 33.9011C38.6936 34.1626 38.3348 33.7664 38.3235 33.7324C38.3496 33.8162 38.4487 33.9124 38.4977 33.9894C38.5535 34.0777 38.607 34.1671 38.6571 34.2588C38.7254 34.3856 38.7995 34.6935 38.6879 34.2848C38.7573 34.5395 38.9441 34.8655 38.9133 35.1327C38.919 35.0862 38.8849 34.6018 38.8837 35.0319C38.8837 35.1417 38.8894 35.2515 38.8871 35.3613C38.8849 35.4156 38.8826 35.47 38.8803 35.5243C38.8564 35.7801 38.8666 35.7405 38.9088 35.4032C38.9259 35.4541 38.8564 35.6862 38.8496 35.7167C38.7938 35.9714 38.7209 36.2227 38.6332 36.4683C38.615 36.5159 38.5979 36.5645 38.5797 36.6121C38.4874 36.8419 38.5057 36.8011 38.6343 36.4887C38.6412 36.4955 38.4988 36.7717 38.5068 36.7547C38.402 36.9641 38.2881 37.1679 38.1663 37.3682C38.0775 37.5154 37.9841 37.6591 37.8862 37.8006C37.8304 37.8821 37.7712 37.9602 37.7154 38.0417C37.4272 38.4594 38.0308 37.6671 37.7871 37.9557C37.6243 38.1481 37.4648 38.3417 37.2906 38.5239C37.0913 38.7333 36.8806 38.9337 36.6609 39.1227C36.6199 39.1578 36.4274 39.3434 36.3989 39.34C36.6164 39.1759 36.6586 39.142 36.5253 39.2404C36.4582 39.2891 36.391 39.3378 36.3226 39.3842C35.9263 39.657 35.5084 39.9004 35.078 40.1154C34.9402 40.1845 34.799 40.2467 34.6612 40.3135C34.3389 40.4675 34.7887 40.249 34.791 40.2614C34.7967 40.2943 34.0907 40.5207 34.0485 40.5354C33.3163 40.7799 32.5624 40.961 31.8006 41.09C31.5683 41.1296 31.336 41.1625 31.1037 41.1942C30.6174 41.2621 31.7186 41.1342 31.1356 41.1874C30.8338 41.2157 30.532 41.2474 30.2291 41.2643C29.6825 41.2949 29.1348 41.2949 28.5881 41.2621C28.4071 41.2519 28.2272 41.2315 28.0461 41.2191C27.9003 41.21 27.6578 41.2598 28.1156 41.236C27.8149 41.2519 27.4437 41.1251 27.1544 41.0595C26.8994 41.0017 26.6466 40.9349 26.396 40.858C26.2594 40.8161 26.1239 40.7708 25.9883 40.7221C25.8506 40.6723 25.477 40.5954 25.9815 40.7323C25.5602 40.618 24.8496 40.2433 24.5569 39.9173C24.5922 39.957 24.9338 40.2535 24.6423 39.9694C24.541 39.8709 24.4328 39.7792 24.3337 39.6774C24.262 39.6038 24.0832 39.4691 24.057 39.3729C24.0638 39.3978 24.3485 39.8143 24.1242 39.4487C24.0821 39.3797 23.6971 38.8522 23.7416 38.7763C23.7484 38.765 23.9283 39.3219 23.7985 38.8963C23.7541 38.7514 23.704 38.6122 23.6664 38.4651C23.6368 38.3496 23.6288 38.2104 23.5867 38.0995C23.4762 37.8119 23.6163 38.6722 23.5981 38.1821C23.5901 37.9568 23.573 37.7338 23.5799 37.5074C23.5833 37.3818 23.5958 37.2573 23.6015 37.1316C23.6106 36.9426 23.7233 36.8441 23.5764 37.2833C23.663 37.0252 23.6823 36.7321 23.7564 36.4683C23.819 36.2476 23.8942 36.0337 23.9716 35.8186C24.1435 35.3387 23.7974 36.1627 23.9488 35.8695C24.0069 35.7575 24.057 35.642 24.1151 35.53C24.2187 35.3307 24.3314 35.136 24.4522 34.9459C24.5182 34.8417 24.5911 34.7421 24.6583 34.638C24.9008 34.2622 24.3531 34.9708 24.6731 34.6142C24.7516 34.5259 25.8301 33.4823 25.8323 33.4891C25.8414 33.5095 25.3689 33.8162 25.7162 33.5842C25.8346 33.5049 25.9496 33.4212 26.0692 33.3442C26.2856 33.2038 26.5088 33.0737 26.7354 32.9514C26.9586 32.8314 27.1875 32.725 27.4164 32.6152C27.7591 32.4511 27.2877 32.6741 27.2467 32.6831C27.3719 32.6548 27.4995 32.5824 27.6213 32.5371C28.062 32.3741 28.5118 32.2349 28.9674 32.1183C29.3773 32.013 29.793 31.9259 30.2097 31.8546C30.343 31.8319 30.9989 31.7369 30.5115 31.8036C30.0196 31.8716 30.6356 31.7934 30.7484 31.7821C31.1447 31.7436 31.5421 31.7176 31.9395 31.7153C33.1307 31.7086 34.2729 30.6785 34.2171 29.4515C34.1601 28.2324 33.2138 27.1831 31.9373 27.1899Z" fill="#19B9AA"/>
<path d="M33.3619 6.91089C33.1182 7.11011 32.8699 7.3048 32.624 7.50176C32.4099 7.67268 32.9428 7.26405 32.5966 7.521C32.4532 7.6274 32.3108 7.73494 32.1673 7.84021C31.6241 8.23751 31.0718 8.62237 30.5116 8.99478C29.3523 9.76562 28.16 10.4855 26.9438 11.1636C25.6604 11.8789 24.3497 12.5479 23.0185 13.1716C22.3181 13.4999 21.6121 13.8134 20.9027 14.1202C20.8377 14.1473 20.7728 14.1756 20.7079 14.2028C20.8924 14.1258 20.9106 14.1179 20.7614 14.1802C20.5975 14.2469 20.4335 14.316 20.2684 14.3828C19.8721 14.5435 19.4746 14.6997 19.0749 14.8537C17.9681 15.2804 17.0787 16.3931 17.4841 17.6382C17.8325 18.7079 19.0966 19.678 20.2854 19.2195C26.1182 16.9693 31.7346 14.0783 36.5823 10.112C37.5059 9.35586 37.4284 7.68287 36.5823 6.91089C35.6018 6.01553 34.3469 6.10495 33.3619 6.91089Z" fill="#19B9AA"/>
<path d="M2.83192 34.7279C4.7644 34.7947 6.69575 34.8615 8.62823 34.9283C9.14865 34.9464 9.66907 34.9645 10.1883 34.9826C10.4115 34.9905 10.6347 34.9951 10.8568 35.0052C10.9627 35.0086 11.0686 35.0143 11.1734 35.0234C11.0777 35.0098 10.9821 34.9973 10.8875 34.9837C10.9912 35.0018 11.0925 35.0279 11.1916 35.0607C10.8568 34.9769 10.5983 34.7743 10.4184 34.4551C10.3603 34.2412 10.3022 34.0284 10.243 33.8144C10.2999 33.5111 10.2954 33.4896 10.2305 33.7499C9.96742 34.308 10.4138 33.4386 10.1861 33.8473C10.1075 33.9888 10.0392 34.137 9.96401 34.2797C9.291 35.5622 8.52574 36.7982 7.71608 37.9981C7.29588 38.6218 6.85404 39.2285 6.40422 39.8307C6.30174 39.9631 6.33704 39.919 6.50899 39.696C6.44294 39.7797 6.37689 39.8624 6.30971 39.945C6.21291 40.065 6.11498 40.1838 6.01591 40.3016C5.80296 40.5528 5.58431 40.7985 5.35656 41.0373C4.53779 41.8987 4.43188 43.3951 5.35656 44.2384C6.2448 45.0489 7.70356 45.1587 8.57699 44.2384C9.82622 42.9231 10.8978 41.4222 11.8954 39.9133C12.8758 38.4305 13.87 36.8763 14.5213 35.218C15.1169 33.7013 14.6774 31.9071 13.2186 31.0491C12.1698 30.4311 10.916 30.4798 9.74081 30.439C7.43708 30.3598 5.13336 30.2794 2.82964 30.2002C1.63735 30.1594 0.498586 31.271 0.552108 32.4641C0.611324 33.7262 1.55422 34.6838 2.83192 34.7279Z" fill="#19B9AA"/>
<path d="M7.35291 25.5616C8.81281 25.5616 10.3467 24.93 11.3796 23.9045C12.3669 22.9231 13.1105 21.3124 13.0467 19.902C12.9807 18.4384 12.4967 16.9205 11.3796 15.8995C10.2659 14.883 8.89594 14.2423 7.35291 14.2423C5.89302 14.2423 4.3591 14.8739 3.32624 15.8995C2.33893 16.8808 1.59532 18.4916 1.65909 19.902C1.72513 21.3656 2.20911 22.8835 3.32624 23.9045C4.44109 24.921 5.80989 25.5616 7.35291 25.5616Z" fill="#19B9AA"/>
<path d="M50.1973 19.5136C47.7535 22.3921 47.6169 26.7489 50.3089 29.5414C52.6741 31.9943 56.9069 32.627 59.7379 30.5907C62.874 28.3348 64.0413 24.1964 62.0655 20.7689C60.1843 17.5067 55.5563 15.9367 52.1833 17.887C49.9012 19.2068 48.8945 22.6151 51.1026 24.5099C52.2289 25.4766 53.7753 25.7539 55.1179 25.0431C56.5311 24.2949 57.0686 22.7702 56.7953 21.2749C56.5824 20.1067 55.0917 19.3404 53.9939 19.6936C52.7333 20.0988 52.1753 21.2273 52.4031 22.4781C52.2881 21.8454 52.4521 21.2421 53.0863 21.01C53.2879 20.9364 53.4804 20.9206 53.691 20.9591C53.8209 20.9817 54.3117 21.2704 53.9837 21.0406C54.1579 21.1628 54.2536 21.2466 54.3709 21.4401C54.2923 21.31 54.2194 21.1062 54.3993 21.5782C54.2718 21.2443 54.4085 21.602 54.4107 21.6858C54.3561 21.9676 54.3504 22.0242 54.3914 21.8544C54.4381 21.696 54.413 21.7378 54.3185 21.9823C54.4882 21.6416 54.3322 21.9178 54.2604 21.9971C54.2946 21.9597 54.4426 21.7695 54.5121 21.7469C54.1135 21.8805 54.4085 21.8737 54.5622 21.7537C54.8025 21.5647 54.208 21.851 54.5052 21.7661C54.5383 21.7571 55.2739 21.5748 55.2751 21.5658C55.2705 21.5997 54.7 21.602 55.1783 21.5862C55.3502 21.5805 55.5187 21.5726 55.6907 21.5771C55.7374 21.5782 56.0255 21.6077 56.0312 21.5986C55.9799 21.6699 55.5837 21.5115 55.9333 21.5907C56.1849 21.6484 56.4309 21.7061 56.6757 21.7899C56.7554 21.8171 57.0743 21.9767 56.801 21.8318C56.5231 21.6846 56.8454 21.8646 56.9137 21.9008C57.039 21.9676 57.162 22.0389 57.2827 22.1148C57.3453 22.1544 57.7052 22.4555 57.4672 22.2359C57.2018 21.9925 57.6084 22.3796 57.6232 22.3932C57.7063 22.4747 57.7838 22.5608 57.8646 22.6445C57.9512 22.7339 58.0798 22.9728 57.843 22.6026C57.9067 22.7022 57.9785 22.7973 58.0411 22.8981C58.1037 22.9988 58.163 23.1018 58.2188 23.206C58.2324 23.2309 58.4363 23.7482 58.3281 23.4199C58.2324 23.1313 58.344 23.4969 58.3657 23.567C58.418 23.7368 58.4454 23.9145 58.4978 24.0832C58.5946 24.3934 58.483 23.6825 58.4932 24.0085C58.4978 24.1511 58.5148 24.2926 58.5148 24.4352C58.5148 24.5428 58.508 24.6492 58.5046 24.7567C58.4966 25.025 58.3827 24.862 58.5296 24.6333C58.4374 24.7782 58.4329 25.0895 58.3816 25.2582C58.3714 25.2932 58.2324 25.8004 58.3315 25.4415C58.4215 25.1178 58.2848 25.5343 58.245 25.6102C58.1322 25.8275 57.9921 26.0211 57.8657 26.2294C57.7063 26.492 58.139 25.9328 57.925 26.1546C57.8316 26.252 57.7473 26.3573 57.6528 26.4535C57.5765 26.5304 57.4956 26.6006 57.4193 26.6765C57.2417 26.8519 57.2451 26.6889 57.5059 26.6289C57.3043 26.6753 57.0105 26.9481 56.8226 27.0568C56.4685 27.2617 56.8557 27.0206 56.9263 27.0296C56.875 27.0228 56.6871 27.1168 56.6211 27.1383C56.4958 27.1779 56.3683 27.2119 56.2396 27.2413C56.1348 27.2651 55.8524 27.3918 56.1542 27.2696C56.4662 27.144 56.1007 27.2707 55.9868 27.2753C55.882 27.2798 55.7761 27.2809 55.6713 27.2798C55.5654 27.2787 55.4618 27.2696 55.3559 27.2651C54.8321 27.2413 55.8444 27.3885 55.3354 27.2605C55.1304 27.2085 54.9243 27.1677 54.7228 27.1021C54.7023 27.0953 54.4529 27.033 54.4244 26.9968C54.5087 27.0319 54.5929 27.067 54.6761 27.1032C54.6043 27.0704 54.5326 27.0364 54.462 27.0002C54.2741 26.9051 54.0919 26.7987 53.9165 26.6821C53.8949 26.6674 53.8732 26.6527 53.8505 26.638C53.65 26.4942 53.6785 26.5169 53.9347 26.707C53.8527 26.7002 53.6967 26.4965 53.6432 26.4433C53.5487 26.3516 53.4633 26.2531 53.3722 26.1592C53.0863 25.8649 53.5179 26.4127 53.3915 26.1818C53.3255 26.063 53.2412 25.9532 53.1752 25.8343C53.141 25.7732 52.9224 25.3476 53.0738 25.66C53.2332 25.9883 53.026 25.506 53.0135 25.4687C52.9725 25.3374 52.9372 25.205 52.9064 25.0714C52.8609 24.8733 52.6957 24.6594 52.8893 25.1042C52.8415 24.9933 52.8631 24.8099 52.8586 24.6922C52.8529 24.5541 52.8529 24.4171 52.8586 24.279C52.862 24.2032 52.8962 23.7221 52.862 24.0866C52.8267 24.4692 52.8962 23.9428 52.9064 23.8987C52.9372 23.764 52.9736 23.6316 53.0135 23.5003C53.0499 23.3814 53.0795 23.2139 53.1501 23.1109C53.0032 23.3248 53.0237 23.3927 53.1649 23.1301C53.2298 23.009 53.3095 22.8958 53.3756 22.7758C53.5942 22.3774 53.1 23.0848 53.42 22.7079C54.1875 21.8035 54.3788 20.3807 53.42 19.5068C52.5716 18.7416 51.0172 18.5469 50.1973 19.5136Z" fill="#19B9AA"/>
<path d="M61.7046 18.6708C59.2608 21.5493 59.1242 25.9061 61.8162 28.6986C64.1814 31.1515 68.4142 31.7843 71.2452 29.7479C74.3814 27.492 75.5486 23.3536 73.5728 19.9261C71.6916 16.6639 67.0637 15.0939 63.6906 17.0442C61.4085 18.3641 60.4019 21.7723 62.6099 23.6672C63.7362 24.6338 65.2826 24.9112 66.6252 24.2003C68.0384 23.4521 68.5759 21.9274 68.3026 20.4321C68.0897 19.264 66.599 18.4976 65.5013 18.8508C64.2407 19.256 63.6827 20.3846 63.9104 21.6354C63.7954 21.0026 63.9594 20.3993 64.5937 20.1672C64.7952 20.0937 64.9877 20.0778 65.1984 20.1163C65.3282 20.1389 65.819 20.4276 65.491 20.1978C65.6653 20.32 65.7609 20.4038 65.8782 20.5974C65.7996 20.4672 65.7267 20.2634 65.9067 20.7355C65.7791 20.4015 65.9169 20.7592 65.9181 20.843C65.8634 21.1248 65.8577 21.1814 65.8987 21.0117C65.9454 20.8532 65.9203 20.8951 65.8258 21.1396C65.9955 20.7989 65.8395 21.075 65.7677 21.1543C65.8019 21.1169 65.9499 20.9268 66.0194 20.9041C65.6208 21.0377 65.9158 21.0309 66.0695 20.9109C66.3098 20.7219 65.7154 21.0083 66.0126 20.9234C66.0456 20.9143 66.7812 20.7321 66.7824 20.723C66.7778 20.757 66.2073 20.7592 66.6856 20.7434C66.8575 20.7377 67.0261 20.7298 67.198 20.7343C67.2447 20.7355 67.5328 20.7649 67.5385 20.7558C67.4873 20.8272 67.091 20.6687 67.4406 20.7479C67.6923 20.8056 67.9382 20.8634 68.1831 20.9471C68.2628 20.9743 68.5816 21.1339 68.3083 20.989C68.0305 20.8419 68.3527 21.0218 68.4211 21.0581C68.5463 21.1248 68.6693 21.1962 68.79 21.272C68.8527 21.3116 69.2125 21.6127 68.9745 21.3931C68.7092 21.1498 69.1157 21.5369 69.1305 21.5505C69.2136 21.632 69.2911 21.718 69.3719 21.8017C69.4585 21.8912 69.5872 22.13 69.3503 21.7599C69.4141 21.8595 69.4858 21.9546 69.5484 22.0553C69.6111 22.156 69.6703 22.259 69.7261 22.3632C69.7398 22.3881 69.9436 22.9054 69.8354 22.5771C69.7398 22.2885 69.8514 22.6541 69.873 22.7243C69.9254 22.8941 69.9527 23.0718 70.0051 23.2404C70.1019 23.5506 69.9903 22.8397 70.0005 23.1657C70.0051 23.3083 70.0222 23.4498 70.0222 23.5925C70.0222 23.7 70.0153 23.8064 70.0119 23.9139C70.0039 24.1822 69.8901 24.0192 70.037 23.7906C69.9447 23.9354 69.9402 24.2467 69.8889 24.4154C69.8787 24.4505 69.7398 24.9576 69.8388 24.5988C69.9288 24.275 69.7921 24.6916 69.7523 24.7674C69.6395 24.9847 69.4995 25.1783 69.3731 25.3866C69.2136 25.6492 69.6464 25.09 69.4323 25.3119C69.3389 25.4092 69.2546 25.5145 69.1601 25.6107C69.0838 25.6877 69.003 25.7579 68.9267 25.8337C68.749 26.0091 68.7524 25.8461 69.0132 25.7862C68.8117 25.8326 68.5179 26.1054 68.33 26.214C67.9758 26.4189 68.363 26.1778 68.4336 26.1869C68.3823 26.1801 68.1944 26.274 68.1284 26.2955C68.0031 26.3351 67.8756 26.3691 67.7469 26.3985C67.6421 26.4223 67.3597 26.5491 67.6615 26.4268C67.9735 26.3012 67.608 26.428 67.4941 26.4325C67.3893 26.437 67.2834 26.4381 67.1787 26.437C67.0728 26.4359 66.9691 26.4268 66.8632 26.4223C66.3394 26.3985 67.3518 26.5457 66.8427 26.4178C66.6378 26.3657 66.4316 26.325 66.2301 26.2593C66.2096 26.2525 65.9602 26.1903 65.9317 26.154C66.016 26.1891 66.1003 26.2242 66.1834 26.2604C66.1116 26.2276 66.0399 26.1936 65.9693 26.1574C65.7814 26.0623 65.5992 25.9559 65.4238 25.8394C65.4022 25.8246 65.3806 25.8099 65.3578 25.7952C65.1574 25.6515 65.1858 25.6741 65.4421 25.8643C65.3601 25.8575 65.2041 25.6537 65.1505 25.6005C65.056 25.5088 64.9706 25.4104 64.8795 25.3164C64.5937 25.0221 65.0253 25.57 64.8989 25.339C64.8328 25.2202 64.7485 25.1104 64.6825 24.9915C64.6483 24.9304 64.4297 24.5048 64.5811 24.8172C64.7406 25.1455 64.5333 24.6633 64.5208 24.6259C64.4798 24.4946 64.4445 24.3622 64.4137 24.2286C64.3682 24.0305 64.2031 23.8166 64.3967 24.2614C64.3488 24.1505 64.3705 23.9671 64.3659 23.8494C64.3602 23.7113 64.3602 23.5744 64.3659 23.4363C64.3693 23.3604 64.4035 22.8793 64.3693 23.2438C64.334 23.6264 64.4035 23.1001 64.4137 23.0559C64.4445 22.9212 64.4809 22.7888 64.5208 22.6575C64.5572 22.5386 64.5868 22.3711 64.6574 22.2681C64.5105 22.482 64.531 22.55 64.6722 22.2873C64.7372 22.1662 64.8169 22.053 64.8829 21.933C65.1016 21.5346 64.6073 22.2421 64.9273 21.8651C65.6949 20.9607 65.8862 19.5379 64.9273 18.664C64.0801 17.8988 62.5257 17.7041 61.7046 18.6708Z" fill="#19B9AA"/>
</svg>
