<?xml version="1.0" encoding="UTF-8"?>
<svg xmlns="http://www.w3.org/2000/svg" version="1.1" viewBox="0 0 48 48">
  <defs>
    <style>
      .cls-1 {
        fill: #fff;
      }
    </style>
  </defs>
  <!-- Generator: Adobe Illustrator 28.6.0, SVG Export Plug-In . SVG Version: 1.2.0 Build 709)  -->
  <g>
    <g id="_圖層_1" data-name="圖層_1">
      <g id="_圖層_1-2" data-name="_圖層_1">
        <path class="cls-1" d="M46.8,41.6l-8.7-8.9c-.9-.9-2.3-1.3-3.6-.9l-1.7-1.7c6.4-7.7,5.5-19.3-2.3-25.9C22.6-2.3,11-1.1,4.4,6.6c-6.6,7.7-5.5,19.3,2.3,25.9,6.6,5.5,16.4,5.7,23.2.2l1.7,1.7c-.4,1.3,0,2.6.9,3.6l8.7,8.9c.8.8,1.7,1.1,2.6,1.1,2.1,0,3.8-1.7,3.8-3.8s-.4-1.9-1.1-2.6h.2ZM18.4,31.2c-7,0-12.7-5.7-12.7-12.7s5.7-12.7,12.7-12.7,12.7,5.7,12.7,12.7-5.7,12.7-12.7,12.7h0Z"/>
      </g>
    </g>
  </g>
</svg>