<svg width="29" height="30" viewBox="0 0 29 30" fill="none" xmlns="http://www.w3.org/2000/svg">
<path d="M28.2378 24.8075L21.8935 18.4634C22.9981 16.6748 23.6659 14.5883 23.6659 12.3322C23.6659 5.85275 18.4136 0.600586 11.9339 0.600586C5.45424 0.600586 0.201904 5.85275 0.201904 12.3322C0.201904 18.8117 5.45424 24.0639 11.9339 24.0639C14.1901 24.0639 16.2766 23.3961 18.0635 22.2933L24.4096 28.6374C24.9203 29.1312 25.6046 29.4046 26.315 29.3985C27.0254 29.3925 27.705 29.1075 28.2072 28.605C28.7095 28.1026 28.9941 27.4229 28.9998 26.7125C29.0056 26.0021 28.7319 25.318 28.2378 24.8075ZM11.9339 20.4541C7.44868 20.4541 3.81176 16.8173 3.81176 12.3322C3.81176 7.84714 7.44868 4.21032 11.9339 4.21032C16.4192 4.21032 20.0561 7.84714 20.0561 12.3322C20.0561 16.8173 16.4192 20.4541 11.9339 20.4541Z" fill="#8A8A8A"/>
</svg>
