<svg xmlns="http://www.w3.org/2000/svg" viewBox="0 0 80 80"><defs><style>.cls-1{fill:#f6ba62;}.cls-2{fill:#fff;}.cls-3{fill:#6b5240;}.cls-4{fill:#23afa2;}</style></defs><title>活力運動</title><g id="圖層_2" data-name="圖層 2"><g id="圖層_1-2" data-name="圖層 1"><circle class="cls-1" cx="40.01" cy="40.01" r="38.39"/><path class="cls-1" d="M40,80A40,40,0,0,1,3.55,23.6,40,40,0,1,1,40,80ZM40,3.2A36.83,36.83,0,1,0,55.11,6.46h0A36.74,36.74,0,0,0,40,3.2Z"/><path class="cls-2" d="M42.9,49.33a16,16,0,0,1-8.26,10.05s0,0,0,0a16.19,16.19,0,0,1-13,.72,13.24,13.24,0,0,0-.48-11,10.63,10.63,0,0,0-.53-.93A13.34,13.34,0,0,0,11.27,42a16.19,16.19,0,0,1,8.64-11.64,0,0,0,0,1,0,0,16.35,16.35,0,0,1,21.87,7.18v0A16.09,16.09,0,0,1,42.9,49.33Z"/><path class="cls-3" d="M27.32,62a17.26,17.26,0,0,1-6-1.09l-.77-.29.31-.76a12.45,12.45,0,0,0-.45-10.3c-.15-.3-.32-.58-.49-.86a12.67,12.67,0,0,0-8.8-5.9l-.8-.12.14-.8a17.1,17.1,0,0,1,8.63-12v-.32h.62a17.18,17.18,0,0,1,22.78,7.62l.08.19a17.12,17.12,0,0,1-7.16,22.53v0l-.44.22A17,17,0,0,1,27.32,62Zm-4.66-2.33a15.31,15.31,0,0,0,11.17-.73v-.3h.61a15.31,15.31,0,0,0,7.69-9.47h0a15.35,15.35,0,0,0-1.05-11.22L41,37.71a15.57,15.57,0,0,0-20.31-6.86l-.41.21a15.48,15.48,0,0,0-8.06,10.28,14.2,14.2,0,0,1,9.09,6.48c.19.31.38.64.56,1A14.09,14.09,0,0,1,22.66,59.63Z"/><path class="cls-1" d="M21.62,60.12A16.14,16.14,0,0,1,11.27,42a13.34,13.34,0,0,1,9.34,6.25,10.63,10.63,0,0,1,.53.93A13.24,13.24,0,0,1,21.62,60.12Z"/><path class="cls-3" d="M22.07,61.14l-.73-.27a17,17,0,0,1-10.86-19l.15-.77.77.13a14.19,14.19,0,0,1,9.9,6.63c.19.31.38.64.56,1a14.05,14.05,0,0,1,.5,11.62ZM11.92,42.92a15.34,15.34,0,0,0,9.23,16.15,12.46,12.46,0,0,0-.72-9.55c-.15-.3-.32-.58-.49-.86A12.62,12.62,0,0,0,11.92,42.92Z"/><path class="cls-1" d="M41.8,37.53a16.15,16.15,0,0,1,1.1,11.81,13.18,13.18,0,0,1-8.55-6.88,13.38,13.38,0,0,1,0-12.2A16.16,16.16,0,0,1,41.8,37.53Z"/><path class="cls-3" d="M43.45,50.31l-.74-.19a14.15,14.15,0,0,1-9-20.23L34,29.2l.7.33a17,17,0,0,1,7.77,7.64h0a17,17,0,0,1,1.16,12.39Zm-8.68-19a12.57,12.57,0,0,0,7.56,17,15.38,15.38,0,0,0-1.24-10.46A15.54,15.54,0,0,0,34.77,31.34Z"/><rect class="cls-3" x="26.47" y="28.58" width="1.6" height="32.56" transform="translate(-17.33 17.16) rotate(-26.85)"/><rect class="cls-3" x="11.42" y="44.1" width="31.55" height="1.6" transform="translate(-17.35 17.14) rotate(-26.87)"/><path class="cls-4" d="M54.64,30.54l-3.23,2.4a2,2,0,0,1-2.8-.42l-3.17-4.26,2-1.47L49.89,25l2-1.49L55,27.72A2,2,0,0,1,54.64,30.54Z"/><path class="cls-3" d="M50.22,34.13l-.42,0A2.77,2.77,0,0,1,48,33L44.32,28.1,52,22.34l3.64,4.9a2.83,2.83,0,0,1-.55,3.93h0l-3.23,2.4A2.81,2.81,0,0,1,50.22,34.13Zm-3.66-5.7L49.25,32a1.2,1.2,0,0,0,.79.48,1.14,1.14,0,0,0,.89-.23l3.23-2.39a1.21,1.21,0,0,0,.24-1.7l-2.69-3.61Z"/><path class="cls-2" d="M49.89,25l-2.46,1.84-8.31-9.12L38.51,17l.23-3.6a.65.65,0,0,1,.81-.59l3.51.8.46.78Z"/><path class="cls-3" d="M47.32,27.87,37.7,17.29l.24-3.94A1.46,1.46,0,0,1,39.74,12l3.83.88L44.21,14,51,25.16Zm-8-11.16,8.2,9,1.3-1L42.55,14.31l-3-.69Z"/><path class="cls-2" d="M47.43,26.79l-2,1.47-7.92-3.9a2.27,2.27,0,0,1-1.17-1.46L35.17,18c-.19-.58.18-1,.7-.8L38.51,17l.61.67Z"/><path class="cls-3" d="M45.53,29.2l-8.36-4.12a3,3,0,0,1-1.59-2l-1.19-4.9a1.44,1.44,0,0,1,.33-1.48A1.31,1.31,0,0,1,36,16.4l2.88-.23,9.77,10.74ZM36,18l1.14,4.72a1.46,1.46,0,0,0,.75.93l7.48,3.68.88-.65-8.05-8.85Z"/><path class="cls-2" d="M51.87,23.46l-2,1.49L43.52,14.39l-.46-.78,1-2.47c-.05-.56.46-.8,1-.44l4.35,2.54a2.19,2.19,0,0,1,1.07,1.54Z"/><path class="cls-3" d="M49.66,26.12,42.17,13.68l1-2.68a1.31,1.31,0,0,1,.64-1.1,1.46,1.46,0,0,1,1.58.15l4.29,2.5a3,3,0,0,1,1.46,2.09l1.55,9.17ZM43.94,13.54l.27.44,5.91,9.8.88-.66-1.39-8.21a1.41,1.41,0,0,0-.68-1l-4.19-2.44Z"/><path class="cls-2" d="M71.45,33.29a153.73,153.73,0,0,1-9.6,13.12A168.08,168.08,0,0,1,49.21,60.35l-5,7.3-1.09-.74-.54-.38a.28.28,0,0,0-.13-.07l-1.53-1,5-7.33A173.88,173.88,0,0,1,54.3,41.25c2.88-5,5.85-9.59,8.77-13.69a4.2,4.2,0,0,1,3-2,5.65,5.65,0,0,1,6.14,4.22A4.17,4.17,0,0,1,71.45,33.29Z"/><path class="cls-3" d="M44.4,68.76l-4.62-3.15,5.48-8A171.77,171.77,0,0,1,53.6,40.86c2.7-4.7,5.66-9.33,8.81-13.76A5,5,0,0,1,66,24.79a6.39,6.39,0,0,1,4.45,1.09A6.49,6.49,0,0,1,73,29.62a5,5,0,0,1-.9,4.14,153.41,153.41,0,0,1-9.62,13.15,168.32,168.32,0,0,1-12.7,14Zm-1.72-3.1h.08l1.22.88,4.57-6.64a173,173,0,0,0,12.68-14,153.86,153.86,0,0,0,9.55-13l0-.07a3.4,3.4,0,0,0,.6-2.81,4.85,4.85,0,0,0-2-2.78,4.91,4.91,0,0,0-3.31-.82A3.4,3.4,0,0,0,63.76,28c-3.17,4.46-6.1,9-8.77,13.69A175.05,175.05,0,0,0,46.65,58.4L42,65.2Z"/><path class="cls-2" d="M45.07,69.93c-.58.86-2.56.54-4.42-.74s-2.84-3-2.27-3.84,2.47-.54,4.29.68a.25.25,0,0,1,.13.06c.19.13.35.26.54.38C44.84,67.69,45.61,69.16,45.07,69.93Z"/><path class="cls-3" d="M43.9,71.21a7,7,0,0,1-3.7-1.36c-2.28-1.6-3.32-3.68-2.48-4.94s3-1.07,5.19.32H43l.78.58c2,1.6,2.75,3.42,1.95,4.57a1.88,1.88,0,0,1-1.26.78A2.63,2.63,0,0,1,43.9,71.21Zm-4.37-5.53c-.27,0-.44,0-.49.13-.16.24.35,1.52,2.07,2.73a4.81,4.81,0,0,0,3.06,1c.14,0,.21-.07.23-.11h0c.14-.21-.22-1.27-1.58-2.37l-.61-.41A5.27,5.27,0,0,0,39.53,65.68Z"/></g></g></svg>