<svg width="481" height="49" viewBox="0 0 481 49" fill="none" xmlns="http://www.w3.org/2000/svg">
<path d="M21.7026 9.35244C22.6007 6.58851 26.5109 6.58851 27.4089 9.35244L29.2305 14.9585C29.6321 16.1946 30.784 17.0315 32.0836 17.0315H37.9782C40.8844 17.0315 42.0927 20.7503 39.7416 22.4585L34.9728 25.9233C33.9213 26.6872 33.4813 28.0413 33.8829 29.2774L35.7045 34.8834C36.6025 37.6474 33.4391 39.9457 31.0879 38.2375L26.3191 34.7728C25.2677 34.0089 23.8439 34.0089 22.7924 34.7728L18.0236 38.2375C15.6725 39.9457 12.509 37.6474 13.4071 34.8834L15.2286 29.2774C15.6302 28.0413 15.1902 26.6872 14.1388 25.9233L9.36997 22.4585C7.01883 20.7503 8.22716 17.0315 11.1333 17.0315H17.0279C18.3276 17.0315 19.4795 16.1946 19.8811 14.9585L21.7026 9.35244Z" fill="#FFBF61"/>
<path d="M64.3452 9.35244C65.2432 6.58851 69.1535 6.58851 70.0515 9.35244L71.873 14.9585C72.2747 16.1946 73.4265 17.0315 74.7262 17.0315H80.6208C83.527 17.0315 84.7353 20.7503 82.3841 22.4585L77.6153 25.9233C76.5639 26.6872 76.1239 28.0413 76.5255 29.2774L78.347 34.8834C79.2451 37.6474 76.0817 39.9457 73.7305 38.2375L68.9617 34.7728C67.9102 34.0089 66.4865 34.0089 65.435 34.7728L60.6662 38.2375C58.315 39.9457 55.1516 37.6474 56.0497 34.8834L57.8712 29.2774C58.2728 28.0413 57.8328 26.6872 56.7814 25.9233L52.0126 22.4585C49.6614 20.7503 50.8697 17.0315 53.7759 17.0315H59.6705C60.9702 17.0315 62.122 16.1946 62.5237 14.9585L64.3452 9.35244Z" fill="#FFBF61"/>
<path d="M106.988 9.35244C107.886 6.58851 111.796 6.58851 112.694 9.35244L114.516 14.9585C114.917 16.1946 116.069 17.0315 117.369 17.0315H123.263C126.17 17.0315 127.378 20.7503 125.027 22.4585L120.258 25.9233C119.206 26.6872 118.766 28.0413 119.168 29.2774L120.99 34.8834C121.888 37.6474 118.724 39.9457 116.373 38.2375L111.604 34.7728C110.553 34.0089 109.129 34.0089 108.078 34.7728L103.309 38.2375C100.958 39.9457 97.7942 37.6474 98.6922 34.8834L100.514 29.2774C100.915 28.0413 100.475 26.6872 99.4239 25.9233L94.6551 22.4585C92.304 20.7503 93.5123 17.0315 96.4185 17.0315H102.313C103.613 17.0315 104.765 16.1946 105.166 14.9585L106.988 9.35244Z" fill="#FFBF61"/>
<path d="M149.631 9.35244C150.529 6.58851 154.44 6.58851 155.338 9.35244L157.159 14.9585C157.561 16.1946 158.713 17.0315 160.012 17.0315H165.907C168.813 17.0315 170.021 20.7503 167.67 22.4585L162.901 25.9233C161.85 26.6872 161.41 28.0413 161.812 29.2774L163.633 34.8834C164.531 37.6474 161.368 39.9457 159.017 38.2375L154.248 34.7728C153.196 34.0089 151.773 34.0089 150.721 34.7728L145.952 38.2375C143.601 39.9457 140.438 37.6474 141.336 34.8834L143.157 29.2774C143.559 28.0413 143.119 26.6872 142.067 25.9233L137.299 22.4585C134.948 20.7503 136.156 17.0315 139.062 17.0315H144.957C146.256 17.0315 147.408 16.1946 147.81 14.9585L149.631 9.35244Z" fill="#FFBF61"/>
<path d="M192.274 9.35244C193.172 6.58851 197.082 6.58851 197.98 9.35244L199.802 14.9585C200.203 16.1946 201.355 17.0315 202.655 17.0315H208.549C211.456 17.0315 212.664 20.7503 210.313 22.4585L205.544 25.9233C204.493 26.6872 204.053 28.0413 204.454 29.2774L206.276 34.8834C207.174 37.6474 204.01 39.9457 201.659 38.2375L196.89 34.7728C195.839 34.0089 194.415 34.0089 193.364 34.7728L188.595 38.2375C186.244 39.9457 183.08 37.6474 183.978 34.8834L185.8 29.2774C186.202 28.0413 185.762 26.6872 184.71 25.9233L179.941 22.4585C177.59 20.7503 178.798 17.0315 181.705 17.0315H187.599C188.899 17.0315 190.051 16.1946 190.452 14.9585L192.274 9.35244Z" fill="#FFBF61"/>
</svg>
