<svg width="11" height="12" viewBox="0 0 11 12" fill="none" xmlns="http://www.w3.org/2000/svg">
<path d="M10.9897 5.99965C10.99 5.74539 10.9217 5.49538 10.7915 5.27383C10.6614 5.05227 10.4737 4.86667 10.2467 4.735L3.07732 0.619293C2.84406 0.488564 2.57906 0.418816 2.30883 0.417027C2.03861 0.415238 1.77263 0.481471 1.5375 0.6091C1.30237 0.736728 1.10634 0.921279 0.969012 1.14429C0.831684 1.3673 0.757873 1.62096 0.754965 1.87989L0.754964 10.1138C0.756869 10.3725 0.829566 10.6262 0.965796 10.8496C1.10203 11.0729 1.29702 11.2581 1.53131 11.3867C1.7656 11.5153 2.03099 11.5827 2.30098 11.5822C2.57096 11.5817 2.8361 11.5134 3.06991 11.3841L10.244 7.26532C10.4713 7.1335 10.6593 6.94779 10.79 6.7261C10.9206 6.50442 10.9894 6.25423 10.9897 5.99965Z" fill="#FF9D46"/>
</svg>
