<svg xmlns="http://www.w3.org/2000/svg" viewBox="0 0 3448 826"><defs><style>.cls-1{fill:#23afa2;}.cls-2,.cls-3{fill:none;}.cls-2{stroke:#23afa2;stroke-miterlimit:10;stroke-width:22px;}</style></defs><title>Logo-green</title><g id="圖層_2" data-name="圖層 2"><g id="ICON"><path class="cls-1" d="M2780.91,289.67a430.94,430.94,0,0,0,117.6,15.45c10.46-.09,20.48-9.14,20-20s-8.79-20.09-20-20a410.72,410.72,0,0,1-55.65-3.28c4.08.53-2.47-.36-3.26-.48q-3.33-.51-6.66-1.06-6.64-1.11-13.25-2.45c-9.47-1.92-18.84-4.19-28.15-6.75-10.08-2.78-22.2,3.44-24.6,14s3.17,21.63,14,24.6Z"/><path class="cls-1" d="M2823.38,245.38l-7.65,101.05c-.79,10.45,9.77,20.46,20,20,11.51-.52,19.15-8.8,20-20l7.65-101.05c.79-10.45-9.76-20.46-20-20-11.51.52-19.15,8.8-20,20Z"/><path class="cls-1" d="M2754,350.26c46.56,20.13,97,29.64,147.76,25.74,10.41-.81,20.51-8.63,20-20-.45-10.15-8.83-20.86-20-20a293.92,293.92,0,0,1-33.84.69q-8.68-.35-17.35-1.2c-1.52-.15-3-.32-4.55-.49-.39-.05-4.18-.5-1.89-.21,2.62.32-2.29-.33-2.78-.41-1.51-.22-3-.47-4.52-.72a289.7,289.7,0,0,1-33-7.52q-7.9-2.29-15.68-5.05c-2.87-1-5.74-2.08-8.58-3.19l-3.4-1.35c-5.61-2.24,3.57,1.57-2-.83-5.13-2.22-9.78-3.57-15.41-2-4.64,1.28-9.67,4.87-12,9.2-4.55,8.62-3.07,22.93,7.18,27.36Z"/><path class="cls-1" d="M2811.74,366.16c-3.59,37.66-7,75.34-10.58,113-1,10.45,9.91,20.46,20,20,11.69-.52,18.94-8.81,20-20,3.58-37.66,7-75.34,10.58-113,1-10.45-9.91-20.45-20-20-11.69.52-18.94,8.81-20,20Z"/><path class="cls-1" d="M2832.23,430a130.37,130.37,0,0,0,69.13,4.43c10.26-2.14,17.15-14.77,14-24.6-3.51-10.85-13.61-16.26-24.6-14-.82.17-8.21,1.39-3.5.78-2.38.31-4.78.5-7.17.61a100.58,100.58,0,0,1-12.76-.18c-1.23-.09-2.46-.2-3.69-.34,2.24.34,2.16.32-.23,0-1.86-.34-3.73-.65-5.58-1.05a128.74,128.74,0,0,1-14.93-4.21c-9.91-3.38-22.31,3.88-24.61,14-2.53,11.1,3.36,21,14,24.6Z"/><path class="cls-1" d="M2743.11,405.11c-.26,4.21-.59,8.42-1.05,12.61-.08.81-1.11,8.3-.41,3.65-.27,1.79-.54,3.58-.83,5.36a257.22,257.22,0,0,1-5.6,25.6c-2.22,8.14-4.83,16.18-7.83,24.06-.75,2-1.54,3.93-2.33,5.89q-1.33,3.23-.09.22c-.36.83-.72,1.65-1.09,2.48q-2.77,6.18-5.86,12.22c-4.74,9.32-2.76,22.12,7.17,27.37,9.12,4.81,22.31,2.78,27.37-7.18a285.57,285.57,0,0,0,30.55-112.28c.65-10.46-9.66-20.46-20-20-11.39.51-19.31,8.8-20,20Z"/><path class="cls-1" d="M2755.91,475.24c44.74,40.19,104.81,57.43,164.08,48.56,10.38-1.55,17-15.18,14-24.6-3.67-11.33-13.48-15.64-24.6-14-4.72.7,3.35-.32-1,.14-1.58.16-3.16.34-4.75.48-3.17.27-6.35.46-9.53.55a174.23,174.23,0,0,1-18.28-.4c-1.58-.12-3.17-.26-4.75-.42-.6-.06-5.87-.69-2.87-.3s-1.48-.24-2.07-.33c-1.57-.25-3.14-.53-4.71-.82a182.29,182.29,0,0,1-18.55-4.52q-4.57-1.38-9.07-3c-1.25-.45-2.5-.91-3.74-1.38-.53-.21-5.36-2.13-2.77-1.08s-2.2-1-2.72-1.22c-1.21-.55-2.41-1.11-3.6-1.69q-4.3-2.08-8.48-4.39a174.36,174.36,0,0,1-16.18-10.11c-1.3-.92-2.58-1.87-3.86-2.8-3.41-2.48,2.53,2.18-1-.78-2.44-2.06-4.88-4.08-7.26-6.21-7.78-7-20.71-8.25-28.28,0-7,7.63-8.31,20.82,0,28.28Z"/><path class="cls-1" d="M2937.36,331,3069,340.52c10.46.75,20.46-9.74,20-20-.51-11.48-8.79-19.2-20-20L2937.36,291c-10.45-.75-20.46,9.74-20,20,.52,11.48,8.8,19.19,20,20Z"/><path class="cls-1" d="M2950.3,335.22q-3.74,49.18-7.45,98.38c-.79,10.46,9.76,20.46,20,20,11.51-.51,19.15-8.79,20-20q3.72-49.19,7.45-98.38c.79-10.46-9.77-20.46-20-20-11.52.51-19.16,8.8-20,20Z"/><path class="cls-1" d="M3005.56,335.8q-6.57,86.86-13.15,173.72c-.89,11.78,11,23.05,22.53,22.53,13-.58,21.57-9.91,22.52-22.53q6.59-86.85,13.16-173.72c.89-11.78-11-23-22.53-22.53-13,.58-21.57,9.91-22.53,22.53Z"/><path class="cls-1" d="M2933.52,470.1l67.14,5.09c10.46.79,20.46-9.77,20-20-.52-11.52-8.8-19.16-20-20l-67.14-5.09c-10.46-.79-20.46,9.77-20,20,.51,11.52,8.8,19.16,20,20Z"/><path class="cls-1" d="M3078.61,417.07c17.44,1.16,35,3,52.45,3.48q3.55.33.66-.08c-1.73-.31-1.72-.28.05.09-12.85-6.21-9.72-19.31-10.76-8.94-.55,5.39.64-2.77-.16,1.31-.29,1.43-.54,2.86-.87,4.28a77.63,77.63,0,0,1-2.86,9.55c-.24.66-.49,1.32-.76,2-.55,1.39-.34.87.66-1.56,0,1.18-1.58,3.3-2.14,4.37a83.13,83.13,0,0,1-4.59,7.7c-.58.86-1.45,2.8-2.38,3.37q2.61-3.33.59-.79c-.58.71-1.17,1.42-1.77,2.11a112.31,112.31,0,0,1-12.92,12.42c-3.34,2.8,3-2-.36.24-1.53,1.05-3,2.14-4.57,3.16-2.33,1.53-4.72,3-7.14,4.34q-4.26,2.39-8.68,4.44c-1,.45-5.06,2.76-.3.22a43.11,43.11,0,0,1-5.16,2c-9.77,3.65-17.5,13.69-14,24.6,3.1,9.56,14.11,17.89,24.6,14,25.55-9.54,47.91-24.44,64.22-46.54a95.88,95.88,0,0,0,16.26-35.66c1.83-8.26,3.68-17.91,1.94-26.31-2.75-13.29-14.7-18.95-27-20.1-18.3-1.71-36.74-2.44-55.08-3.66-10.46-.69-20.46,9.69-20,20,.52,11.43,8.8,19.26,20,20Z"/><line class="cls-2" x1="2967.22" y1="367.63" x2="3019.08" y2="371.55"/><line class="cls-2" x1="2959.57" y1="401.82" x2="3011.42" y2="405.75"/><path class="cls-1" d="M3059.33,391.75c-8.33,31.57,2,64.4,27.66,84.82,27.17,21.6,61.53,28.16,95.37,22.72,35.66-5.74,68.73-25.79,95.37-49.46,27.41-24.34,54.06-58.11,54.49-96.44.25-22.78-9.28-44.47-27.78-58-17.42-12.73-42.54-14.44-61.12-3.34-9,5.36-13.06,18.22-7.17,27.36s17.75,12.91,27.36,7.17c.58-.34,1.26-.64,1.8-1,2.13-1.55-3.55,1.09-1,.33,1.31-.39,2.57-.85,3.91-1.16,4.56-1-2.69-.15.76-.09,1.61,0,3.21.08,4.81.12,2.21.06-1.79-.17-1.89-.26a14.5,14.5,0,0,0,2.72.59c.61.16,3.56,1.48,4,1.24-.1.05-3.52-1.71-1.55-.68.83.44,1.68.82,2.5,1.27s3.49,2.71,4.15,2.6c-.44.08-3.46-3.12-.78-.5.49.49,1,.95,1.51,1.44s3.35,3.85,1.78,1.83,0,0,.21.4c.53.85,1.09,1.67,1.59,2.54s2.63,5.32,1.63,3c-1.08-2.53.79,2.48,1,3.27.42,1.45.78,2.92,1.09,4.39a17.15,17.15,0,0,1,.53,3c0-.08-.3-3.89-.28-1.54,0,1.77.24,3.55.24,5.33s-.08,3.56-.22,5.34c0,.17-.3,2.24-.23,2.27-.26-.12.95-4.94,0-.8a95.12,95.12,0,0,1-3.11,11.34c-.48,1.34-2,4.68-.53,1.56-.86,1.8-1.69,3.62-2.61,5.39-1.86,3.56-3.92,7-6.12,10.36q-1.42,2.16-2.93,4.27c-.7,1-3.87,5.16-1.52,2.16q-3.48,4.44-7.22,8.67a209.8,209.8,0,0,1-15.26,15.59q-3.95,3.64-8.07,7.09c-1.27,1.06-2.57,2.1-3.86,3.15-.62.51-3,2.27.1-.06-.89.67-1.77,1.34-2.67,2a202.16,202.16,0,0,1-18.85,12.34q-4.67,2.7-9.49,5.13c-1.72.86-3.45,1.7-5.2,2.5-1.31.61-5.66,2.38-2,.94a165,165,0,0,1-20.68,6.79c-3.33.82-6.69,1.45-10.07,2-2.76.5-.23.8.66,0a7.94,7.94,0,0,1-2.33.25c-1.71.17-3.43.31-5.15.4q-4.57.24-9.15.06c-1.62-.06-3.25-.15-4.87-.29-1.07-.09-5.64-1.09-2.85-.27,3.08.92-1.93-.37-2.78-.54-1.34-.26-2.67-.54-4-.86-3.07-.72-6.11-1.59-9.09-2.61-1.47-.5-2.91-1.13-4.38-1.61-2.18-.71,1.86.69,1.72.75a14.57,14.57,0,0,1-2.4-1.09,88.18,88.18,0,0,1-8-4.29q-1.9-1.15-3.77-2.42c-.52-.36-1-.74-1.56-1.09-3.54-2.36,2.36,2.09.53.46-2.33-2.08-4.71-4-6.88-6.28-1.13-1.18-2.18-2.43-3.27-3.66-2.14-2.41,2.22,3.39-.18-.3a76.12,76.12,0,0,1-4.61-7.78,11.73,11.73,0,0,0-1-2.19c.56.52,1.5,4.07.65,1.42-.49-1.55-1.05-3.06-1.48-4.63-.38-1.38-.66-2.78-1-4.18-1-4.55.13,3.95-.13-.87-.17-3.26-.11-6.44,0-9.7s-.75,3.92.08-.74c.38-2.1.87-4.16,1.41-6.21,2.66-10.11-3.36-22.19-14-24.61s-21.75,3.15-24.6,14Z"/><path class="cls-1" d="M3120.17,196.05q-1.85,21.28-3.7,42.58c-.9,10.45,9.85,20.45,20,20,11.61-.52,19-8.8,20-20q1.84-21.28,3.7-42.58c.9-10.45-9.85-20.46-20-20-11.61.52-19,8.8-20,20Z"/><path class="cls-1" d="M3188.87,230.22l-22.1,30.06c-6.21,8.47-1.69,22.68,7.18,27.37,10.42,5.51,20.73,1.85,27.36-7.18l22.1-30.06c6.22-8.46,1.69-22.68-7.18-27.36-10.42-5.51-20.72-1.86-27.36,7.17Z"/><path class="cls-1" d="M1203.64,403c-24,27.75-51.19,74.41-19.8,107.29,22.47,23.52,61.86,19.22,86.06,1.06,18.75-14.06,31.06-34,36.65-56.76,2.49-10.14-3.24-22.16-14-24.6-10.32-2.35-21.93,3.1-24.6,14a101.64,101.64,0,0,1-3.64,11.83c-.57,1.51-2.41,4.37.4-.83-.49.9-.85,1.9-1.3,2.83-.88,1.82-1.82,3.61-2.83,5.35-.82,1.41-1.67,2.79-2.57,4.14-.53.8-1.12,1.55-1.63,2.35-2,3.12,3.24-3.87.86-1.08a83.3,83.3,0,0,1-7,7.53c-1.13,1-2.58,1.94-3.59,3.08,3.42-3.87,3.13-2.29,1.37-1.09-.46.31-.91.64-1.36.95a75.76,75.76,0,0,1-8.4,4.79c-4.17,2.11,5.09-1.74.13-.05-1.32.44-2.62.92-4,1.31s-2.39.66-3.6.92c-.72.16-1.44.29-2.15.43-4.42.92,4.92-.41,1.75-.19a68.78,68.78,0,0,1-7.32.26c-1.24,0-2.47-.23-3.7-.29,7.71.36,2.93.42.77-.08-1.25-.29-2.47-.69-3.71-1.05-.4-.12-.78-.32-1.19-.43-2.89-.8,5.07,2.52,2.46,1.05-1-.56-2-1-3-1.57-.44-.26-.86-.55-1.3-.81-2.08-1.22-2.11-3,1.58,1.35-.62-.73-1.57-1.33-2.26-2-1.93-1.91-2.59-4.76.34.86a65.94,65.94,0,0,0-3.43-5.86c3.53,5.32,1.26,3.23.53.5-.29-1.08-.4-2.23-.71-3.3,2,6.83.33,3,.26.35,0-1.53.06-3,.14-4.57.11-2.17,1.37-3.26-.34,2.11a22.73,22.73,0,0,0,.44-2.49,58.33,58.33,0,0,1,1.57-6.08c.57-1.86,1.4-3.65,2-5.51-2,6.54.19-.29,1-2a119.23,119.23,0,0,1,8.07-13.53c1.53-2.24,3.08-4.57,4.82-6.65-3.4,4.06-.1.21.5-.52,1.29-1.59,2.62-3.14,4-4.69,6.84-7.91,8.36-20.61,0-28.28-7.5-6.89-21-8.45-28.28,0Z"/><path class="cls-1" d="M1273.92,474c11,11.62,25.1,20.82,41.5,21.46,13.66.54,26.25-5.84,36.08-14.88a83.72,83.72,0,0,0,18.35-25.67c4.08-8.65,8.26-18.47,8.31-28.26.11-21.11-20.32-38.28-39.55-42.83-18.08-4.28-35.1,3-48.23,15.34-19.39,18.17-29,47.56-19.6,73.15a73,73,0,0,0,34.58,39.72c17.14,8.91,35.73,10.8,54,4.06,17.33-6.38,34-15.82,49.4-25.92a310.77,310.77,0,0,0,44.08-34.87c2.71-2.58,5.36-5.19,8.24-7.57-3.31,2.73,1.16-.56,2.31-1.32.41-.28,2.42-1.79.26-.32-2.89,2,1.37-1.05,1.63-.44.18.43-5.31-.1-1.31.27a23.17,23.17,0,0,1-3.8-.92l-1.11-.54q2.39,1.44.24-.06c-.13-.16-2.86-2.61-2.51-2.88s1.08,2.29,1.26,2.22l-.54-1.18q-1-2.4-.2.1l.14.66c.21,1.09.2.87,0-.67-.21-1.77-.25-1.75-.1.05l0,1.36c0,.88-.38,5-.15,3.23.32-2.45-.26,1.47-.35,2-.14.93-.29,1.87-.43,2.8-1.1,7.52-1.62,14.21-.23,21.74,2,10.73,9.12,19.32,17.66,25.6,15.23,11.2,36.92,11.13,54.11,4.93,12.27-4.42,21.77-11.2,31.86-19.16,17.62-13.92,34.13-29.3,50.43-44.72,24.15-22.87,47.67-46.4,70.86-70.24q10.16-10.44,20.24-21c7.24-7.56,8.08-20.87,0-28.28-7.84-7.2-20.55-8.08-28.28,0-39.47,41.21-79.52,82.25-122.44,119.91-6.35,5.57-12.8,11-19.41,16.27-3,2.4,1.84-1.39,1.33-1s-1.15.87-1.73,1.31c-1.32,1-2.66,2-4,2.93a61.21,61.21,0,0,1-6,3.71c-1.18.63-2.4,1.18-3.6,1.78-2,1,1.42-.7,1.48-.61s-3.19,1.13-3.57,1.25q-2.27.72-4.59,1.26c-1.51.35-6.11.75-2.15.51-1.77.11-3.54.27-5.32.25a15.25,15.25,0,0,0-2.72-.12c.85-.36,4.08.85,1.24.09-.66-.18-3.45-1.36-4-1.14,1.13-.48,3.44,1.78,1,.4-.6-.33-1.2-.64-1.79-1-.29-.17-1.4-1.12-1.71-1.09.65-.05,3.24,3.2.94.59a8.92,8.92,0,0,0-1.38-1.43c-2-1.31,2.25,2.73.78.88a13.41,13.41,0,0,1-1-1.73c-.11.1,1.61,4,.64,1,.12.37,0,3.09,0,.74,0-.92,0-1.84,0-2.77,0-1.24.18-2.48.3-3.72,0,.39-.5,3,0,.65.66-3.28,1-6.67,1.44-10a45.39,45.39,0,0,0-4.24-26.4c-10.09-19.86-35-21.55-52-10.05-13.55,9.17-24.46,21.93-37.42,31.93,3.06-2.36-1.52,1.09-2.29,1.66q-2.49,1.81-5,3.6-5.06,3.54-10.27,6.86c-6.63,4.22-13.45,8.12-20.38,11.83-3.19,1.71-6.37,3.42-9.61,5-1.52.76-3.07,1.48-4.61,2.21-3.45,1.62-.63.28.09,0-1.06.41-2.1.82-3.17,1.2q-2.74,1-5.57,1.74c-.74.19-5.48,1.33-2.93.78s0,0-.54,0c-1.06.05-2.11.12-3.17.1-.79,0-1.58-.11-2.37-.11-2.54,0,2.67.86.79,0-.63-.28-8-1.72-8-2.44,0-.11,3.93,1.87,1.13.44-.59-.31-1.2-.59-1.8-.9-1.6-.84-3.16-1.74-4.68-2.73-.62-.39-4.17-3-1.9-1.22s-1.51-1.36-2.2-2c-1-1-2-2-2.93-3-.47-.52-.9-1.08-1.38-1.59-1.62-1.74,2.1,3.23.15.11-.76-1.2-1.55-2.38-2.24-3.62-.47-.83-.89-1.69-1.33-2.54-.3-.59-.82-2.65-.14-.26.76,2.67-.47-1.74-.67-2.45-.27-1-.51-1.93-.71-2.9-.12-.56-.42-3.95-.3-1.48s.06-.31.06-.66c0-1.07,0-2.13,0-3.2,0-.76.14-1.55.12-2.31,0-2.24-.13,1.38-.29,1.62.67-1,.7-3.65,1-4.79.37-1.45.81-2.88,1.3-4.29a13.65,13.65,0,0,0,.84-2.21c0-.05-1.94,3.89-.93,2.29.49-.79.83-1.74,1.27-2.57a45.09,45.09,0,0,1,2.39-4c.46-.69,1-1.33,1.46-2-3.39,5.68-2.56,3.21-1.25,1.68.75-.88,1.5-1.76,2.29-2.61a60.28,60.28,0,0,1,4.86-4.73c.42-.37.89-.72,1.3-1.1,1.48-1.35-1.71,1.35-1.73,1.35,1,0,3.06-2,4-2.59a17.76,17.76,0,0,0,1.62-.85c1.64-1.12-1.74.9-2,.78a26.07,26.07,0,0,0,4.14-1.25c1.81-.83-1.92.53-2.22.22a24.55,24.55,0,0,0,2.55-.1c.63,0,2.87.32,0-.13-3.13-.5.07.11.7.28s1.39.42,2.09.62c4.12,1.19-.71-.24-.58-.33.41-.26,3.62,1.9,4.08,2.19.66.39,1.28.89,2,1.26,2.41,1.33-2.29-2.3-.42-.34.38.41,3.28,3.69,3.61,3.65-.87.11-2-4-.73-.66.71,1.93,1,.23.09,0-.74-.22-.67-2-.2,0,0,0-1.11-4.22-.41-2.29a4.16,4.16,0,0,1-.07,1.26c-.07.88.51-4.14.55-4.14s-.41,2.05-.43,2.15c-.71,3.11-2,6-2.92,9-.33,1.12,2.24-5,.73-1.75-.43.9-.83,1.82-1.28,2.72q-1.38,2.82-3,5.53t-3.24,5.07c-1.09,1.57-3.49,3.36.63-.67-.76.74-1.38,1.7-2.09,2.5a53,53,0,0,1-4.2,4.28c-.7.63-3.69,3-.77.74s-.13,0-.91.47-1.79,1-2.69,1.5c-3.32,1.87,3.86-1.09,1.16-.5-.83.19-1.68.49-2.51.72-4.29,1.22,3.86.05,1-.08a24.5,24.5,0,0,0-2.71,0c-2.84.19,5.17,1.31,1.13.15-1-.27-1.93-.51-2.88-.78-4-1.1,3.6,2.08-.18-.05-1-.58-2-1.12-3-1.74-.7-.44-1.35-1-2.07-1.38-1.77-1,1.32,1,1.42,1.17-1.92-2.6-5.32-4.72-7.58-7.11-7.21-7.61-21.12-7.81-28.29,0-7.49,8.16-7.69,20.16,0,28.28Z"/><path class="cls-1" d="M1546.44,403.7,1731.35,400c10.45-.21,20.49-9.05,20-20-.48-10.66-8.79-20.22-20-20l-184.91,3.66c-10.45.21-20.49,9.05-20,20,.48,10.66,8.79,20.23,20,20Z"/><path class="cls-1" d="M138.27,291.52A1107.52,1107.52,0,0,0,471.8,317.75c32.26-2.4,64.42-6.29,96.36-11.41l-15.41-36.55C490.22,296.33,432.54,333.37,381.4,378A661.85,661.85,0,0,0,251,533.33a648.86,648.86,0,0,0-50.71,104.34c-3.74,9.8,4.14,22.37,14,24.61,11.42,2.6,20.6-3.49,24.6-14q2.18-5.68,4.45-11.33c.76-1.88,1.54-3.75,2.31-5.63.41-1,1-3.47-.25.57a26.33,26.33,0,0,1,1.2-2.79q5-11.52,10.39-22.83,10.53-21.91,22.76-43,12.42-21.36,26.46-41.71,6.92-10,14.2-19.75c1.22-1.63,2.44-3.24,3.67-4.86.61-.8,1.21-1.62,1.85-2.41-.4.49-2.58,3.3-.33.44,2.51-3.18,5-6.36,7.58-9.51a647.44,647.44,0,0,1,68-71.65c12-10.86,24.36-21.51,37.29-31.25-.51.38-3.33,2.54-.43.34l2.42-1.84q2.43-1.83,4.87-3.65,4.88-3.62,9.83-7.15,9.92-7.05,20.08-13.73a620,620,0,0,1,97.73-52.27c9.12-3.87,11.62-16.82,8.18-25-4.13-9.79-13.58-13.18-23.59-11.58q-10.38,1.67-20.78,3.14l-3.79.53c-6.25.86,4-.5-2.25.29-3.79.48-7.58,1-11.38,1.42q-19.91,2.37-39.91,4-40.46,3.3-81.09,3.57t-81.13-2.47q-20.49-1.39-40.92-3.56-10-1.05-19.92-2.29l-3.79-.48c-.38-.05-6.64-.87-2.26-.28q-5.69-.76-11.35-1.6-45.37-6.63-90.06-17.1c-10.17-2.37-22.14,3.16-24.6,14-2.33,10.23,3.07,22.06,14,24.6Z"/><path class="cls-1" d="M285.32,429.6c67.31,14.91,137,19.57,205.59,12.81q30.69-3,61.06-8.73c10.3-1.94,17.1-14.91,14-24.6-3.57-11-13.57-16.05-24.61-14-8.13,1.53-16.29,2.93-24.47,4.15l-5.67.82-1.13.15c2.19-.29-.94.12-1.13.14q-6.63.84-13.27,1.56-24.69,2.61-49.53,3.3A637.42,637.42,0,0,1,348,400.35l-2.84-.37c2.12.28,1.23.17-.36-.06-2.52-.37-5-.73-7.55-1.12q-6.62-1-13.19-2.17Q309.93,394.16,296,391c-10.19-2.26-22.13,3.07-24.61,14-2.3,10.12,3,22.18,14,24.6Z"/><path class="cls-1" d="M627.46,387.27c10.47,0,20.49-9.2,20-20s-8.78-20-20-20c-10.46,0-20.48,9.2-20,20s8.79,20,20,20Z"/><path class="cls-1" d="M685.32,384.93c10.46,0,20.48-9.2,20-20s-8.79-20-20-20c-10.47,0-20.49,9.2-20,20s8.78,20,20,20Z"/><path class="cls-1" d="M585.92,422.22c-10.2,18.44-19.11,37.94-15.11,59.49,3.83,20.65,20.76,37.66,42.1,38.76,20.14,1,40-12.79,52.57-27.47,12-14,20.9-31,23.57-49.47.8-5.54.93-10.37-2-15.41-2.43-4.15-7.18-8.1-11.95-9.19-9.47-2.16-23,2.9-24.6,14a83,83,0,0,1-2,9.75c-.41,1.48-.85,2.94-1.34,4.39-.19.55-1.93,5.36-.89,2.63s-1.29,2.67-1.55,3.18c-.69,1.37-1.43,2.72-2.2,4-1.48,2.53-3.07,5.53-5.09,7.68,2.29-2.44.55-.74-.73.73-1,1.15-2.06,2.28-3.14,3.38-1.8,1.83-4.4,5.29-6.83,6.18q3-2.31.36-.35l-1.26.88c-1.38.93-2.79,1.83-4.24,2.65-1.17.66-4.76,2.28-1.49,1a52.25,52.25,0,0,1-5.77,1.69q-2.22.43,1.12-.2c-2-.1-2.26,0-.73.17s1.29.22-.34-.12c-1.66-.54-1.69-.49-.09.17s1.57.7,0-.06a16.23,16.23,0,0,1-1.66-1q-1.85-1.24,1.47,1.17a24.74,24.74,0,0,1-1.87-1.82c-2.74-2.45,1.72,3.4-.1-.15-.32-.62-2.23-3.07-1.95-3.53l1,2.28q-.48-1.27-.87-2.58a29.58,29.58,0,0,0-.91-4c.33,2.85.44,3.5.31,1.95-.05-.67-.08-1.34-.08-2a40.52,40.52,0,0,1,.26-4.8c-.48,4.62.27-.42.53-1.46.42-1.68.93-3.34,1.49-5,.41-1.22,1.94-4.94.54-1.71.7-1.62,1.46-3.2,2.24-4.78,1.82-3.68,3.8-7.28,5.79-10.87,5.06-9.15,2.53-22.24-7.18-27.36-9.39-5-21.95-2.6-27.36,7.17Z"/><path class="cls-1" d="M768.12,390.9c-2.07,5,1-2.21-.27.68-.57,1.28-1.12,2.58-1.7,3.87q-1.71,3.85-3.54,7.66-3.63,7.62-7.66,15A329.56,329.56,0,0,1,737.33,447c-3.18,4.64-6.51,9.17-9.9,13.68,1.11-1.48,1.22-1.55,0-.05-1.05,1.33-2.1,2.65-3.17,4q-2.4,2.94-4.86,5.84a332.16,332.16,0,0,1-23.83,25.09c-7.59,7.23-7.82,21.1,0,28.29,8.15,7.48,20.18,7.71,28.29,0,36.17-34.42,63.83-76.16,82.8-122.23,4-9.7-4.32-22.41-14-24.6-11.65-2.66-20.33,3.57-24.6,14Z"/><path class="cls-1" d="M771.61,470.05c.66-.56,1.34-1.09,2-1.64,3.51-2.84-3.85,2.86-.33.25,2.51-1.86,5-3.72,7.56-5.53,6.3-4.49,12.73-8.81,19.3-12.9a205.36,205.36,0,0,1,20.55-11.46c.75-.36,1.51-.69,2.26-1,3.29-1.54-1.46.72-1.51.63s5.78-1.82,6.24-1.93c.69-.15,3.95-.49,1.29-.29s.94,0,1.59,0c1.22,0,2.45.12,3.67.08,3.14-.11-3.9-.5.06.11s-.38-.47-.56-.46c.86,0,3.63,2.91,1.7.83-2.1-2.25.5,2.52-.56-.42-.16-.45-1.59-4.43-1.17-2.09.18,1,.07,3.6.34,1.06.29-2.77-.31.35-.25,1.18.23,2.8.83-3.37.13-.58-.32,1.31-.54,2.65-.87,4-2.26,9.11-5.31,18.07-4.57,27.62,1.07,13.93,8,25.8,21.18,31.36,10.85,4.58,22.79,2.44,33.77-.6,19.71-5.46,38.62-14.29,56.13-24.78,9-5.37,13.07-18.21,7.18-27.36s-17.76-12.93-27.37-7.18A265.38,265.38,0,0,1,892,453.12c-2.63,1.19,3.27-1.29.65-.28-.89.34-1.76.71-2.65,1.06-1.88.73-3.77,1.44-5.68,2.11q-4.73,1.68-9.53,3.08c-3.23.93-6.48,1.76-9.77,2.46-1.58.34-2.93-.36.14,0-.6-.06-3,.37-3.28,0s3.82,1,4.17,1.15q-2.51-1.56-.27,0a6.37,6.37,0,0,1,2.65,2.92c-1.53-2.45.92.81.39,1.52.11-.15-1-2.48-.68-2.39,1.11.32.15,4.55.22,1.48,0-.88,0-1.77,0-2.66,0,.2.11-2.68.2-2.69.35,0-.84,4.46-.08,1.31.56-2.33,1.18-4.62,1.84-6.93,3.12-10.93,5.28-22.8,1.13-33.75-5.28-13.92-17.57-22.66-32.14-24.62-20.51-2.75-38.62,6.32-55.68,16.6a325.8,325.8,0,0,0-40.33,28.33c-8.06,6.73-7.47,21.43,0,28.29,8.58,7.87,19.68,7.18,28.29,0Z"/><path class="cls-1" d="M1162.18,279.78c-63.32,24.41-117.27,71-149.36,131-17.24,32.28-39.21,82.08-2,109.16,17.53,12.76,40.93,11.87,60.64,5.4,18.86-6.18,37.26-14.78,55-23.75A496,496,0,0,0,1232,429c7.82-7,7.65-21.26,0-28.28-8.35-7.67-19.94-7.46-28.29,0q-9.39,8.4-19.2,16.31c-1.58,1.27-3.18,2.53-4.77,3.78-3,2.36-.69.54-.07.07l-2.77,2.1q-5.21,3.91-10.52,7.7a470.9,470.9,0,0,1-42.55,27,486.14,486.14,0,0,1-46,22.64c3.46-1.49-1.32.53-2.45,1q-2.88,1.17-5.77,2.31c-4.37,1.69-8.78,3.3-13.3,4.57-2.1.59-4.22,1.05-6.34,1.54-.24.05-3.28.55-1,.23,2.47-.36-1.39.08-2,.11-1.92.11-3.81,0-5.73,0-.57,0-3-.44-.27,0,3.15.55-1.06-.29-1.7-.45-1-.24-5.62-1.86-3.18-.87,2.61,1.06-2.06-1.24-2.78-1.65-2.72-1.54.89,0,.58.54,0,0-1.46-1.37-1.57-1.48-.57-.58-2.14-3-.77-.73s-.18-.74-.51-1.15c-1.66-2.09.78,3.13.15.56-.18-.73-.48-1.45-.67-2.18a11.94,11.94,0,0,1-.63-3c0,.06.15,3.84.31,1.48.12-1.79,0-3.68,0-5.49.12-4.14-.25.25-.17.55-.19-.79.4-2.37.57-3.18,1.56-7.69,4.34-15.11,7.28-22.37.28-.69.57-1.38.85-2.08,1.07-2.64-1.44,3.23-.25.64.73-1.59,1.41-3.2,2.15-4.79q2.36-5.12,4.93-10.11a272.38,272.38,0,0,1,23.52-37.42c2.29-3.07-1.85,2.3.54-.7,1.24-1.57,2.49-3.13,3.77-4.67q3.58-4.35,7.34-8.53,7.28-8.09,15.19-15.58c6-5.68,12.31-11,18.75-16.16,1.78-1.42-1,.76-1.08.84a14.89,14.89,0,0,1,3-2.25q2.41-1.79,4.87-3.52,5.2-3.68,10.59-7.09,10.13-6.42,20.83-11.9,5.67-2.9,11.49-5.51l2.06-.92c3.48-1.56-2.26.89,0,0,2.09-.84,4.18-1.68,6.28-2.49,9.73-3.76,17.52-13.62,14-24.61-3.07-9.47-14.15-18-24.61-14Z"/><rect class="cls-3" width="3448" height="826"/><path class="cls-1" d="M1145.91,357.28q-73.87,51.63-144.2,108.13c-45,36.08-89.28,73.34-131.29,112.83-22.92,21.54-44.6,45.09-60.15,72.62-5.14,9.11-2.47,22.27,7.18,27.36,9.46,5,21.87,2.56,27.36-7.17,3.1-5.49,6.42-10.84,10-16,1.95-2.83,4-5.59,6-8.33-2.72,3.6.76-.93,1.11-1.36q1.6-2,3.27-4a372.74,372.74,0,0,1,27.2-28.87c20.08-19.41,41.22-37.79,62.33-56.07q32.75-28.36,66.42-55.63,16.85-13.64,33.89-27,4.45-3.48,8.92-6.95l3-2.31c-3.18,2.47,1.73-1.32,1.92-1.47q9-6.88,18-13.7,39.08-29.52,79.23-57.57c8.56-6,13.36-17.77,7.18-27.36-5.48-8.5-18.2-13.58-27.37-7.17Z"/><path class="cls-1" d="M1563.73,436.22c-6.78,18.12-10.42,36.39-2,54.66s27,25.51,45.65,27.61c16.3,1.84,33.41-.25,49.44-3.25a201.21,201.21,0,0,0,45.91-14.91,174.89,174.89,0,0,0,44.13-29c7.84-7,7.65-21.26,0-28.28-8.36-7.68-19.92-7.45-28.28,0-1.55,1.38-3.12,2.75-4.73,4.07-.81.67-1.62,1.33-2.44,2,2-1.51,2.07-1.6.28-.26-3,2.14-6.05,4.29-9.2,6.27A182.48,182.48,0,0,1,1681,466.46c-2.08.91-2,.87.24-.09-1,.41-2,.82-3.06,1.22-2.06.79-4.13,1.55-6.21,2.26q-5.51,1.9-11.13,3.44-6.06,1.65-12.22,2.9-2.88.57-5.78,1.07c-.93.15-8.16,1.06-3,.49a177.27,177.27,0,0,1-25.12,1.26c-2-.06-4.69.21-6.54-.43l2.09.3c-1.06-.16-2.12-.35-3.17-.57-1.45-.3-5-.63-6.07-1.69,2.38,1.08,2.56,1.15.55.19a29.73,29.73,0,0,1-2.62-1.52q2.94,2.49.43.31l-1.07-1.06q-2.19-2.49.35.6a27.36,27.36,0,0,1-1.48-2.5q-1.46-3,.3.82c-.32-.9-.59-1.82-.82-2.75-.44-2.22-.44-1.85,0,1.11-.1-.94-.16-1.89-.18-2.83a43.22,43.22,0,0,1,.21-5c-.42,4.7.73-2.52,1-3.44,1.25-4.68,3-9.21,4.65-13.74,3.68-9.81-4.08-22.35-14-24.6-11.36-2.59-20.66,3.46-24.6,14Z"/><path class="cls-1" d="M2264.5,344.89c-9.22,28.19,3.92,65.05,30.14,79.75,29.23,16.4,69.15,5,86.26-23.45,18.24-30.36,8.06-70.74-21.76-89.31-29-18.08-73.37-9.44-90.16,21.7-5.27,9.78-7.5,21.83-3.75,32.55,3.94,11.3,12.85,20.72,24.92,23.09,12.89,2.54,26.85-2.18,33.49-14.09a30.3,30.3,0,0,0-4.49-35.94c-7.25-7.57-21.09-7.84-28.28,0-7.46,8.13-7.74,20.21,0,28.29a11,11,0,0,1-2.94-6.25c-.15-1.09,1-6.6-.09-3.18,1-3.41,3.32-6.46,6.86-7.56l2.73-.41c2.91.57,3.59.68,2.06.32-2.64-.87,4.19,2.59.53.19a10.39,10.39,0,0,1,3.34,3.29c-2.13-3.19.35,3.42-.2-.43.73,5.1.38,1.6.22.32-.36-2.85-1,5,.07.24.69-3-.39.28-.3.44-.15-.26,1.32-2.27,1.55-2.7,2.2-4.08-1.8,1.48.23-.3,1-.83,1.76-1.88,2.7-2.75.43-.4,1.84-1.91,2.27-2-1.89,1.43-2.23,1.74-1,.9.62-.42,1.25-.83,1.89-1.22.86-.52,1.73-1,2.62-1.47.31-.17,4.67-1.79,1.7-.86s1.65-.46,1.85-.52c1-.28,1.93-.54,2.9-.77a11.69,11.69,0,0,1,2.95-.59l-2.34.31c.74-.08,1.49-.14,2.24-.17,1.25-.07,2.5-.1,3.75-.06l1.5.06c2.28.21,2,.13-.85-.22.37.61,6,1.42,6.72,1.65,1.48.49,4.22.46.33,0a11.89,11.89,0,0,1,2.8,1.43c.91.5,1.77,1.13,2.69,1.61,4.27,2.25-1.77-1.81.38.13a64.93,64.93,0,0,1,6.09,6.1c-2.63-3.11.31.72,1.11,2.15.12.22,2.37,4.48.89,1.53s.43,1.34.54,1.69c.59,1.86,1,3.76,1.4,5.65,1.06,4.59,0-3.2-.08-.25,0,1.45.15,2.92.12,4.38,0,.78.26,3.05-.2,3.64.89-1.14.73-3.58.1-1-.57,2.39-1.19,4.68-1.9,7-.88,3-.38-.76.35-.75,0,0-1.14,2.26-1.32,2.59-.59,1.06-1.34,2-1.91,3.1-.84,1.2-.52.82,1-1.12-.45.56-.92,1.09-1.4,1.62-.75.82-4.39,3.33-4.64,4.39.38-1.61,2.88-1.89.62-.61-1,.58-2,1.27-3,1.84-.75.42-2.35,1.64-3.17,1.61.22,0,4.52-1.59.82-.41-2.27.73-4.56,1.28-6.86,1.88-4.5,1.17,3.31-.09.38,0-1.19,0-2.37.18-3.55.19-.95,0-1.9,0-2.84,0-.72,0-4.6-1-1.58-.07,3.24,1-1.1-.33-1.52-.43-.92-.23-1.84-.48-2.74-.77a12,12,0,0,1-2.68-.95c2.75,1.19,3.21,1.35,1.39.45l-1-.58c-.84-.49-1.63-1.18-2.49-1.63-1.27-.66,3.13,3.14.24,0-.72-.78-1.53-1.47-2.24-2.25l-.87-1q-2-2.46.67,1c-1.21-.32-3-4.49-3.65-5.66q-.67-1.2-1.29-2.43c-.41-.82-.8-1.66-1.17-2.5l1,2.2c-1.24-.78-2.08-6.56-2.4-8a15.06,15.06,0,0,0-.53-2.75c.33,2.78.42,3.39.26,1.85-.07-.7-.13-1.39-.16-2.09,0-1-.54-6.64.13-6.93-.53.22-.84,4.58,0,.55a44.28,44.28,0,0,1,1.28-4.64c3.26-9.95-3.78-22.28-14-24.6a20.46,20.46,0,0,0-24.6,14Z"/><path class="cls-1" d="M2363.75,341.76c-7.95,29.11,6,63.95,34.37,76.4,30,13.16,67,4,83.86-25.21,8.18-14.14,10.37-30.35,7.76-46.3-2.7-16.49-13.09-30.32-26.21-40.11-27.49-20.52-71-13.93-90.35,14.61-13.22,19.5-6.17,49.32,17.81,56.07a30.72,30.72,0,0,0,33.7-12c6.49-9,7.3-23.2.69-32.45-6.07-8.49-17.71-13.4-27.36-7.18-8.42,5.43-13.69,18.27-7.18,27.37,2,2.83-.48-2-.64-3.08-.3-2.11.36-3.69.74-5.64l.57-1.24q-1.65,2.72.92-1.14s8.68-4.16,4.36-2.91a11,11,0,0,1,5.46-.11c-3.19-.58.48.17,1.11.54l1.89,1.58c-1.18-1.22-1.25-1.25-.23-.07.54,1.37,1.47,4.32,1.05,1.34,1,7.06.07-2.4.1,1.76,0,2.9.16-1.27.67-1.93-.49.64-2.19,3.13,0,.59.77-.89,2.32-2.2-.35.3,1.54-1.44,2.89-3,4.54-4.33-3.39,2.73-.57.6.4,0,1.33-.81,2.74-1.45,4.08-2.22,2.44-1.4-3.2.94-.49.22,1.25-.33,2.45-.83,3.7-1.17,1-.27,2-.47,3-.71,4.33-1-.75.2-.71,0,.11-.49,6.61-.2,7-.19.7,0,4.07.28,1.2,0-3-.3,2,.48,2.67.64,1.26.32,2.47.75,3.71,1.11,1.9.54,2.06-.24-.57-.29,1.58,0,3.92,2.05,5.24,2.9a15.58,15.58,0,0,1,2.47,1.71c-3.15-3.19-.89-.59,0,.22s1.8,1.74,2.64,2.66c.46.5,2.76,3.86,1.28,1.45-1.65-2.69.87,1.53,1,1.69.51.86,1,1.75,1.45,2.62,1.87,3.28-.44-.42-.27-.88a18.4,18.4,0,0,0,.93,2.68c.36,1.13.65,2.27.91,3.43.17.75,1,3.74.26.83-.83-3.18,0,1,.06,1.58.07,1.43.07,2.85,0,4.27a14.57,14.57,0,0,0-.21,2.84c-.19-.46.93-4.74.09-1.09a61.91,61.91,0,0,1-1.64,6.19c-.23.69-1.43,3.55-.27.93,1.34-3-.66,1.19-.81,1.47-.45.83-.92,1.65-1.42,2.45l-.77,1.2c-1.26,1.77-1.07,1.56.59-.63-.47,1.53-2.81,3-3.9,4.13-2.44,2.57.4,0,.76-.4a14.89,14.89,0,0,1-2.94,2c-1,.62-2.08,1.13-3.08,1.75-1.15.7-2.33,2.13.9-.25-1.68,1.24-4.75,1.65-6.78,2.12a14.33,14.33,0,0,0-2.79.56c1.82-1.28,3.52-.25,1.07-.18-2.15.06-4.25.19-6.4.08l-.71,0q-3.37-.33,1.08.23A11.91,11.91,0,0,1,2421,384c-.92-.21-1.84-.45-2.75-.72-.68-.19-1.36-.41-2-.65-1.41-.51-.91-.27,1.47.72-1.46-1.38-4.42-2.32-6.2-3.4-3.29-2,.59.62.71.64-.91-.15-2.36-2.09-3.07-2.8s-1.24-1.37-1.89-2c-3-3,1.83,3-.27-.34-1.25-2-2.35-4-3.48-6-2.2-4,.91,3,.11.3-.32-1.11-.76-2.19-1.08-3.31s-.59-2.24-.83-3.37c-.15-.68-.28-1.36-.39-2.05q.51,4.2.29,1.88c-.05-2.33-.23-4.59-.07-6.92l.05-.69c.19-1.81.18-1.84,0-.09s-.2,1.71.13-.08c.19-.9.42-1.8.68-2.69,2.76-10.08-3.42-22.2-14-24.6s-21.65,3.16-24.6,14Z"/><path class="cls-1" d="M2412.57,149.83q-17.21,9.55-35.25,17.4c-5.43,2.37,3.67-1.46-1.81.76-1.66.67-3.32,1.35-5,2-2.77,1.1-5.56,2.16-8.35,3.19q-9.66,3.54-19.48,6.58a386.53,386.53,0,0,1-38.1,9.71q-9.63,1.93-19.36,3.39c-1.48.22-2.95.44-4.43.64,4.61-.63-1.29.14-1.77.19q-5.33.63-10.67,1.12c-10.39,1-20.52,8.51-20,20,.45,10,8.84,21,20,20a416.69,416.69,0,0,0,164.39-50.44c9.15-5.09,12.94-18.42,7.17-27.37-6-9.26-17.57-12.61-27.36-7.17Z"/><path class="cls-1" d="M2287.4,287.79a358,358,0,0,0,152.78-27c5-2.11,9.08-4.29,12-9.2,2.51-4.28,3.57-10.6,2-15.41-3-9.23-14.26-18.29-24.6-14a343.66,343.66,0,0,1-71.37,21.18c-3,.55-6,1-9.08,1.52l-4.56.67c2.95-.42.53-.08-1.07.11q-9.15,1.11-18.34,1.71a344.11,344.11,0,0,1-37.73.38c-10.47-.45-20.47,9.52-20,20a20.43,20.43,0,0,0,20,20Z"/><path class="cls-1" d="M2330.55,218.89a583,583,0,0,1,27.24,95.28c2,10.29,14.86,17.12,24.61,14,10.94-3.54,16.12-13.58,14-24.6a583,583,0,0,0-27.24-95.28c-3.7-9.75-13.65-17.52-24.6-14-9.51,3.08-17.95,14.13-14,24.6Z"/><path class="cls-1" d="M2364.22,401.06c.92,4.38,1.77,8.78,2.52,13.19.32,1.9.62,3.79.91,5.69.19,1.26.37,2.53.55,3.8q-.43-3.23,0,.39c.9,8.27,1.67,16.54,2,24.86a329.76,329.76,0,0,1-1.91,51.72c-1.2,10.43,10.05,20.44,20,20,11.86-.53,18.71-8.83,20-20a345.66,345.66,0,0,0-5.56-110.28c-2.14-10.26-14.77-17.15-24.6-14-10.84,3.51-16.27,13.61-14,24.6Z"/><path class="cls-1" d="M2327.75,482.48l106-4.53c10.43-.45,20.49-8.88,20-20-.47-10.45-8.81-20.48-20-20l-106,4.53c-10.44.45-20.5,8.88-20,20,.47,10.45,8.8,20.48,20,20Z"/><path class="cls-1" d="M2317.53,534a503,503,0,0,0,134.07-8.6c10.29-2,17.13-14.85,14-24.6-3.54-10.94-13.58-16.15-24.6-14q-7.57,1.5-15.2,2.78c-2.85.47-5.72.92-8.58,1.34l-3.83.55c-3.28.47,2.88-.32-.42,0-10.57,1.17-21.11,2.31-31.73,2.94a483.31,483.31,0,0,1-63.68-.49c-10.46-.77-20.46,9.74-20,20,.52,11.48,8.8,19.18,20,20Z"/><path class="cls-1" d="M2519.39,409.92c4-.8,8.08-1.4,12.12-2.13,2.34-.43-.26,0-.63,0,.94-.13,1.88-.24,2.82-.35q3.75-.44,7.53-.77a247.31,247.31,0,0,1,25.53-.9c8.55.14,17,.93,25.5,1.75,2.37.23-.26-.05-.63-.1l2.81.41q3.29.51,6.54,1.09,6.53,1.17,13,2.71c3.11.74,6.21,1.51,9.26,2.47l3.12,1c-2.41-.73-.27-.13.28.15.86.43,1.72.84,2.56,1.31s1.62,1,2.43,1.47,1.74,1.81.23.11c-1.83-2.07,1,1.24,1.52,1.77,1.55,1.53-1-1.17-1-1.25,1.78,2.39.41.28.06-.62.29.75.52,1.52.74,2.29.13.48.88,4,.42,1.3s0,.09,0,.58c0,1.1.07,2.18.06,3.28,0,1.65-.13,3.29-.28,4.93-.07.81-.19,1.62-.25,2.43-.19,2.39.21-1.19.19-1.31.21,1.85-.74,4.54-1.11,6.37a126.85,126.85,0,0,1-6.15,20.93l-.9,2.25c.63-1.57,1-2.28.08-.32s-1.84,3.9-2.84,5.81q-2.79,5.39-6.1,10.49c-1,1.58-2.08,3.15-3.17,4.69-.63.87-1.28,1.73-1.92,2.61,1-1.39,1.49-1.84.14-.23-2.77,3.32-5.63,6.52-8.68,9.59-7.38,7.44-8,21,0,28.29s20.41,7.93,28.29,0A144.15,144.15,0,0,0,2661,478c7.34-17,13.19-36.2,12.54-55-.42-12-4.19-23-12.38-31.93-6.68-7.27-16.08-11.7-25.25-14.85-18.28-6.28-38.61-8.78-57.81-10a269.69,269.69,0,0,0-69.37,5.08c-10.28,2-17.12,14.84-14,24.6,3.54,10.93,13.59,16.16,24.61,14Z"/><path class="cls-1" d="M2579.75,337.93c-.21,6.36-.62,12.7-1.27,19-.18,1.72-.39,3.44-.58,5.17-.45,3.93.31-1.76-.1.69-.52,3.13-1,6.28-1.54,9.41a271.6,271.6,0,0,1-9.16,36.08c-1.89,5.77-4,11.44-6.24,17.09-2.11,5.35,1.64-3.65-.66,1.62-.58,1.32-1.16,2.64-1.76,4-1.31,2.89-2.67,5.77-4.08,8.61a272,272,0,0,1-19.3,32.84c-5.93,8.66-1.91,22.56,7.17,27.37,10.16,5.36,21,2.06,27.37-7.18,31.08-45.44,48.29-99.73,50.15-154.68.36-10.46-9.45-20.47-20-20-11.14.5-19.62,8.79-20,20Z"/><path class="cls-1" d="M2003.84,361c60.23,1.45,122-9.39,177.15-34,9.59-4.27,12.58-19,7.17-27.36-6.39-9.92-17.1-11.75-27.36-7.18-1.41.63-2.81,1.32-4.25,1.87,4.54-1.72,0,0-1,.38q-4.83,1.95-9.71,3.71c-6.2,2.26-12.47,4.31-18.79,6.2a397.51,397.51,0,0,1-41,9.87c-6.93,1.29-13.9,2.43-20.9,3.37,4.67-.63-1.2.13-1.71.19q-2.64.32-5.28.6-5.28.57-10.58,1a412,412,0,0,1-43.74,1.29c-10.47-.25-20.48,9.38-20,20,.49,11,8.78,19.73,20,20Z"/><path class="cls-1" d="M2060.87,270.88a558.38,558.38,0,0,1,12.32,59.95c.11.72,1.16,8.36.61,4.14q.49,3.78.93,7.58.89,7.57,1.56,15.19c.89,10.14,1.48,20.31,1.83,30.48.35,10.45,8.94,20.5,20,20,10.53-.47,20.38-8.8,20-20a583.24,583.24,0,0,0-18.68-128c-2.65-10.12-14.41-17.26-24.6-14-10.42,3.37-16.81,13.76-14,24.61Z"/><path class="cls-1" d="M2111.34,372.87c-30.84.18-64.13,10-86.75,31.6-16.51,15.75-27.16,39.26-26.68,62.22.55,26.06,16,48.81,39.6,59.76,24,11.16,49.79,12.43,75.67,8.92a144.61,144.61,0,0,0,45.94-13.76c37.26-18.71,70.89-70.23,43.47-110.22-19.62-28.62-58.13-38.6-91.25-38.52-10.46,0-20.49,9.19-20,20s8.79,20,20,20c2.69,0,5.39.13,8.08.32q3.3.22,6.59.59l1.64.2c3.44.36-4.82-.73-2.29-.31,1.68.28,3.36.51,5,.81a119.23,119.23,0,0,1,19,4.92c1.87.66,6.68,3.45,1.28.37,1.41.8,3,1.36,4.44,2.1s2.88,1.54,4.28,2.38c.78.47,1.54,1,2.29,1.46,1.54,1,3.83,3.75-.1-.27,2.26,2.31,4.78,4.33,7,6.73s-1-1.19-1.12-1.48A13.62,13.62,0,0,0,2169,433c.49.78,1,1.57,1.4,2.38.6,1.12,1.24,3.84.26.23.62,2.26,2.25,5.14,2,7.49,0-.41-.25-4.68-.27-.88,0,1,.06,1.93,0,2.91l-.06,1.44c-.21,2.26-.12,1.91.25-1.07a11.09,11.09,0,0,1-.51,2.77,54.5,54.5,0,0,1-1.9,6.63l-.47,1.28q-1.22,3,.48-1.09c.06.06-1.19,2.5-1.12,2.34q-1.38,2.78-3,5.42c-.78,1.3-1.6,2.57-2.45,3.83-.49.71-1,1.41-1.5,2.12-2.53,3.69,2.78-3.3.63-.76-1.44,1.7-2.83,3.41-4.36,5-1.75,1.86-3.6,3.62-5.53,5.3a14.92,14.92,0,0,1-2.3,1.91q2.86-2.18,1.11-.88c-.58.43-1.18.86-1.78,1.27a90.92,90.92,0,0,1-10.93,6.46c-1.21.61-2.45,1.16-3.67,1.74-2.83,1.37,1.12-.56,1.14-.45.06.29-6.14,2.29-6.52,2.42a131.2,131.2,0,0,1-19.74,4.9c-2,.34-4.08.63-6.12.92-4.27.6,5.4-.53.28-.06-2.66.25-5.3.53-8,.68a123.88,123.88,0,0,1-14.42,0c-1.59-.09-3.17-.27-4.76-.37-1.28-.08-3.4.36.61.15-2.64.14-5.9-1-8.43-1.56-2.24-.52-4.47-1.11-6.66-1.79-1.2-.37-2.39-.77-3.58-1.2s-4.49-1.12-.06.09c-3.7-1-9.94-4.32-12.51-7.2.31.35,3.31,3,.74.46-.89-.88-1.84-1.68-2.71-2.58-.63-.65-2.2-1.84-2.43-2.69.06.22,2.56,3.89.59.67-.37-.62-3.75-5.27-3.36-5.94.06-.11,1.64,4.82.49,1.06-.38-1.28-.83-2.52-1.16-3.81a29,29,0,0,0-.71-3.23c-1-2.54.26,5.06.1.73-.07-2-.21-4-.15-6,0-1.11.14-2.21.19-3.32.07-1.67,1.07-2.54-.23,1.34.76-2.27.93-4.86,1.59-7.2.54-1.94,1.21-3.83,1.88-5.73,1.51-4.24-1.52,3-.2.45.51-1,.95-2,1.46-3q1.37-2.64,3-5.15c.58-.92,1.22-1.81,1.81-2.72,2.13-3.32-2.69,2.93.13-.21.69-.78,10.15-10,10.18-9.94s-4.08,2.89-1,.83c1-.7,2.05-1.43,3.1-2.12,1.9-1.23,3.86-2.39,5.85-3.47s4-2,6-3c3-1.45-1.14.52-1.49.6a27.53,27.53,0,0,0,3.28-1.29,116.39,116.39,0,0,1,11.82-3.7q5.4-1.4,10.91-2.33c1.17-.2,6.93-1,2.66-.45s1.09-.09,2.08-.19c3.47-.34,7-.57,10.46-.59,10.46-.05,20.48-9.15,20-20S2122.55,372.81,2111.34,372.87Z"/><path class="cls-1" d="M2123.85,193.72c-2.14,1.76-4.32,3.48-6.48,5.22-1.89,1.51,2.8-2.11-.24.17-1.26.94-2.51,1.89-3.77,2.82q-7.16,5.26-14.54,10.2-15.27,10.22-31.33,19.16-16.9,9.5-34.47,17.75c-6.14,2.9-12.35,5.66-18.58,8.37l-1.72.74.48-.2-4.33,1.79q-5.22,2.11-10.48,4.16c-9.72,3.77-17.53,13.6-14,24.6,3.06,9.45,14.16,18,24.6,14,51.22-19.88,100.54-45.42,143.1-80.47,8.11-6.67,7.44-21.46,0-28.28-8.62-7.91-19.63-7.12-28.28,0Z"/><path class="cls-1" d="M1857.25,436.92l50.9,1.77,13.71.48c2,.06,3.91.11,5.87.2.93,0,1.86.08,2.78.16l-2.51-.35a17.41,17.41,0,0,1,2.67.68,10.53,10.53,0,0,1-6.79-5.36l-1.54-5.65q.75-4-.11-.57c-2.31,4.93,1.61-2.75-.39.85-.69,1.25-1.29,2.56-1.95,3.83a345.89,345.89,0,0,1-19.74,32.85c-3.69,5.5-7.56,10.87-11.52,16.19-.89,1.17-.59.77.92-1.19l-1.74,2.2c-.85,1.06-1.71,2.11-2.59,3.15q-2.79,3.33-5.78,6.5c-7.19,7.61-8.12,20.84,0,28.29,7.79,7.15,20.61,8.12,28.28,0,11-11.62,20.38-24.88,29.14-38.22,8.61-13.1,17.34-26.83,23.06-41.48,5.23-13.4,1.37-29.25-11.44-36.83-9.21-5.46-20.22-5-30.54-5.39l-60.69-2.11c-10.46-.36-20.47,9.46-20,20,.5,11.15,8.79,19.61,20,20Z"/><path class="cls-1" d="M1894.08,359.82a51.56,51.56,0,0,0,35.35-14.64c8.67-8.67,15.2-22.9,14.65-35.36-.58-12.93-4.83-26.34-14.65-35.35s-21.81-14.65-35.35-14.65a51.59,51.59,0,0,0-35.36,14.65c-8.67,8.67-15.2,22.9-14.64,35.35.57,12.93,4.82,26.35,14.64,35.36s21.81,14.64,35.36,14.64Z"/></g></g></svg>