<?xml version="1.0" encoding="utf-8"?>
<!-- Generator: Adobe Illustrator 23.0.2, SVG Export Plug-In . SVG Version: 6.00 Build 0)  -->
<svg version="1.1" id="圖層_1" xmlns="http://www.w3.org/2000/svg" xmlns:xlink="http://www.w3.org/1999/xlink" x="0px" y="0px"
	 viewBox="0 0 24 24" style="enable-background:new 0 0 24 24;" xml:space="preserve">
<style type="text/css">
	.st0{clip-path:url(#SVGID_2_);}
	.st1{fill:#FFBC59;}
</style>
<g>
	<defs>
		<rect id="SVGID_1_" width="24" height="24"/>
	</defs>
	<clipPath id="SVGID_2_">
		<use xlink:href="#SVGID_1_"  style="overflow:visible;"/>
	</clipPath>
	<g class="st0">
		<path class="st1" d="M22.1,18.4h-4.9c-0.1,0-0.1,0-0.2-0.1c0,0-0.1-0.1-0.1-0.1c-1-1.8-2.6-3.1-4.5-3.7c-0.1,0-0.1,0-0.1-0.1
			c0,0-0.1-0.1-0.1-0.1c0-0.1,0-0.1,0-0.2c0-0.1,0.1-0.1,0.1-0.1c0.7-0.6,1.6-0.9,2.5-1h0.4c3.8,0.1,6.9,2.3,7.1,5c0,0,0,0.1,0,0.1
			s0,0.1-0.1,0.1c0,0-0.1,0.1-0.1,0.1C22.2,18.4,22.1,18.4,22.1,18.4z"/>
		<path class="st1" d="M8.9,14c2.3,0,4.2-1.9,4.2-4.2c0-2.3-1.9-4.2-4.2-4.2c-2.3,0-4.2,1.9-4.2,4.2C4.7,12.1,6.6,14,8.9,14z"/>
		<path class="st1" d="M19.2,6.8c0.1,0.6,0.1,1.2,0,1.8c-0.2,0.6-0.4,1.2-0.8,1.7c-0.4,0.5-0.9,0.9-1.5,1.1
			c-0.6,0.3-1.2,0.4-1.8,0.4c-0.2,0-0.5,0-0.7-0.1c0,0-0.1,0-0.1-0.1c0,0-0.1-0.1-0.1-0.1c0,0,0-0.1,0-0.1c0,0,0-0.1,0-0.1
			c0.2-0.5,0.2-1.1,0.2-1.6c0-0.9-0.2-1.8-0.6-2.5c-0.4-0.8-1-1.5-1.8-1.9c0,0-0.1-0.1-0.1-0.1c0,0,0-0.1,0-0.1c0,0,0-0.1,0-0.1
			c0,0,0-0.1,0.1-0.1c0.5-0.6,1.2-1,1.9-1.2c0.7-0.2,1.5-0.2,2.3,0c0.8,0.2,1.4,0.6,2,1.2S19,6,19.2,6.8z"/>
		<path class="st1" d="M15.6,20.6H2.3c-0.1,0-0.2,0-0.3-0.1c-0.1,0-0.2-0.1-0.2-0.2c-0.1-0.1-0.1-0.1-0.1-0.2c0-0.1,0-0.2,0-0.3
			c0.5-2.6,3.5-4.7,7.3-4.7c3.7,0,6.8,2,7.3,4.7c0,0.1,0,0.2,0,0.3c0,0.1-0.1,0.2-0.1,0.2c-0.1,0.1-0.1,0.1-0.2,0.2
			C15.8,20.5,15.7,20.6,15.6,20.6z"/>
	</g>
</g>
</svg>
