<?xml version="1.0" encoding="utf-8"?>
<!-- Generator: Adobe Illustrator 23.0.2, SVG Export Plug-In . SVG Version: 6.00 Build 0)  -->
<svg version="1.1" id="圖層_1" xmlns="http://www.w3.org/2000/svg" xmlns:xlink="http://www.w3.org/1999/xlink" x="0px" y="0px"
	 viewBox="0 0 24 24" style="enable-background:new 0 0 24 24;" xml:space="preserve">
<style type="text/css">
	.st0{clip-path:url(#SVGID_2_);}
	.st1{fill:#FFBC59;}
</style>
<g>
	<defs>
		<rect id="SVGID_1_" width="24" height="24"/>
	</defs>
	<clipPath id="SVGID_2_">
		<use xlink:href="#SVGID_1_"  style="overflow:visible;"/>
	</clipPath>
	<g class="st0">
		<path class="st1" d="M11.8,2.9C10.9,2.9,10,3,9.2,3.2c-3.9,1-6.8,4.2-6.8,8.1c0,1.6,0.5,3.2,1.5,4.6C4,15.9,4,16,4,16.1
			c0,0.1,0,0.1,0,0.2l-1.5,4.9c0,0,0,0.1,0,0.1c0,0,0,0.1,0.1,0.1s0.1,0.1,0.1,0.1c0,0,0.1,0,0.1,0c0.1,0,0.1,0,0.2,0L7,18.8
			c0.1,0,0.1-0.1,0.2-0.1c0.1,0,0.1,0,0.2,0c1.4,0.7,2.9,1,4.4,1c1,0,2.1-0.2,3-0.5l0.2-0.9c0-0.4,0.2-0.7,0.4-1l2.7-3.2l0.5-0.6
			l0.3-0.3l0.4-0.4c0.2-0.3,0.5-0.5,0.8-0.6c0.3-0.2,0.7-0.2,1-0.3c0-0.2,0-0.4,0-0.6C21.1,6.7,16.9,2.9,11.8,2.9z M8,12.5
			c-0.1,0-0.2,0-0.4-0.1c-0.1,0-0.2-0.1-0.3-0.2c-0.1-0.1-0.2-0.2-0.2-0.3c0-0.1-0.1-0.2-0.1-0.4c0-0.1,0-0.2,0.1-0.3
			c0-0.1,0.1-0.2,0.2-0.3c0.1-0.1,0.2-0.1,0.3-0.2c0.1,0,0.2-0.1,0.3-0.1c0.1,0,0.2,0,0.3,0.1c0.1,0,0.2,0.1,0.3,0.2
			c0.1,0.1,0.1,0.2,0.2,0.3s0.1,0.2,0.1,0.3c0,0.1,0,0.2-0.1,0.3c0,0.1-0.1,0.2-0.2,0.3s-0.2,0.2-0.3,0.2C8.2,12.5,8.1,12.5,8,12.5z
			 M11.7,12.5c-0.1,0-0.2,0-0.4-0.1c-0.1,0-0.2-0.1-0.3-0.2c-0.1-0.1-0.2-0.2-0.2-0.3c0-0.1-0.1-0.2-0.1-0.4c0-0.2,0.1-0.5,0.3-0.6
			c0.2-0.2,0.4-0.3,0.6-0.3c0.2,0,0.5,0.1,0.6,0.3c0.2,0.2,0.3,0.4,0.3,0.6c0,0.1,0,0.2-0.1,0.3c0,0.1-0.1,0.2-0.2,0.3
			c-0.1,0.1-0.2,0.2-0.3,0.2C11.9,12.5,11.8,12.5,11.7,12.5L11.7,12.5z M15.5,12.5c-0.1,0-0.2,0-0.4-0.1c-0.1,0-0.2-0.1-0.3-0.2
			c-0.1-0.1-0.2-0.2-0.2-0.3c0-0.1-0.1-0.2-0.1-0.4c0-0.1,0-0.2,0-0.4c0-0.1,0.1-0.2,0.2-0.3c0.1-0.1,0.2-0.2,0.3-0.2
			c0.1-0.1,0.2-0.1,0.4-0.1c0.1,0,0.2,0,0.4,0.1c0.1,0.1,0.2,0.1,0.3,0.2c0.1,0.1,0.1,0.2,0.2,0.3c0,0.1,0.1,0.2,0,0.4
			c0,0.1,0,0.2-0.1,0.3c0,0.1-0.1,0.2-0.2,0.3c-0.1,0.1-0.2,0.2-0.3,0.2C15.7,12.5,15.6,12.5,15.5,12.5L15.5,12.5z"/>
		<path class="st1" d="M21,16.6l-0.1,0.1l-2.6,3.1c-0.1,0.1-1.9,0.8-1.9,0.8c-0.1,0-0.1,0-0.2,0c-0.1,0-0.1,0-0.2-0.1
			c-0.1-0.1-0.1-0.2-0.2-0.3l0.3-1.4c0-0.2,0.1-0.4,0.2-0.6l2.6-3.1L19,15c0.3,0.1,0.6,0.2,0.9,0.4c0.1,0.1,0.2,0.1,0.3,0.2
			C20.6,15.8,20.9,16.2,21,16.6z"/>
		<path class="st1" d="M22.2,15.3l-0.2,0.3l-0.1,0.2c-0.2-0.4-0.5-0.7-0.9-1c-0.2-0.1-0.3-0.3-0.5-0.4c-0.2-0.1-0.4-0.2-0.6-0.3
			l0.1-0.2l0.2-0.3c0.2-0.2,0.4-0.3,0.6-0.4c0.3-0.1,0.5-0.1,0.8,0c0.3,0.1,0.5,0.3,0.6,0.5c0.1,0.2,0.2,0.5,0.2,0.8
			C22.4,14.8,22.3,15.1,22.2,15.3L22.2,15.3z"/>
	</g>
</g>
</svg>
