<?xml version="1.0" encoding="utf-8"?>
<!-- Generator: Adobe Illustrator 23.0.2, SVG Export Plug-In . SVG Version: 6.00 Build 0)  -->
<svg version="1.1" id="圖層_1" xmlns="http://www.w3.org/2000/svg" xmlns:xlink="http://www.w3.org/1999/xlink" x="0px" y="0px"
	 viewBox="0 0 24 24" style="enable-background:new 0 0 24 24;" xml:space="preserve">
<style type="text/css">
	.st0{clip-path:url(#SVGID_2_);}
	.st1{fill:#FFBC59;}
</style>
<g>
	<defs>
		<rect id="SVGID_1_" width="24" height="24"/>
	</defs>
	<clipPath id="SVGID_2_">
		<use xlink:href="#SVGID_1_"  style="overflow:visible;"/>
	</clipPath>
	<g class="st0">
		<path class="st1" d="M21.5,18.7l-3.2,0.6l-0.1-0.7l-0.1-0.7L15.9,5.5l-0.1-0.7l-0.1-0.7l3.2-0.5c0.5-0.1,0.9,0,1.3,0.3
			c0.4,0.3,0.7,0.7,0.7,1.1L21.6,9c-0.1,0-0.3,0-0.4,0c-0.5,0.1-0.9,0.4-1.1,0.8c-0.3,0.4-0.4,0.9-0.3,1.3c0.1,0.5,0.3,0.9,0.7,1.2
			c0.4,0.3,0.9,0.4,1.3,0.3c0.1,0,0.3-0.1,0.4-0.1l0.7,4.2c0,0.2,0,0.5,0,0.7c0,0.2-0.1,0.5-0.3,0.7c-0.1,0.2-0.3,0.4-0.5,0.5
			C22,18.6,21.8,18.7,21.5,18.7z"/>
		<path class="st1" d="M16.8,18.9l-0.1-0.7L14.5,5.7L14.4,5l-0.1-0.7L2.5,6.4C2.3,6.4,2,6.5,1.8,6.6C1.7,6.8,1.5,6.9,1.3,7.1
			C1.2,7.3,1.1,7.5,1,7.8C1,8,1,8.2,1,8.5l0.7,4.1c0.1,0,0.2-0.1,0.3-0.1c0.2,0,0.5,0,0.7,0c0.2,0,0.5,0.1,0.7,0.3
			c0.2,0.1,0.4,0.3,0.5,0.5c0.1,0.2,0.2,0.4,0.3,0.7c0,0.2,0,0.5,0,0.7c-0.1,0.2-0.2,0.5-0.3,0.7c-0.1,0.2-0.3,0.4-0.5,0.5
			C3.1,15.9,2.9,16,2.6,16c-0.1,0-0.2,0-0.3,0l0.7,4.1c0,0.2,0.1,0.5,0.2,0.6c0.1,0.2,0.3,0.4,0.5,0.5c0.3,0.2,0.7,0.3,1,0.3
			c0.1,0,0.2,0,0.3,0l11.7-2.1L16.8,18.9z M11.3,16.4l-3.6,0.6H7.6c-0.2,0-0.4,0-0.5-0.2s-0.2-0.3-0.3-0.5c0-0.2,0-0.4,0.2-0.5
			c0.1-0.1,0.3-0.2,0.5-0.3l3.6-0.6c0.1,0,0.2,0,0.3,0c0.1,0,0.2,0.1,0.3,0.1c0.1,0.1,0.1,0.1,0.2,0.2c0.1,0.1,0.1,0.2,0.1,0.3
			c0,0.1,0,0.2,0,0.3s-0.1,0.2-0.1,0.3c-0.1,0.1-0.1,0.1-0.2,0.2C11.5,16.4,11.4,16.4,11.3,16.4z M12.1,13.3l-4.9,0.9H7.1
			c-0.1,0-0.2,0-0.3,0c-0.1,0-0.2-0.1-0.2-0.1c-0.1-0.1-0.1-0.1-0.2-0.2c0-0.1-0.1-0.2-0.1-0.3s0-0.2,0-0.3c0-0.1,0.1-0.2,0.1-0.2
			c0.1-0.1,0.1-0.1,0.2-0.2c0.1,0,0.2-0.1,0.3-0.1l5-0.9c0.2,0,0.4,0,0.5,0.1c0.2,0.1,0.3,0.3,0.3,0.5c0,0.2,0,0.4-0.1,0.5
			C12.5,13.1,12.4,13.2,12.1,13.3L12.1,13.3z M12.9,10.1l-6.2,1.1H6.5c-0.1,0-0.2,0-0.3,0c-0.1,0-0.2-0.1-0.2-0.1
			C6,11,5.9,10.9,5.9,10.8c0-0.1-0.1-0.2-0.1-0.3c0-0.1,0-0.2,0-0.3c0-0.1,0.1-0.2,0.1-0.2C6,9.9,6.1,9.9,6.2,9.8
			c0.1,0,0.2-0.1,0.3-0.1l6.2-1.1c0.1,0,0.2,0,0.3,0c0.1,0,0.2,0.1,0.3,0.1c0.1,0.1,0.1,0.1,0.2,0.2c0.1,0.1,0.1,0.2,0.1,0.3
			c0,0.1,0,0.2,0,0.3c0,0.1-0.1,0.2-0.1,0.3c-0.1,0.1-0.1,0.1-0.2,0.2C13.1,10,13,10.1,12.9,10.1z"/>
	</g>
</g>
</svg>
