<svg width="24" height="24" viewBox="0 0 24 24" fill="none" xmlns="http://www.w3.org/2000/svg">
<path d="M12 2C10.0222 2 8.08879 2.58649 6.4443 3.6853C4.79981 4.78412 3.51809 6.3459 2.76121 8.17316C2.00433 10.0004 1.8063 12.0111 2.19215 13.9509C2.578 15.8907 3.53041 17.6725 4.92894 19.0711C6.32746 20.4696 8.10929 21.422 10.0491 21.8078C11.9889 22.1937 13.9996 21.9957 15.8268 21.2388C17.6541 20.4819 19.2159 19.2002 20.3147 17.5557C21.4135 15.9112 22 13.9778 22 12C22 9.34783 20.9464 6.80429 19.0711 4.92893C17.1957 3.05357 14.6522 2 12 2ZM16.08 8.94667C15.6845 9.15961 15.2323 9.24352 14.7867 9.18667H11.2733V11.5333H14.16C14.5796 11.4797 15.0056 11.5565 15.38 11.7533C15.4734 11.8366 15.547 11.9397 15.5954 12.055C15.6438 12.1703 15.6659 12.295 15.66 12.42C15.6604 12.5442 15.6358 12.6672 15.5877 12.7818C15.5396 12.8963 15.469 13 15.38 13.0867C15.0018 13.2719 14.5781 13.3437 14.16 13.2933H11.2733V15.6933C11.2819 16.0494 11.2686 16.4056 11.2333 16.76C11.2152 17.0093 11.1116 17.2448 10.94 17.4267C10.8267 17.5521 10.6876 17.6517 10.5323 17.7184C10.3769 17.7851 10.209 17.8175 10.04 17.8133C9.87149 17.8156 9.70426 17.7837 9.54842 17.7195C9.39259 17.6554 9.25138 17.5603 9.13334 17.44C8.96134 17.2591 8.85967 17.0226 8.84667 16.7733C8.81168 16.4145 8.79832 16.0538 8.80667 15.6933V9.53333C8.79678 9.14399 8.81013 8.75441 8.84667 8.36666C8.89253 8.14253 8.99854 7.93512 9.15334 7.76667C9.31925 7.59596 9.5375 7.48567 9.77334 7.45333C10.1598 7.40029 10.5501 7.38022 10.94 7.39333H14.7867C15.2133 7.39333 15.4533 7.39333 15.5933 7.39333C15.8091 7.41692 16.0073 7.52312 16.1465 7.68965C16.2857 7.85619 16.3551 8.07014 16.34 8.28667C16.3465 8.40889 16.3267 8.53108 16.2818 8.64496C16.237 8.75884 16.1681 8.86174 16.08 8.94667Z" fill="#898989"/>
</svg>
