<svg width="24" height="24" viewBox="0 0 24 24" fill="none" xmlns="http://www.w3.org/2000/svg">
<g clip-path="url(#clip0_994_6189)">
<path d="M21.544 18.7485L18.3278 19.3119L18.2066 18.5988L18.0854 17.8857L15.8961 5.47728L15.7677 4.76416L15.6465 4.05103L18.8555 3.50193C19.3196 3.41844 19.7978 3.5214 20.1863 3.78845C20.5749 4.05549 20.8424 4.46506 20.9307 4.92818L21.6439 9.00012C21.4996 8.97895 21.3531 8.97895 21.2089 9.00012C20.7498 9.0977 20.3465 9.36968 20.084 9.75875C19.8214 10.1478 19.7202 10.6236 19.8015 11.0858C19.8829 11.5481 20.1405 11.9607 20.5201 12.2368C20.8997 12.5128 21.3716 12.6308 21.8364 12.5657C21.9793 12.5448 22.1185 12.504 22.25 12.4445L22.9631 16.6163C23.0109 16.8496 23.0121 17.09 22.9665 17.3237C22.9209 17.5574 22.8295 17.7797 22.6976 17.9779C22.5657 18.1761 22.3958 18.3463 22.1978 18.4785C21.9999 18.6108 21.7776 18.7026 21.544 18.7485Z" fill="#898989"/>
<path d="M16.8035 18.856L16.6823 18.1428L14.493 5.7202L14.3646 5.00707L14.2434 4.29395L2.49824 6.39053C2.26783 6.4263 2.04691 6.50782 1.8485 6.63029C1.6501 6.75277 1.47821 6.91372 1.34297 7.10366C1.20198 7.29804 1.10154 7.5188 1.04764 7.7528C0.993732 7.9868 0.987461 8.22925 1.0292 8.46573L1.74232 12.5234C1.82701 12.4889 1.91563 12.4649 2.00618 12.4521C2.24284 12.4042 2.48668 12.4041 2.72338 12.4518C2.96008 12.4995 3.18485 12.5941 3.38448 12.7299C3.5841 12.8657 3.75456 13.0401 3.88582 13.2428C4.01708 13.4454 4.10649 13.6723 4.14881 13.91C4.19112 14.1477 4.18548 14.3915 4.13221 14.627C4.07895 14.8625 3.97913 15.085 3.83864 15.2814C3.69815 15.4778 3.51981 15.6441 3.31411 15.7705C3.10841 15.897 2.87951 15.981 2.64086 16.0177C2.55084 16.0282 2.4599 16.0282 2.36987 16.0177L3.083 20.1467C3.11876 20.3771 3.20029 20.598 3.32276 20.7965C3.44523 20.9949 3.60618 21.1668 3.79612 21.302C4.09658 21.5143 4.45515 21.6288 4.82302 21.63C4.92736 21.6403 5.03246 21.6403 5.1368 21.63L16.8748 19.562L16.8035 18.856ZM11.341 16.4313L7.71118 17.066H7.58282C7.39369 17.0821 7.20591 17.0224 7.06081 16.9C6.91571 16.7776 6.82515 16.6026 6.80908 16.4135C6.793 16.2244 6.85272 16.0366 6.97509 15.8915C7.09746 15.7464 7.27246 15.6558 7.46159 15.6398L11.0985 15.0051C11.1908 14.9887 11.2854 14.9906 11.3769 15.0107C11.4684 15.0309 11.555 15.0688 11.6318 15.1225C11.7087 15.1761 11.7742 15.2444 11.8246 15.3234C11.875 15.4023 11.9094 15.4905 11.9258 15.5827C11.9453 15.677 11.9455 15.7743 11.9264 15.8687C11.9073 15.9631 11.8693 16.0526 11.8147 16.1319C11.76 16.2112 11.6899 16.2787 11.6085 16.3301C11.5271 16.3816 11.4361 16.416 11.341 16.4313ZM12.1397 13.2508L7.1906 14.1279H7.06937C6.97572 14.1364 6.88133 14.1263 6.79158 14.0982C6.70184 14.0702 6.61849 14.0247 6.54631 13.9645C6.47414 13.9042 6.41453 13.8303 6.37091 13.747C6.32728 13.6637 6.30049 13.5726 6.29206 13.479C6.28363 13.3854 6.29373 13.291 6.32178 13.2012C6.34984 13.1115 6.39529 13.0281 6.45555 12.9559C6.51581 12.8838 6.5897 12.8242 6.67299 12.7805C6.75629 12.7369 6.84736 12.7101 6.94101 12.7017L11.9329 11.8317C12.122 11.7995 12.3162 11.8438 12.4726 11.9548C12.6291 12.0658 12.7351 12.2344 12.7672 12.4236C12.7994 12.6127 12.7551 12.8069 12.6441 12.9633C12.5331 13.1198 12.3645 13.2258 12.1753 13.2579L12.1397 13.2508ZM12.917 10.0774L6.67002 11.1756H6.54879C6.45514 11.184 6.36075 11.1739 6.271 11.1459C6.18126 11.1178 6.09791 11.0724 6.02573 11.0121C5.95355 10.9519 5.89395 10.878 5.85033 10.7947C5.8067 10.7114 5.77991 10.6203 5.77148 10.5267C5.76305 10.433 5.77315 10.3386 5.8012 10.2489C5.82925 10.1591 5.87471 10.0758 5.93497 10.0036C5.99523 9.93143 6.06911 9.87182 6.15241 9.8282C6.2357 9.78457 6.32678 9.75778 6.42042 9.74935L12.6674 8.65114C12.7597 8.63471 12.8542 8.63662 12.9457 8.65676C13.0373 8.67691 13.1239 8.71489 13.2007 8.76853C13.2775 8.82217 13.343 8.89043 13.3935 8.9694C13.4439 9.04837 13.4783 9.13651 13.4946 9.22877C13.5142 9.32257 13.5147 9.41935 13.496 9.51333C13.4774 9.60731 13.44 9.69657 13.3861 9.77578C13.3322 9.85499 13.2628 9.92252 13.1822 9.97434C13.1016 10.0262 13.0114 10.0612 12.917 10.0774Z" fill="#898989"/>
</g>
<defs>
<clipPath id="clip0_994_6189">
<rect width="24" height="24" fill="white"/>
</clipPath>
</defs>
</svg>
