<svg xmlns="http://www.w3.org/2000/svg" viewBox="0 0 48 48"><defs><style>.cls-1{fill:#231815;}.cls-2{fill:#fff;}</style></defs><title>Apple</title><g id="圖層_2" data-name="圖層 2"><g id="ICON"><circle class="cls-1" cx="24" cy="24" r="24"/><path class="cls-2" d="M35.89,17.47a7.06,7.06,0,0,0-3.38,5.94,6.88,6.88,0,0,0,4.19,6.31,16.54,16.54,0,0,1-2.14,4.43C33.22,36.07,31.83,38,29.71,38S27,36.76,24.59,36.76,21.35,38,19.41,38s-3.29-1.78-4.85-4A19.16,19.16,0,0,1,11.3,23.74c0-6.07,3.94-9.29,7.82-9.29,2.07,0,3.79,1.36,5.08,1.36s3.16-1.44,5.5-1.44a7.35,7.35,0,0,1,6.19,3.1Zm-7.3-5.66a7,7,0,0,0,1.66-4.35,3.06,3.06,0,0,0-.06-.63A7,7,0,0,0,25.6,9.2a6.78,6.78,0,0,0-1.72,4.23,2.75,2.75,0,0,0,.06.56,2.3,2.3,0,0,0,.42,0,6.06,6.06,0,0,0,4.23-2.22Z"/></g></g></svg>