<svg xmlns="http://www.w3.org/2000/svg" viewBox="0 0 48 48"><defs><style>.cls-1{fill:#2c62ae;}.cls-2{fill:#fff;}</style></defs><title>FB</title><g id="圖層_2" data-name="圖層 2"><g id="ICON"><g id="Logo"><path id="Initiator" class="cls-1" d="M48,24A24,24,0,1,0,18.2,47.29v-16H13.25V24H18.2V20.84c0-8.17,3.7-12,11.72-12a26.4,26.4,0,0,1,5.22.6v6.65c-.57-.06-1.55-.09-2.78-.09-3.93,0-5.45,1.49-5.45,5.37V24h7.84L33.4,31.33H26.91V47.82A24,24,0,0,0,48,24Z"/><path id="F" class="cls-2" d="M33.4,31.33,34.75,24H26.91V21.41c0-3.88,1.52-5.37,5.45-5.37,1.23,0,2.21,0,2.78.09V9.48a26.4,26.4,0,0,0-5.22-.6c-8,0-11.72,3.79-11.72,12V24H13.25v7.33H18.2v16A24.12,24.12,0,0,0,24,48a23.44,23.44,0,0,0,2.91-.18V31.33Z"/></g></g></g></svg>