<svg xmlns="http://www.w3.org/2000/svg" viewBox="0 0 80 80"><defs><style>.cls-1{fill:#f6ba62;}.cls-2{fill:#fff;}.cls-3{fill:#6b5240;}.cls-4{fill:#23afa2;}</style></defs><title>創意手作</title><g id="圖層_2" data-name="圖層 2"><g id="圖層_1-2" data-name="圖層 1"><circle class="cls-1" cx="40" cy="40" r="38.4"/><path class="cls-1" d="M40,80A40,40,0,1,1,80,40,40,40,0,0,1,40,80ZM40,3.2A36.8,36.8,0,1,0,76.8,40,36.84,36.84,0,0,0,40,3.2Z"/><polygon class="cls-2" points="21.08 16.36 21.08 55.75 30.34 53.4 41.04 57.09 57.25 57.09 57.25 16.36 21.08 16.36"/><rect class="cls-1" x="49.35" y="47.15" width="12.89" height="16.09" rx="1.43"/><path class="cls-3" d="M60.81,64h-10a2.24,2.24,0,0,1-2.24-2.24V48.58a2.24,2.24,0,0,1,2.24-2.23h10A2.23,2.23,0,0,1,63,48.58V61.8A2.23,2.23,0,0,1,60.81,64ZM50.79,48a.64.64,0,0,0-.64.63V61.8a.64.64,0,0,0,.64.64h10a.64.64,0,0,0,.63-.64V48.58a.63.63,0,0,0-.63-.63Z"/><path class="cls-2" d="M54.85,36.55l-3.5,10.6h8.9L57,36.57A1.14,1.14,0,0,0,54.85,36.55Z"/><path class="cls-3" d="M60.25,48h-8.9a.82.82,0,0,1-.65-.33.81.81,0,0,1-.11-.72l3.5-10.61A1.91,1.91,0,0,1,55.93,35h0a1.91,1.91,0,0,1,1.83,1.38L61,46.91a.82.82,0,0,1-.77,1Zm-7.8-1.6h6.72L56.26,36.8a.32.32,0,0,0-.33-.24.32.32,0,0,0-.32.24h0Zm2.4-9.8h0Z"/><path class="cls-4" d="M36.71,47V47l-8,8-2.47,2.47a7.3,7.3,0,1,1-2.43-12c1.7.42,2.56.07,3-.28A10.29,10.29,0,0,0,28,43.79a2.59,2.59,0,0,1,.32-.36c1.53-1.61,3.52-2.16,5.12-1.34a1,1,0,0,0,.22.1s.1,0,.13.06a1.83,1.83,0,0,1,.38.26,2.23,2.23,0,0,1,.48.38.46.46,0,0,1,.13.16.8.8,0,0,1,.23.22,4.29,4.29,0,0,1,1.5,2.47v.06A4.22,4.22,0,0,1,36.71,47Z"/><path class="cls-3" d="M21.1,60.42h0a8.11,8.11,0,1,1,3-15.65,2.71,2.71,0,0,0,2.21-.17,3.19,3.19,0,0,0,.59-.67c.14-.19.3-.4.52-.66a2.92,2.92,0,0,1,.36-.4c1.77-1.87,4.15-2.46,6.05-1.49a.82.82,0,0,1,.24.1l.17.09a4.17,4.17,0,0,1,.44.29,4.25,4.25,0,0,1,.57.46,1,1,0,0,1,.15.18,1,1,0,0,1,.21.21,5.12,5.12,0,0,1,1.71,2.84,1.11,1.11,0,0,1,0,.19A4.27,4.27,0,0,1,37.51,47V47a.79.79,0,0,1-.23.56L26.81,58.05A8,8,0,0,1,21.1,60.42Zm0-14.62a6.51,6.51,0,0,0,0,13h0a6.46,6.46,0,0,0,4.58-1.9L35.9,46.7a4.34,4.34,0,0,0-.12-.69.76.76,0,0,1,0-.21,3.33,3.33,0,0,0-1.18-1.88.9.9,0,0,1-.19-.2.81.81,0,0,1-.27-.31c-.08,0-.22-.17-.31-.22a2,2,0,0,0-.33-.22l0,0h0a1.67,1.67,0,0,1-.38-.19c-1.18-.59-2.78-.14-4.09,1.24a2.16,2.16,0,0,0-.26.28c-.22.26-.36.44-.48.6a4.44,4.44,0,0,1-.87,1,4.22,4.22,0,0,1-3.71.44A6.85,6.85,0,0,0,21.09,45.8ZM36.71,47h0Z"/><path class="cls-2" d="M46.76,37l-10,10V47a4.22,4.22,0,0,0-.16-1.16v-.06a4.29,4.29,0,0,0-1.5-2.47.8.8,0,0,0-.23-.22.46.46,0,0,0-.13-.16,2.23,2.23,0,0,0-.48-.38,1.83,1.83,0,0,0-.38-.26s-.1,0-.13-.06l13.06-13A5.51,5.51,0,0,1,46.76,37Z"/><path class="cls-3" d="M36.71,47.82a.85.85,0,0,1-.31-.06.82.82,0,0,1-.49-.74,3.68,3.68,0,0,0-.13-1,.76.76,0,0,1,0-.21,3.33,3.33,0,0,0-1.18-1.88.9.9,0,0,1-.19-.2.81.81,0,0,1-.27-.31c-.08,0-.22-.17-.31-.22a2,2,0,0,0-.33-.22l0,0a.91.91,0,0,1-.29-.19.79.79,0,0,1,0-1.13l13.06-13a.8.8,0,0,1,1.13,0,6.34,6.34,0,0,1,0,8.94h0l-10,10A.8.8,0,0,1,36.71,47.82Zm-1.09-5.11a5,5,0,0,1,1.65,2.62l8.93-8.91a4.74,4.74,0,0,0,.51-6.07L35,42.06c.11.09.22.18.3.26a1,1,0,0,1,.15.18A1,1,0,0,1,35.62,42.71Zm-1.92-.52h0ZM46.76,37h0Z"/><path class="cls-4" d="M43.56,58A7.31,7.31,0,0,1,29,58.9L28.71,55l5.57-5.57L36.71,47a21.39,21.39,0,0,0-.06,2.3c.1.54.54,1.41,2.08,2.21A7.33,7.33,0,0,1,43.56,58Z"/><path class="cls-3" d="M36.24,66.53A8.11,8.11,0,0,1,28.17,59l-.26-3.87a.8.8,0,0,1,.24-.62l8-8a.8.8,0,0,1,.86-.18.79.79,0,0,1,.5.72,8,8,0,0,1-.06,1.3,3,3,0,0,0,0,.9c0,.25.29.92,1.66,1.63A8.09,8.09,0,0,1,44.36,58h0a8.06,8.06,0,0,1-7.6,8.56Zm-6.7-11.2.23,3.52a6.53,6.53,0,0,0,11.38,3.9,6.4,6.4,0,0,0,1.61-4.7h0a6.55,6.55,0,0,0-4.3-5.76c-1.93-1-2.47-2.08-2.6-2.82a3.32,3.32,0,0,1,0-.41Z"/><path class="cls-2" d="M33.48,42.1c-1.6-.83-3.58-.29-5.12,1.34-.13.13-.22.23-.32.35l-.83-13.85a5.54,5.54,0,0,1,5.18-5.86Z"/><path class="cls-3" d="M28,44.59a.85.85,0,0,1-.23,0,.81.81,0,0,1-.57-.72L26.41,30a6.34,6.34,0,0,1,5.93-6.71.84.84,0,0,1,.58.2.79.79,0,0,1,.27.55l1.09,18a.8.8,0,0,1-.36.72.81.81,0,0,1-.81,0c-1.27-.66-2.86-.21-4.17,1.18a3.06,3.06,0,0,0-.26.29A.81.81,0,0,1,28,44.59ZM31.65,25A4.72,4.72,0,0,0,28,29.89L28.74,42A5.13,5.13,0,0,1,32.61,41Z"/><path class="cls-3" d="M49.35,57.89H43.56a.8.8,0,1,1,0-1.6h5.79a.8.8,0,1,1,0,1.6Z"/><path class="cls-3" d="M21.08,45.79a.8.8,0,0,1-.8-.8V16.36a.8.8,0,0,1,.8-.8H57.25a.8.8,0,0,1,.8.8v21a.8.8,0,0,1-1.6,0V17.16H21.88V45A.8.8,0,0,1,21.08,45.79Z"/><ellipse class="cls-2" cx="21.08" cy="52.32" rx="2.39" ry="2.41"/><path class="cls-3" d="M21.08,55.52a3.2,3.2,0,0,1-2.26-5.46,3.23,3.23,0,0,1,4.53,0,3.19,3.19,0,0,1,0,4.52h0A3.19,3.19,0,0,1,21.08,55.52Zm0-4.82a1.55,1.55,0,0,0-1.12.48,1.6,1.6,0,1,0,2.25,0A1.53,1.53,0,0,0,21.08,50.7Z"/><path class="cls-2" d="M33.87,58.59a2.4,2.4,0,1,0,2.25-2.54A2.4,2.4,0,0,0,33.87,58.59Z"/><path class="cls-3" d="M36.27,61.64a3.18,3.18,0,0,1-2.12-.8,3.23,3.23,0,0,1-1.08-2.2h0a3.22,3.22,0,0,1,.8-2.32,3.2,3.2,0,1,1,2.59,5.32Zm0-4.8h-.1a1.58,1.58,0,0,0-1.1.53,1.63,1.63,0,0,0-.4,1.16h0a1.6,1.6,0,1,0,3.2-.2A1.61,1.61,0,0,0,36.27,56.84Z"/></g></g></svg>