<svg xmlns="http://www.w3.org/2000/svg" viewBox="0 0 80 80"><defs><style>.cls-1{fill:#f6ba62;}.cls-2{fill:#fff;}.cls-3{fill:#6b5240;}.cls-4{fill:#23afa2;}</style></defs><title>生活體驗</title><g id="圖層_2" data-name="圖層 2"><g id="圖層_1-2" data-name="圖層 1"><circle class="cls-1" cx="40" cy="40" r="38.4"/><path class="cls-1" d="M40,80A40,40,0,1,1,80,40,40,40,0,0,1,40,80ZM40,3.2A36.8,36.8,0,1,0,76.8,40,36.84,36.84,0,0,0,40,3.2Z"/><circle class="cls-2" cx="29.95" cy="26.76" r="5.54"/><path class="cls-3" d="M30,33.09a6.34,6.34,0,1,1,6.34-6.33A6.35,6.35,0,0,1,30,33.09ZM30,22a4.74,4.74,0,1,0,4.74,4.74A4.74,4.74,0,0,0,30,22Z"/><path class="cls-2" d="M60.17,41.33A5.53,5.53,0,0,1,57.68,46h0a5.48,5.48,0,0,1-6,0h0a5.53,5.53,0,1,1,8.57-4.62Z"/><path class="cls-3" d="M54.64,47.66a6.36,6.36,0,0,1-3.38-1l-.1-.06a6.34,6.34,0,1,1,7,0l-.11.06A6.35,6.35,0,0,1,54.64,47.66ZM52,45.23l.09.05a4.75,4.75,0,0,0,5.17,0l.1-.05a4.74,4.74,0,1,0-5.36,0Zm5.72.72h0Z"/><path class="cls-3" d="M14.39,47.55a.8.8,0,0,1-.8-.8c0-4.14,1.14-7.37,3.4-9.58a11.25,11.25,0,0,1,7.48-3,.8.8,0,0,1,0,1.6h0a9.73,9.73,0,0,0-6.33,2.59c-1.93,1.91-2.91,4.74-2.91,8.43A.8.8,0,0,1,14.39,47.55Z"/><path class="cls-3" d="M42.83,54.91H14.39a.8.8,0,0,1,0-1.6H42.83a.8.8,0,0,1,0,1.6Z"/><path class="cls-3" d="M66.59,54.91h-.13a.8.8,0,0,1,0-1.6.86.86,0,0,1,.87.8A.75.75,0,0,1,66.59,54.91Z"/><path class="cls-3" d="M62.44,48.47a.8.8,0,0,1-.17-1.58c.28-.06,6.79-1.55,6.48-9.43a.8.8,0,0,1,.77-.83.79.79,0,0,1,.83.77c.36,9.25-7.67,11-7.75,11.06Z"/><path class="cls-3" d="M36.92,38.22a.8.8,0,0,1-.17-1.59c.28-.06,6.79-1.55,6.48-9.43a.8.8,0,0,1,.77-.83.77.77,0,0,1,.83.77c.36,9.25-7.67,11-7.75,11.06Z"/><path class="cls-4" d="M66.46,54.11H42.83a17,17,0,0,1,2.85-5.66A9.68,9.68,0,0,1,51.6,46h0a5.48,5.48,0,0,0,6,0h0a9.72,9.72,0,0,1,5.94,2.5A17.15,17.15,0,0,1,66.46,54.11Z"/><path class="cls-3" d="M66.46,54.91H42.83a.79.79,0,0,1-.78-1,17.71,17.71,0,0,1,3.05-6,10.38,10.38,0,0,1,6.42-2.74.91.91,0,0,1,.53.13,4.75,4.75,0,0,0,5.17,0,.87.87,0,0,1,.44-.13,10.39,10.39,0,0,1,6.53,2.74,17.8,17.8,0,0,1,3,6,.79.79,0,0,1-.78,1Zm-22.53-1.6H65.36A15.12,15.12,0,0,0,63,49a8.84,8.84,0,0,0-5.18-2.23,6.35,6.35,0,0,1-6.44,0A8.82,8.82,0,0,0,46.25,49,15,15,0,0,0,43.93,53.31Z"/><path class="cls-4" d="M29.16,32.29s-10-.65-9.74,21.82H40.36S42.49,32.38,29.16,32.29Z"/><path class="cls-3" d="M40.36,54.91H19.42a.81.81,0,0,1-.8-.79c-.11-10,1.73-16.82,5.46-20.35a7.55,7.55,0,0,1,5.1-2.28,9.94,9.94,0,0,1,7.61,3.32c5.59,6.2,4.42,18.84,4.37,19.38A.8.8,0,0,1,40.36,54.91Zm0-.8h0Zm-20.14-.8H39.61c.16-2.74.39-12.56-4-17.43a8.4,8.4,0,0,0-6.44-2.79h-.1A6,6,0,0,0,25.12,35C22.87,37.15,20.22,42.1,20.22,53.31Z"/><circle class="cls-1" cx="44.04" cy="25.62" r="3.73"/><path class="cls-3" d="M44,30.15a4.53,4.53,0,1,1,4.54-4.53A4.54,4.54,0,0,1,44,30.15Zm0-7.46A2.93,2.93,0,1,0,47,25.62,2.93,2.93,0,0,0,44,22.69Z"/><circle class="cls-1" cx="69.14" cy="35.09" r="3.73"/><path class="cls-3" d="M69.14,39.63a4.54,4.54,0,1,1,4.53-4.54A4.54,4.54,0,0,1,69.14,39.63Zm0-7.47a2.94,2.94,0,1,0,2.93,2.93A2.93,2.93,0,0,0,69.14,32.16Z"/></g></g></svg>