<svg xmlns="http://www.w3.org/2000/svg" viewBox="0 0 82 82"><defs><style>.cls-1,.cls-3{fill:#f6ba62;}.cls-1{stroke:#f6ba62;stroke-linecap:round;stroke-linejoin:round;stroke-width:2px;}.cls-2{fill:#6b5240;}.cls-4{fill:#fff;}.cls-5{fill:#23afa2;}</style></defs><title>藝術人文</title><g id="圖層_2" data-name="圖層 2"><g id="圖層_1-2" data-name="圖層 1"><path class="cls-1" d="M41,1A40,40,0,1,0,81,41,40,40,0,0,0,41,1ZM53.23,23a1.53,1.53,0,0,0,.83-.69,5.74,5.74,0,0,0,.63-1.83s14.22,5.84,3.86,17.32q-1-2.18-2.16-4.65a1.55,1.55,0,0,0-1.88-.82l2.27-.76a.93.93,0,0,0,.5-1.22l-.92-2.73A.93.93,0,0,0,55.23,27l-1.55.51a1.44,1.44,0,0,0,1-1.73l-.57-1.69a1.42,1.42,0,0,0-1.85-.75Zm-11.1,46S20.59,69.93,15.25,51a23.83,23.83,0,0,1,.15-13.57c4.74-14.95,21.41-18.65,27.86-17.9a6,6,0,0,0,3.52,5.26,1.49,1.49,0,0,0,1.06,0l.95-.32a1.43,1.43,0,0,0-1,1.72l.57,1.7a1.43,1.43,0,0,0,1.86.75l-1.53.52a1,1,0,0,0-.52,1.21l.94,2.74a.91.91,0,0,0,1.13.66l2.25-.76a1.58,1.58,0,0,0-1,1.78c.45,2.2.9,4.22,1.37,6.07a89.6,89.6,0,0,0,3,9.87c1.77,4.73,3.42,7.43,4.72,9C56.09,68.7,42.13,69.06,42.13,69.06Z"/><path class="cls-2" d="M58.55,37.84q-1-2.18-2.16-4.65a1.55,1.55,0,0,0-1.88-.82l2.27-.76a.93.93,0,0,0,.5-1.22l-.92-2.73A.93.93,0,0,0,55.23,27l-1.55.51a1.44,1.44,0,0,0,1-1.73l-.57-1.69a1.42,1.42,0,0,0-1.85-.75l.94-.31a1.53,1.53,0,0,0,.83-.69,5.74,5.74,0,0,0,.63-1.83S68.91,26.36,58.55,37.84Z"/><path class="cls-3" d="M58.55,39.51l-.27,0a1.67,1.67,0,0,1-1.26-1c-.63-1.41-1.33-2.93-2.09-4.53a1.67,1.67,0,0,1-1-3.2h0l1.49-.51L55,28.84l-.79.26A1.67,1.67,0,0,1,53,26l-.34-1a1.66,1.66,0,0,1-2-1.1,1.64,1.64,0,0,1,1-2.1l.93-.32a6.61,6.61,0,0,0,.36-1.21,1.68,1.68,0,0,1,.83-1.19A1.71,1.71,0,0,1,55.33,19c.29.12,7.1,3,8.44,8.86.81,3.55-.53,7.29-4,11.12A1.68,1.68,0,0,1,58.55,39.51Zm-.5-6.72c.3.64.6,1.27.88,1.88,1.48-2.18,2-4.22,1.59-6.08-.61-2.74-3.16-4.67-4.86-5.69l-.12.23a3.25,3.25,0,0,1,.18.43l.57,1.7.06.2a2.71,2.71,0,0,1,1.58,1.63l.93,2.77a2.7,2.7,0,0,1-.12,2.07A2.53,2.53,0,0,1,58.05,32.79ZM56.24,30Zm-.47-1.45h0Zm-2.64-2.26h0Z"/><path class="cls-4" d="M64.08,60a1.54,1.54,0,0,1-2.52.85,11,11,0,0,1-1.06-1.08c-1.3-1.54-3-4.24-4.72-9a89.6,89.6,0,0,1-3-9.87c-.47-1.85-.92-3.87-1.37-6.07a1.58,1.58,0,0,1,1-1.78l2-.69a1.55,1.55,0,0,1,1.88.82q1.19,2.48,2.16,4.65C64.45,51.21,64.63,57.33,64.08,60Z"/><path class="cls-2" d="M62.58,62A2.41,2.41,0,0,1,61,61.46a10.71,10.71,0,0,1-1.16-1.17A31.7,31.7,0,0,1,55,51.07a90.56,90.56,0,0,1-3-10c-.45-1.76-.9-3.76-1.38-6.1a2.44,2.44,0,0,1,1.53-2.74l2.08-.69a2.39,2.39,0,0,1,2.9,1.25q1.17,2.49,2.16,4.67c5.78,13.11,6.23,19.55,5.59,22.65h0a2.38,2.38,0,0,1-1.56,1.77A2.51,2.51,0,0,1,62.58,62ZM55,33.13l-.21,0-2.05.69a.75.75,0,0,0-.45.83c.47,2.31.92,4.28,1.36,6a90,90,0,0,0,2.92,9.79,30.39,30.39,0,0,0,4.57,8.72,8.19,8.19,0,0,0,1,1,.7.7,0,0,0,1.16-.38c.49-2.35.42-8.27-5.48-21.63-.64-1.44-1.36-3-2.14-4.63A.72.72,0,0,0,55,33.13Z"/><path class="cls-5" d="M56.78,31.61l-2.27.76-2,.69-2.25.76a.91.91,0,0,1-1.13-.66l-.94-2.74a1,1,0,0,1,.52-1.21l1.53-.52,3.49-1.17L55.23,27a.93.93,0,0,1,1.13.65l.92,2.73A.93.93,0,0,1,56.78,31.61Z"/><path class="cls-2" d="M50,34.7a1.71,1.71,0,0,1-.76-.19,1.85,1.85,0,0,1-.92-1.11l-.93-2.71a1.79,1.79,0,0,1,1-2.28L55,26.21a1.79,1.79,0,0,1,2.19,1.16l.92,2.75A1.84,1.84,0,0,1,58,31.56a1.64,1.64,0,0,1-1,.84l-6.56,2.21A1.54,1.54,0,0,1,50,34.7Zm5.5-6.9L48.93,30a.55.55,0,0,0,0,.17L50,33l6.53-2.21a.22.22,0,0,0,0-.16l-.92-2.74A.21.21,0,0,0,55.46,27.8Z"/><path class="cls-4" d="M53.68,27.52l-3.49,1.17a1.43,1.43,0,0,1-1.86-.75l-.57-1.7a1.43,1.43,0,0,1,1-1.72l3.5-1.17a1.42,1.42,0,0,1,1.85.75l.57,1.69A1.44,1.44,0,0,1,53.68,27.52Z"/><path class="cls-2" d="M49.64,29.61a2.17,2.17,0,0,1-2.1-1.4L47,26.5A2,2,0,0,1,47.08,25a2.5,2.5,0,0,1,1.45-1.23L52,22.56a2.24,2.24,0,0,1,2.9,1.27l.57,1.69A2.27,2.27,0,0,1,54,28.31h0l-3.48,1.17A2.6,2.6,0,0,1,49.64,29.61Zm3.21-5.51a.74.74,0,0,0-.29,0l-3.5,1.16a.8.8,0,0,0-.48.39.33.33,0,0,0,0,.27l.57,1.71a.64.64,0,0,0,.81.22l3.47-1.17c.4-.14.59-.47.52-.67l-.56-1.69A.51.51,0,0,0,52.85,24.1Z"/><path class="cls-3" d="M54.69,20.52a5.74,5.74,0,0,1-.63,1.83,1.53,1.53,0,0,1-.83.69l-.94.31-3.5,1.17-.95.32a1.49,1.49,0,0,1-1.06,0,6,6,0,0,1-3.52-5.26A14.08,14.08,0,0,1,44.09,14l1.65-4.31,3.92,2.45C54.44,15.42,55,18.5,54.69,20.52Z"/><path class="cls-2" d="M47.34,25.76a2.29,2.29,0,0,1-.89-.19,6.81,6.81,0,0,1-4-6,15,15,0,0,1,.87-5.87L45,9.39a.79.79,0,0,1,.52-.49.82.82,0,0,1,.71.08l3.91,2.45c5.16,3.54,5.79,7,5.42,9.23h0a6.68,6.68,0,0,1-.73,2.09,2.38,2.38,0,0,1-1.27,1.07l-5.41,1.81A2.59,2.59,0,0,1,47.34,25.76ZM46.16,10.93,44.87,14.3a13.47,13.47,0,0,0-.78,5.17,5.11,5.11,0,0,0,3,4.57.63.63,0,0,0,.47,0L53,22.25a.66.66,0,0,0,.37-.3,5.13,5.13,0,0,0,.54-1.57c.42-2.55-1.2-5.17-4.68-7.56Zm8.54,9.59h0Z"/><path class="cls-4" d="M60.5,59.75c-4.41,9-18.37,9.31-18.37,9.31S20.59,69.93,15.25,51a23.83,23.83,0,0,1,.15-13.57c4.74-14.95,21.41-18.65,27.86-17.9a6,6,0,0,0,3.52,5.26,1.49,1.49,0,0,0,1.06,0l.95-.32a1.43,1.43,0,0,0-1,1.72l.57,1.7a1.43,1.43,0,0,0,1.86.75l-1.53.52a1,1,0,0,0-.52,1.21l.94,2.74a.91.91,0,0,0,1.13.66l2.25-.76a1.58,1.58,0,0,0-1,1.78c.45,2.2.9,4.22,1.37,6.07,0,0-6.4,2.22-4.95,7.38,1.38,4.9,7.9,2.49,7.9,2.49C57.55,55.51,59.2,58.21,60.5,59.75Z"/><path class="cls-2" d="M41.8,69.9c-2.83,0-22.28-.67-27.35-18.66a24.78,24.78,0,0,1,.16-14.05C19.69,21.13,37.47,18,43.35,18.71a.84.84,0,0,1,.74.76,5.11,5.11,0,0,0,3,4.57.69.69,0,0,0,.47,0l1-.32h0a.83.83,0,0,1,.53,1.58h0a.8.8,0,0,0-.48.39.33.33,0,0,0,0,.27l.57,1.71a.64.64,0,0,0,.81.22.83.83,0,0,1,.53,1.58L48.93,30a.55.55,0,0,0,0,.17L50,33l2.22-.76a.83.83,0,0,1,.56,1.57.76.76,0,0,0-.47.84c.47,2.31.92,4.28,1.36,6a.85.85,0,0,1-.54,1c-.23.08-5.64,2-4.42,6.37a3.06,3.06,0,0,0,1.57,2c1.71.87,4.36.22,5.24-.11a.84.84,0,0,1,1.07.5,30.39,30.39,0,0,0,4.57,8.72.8.8,0,0,1,.11.9c-4.57,9.3-18.5,9.77-19.09,9.79Zm-.38-49.63c-7.57,0-21.19,4.7-25.22,17.42a23,23,0,0,0-.14,13.09c5.09,18.08,25.82,17.48,26,17.45s13-.45,17.41-8.38a32.33,32.33,0,0,1-4.22-8.05c-1.27.34-3.8.8-5.79-.21a4.75,4.75,0,0,1-2.42-3.07c-1.19-4.26,2.28-7,4.77-8.12-.38-1.59-.78-3.36-1.2-5.39a3.27,3.27,0,0,1,0-.44l-.12,0a1.63,1.63,0,0,1-1.28-.1,1.85,1.85,0,0,1-.92-1.11l-.93-2.71a1.86,1.86,0,0,1,.48-1.94,1.76,1.76,0,0,1-.29-.54L47,26.5a1.91,1.91,0,0,1-.1-.79,2.07,2.07,0,0,1-.42-.14,6.75,6.75,0,0,1-3.94-5.26C42.17,20.28,41.8,20.27,41.42,20.27Z"/><path class="cls-4" d="M58.55,37.84q-1-2.18-2.16-4.65a1.55,1.55,0,0,0-1.88-.82l2.27-.76a.93.93,0,0,0,.5-1.22l-.92-2.73A.93.93,0,0,0,55.23,27l-1.55.51a1.44,1.44,0,0,0,1-1.73l-.57-1.69a1.42,1.42,0,0,0-1.85-.75l.94-.31a1.53,1.53,0,0,0,.83-.69,5.74,5.74,0,0,0,.63-1.83S68.91,26.36,58.55,37.84Z"/><path class="cls-2" d="M58.55,38.67h-.14a.84.84,0,0,1-.63-.48c-.64-1.44-1.36-3-2.14-4.63a.71.71,0,0,0-.86-.39h0a.83.83,0,0,1-.54-1.58h0l2.27-.76h0a.91.91,0,0,0,0-.16l-.92-2.74a.21.21,0,0,0-.11-.12l-1.52.51a.83.83,0,0,1-.54-1.57c.39-.14.59-.47.52-.68l-.56-1.69c-.09-.24-.46-.34-.8-.22a.84.84,0,0,1-1.06-.53A.83.83,0,0,1,52,22.57l.93-.32a.66.66,0,0,0,.37-.3,5.13,5.13,0,0,0,.54-1.57.88.88,0,0,1,.42-.59.86.86,0,0,1,.72,0c.27.11,6.71,2.81,8,8.28.74,3.27-.53,6.76-3.8,10.37A.8.8,0,0,1,58.55,38.67Zm-1.64-6.23a2.55,2.55,0,0,1,.24.39c.57,1.21,1.11,2.37,1.61,3.47,2.26-2.82,3.13-5.47,2.58-7.9-.8-3.53-4.41-5.8-6.09-6.69a6,6,0,0,1-.46,1,1.7,1.7,0,0,1-.27.39,1.92,1.92,0,0,1,.41.69l.57,1.69a1.93,1.93,0,0,1,.11.62,1.83,1.83,0,0,1,1.54,1.23l.92,2.75A1.84,1.84,0,0,1,58,31.56a1.64,1.64,0,0,1-1,.84Z"/><path class="cls-3" d="M55.78,50.78s-6.52,2.41-7.9-2.49c-1.45-5.16,4.95-7.38,4.95-7.38A89.6,89.6,0,0,0,55.78,50.78Z"/><path class="cls-2" d="M52.39,52.2a6.42,6.42,0,0,1-2.9-.61,4.75,4.75,0,0,1-2.42-3.07c-1.31-4.69,3-7.54,5.48-8.4a.84.84,0,0,1,1.09.59,90.42,90.42,0,0,0,2.92,9.78.83.83,0,0,1-.49,1.07A11.85,11.85,0,0,1,52.39,52.2Zm-.14-10.14c-1.53.75-4.51,2.67-3.57,6a3.06,3.06,0,0,0,1.57,2,7,7,0,0,0,4.45.13C53.84,47.81,53,45.07,52.25,42.06Z"/><path class="cls-3" d="M30,57.27c-3,1.37-6.25.25-7.27-2.52s.6-6.12,3.58-7.48,6.27-.25,7.27,2.51S33,55.9,30,57.27Z"/><path class="cls-2" d="M27.36,58.68A6.24,6.24,0,0,1,25,58.22a5.43,5.43,0,0,1-3-3.18c-1.16-3.16.64-7,4-8.53a6.73,6.73,0,0,1,5.36-.19,5.47,5.47,0,0,1,3,3.18c1.16,3.16-.65,7-4,8.53A7.21,7.21,0,0,1,27.36,58.68ZM28.9,47.52a5.46,5.46,0,0,0-2.27.51c-2.6,1.19-4,4.08-3.15,6.44a3.82,3.82,0,0,0,2.14,2.21,5,5,0,0,0,4-.17c2.61-1.19,4-4.07,3.15-6.44a3.77,3.77,0,0,0-2.11-2.21A4.56,4.56,0,0,0,28.9,47.52Z"/><path class="cls-5" d="M43.94,64.16c-2.5.71-4.83-.37-5.23-2.44s1.32-4.33,3.8-5,4.83.37,5.23,2.44S46.43,63.42,43.94,64.16Z"/><path class="cls-2" d="M42.41,65.21a5.05,5.05,0,0,1-2.68-.72,3.88,3.88,0,0,1-1.84-2.61c-.47-2.53,1.46-5.16,4.39-6a5.52,5.52,0,0,1,4.43.45A3.93,3.93,0,0,1,48.56,59c.49,2.5-1.44,5.14-4.38,6h0A6.34,6.34,0,0,1,42.41,65.21Zm1.64-7.93a4.72,4.72,0,0,0-1.31.19c-2.08.6-3.52,2.44-3.21,4.1a2.23,2.23,0,0,0,1.07,1.5,3.91,3.91,0,0,0,3.11.29c2.09-.62,3.53-2.46,3.21-4.1a2.25,2.25,0,0,0-1.08-1.52A3.41,3.41,0,0,0,44.05,57.28Z"/><path class="cls-5" d="M30.8,36.56c.25,2.23-1.6,4.33-4.14,4.7s-4.77-1.13-5-3.35a4.58,4.58,0,0,1,4.16-4.7C28.31,32.84,30.56,34.34,30.8,36.56Z"/><path class="cls-2" d="M25.91,42.15a5.43,5.43,0,0,1-3.35-1.1,4.44,4.44,0,0,1-1.74-3,5.43,5.43,0,0,1,4.86-5.62,5.6,5.6,0,0,1,4.22,1,4.41,4.41,0,0,1,1.73,3,5.4,5.4,0,0,1-4.85,5.62A6.36,6.36,0,0,1,25.91,42.15ZM26.55,34a4.44,4.44,0,0,0-.63,0,3.77,3.77,0,0,0-3.45,3.79,2.81,2.81,0,0,0,1.11,1.91,3.91,3.91,0,0,0,3,.71A3.73,3.73,0,0,0,30,36.65h0a2.83,2.83,0,0,0-1.09-1.91A3.82,3.82,0,0,0,26.55,34Z"/><path class="cls-5" d="M41,28.4c.25,2.22-1.6,4.32-4.14,4.7s-4.76-1.13-5-3.35A4.55,4.55,0,0,1,36,25.05,4.14,4.14,0,0,1,41,28.4Z"/><path class="cls-2" d="M36.09,34a5.52,5.52,0,0,1-3.35-1.1A4.44,4.44,0,0,1,31,29.84a5.43,5.43,0,0,1,4.86-5.62,5.57,5.57,0,0,1,4.21,1,4.48,4.48,0,0,1,1.74,3.07C42.1,31,39.93,33.47,37,33.92A6.65,6.65,0,0,1,36.09,34Zm.67-8.17a4.89,4.89,0,0,0-.66.05,3.76,3.76,0,0,0-3.45,3.79,2.86,2.86,0,0,0,1.11,1.91,3.92,3.92,0,0,0,3,.7c2.09-.31,3.63-2,3.43-3.78h0a2.8,2.8,0,0,0-1.1-1.92A3.78,3.78,0,0,0,36.76,25.82Z"/></g></g></svg>