<svg xmlns="http://www.w3.org/2000/svg" viewBox="0 0 80 80"><defs><style>.cls-1{fill:#f6ba62;}.cls-2{fill:#6b5240;}.cls-3{fill:#23afa2;}.cls-4{fill:#fff;}</style></defs><title>音樂律動</title><g id="圖層_2" data-name="圖層 2"><g id="圖層_1-2" data-name="圖層 1"><circle class="cls-1" cx="40" cy="40" r="38.4"/><path class="cls-1" d="M40,80A40,40,0,1,1,80,40,40,40,0,0,1,40,80ZM40,3.2A36.8,36.8,0,1,0,76.8,40,36.84,36.84,0,0,0,40,3.2Z"/><path class="cls-2" d="M18.32,36.91a.81.81,0,0,1-.77-.61L14.84,25.6a.78.78,0,0,1,.34-.87l9.68-6.29a.8.8,0,0,1,.72-.07.82.82,0,0,1,.49.55l2.65,10.47a.82.82,0,0,1-.58,1,.81.81,0,0,1-1-.58l-2.37-9.39-8.26,5.37L19.1,35.91a.8.8,0,0,1-.58,1A.64.64,0,0,1,18.32,36.91Z"/><path class="cls-3" d="M19.87,35.28a3.38,3.38,0,1,1-4.1-2.44A3.38,3.38,0,0,1,19.87,35.28Z"/><path class="cls-2" d="M16.6,40.28a4.17,4.17,0,1,1,4-5.2h0a4.18,4.18,0,0,1-3,5.07A4,4,0,0,1,16.6,40.28Zm0-6.75a2.79,2.79,0,0,0-.63.08,2.57,2.57,0,1,0,3.13,1.86h0A2.58,2.58,0,0,0,16.59,33.53Z"/><path class="cls-3" d="M29.55,29.63a3.37,3.37,0,1,1-4.09-2.44A3.37,3.37,0,0,1,29.55,29.63Z"/><path class="cls-2" d="M26.28,34.64a4.18,4.18,0,0,1-4-3.15,4.17,4.17,0,0,1,8.09-2h0a4.18,4.18,0,0,1-3,5.07A4.54,4.54,0,0,1,26.28,34.64Zm0-6.75a2.27,2.27,0,0,0-.63.08,2.57,2.57,0,0,0-.68,4.7,2.57,2.57,0,0,0,3.81-2.84h0A2.58,2.58,0,0,0,26.28,27.89Z"/><path class="cls-2" d="M58.79,63.25a.59.59,0,0,1-.23,0,.79.79,0,0,1-.54-1l3.21-10.57a.78.78,0,0,1,.53-.54.79.79,0,0,1,.74.16l3.79,3.15a.8.8,0,0,1-1,1.23l-2.85-2.38-2.86,9.41A.79.79,0,0,1,58.79,63.25Z"/><path class="cls-4" d="M65.23,23.84,43.06,46a4.63,4.63,0,0,0-1.29-2.6,4.43,4.43,0,0,0-2.65-1.29l22.2-22.2Z"/><path class="cls-2" d="M43.06,46.81a.78.78,0,0,1-.26,0,.79.79,0,0,1-.54-.64A3.79,3.79,0,0,0,41.2,44,3.72,3.72,0,0,0,39,42.91a.79.79,0,0,1-.66-.53.82.82,0,0,1,.19-.83l22.2-22.19a.8.8,0,0,1,1.13,0l3.92,3.91a.8.8,0,0,1,0,1.13L43.62,46.58A.8.8,0,0,1,43.06,46.81Zm-2.4-5.1a5.2,5.2,0,0,1,1.67,1.13,5.48,5.48,0,0,1,1.12,1.65L64.1,23.84l-2.78-2.79Z"/><path class="cls-2" d="M38.49,52.13a5.44,5.44,0,0,1-3.85-9.29,8.16,8.16,0,0,1,.67-.57,5.44,5.44,0,0,1,3.94-.94,5.24,5.24,0,0,1,3.08,1.51,5.41,5.41,0,0,1,1.52,3.06A5.34,5.34,0,0,1,43,49.79a8.28,8.28,0,0,1-.64.75h0A5.41,5.41,0,0,1,38.49,52.13Zm-.05-9.26a3.79,3.79,0,0,0-2.17.68,5.57,5.57,0,0,0-.51.43,3.84,3.84,0,0,0,5.44,5.43c.16-.16.29-.33.43-.5a3.82,3.82,0,0,0,.64-2.77A3.89,3.89,0,0,0,41.2,44,3.69,3.69,0,0,0,39,42.91,4,4,0,0,0,38.44,42.87ZM41.77,50h0Z"/><path class="cls-2" d="M63,31.26a.83.83,0,0,1-.57-.23l-8.17-8.17a.8.8,0,0,1,1.14-1.13l8.17,8.17a.8.8,0,0,1,0,1.13A.85.85,0,0,1,63,31.26Z"/><path class="cls-2" d="M67.42,26.86a.83.83,0,0,1-.57-.23l-8.17-8.17a.8.8,0,0,1,1.14-1.13L68,25.5a.79.79,0,0,1,0,1.13A.8.8,0,0,1,67.42,26.86Z"/><path class="cls-4" d="M40.7,63.35C36.16,67.89,28.24,67.4,23,62.17S17.24,49,21.79,44.43a8.88,8.88,0,0,1,6-2.81c5.28-.47,8.11-6.15,8.11-6.15,5.34-8.87,12.19-2.33,12.19-2.33l-9,9a4.57,4.57,0,0,0-3.3.77,5.8,5.8,0,0,0-.61.52,4.61,4.61,0,1,0,6.51,6.52,6.78,6.78,0,0,0,.52-.61A4.6,4.6,0,0,0,43,46l9-9s6.54,6.86-2.33,12.2c0,0-5.68,2.83-6.15,8.1A8.9,8.9,0,0,1,40.7,63.35Z"/><path class="cls-2" d="M32.93,67.23A15.13,15.13,0,0,1,22.4,62.74c-5.51-5.56-6-14-1.18-18.88a9.63,9.63,0,0,1,6.51-3c4.78-.43,7.43-5.67,7.46-5.72,1.82-3,4-4.7,6.47-5,3.8-.52,6.87,2.36,7,2.48a.77.77,0,0,1,.25.57.81.81,0,0,1-.23.57l-9,9a.79.79,0,0,1-.69.22,3.77,3.77,0,0,0-2.72.64,5.31,5.31,0,0,0-.5.42,3.81,3.81,0,1,0,5.38,5.39,4.29,4.29,0,0,0,.45-.52,3.78,3.78,0,0,0,.62-2.7.8.8,0,0,1,.22-.69l9-9a.68.68,0,0,1,.57-.23.77.77,0,0,1,.57.25c.12.13,3,3.19,2.49,7-.34,2.49-2,4.65-5,6.44-.11.06-5.35,2.74-5.77,7.49a9.68,9.68,0,0,1-3,6.51h0A11.64,11.64,0,0,1,32.93,67.23Zm9.64-35.61a5.63,5.63,0,0,0-.71,0c-2,.27-3.75,1.69-5.27,4.22-.09.19-3.06,6-8.71,6.54A8.05,8.05,0,0,0,22.35,45c-4.23,4.23-3.7,11.68,1.18,16.6S35.9,67,40.14,62.78a8.09,8.09,0,0,0,2.57-5.53c.51-5.65,6.35-8.62,6.6-8.74,2.47-1.49,3.89-3.27,4.16-5.24a7.36,7.36,0,0,0-1.54-5.05l-8.08,8.09a5.44,5.44,0,0,1-1,3.46,7.65,7.65,0,0,1-.61.72,5.41,5.41,0,1,1-7.65-7.65,5.9,5.9,0,0,1,.69-.58,5.48,5.48,0,0,1,3.5-1l8.08-8.08A7.79,7.79,0,0,0,42.57,31.62ZM40.7,63.34h0Z"/><path class="cls-2" d="M32.19,56.44a.83.83,0,0,1-.57-.23l-2.7-2.71a.8.8,0,0,1,1.13-1.13l2.71,2.7a.81.81,0,0,1,0,1.14A.85.85,0,0,1,32.19,56.44Z"/><path class="cls-2" d="M30.81,61.09a.8.8,0,0,1-.57-.24l-6-6a.8.8,0,1,1,1.13-1.13l6,6a.79.79,0,0,1,0,1.13A.77.77,0,0,1,30.81,61.09Z"/><path class="cls-3" d="M47.07,19.62l-3.93,3-3.91-3s-3.93-2.88-1.53-5.86c2.08-2.59,5.44,1.09,5.44,1.09s3.39-3.68,5.47-1.09C51,16.74,47.07,19.62,47.07,19.62Z"/><path class="cls-2" d="M43.13,23.67l-4.39-3.42a6.89,6.89,0,0,1-2.59-4,3.9,3.9,0,0,1,.92-3A3.08,3.08,0,0,1,39.4,12a5.87,5.87,0,0,1,3.74,1.7A5.83,5.83,0,0,1,46.91,12a3,3,0,0,1,2.32,1.22,3.9,3.9,0,0,1,.92,3,6.73,6.73,0,0,1-2.6,4Zm-3.63-10h0a1.44,1.44,0,0,0-1.13.62,2.35,2.35,0,0,0-.58,1.82,5.25,5.25,0,0,0,2,2.89l3.43,2.67L46.6,19a5.31,5.31,0,0,0,2-2.89A2.35,2.35,0,0,0,48,14.26a1.46,1.46,0,0,0-1.14-.62c-1.15,0-2.69,1.28-3.13,1.75l-.58.64-.59-.64C42.09,14.9,40.68,13.64,39.5,13.64Z"/><path class="cls-3" d="M60.34,62.73a3.37,3.37,0,1,1-2.24-4.21A3.37,3.37,0,0,1,60.34,62.73Z"/><path class="cls-2" d="M57.11,65.92a4.26,4.26,0,0,1-1.21-.17,4.18,4.18,0,0,1-.75-7.68,4.1,4.1,0,0,1,3.18-.31A4.17,4.17,0,0,1,61.11,63h0A4.19,4.19,0,0,1,57.11,65.92Zm0-6.75a2.62,2.62,0,0,0-1.21.31,2.57,2.57,0,1,0,3.68,3h0a2.58,2.58,0,0,0-1.72-3.21A2.36,2.36,0,0,0,57.11,59.17Z"/></g></g></svg>