<svg xmlns="http://www.w3.org/2000/svg" viewBox="0 0 48 48"><defs><style>.cls-1,.cls-5,.cls-6{fill:#fff;}.cls-2{fill:#f39848;}.cls-3,.cls-4{fill:none;}.cls-3,.cls-4,.cls-5,.cls-6{stroke:#ea9449;}.cls-3,.cls-6{stroke-miterlimit:10;}.cls-4,.cls-5{stroke-linecap:round;stroke-linejoin:round;}.cls-7{fill:#ea9449;}</style></defs><title>1-choose-plan(w)</title><g id="圖層_2" data-name="圖層 2"><g id="ICON"><circle class="cls-1" cx="24" cy="24" r="23.5"/><path class="cls-2" d="M24,1A23,23,0,1,1,1,24,23,23,0,0,1,24,1m0-1A24,24,0,1,0,48,24,24,24,0,0,0,24,0Z"/><rect class="cls-3" x="8.82" y="13" width="30.07" height="20.29" rx="2"/><line class="cls-4" x1="8.82" y1="36.31" x2="38.89" y2="36.31"/><line class="cls-5" x1="20.83" y1="19.37" x2="34.77" y2="19.37"/><line class="cls-5" x1="12.97" y1="24.41" x2="26.24" y2="24.41"/><line class="cls-5" x1="12.97" y1="28.02" x2="21.83" y2="28.02"/><circle class="cls-6" cx="35.09" cy="32.68" r="6"/><polyline class="cls-4" points="33.02 32.73 34.7 34.64 37.16 31.57"/><line class="cls-4" x1="20.52" y1="33.29" x2="20.52" y2="36.31"/><line class="cls-4" x1="25.92" y1="33.29" x2="25.92" y2="36.31"/><rect class="cls-7" x="12.5" y="17.51" width="5.85" height="3.73" rx="1"/></g></g></svg>