<svg xmlns="http://www.w3.org/2000/svg" viewBox="0 0 48 48"><defs><style>.cls-1{fill:#fff;}.cls-2{fill:#4779bd;}.cls-3{fill:#38a052;}.cls-4{fill:#f0b61a;}.cls-5{fill:#dd4335;}</style></defs><title>Google</title><g id="圖層_2" data-name="圖層 2"><g id="ICON"><circle class="cls-1" cx="24" cy="24" r="24"/><path class="cls-2" d="M38.25,24.33a16.83,16.83,0,0,0-.26-3H24.29V27h7.83a6.74,6.74,0,0,1-2.92,4.37V35h4.72A14.21,14.21,0,0,0,38.25,24.33Z"/><path class="cls-3" d="M24.29,38.54A13.9,13.9,0,0,0,33.92,35L29.2,31.36a8.73,8.73,0,0,1-13-4.58H11.31v3.75A14.52,14.52,0,0,0,24.29,38.54Z"/><path class="cls-4" d="M16.15,26.76a8.34,8.34,0,0,1,0-5.52V17.48H11.31a14.41,14.41,0,0,0,0,13l3.77-2.94Z"/><path class="cls-5" d="M24.29,15.25a7.94,7.94,0,0,1,5.57,2.17L34,13.25a14,14,0,0,0-9.73-3.79,14.51,14.51,0,0,0-13,8l4.84,3.76A8.68,8.68,0,0,1,24.29,15.25Z"/></g></g></svg>