<?xml version="1.0" encoding="UTF-8"?>
<svg xmlns="http://www.w3.org/2000/svg" version="1.1" viewBox="0 0 48 48">
  <defs>
    <style>
      .cls-1 {
        fill: #38a052;
      }

      .cls-2 {
        fill: #f0b61a;
      }

      .cls-3 {
        fill: #fff;
      }

      .cls-4 {
        fill: #dd4335;
      }

      .cls-5 {
        fill: #4779bd;
      }
    </style>
  </defs>
  <!-- Generator: Adobe Illustrator 28.6.0, SVG Export Plug-In . SVG Version: 1.2.0 Build 709)  -->
  <g>
    <g id="_圖層_1" data-name="圖層_1">
      <g id="_圖層_2" data-name="圖層_2">
        <g id="ICON">
          <circle class="cls-3" cx="24" cy="24" r="24"/>
          <path class="cls-5" d="M46.2,24.5c0-1.6-.1-3.1-.4-4.7h-21.4v8.8h12.2c-.5,2.8-2.2,5.3-4.6,6.8v5.7h7.4c4.5-4.3,7-10.4,6.8-16.6Z"/>
          <path class="cls-1" d="M24.4,46.7c5.5.1,10.9-1.8,15-5.5l-7.4-5.7c-6.3,4.1-14.8,2.2-18.8-4.1-.6-1-1.1-2-1.5-3.1h-7.6v5.9c3.8,7.7,11.7,12.5,20.3,12.5Z"/>
          <path class="cls-2" d="M11.7,28.3c-1-2.8-1-5.8,0-8.6v-5.9h-7.6c-3.2,6.4-3.2,13.9,0,20.3l5.9-4.6,1.7-1.2Z"/>
          <path class="cls-4" d="M24.4,10.3c3.2,0,6.3,1.2,8.7,3.4l6.5-6.5c-4.1-3.9-9.5-6-15.2-5.9-8.6,0-16.4,4.8-20.3,12.5l7.6,5.9c1.8-5.5,7-9.3,12.8-9.3Z"/>
        </g>
      </g>
    </g>
  </g>
</svg>