<svg xmlns="http://www.w3.org/2000/svg" viewBox="0 0 48 48"><defs><style>.cls-1{fill:#57b763;}.cls-2{fill:#fff;}</style></defs><title>LINE</title><g id="圖層_2" data-name="圖層 2"><g id="ICON"><circle class="cls-1" cx="24" cy="24" r="24"/><path class="cls-2" d="M40,22.6c0-7.17-7.19-13-16-13S8,15.43,8,22.6c0,6.43,5.7,11.81,13.4,12.83.52.11,1.23.34,1.41.79a3.23,3.23,0,0,1,.05,1.45L22.6,39c-.07.41-.33,1.58,1.38.86s9.23-5.43,12.59-9.3h0A11.57,11.57,0,0,0,40,22.6Z"/><path class="cls-1" d="M34.68,26.74a.3.3,0,0,0,.3-.3V25.3a.31.31,0,0,0-.3-.31H31.62V23.81h3.06a.3.3,0,0,0,.3-.3V22.37a.3.3,0,0,0-.3-.3H31.62V20.89h3.06a.31.31,0,0,0,.3-.31V19.44a.31.31,0,0,0-.3-.3H30.17a.3.3,0,0,0-.3.3h0v7h0a.3.3,0,0,0,.3.3h4.51Z"/><path class="cls-1" d="M18,26.74a.3.3,0,0,0,.31-.3V25.3A.31.31,0,0,0,18,25H15V19.44a.31.31,0,0,0-.31-.3H13.52a.29.29,0,0,0-.3.3v7h0a.29.29,0,0,0,.3.3H18Z"/><rect class="cls-1" x="19.29" y="19.14" width="1.75" height="7.6" rx="0.31"/><path class="cls-1" d="M28.47,19.14H27.33a.29.29,0,0,0-.3.3V23.6l-3.2-4.32,0,0h0l0,0h0l0,0H22.44a.3.3,0,0,0-.31.3v7a.31.31,0,0,0,.31.3h1.14a.31.31,0,0,0,.3-.3V22.28l3.2,4.33a.6.6,0,0,0,.08.08h1.31a.31.31,0,0,0,.31-.3v-7A.3.3,0,0,0,28.47,19.14Z"/></g></g></svg>