<svg width="91" height="91" viewBox="0 0 91 91" fill="none" xmlns="http://www.w3.org/2000/svg">
<g clip-path="url(#clip0_889_1200)">
<path d="M45.4991 14.085C39.0733 14.1284 32.8034 16.0485 27.4749 19.6046C22.1465 23.1607 17.9965 28.1947 15.5449 34.0759V58.2527C21.1692 62.6023 28.106 64.9556 35.2426 64.9351C36.0578 64.9351 36.873 64.9351 37.7072 64.9351H38.0674C39.3133 64.9362 40.513 65.4027 41.4268 66.2413C42.3405 67.0799 42.9011 68.2289 42.9966 69.4589C43.0556 70.1056 42.9801 70.7574 42.7747 71.3741C42.5692 71.9907 42.2383 72.5591 41.8022 73.0441C41.3749 73.5279 40.855 73.923 40.2725 74.2065C39.69 74.49 39.0565 74.6564 38.4087 74.696C37.2901 74.696 36.2474 74.8274 35.2237 74.8274C31.974 74.8219 28.7358 74.444 25.5739 73.7011C29.4957 76.5047 33.9746 78.4506 38.7137 79.41C43.4528 80.3695 48.3438 80.3204 53.0622 79.266C57.7807 78.2116 62.2189 76.1761 66.0825 73.2944C69.946 70.4128 73.1467 66.7508 75.4722 62.5513V34.0947C73.0265 28.2042 68.8759 23.1615 63.5425 19.601C58.2092 16.0405 51.9314 14.1213 45.4991 14.085Z" fill="#19B9AA"/>
<path d="M82.3746 33.1939C79.6881 25.6399 74.7001 19.0977 68.0987 14.4698C61.4974 9.84186 53.6082 7.35645 45.5196 7.35645C37.431 7.35645 29.5418 9.84186 22.9405 14.4698C16.3392 19.0977 11.3511 25.6399 8.66461 33.1939C4.70232 34.6768 1.89648 40.7022 1.89648 48.2105C1.89648 56.9202 5.68815 63.5839 10.6173 63.5839H11.3757C18.1752 68.8134 26.5395 71.6532 35.1494 71.6553C36.1352 71.6553 37.14 71.6553 38.1448 71.5427C38.6107 71.4917 39.0409 71.2716 39.3525 70.9249C39.6641 70.5783 39.835 70.1297 39.8321 69.6656C39.7806 69.2044 39.5583 68.7784 39.2082 68.4699C38.8581 68.1614 38.405 67.9922 37.9363 67.995C28.6726 68.6719 19.5141 65.6965 12.4563 59.7171V33.4379C15.0225 26.8166 19.5563 21.1215 25.4592 17.1042C31.3622 13.0868 38.3567 10.9363 45.5196 10.9363C52.6825 10.9363 59.6771 13.0868 65.58 17.1042C71.4829 21.1215 76.0167 26.8166 78.5829 33.4379V63.4712H80.4788C85.3131 63.6026 89.1048 56.9202 89.1048 48.2105C89.1048 40.6459 86.3179 34.6768 82.3746 33.1939Z" fill="#19B9AA"/>
<path d="M45.5008 43.7804C44.7284 43.7618 43.9678 43.9715 43.3164 44.3828C42.6649 44.7942 42.152 45.3884 41.8433 46.0897C41.5346 46.791 41.4439 47.5675 41.583 48.32C41.7221 49.0725 42.0846 49.7669 42.6241 50.3145C43.1637 50.8621 43.8559 51.238 44.6122 51.3942C45.3686 51.5505 46.1549 51.4799 46.8706 51.1917C47.5862 50.9034 48.1989 50.4104 48.6303 49.7757C49.0617 49.1411 49.2922 48.3935 49.2925 47.6285C49.2928 46.624 48.8963 45.6592 48.1879 44.9402C47.4794 44.2211 46.515 43.8049 45.5008 43.7804Z" fill="white"/>
<path d="M60.8189 43.7803C60.0462 43.7805 59.2912 44.0088 58.6502 44.4359C58.0092 44.863 57.5113 45.4696 57.2201 46.1782C56.9289 46.8868 56.8577 47.6653 57.0155 48.4142C57.1733 49.1631 57.553 49.8484 58.106 50.3826C58.6591 50.9169 59.3604 51.2758 60.1205 51.4135C60.8805 51.5512 61.6647 51.4614 62.373 51.1558C63.0813 50.8501 63.6815 50.3423 64.097 49.6972C64.5124 49.0522 64.7242 48.2992 64.7054 47.5344C64.6806 46.5302 64.2602 45.5754 63.5341 44.874C62.8079 44.1725 61.8334 43.78 60.8189 43.7803Z" fill="white"/>
<path d="M26.3332 47.5345C26.3519 48.2728 26.59 48.9892 27.0178 49.5941C27.4456 50.199 28.0441 50.6655 28.7384 50.9353C29.4326 51.2051 30.1918 51.2662 30.921 51.1109C31.6502 50.9556 32.3169 50.5909 32.8377 50.0623C33.3585 49.5337 33.7104 48.8648 33.8491 48.1393C33.9879 47.4137 33.9075 46.6637 33.6179 45.9832C33.3284 45.3027 32.8426 44.7218 32.2212 44.3133C31.5999 43.9048 30.8707 43.6868 30.1249 43.6865C29.6189 43.6864 29.118 43.7865 28.6516 43.981C28.1853 44.1755 27.763 44.4605 27.4097 44.8191C27.0563 45.1777 26.779 45.6027 26.5942 46.069C26.4093 46.5354 26.3206 47.0337 26.3332 47.5345Z" fill="white"/>
</g>
<defs>
<clipPath id="clip0_889_1200">
<rect width="91" height="90.1" fill="white" transform="translate(0 0.607422)"/>
</clipPath>
</defs>
</svg>
