<?xml version="1.0" encoding="UTF-8"?>
<svg xmlns="http://www.w3.org/2000/svg" version="1.1" viewBox="0 0 48 48">
  <defs>
    <style>
      .cls-1 {
        fill: #fff;
      }
    </style>
  </defs>
  <!-- Generator: Adobe Illustrator 28.6.0, SVG Export Plug-In . SVG Version: 1.2.0 Build 709)  -->
  <g>
    <g id="_圖層_1" data-name="圖層_1">
      <g id="_圖層_2" data-name="圖層_2">
        <g id="ICON">
          <path class="cls-1" d="M48,24c0,12.7-9.8,23.2-22.4,24v-17.8h6.7l.9-5h-7.7v-3.8c0-4.5,2.1-6.6,6.7-6.6h1.6v-4.5c-1.4-.2-2.7-.4-4.1-.4-3.8,0-6.4.8-8.1,2.6s-2.5,4.5-2.5,8.3v4.4h-5v5h5v17.3C6.2,44.8-2.2,32.1.5,19.2,3.2,6.2,15.9-2.2,28.9.5c11.1,2.3,19.1,12.1,19.1,23.5Z"/>
        </g>
      </g>
    </g>
  </g>
</svg>