<svg xmlns="http://www.w3.org/2000/svg" viewBox="0 0 48 48"><defs><style>.cls-1{fill:#fff;}</style></defs><title>Instagram</title><g id="圖層_2" data-name="圖層 2"><g id="ICON"><path class="cls-1" d="M29.08,24.29a5.37,5.37,0,1,1-5.37-5.37A5.37,5.37,0,0,1,29.08,24.29Zm7.83,0c0,4.3,0,4.81-.09,6.51a8.86,8.86,0,0,1-.56,3,5.34,5.34,0,0,1-3,3.06,8.93,8.93,0,0,1-3,.55c-1.7.08-2.21.1-6.51.1s-4.81,0-6.51-.1a8.93,8.93,0,0,1-3-.55,5.4,5.4,0,0,1-3.06-3.06,8.93,8.93,0,0,1-.55-3c-.08-1.7-.1-2.21-.1-6.51s0-4.81.1-6.51a8.93,8.93,0,0,1,.55-3,4.88,4.88,0,0,1,1.21-1.85,5,5,0,0,1,1.85-1.2,8.86,8.86,0,0,1,3-.56c1.7-.07,2.21-.09,6.51-.09s4.81,0,6.51.09a8.86,8.86,0,0,1,3,.56,5.06,5.06,0,0,1,1.85,1.2,5,5,0,0,1,1.2,1.85,8.86,8.86,0,0,1,.56,3C36.89,19.48,36.91,20,36.91,24.29Zm-4.93,0a8.27,8.27,0,1,0-8.27,8.27A8.27,8.27,0,0,0,32,24.29Zm2.26-8.59a1.94,1.94,0,1,0-1.94,1.93A1.94,1.94,0,0,0,34.24,15.7Zm2.67,8.59c0,4.3,0,4.81-.09,6.51a8.86,8.86,0,0,1-.56,3,5.34,5.34,0,0,1-3,3.06,8.93,8.93,0,0,1-3,.55c-1.7.08-2.21.1-6.51.1s-4.81,0-6.51-.1a8.93,8.93,0,0,1-3-.55,5.4,5.4,0,0,1-3.06-3.06,8.93,8.93,0,0,1-.55-3c-.08-1.7-.1-2.21-.1-6.51s0-4.81.1-6.51a8.93,8.93,0,0,1,.55-3,4.88,4.88,0,0,1,1.21-1.85,5,5,0,0,1,1.85-1.2,8.86,8.86,0,0,1,3-.56c1.7-.07,2.21-.09,6.51-.09s4.81,0,6.51.09a8.86,8.86,0,0,1,3,.56,5.06,5.06,0,0,1,1.85,1.2,5,5,0,0,1,1.2,1.85,8.86,8.86,0,0,1,.56,3C36.89,19.48,36.91,20,36.91,24.29Zm-4.93,0a8.27,8.27,0,1,0-8.27,8.27A8.27,8.27,0,0,0,32,24.29Zm2.26-8.59a1.94,1.94,0,1,0-1.94,1.93A1.94,1.94,0,0,0,34.24,15.7ZM48,24A24,24,0,1,1,24,0,24,24,0,0,1,48,24Zm-8.19.29c0-4.37,0-4.92-.09-6.64A11.87,11.87,0,0,0,39,13.74a7.84,7.84,0,0,0-1.86-2.85A8,8,0,0,0,34.26,9a11.87,11.87,0,0,0-3.91-.75c-1.72-.07-2.27-.09-6.64-.09s-4.93,0-6.64.09A11.76,11.76,0,0,0,13.16,9a8.2,8.2,0,0,0-4.71,4.71,11.87,11.87,0,0,0-.75,3.91c-.08,1.72-.1,2.27-.1,6.64s0,4.93.1,6.64a11.76,11.76,0,0,0,.75,3.91,8.12,8.12,0,0,0,4.71,4.71,11.76,11.76,0,0,0,3.91.75c1.71.08,2.26.1,6.64.1s4.92,0,6.64-.1a11.87,11.87,0,0,0,3.91-.75A8.2,8.2,0,0,0,39,34.84a11.76,11.76,0,0,0,.75-3.91C39.79,29.22,39.81,28.67,39.81,24.29Zm-3-6.51c.07,1.7.09,2.21.09,6.51s0,4.81-.09,6.51a8.86,8.86,0,0,1-.56,3,5.34,5.34,0,0,1-3,3.06,8.93,8.93,0,0,1-3,.55c-1.7.08-2.21.1-6.51.1s-4.81,0-6.51-.1a8.93,8.93,0,0,1-3-.55,5.4,5.4,0,0,1-3.06-3.06,8.93,8.93,0,0,1-.55-3c-.08-1.7-.1-2.21-.1-6.51s0-4.81.1-6.51a8.93,8.93,0,0,1,.55-3,4.88,4.88,0,0,1,1.21-1.85,5,5,0,0,1,1.85-1.2,8.86,8.86,0,0,1,3-.56c1.7-.07,2.21-.09,6.51-.09s4.81,0,6.51.09a8.86,8.86,0,0,1,3,.56,5.06,5.06,0,0,1,1.85,1.2,5,5,0,0,1,1.2,1.85A8.86,8.86,0,0,1,36.82,17.78ZM32,24.29a8.27,8.27,0,1,0-8.27,8.27A8.27,8.27,0,0,0,32,24.29Zm2.26-8.59a1.94,1.94,0,1,0-1.94,1.93A1.94,1.94,0,0,0,34.24,15.7Z"/></g></g></svg>