<svg xmlns="http://www.w3.org/2000/svg" viewBox="0 0 48 48"><defs><style>.cls-1{fill:#fff;}</style></defs><title>Threads</title><g id="圖層_2" data-name="圖層 2"><g id="ICON"><path class="cls-1" d="M25.74,24.45a15,15,0,0,1,3.25.33c-.39,4.64-2.73,5.34-4.52,5.44-1.95.1-4-.75-4.09-2.59s1.59-3,4.28-3.15ZM48,24A24,24,0,1,1,24,0,24,24,0,0,1,48,24ZM11.67,24c0-4.52,1.05-8.06,3-10.51,2.1-2.61,5.33-4,9.59-4,6.46.05,10.56,3,12.18,8.82l3-.83a14.83,14.83,0,0,0-5.15-8,16.24,16.24,0,0,0-10-3.08h0c-5.25,0-9.29,1.77-12,5.15-2.41,3-3.66,7.19-3.7,12.44v0c0,5.25,1.29,9.43,3.7,12.44,2.72,3.38,6.75,5.11,12,5.15h0c4.67,0,8-1.23,10.67-3.89a9.38,9.38,0,0,0,2.27-10.5,9.14,9.14,0,0,0-4.62-4.5l-.47-.21c-.28-5-3.07-7.87-7.76-7.9h-.06a7.64,7.64,0,0,0-6.57,3.31l2.58,1.73a4.6,4.6,0,0,1,4-1.93h0A4.44,4.44,0,0,1,27.82,19a5.11,5.11,0,0,1,1.09,2.57,19.93,19.93,0,0,0-4.43-.21,8.71,8.71,0,0,0-5.25,1.89,5.51,5.51,0,0,0-1.95,4.52,5.44,5.44,0,0,0,2.57,4.35,8.12,8.12,0,0,0,4.78,1.18,7.19,7.19,0,0,0,5.47-2.63A9.72,9.72,0,0,0,32,25.89a5.69,5.69,0,0,1,2.4,2.57,6.31,6.31,0,0,1-1.6,7c-2.12,2.07-4.66,3-8.51,3-4.26,0-7.49-1.37-9.59-4C12.72,32.06,11.7,28.52,11.67,24Z"/></g></g></svg>