<?xml version="1.0" encoding="UTF-8"?>
<svg xmlns="http://www.w3.org/2000/svg" version="1.1" viewBox="0 0 25.2 25.4">
  <defs>
    <style>
      .cls-1 {
        fill: #fff;
      }
    </style>
  </defs>
  <!-- Generator: Adobe Illustrator 28.6.0, SVG Export Plug-In . SVG Version: 1.2.0 Build 709)  -->
  <g>
    <g id="_圖層_1" data-name="圖層_1">
      <path class="cls-1" d="M24.6,22l-4.6-4.7c-.5-.5-1.2-.7-1.9-.5l-.9-.9c3.4-4.1,2.9-10.2-1.2-13.7C11.8-1.2,5.7-.6,2.2,3.5s-2.9,10.2,1.2,13.7c3.5,2.9,8.7,3,12.3.1l.9.9c-.2.7,0,1.4.5,1.9l4.6,4.7c.4.4.9.6,1.4.6,1.1,0,2-.9,2-2,0-.5-.2-1-.6-1.4h0ZM9.6,16.5c-3.7,0-6.7-3-6.7-6.7,0-3.7,3-6.7,6.7-6.7,3.7,0,6.7,3,6.7,6.7,0,3.7-3,6.7-6.7,6.7h0Z"/>
    </g>
  </g>
</svg>