<?xml version="1.0" encoding="UTF-8"?>
<svg xmlns="http://www.w3.org/2000/svg" version="1.1" viewBox="0 0 29.9 25.2">
  <defs>
    <style>
      .cls-1 {
        fill: #fff;
      }
    </style>
  </defs>
  <!-- Generator: Adobe Illustrator 28.6.0, SVG Export Plug-In . SVG Version: 1.2.0 Build 709)  -->
  <g>
    <g id="_圖層_2">
      <g id="ICON">
        <path class="cls-1" d="M28.8,12.4c-.5-.5-1.2-.7-1.8-.8l-.2-.6-.3-.8-.3-.9-.9.4c-.3,0-.6,0-.8,0s-.5-.4-.5-.6c-.2-.6.1-1.2.7-1.4l1-.2-2-6c-.4-1.1-1.6-1.8-2.8-1.4l-3.8,1.3.6,1.6,3.6,10.7.7,2-1.3,1.5-1-3.1-3.6-10.5-.6-1.6L1.5,6.6c-.6.2-1,.6-1.3,1.1-.3.5-.3,1.1-.1,1.7l2,5.9.8-.3c.3,0,.6,0,.9,0,.3.1.4.4.6.6,0,.3,0,.6,0,.9-.1.3-.3.5-.6.5l-.8.3,2,5.9c.2.5.6,1,1.1,1.3.3.1.7.2,1,.2s.5,0,.7-.1l6.9-2.3.5-.2h.3c0-.1,2-.8,2-.8.2,0,.4-.2.6-.2l-.5,2.4c-.1.5,0,1,.5,1.4.3.2.6.4,1,.4s.3,0,.5,0l3-1.1c.2,0,.4-.2.6-.4l4.1-4.6,1.4-1.6.7-.8c1.1-1.2.9-3.1-.3-4.2ZM14.1,17.1l-4.3,1.4c0,0-.2,0-.3,0-.4,0-.7-.2-.8-.6-.1-.5,0-1,.6-1.1l4.3-1.4c.5-.1.9.1,1.1.6.1.5,0,1-.6,1.1ZM14.5,13.1l-5.8,2c0,0-.2,0-.3,0-.4,0-.7-.2-.8-.6-.2-.5,0-.9.6-1.1l5.8-2c.4-.2.9,0,1.1.6.2.5,0,.9-.6,1.1ZM14.8,9.2l-7.4,2.5c0,0-.2,0-.3,0-.4,0-.7-.2-.8-.6-.2-.5,0-.9.6-1.1l7.4-2.5c.5-.2.9,0,1.1.5.1.5-.1,1-.6,1.1ZM25.7,17.9l-.5.5-3.5,4-2.5.9.6-2.6,3.5-4,.5-.6.7-.8c.4.3.7.6,1.1.9.3.3.6.6.9.9,0,0-.7.8-.7.7ZM27.8,15.5h0s-2-1.7-2-1.7h0c.4-.5,1.2-.5,1.8,0,.5.5.6,1.3.2,1.8Z"/>
      </g>
    </g>
  </g>
</svg>