<?xml version="1.0" encoding="UTF-8"?>
<svg xmlns="http://www.w3.org/2000/svg" version="1.1" viewBox="0 0 136.1 136.1">
  <defs>
    <style>
      .cls-1 {
        fill: #fff;
      }
    </style>
  </defs>
  <!-- Generator: Adobe Illustrator 28.6.0, SVG Export Plug-In . SVG Version: 1.2.0 Build 709)  -->
  <g>
    <g id="_圖層_1" data-name="圖層_1">
      <g id="_圖層_2">
        <g id="ICON">
          <path class="cls-1" d="M130.2,66.9c-2.3-2.3-5.4-3.2-8.1-3.6l-.9-2.7-1.4-3.6-1.4-4.1-4.1,1.8h-3.6c-.9,0-2.3-1.8-2.3-2.7-.9-2.7.5-5.4,3.2-6.3l4.5-.9-9-27.1c-1.8-5-7.2-8.1-12.6-6.3l-17.1,5.9,2.7,7.2,16.2,48.3,3.2,9-5.9,6.8-4.5-14-16.2-47.4-2.7-7.2L7,40.8c-2.7.9-4.5,2.7-5.9,5-1.4,2.3-1.4,5-.5,7.7l9,26.6,3.6-1.4h4.1c1.4.5,1.8,1.8,2.7,2.7v4.1c-.5,1.4-1.4,2.3-2.7,2.3l-3.6,1.4,9,26.6c.9,2.3,2.7,4.5,5,5.9,1.4.5,3.2.9,4.5.9s2.3,0,3.2-.5l31.1-10.4,2.3-.9h1.4c0-.5,9-3.6,9-3.6.9,0,1.8-.9,2.7-.9l-2.3,10.8c-.5,2.3,0,4.5,2.3,6.3,1.4.9,2.7,1.8,4.5,1.8h2.3l13.5-5c.9,0,1.8-.9,2.7-1.8l18.5-20.8,6.3-7.2,3.2-3.6c5-5.4,4.1-14-1.4-18.9l-1.4-.9ZM63.9,88.1l-19.4,6.3h-1.4c-1.8,0-3.2-.9-3.6-2.7-.5-2.3,0-4.5,2.7-5l19.4-6.3c2.3-.5,4.1.5,5,2.7.5,2.3,0,4.5-2.7,5ZM65.7,70.1l-26.2,9h-1.4c-1.8,0-3.2-.9-3.6-2.7-.9-2.3,0-4.1,2.7-5l26.2-9c1.8-.9,4.1,0,5,2.7.9,2.3,0,4.1-2.7,5ZM67,52.5l-33.4,11.3h-1.4c-1.8,0-3.2-.9-3.6-2.7-.9-2.3,0-4.1,2.7-5l33.4-11.3c2.3-.9,4.1,0,5,2.3.5,2.3-.5,4.5-2.7,5v.5ZM116.2,91.7l-2.3,2.3-15.8,18-11.3,4.1,2.7-11.7,15.8-18,2.3-2.7,3.2-3.6c1.8,1.4,3.2,2.7,5,4.1l4.1,4.1s-3.2,3.6-3.2,3.2l-.5.5ZM125.7,80.9h0l-9-7.7h0c1.8-2.3,5.4-2.3,8.1,0,2.3,2.3,2.7,5.9.9,8.1v-.5Z"/>
        </g>
      </g>
    </g>
  </g>
</svg>