<?xml version="1.0" encoding="utf-8"?>
<!-- Generator: Adobe Illustrator 23.0.2, SVG Export Plug-In . SVG Version: 6.00 Build 0)  -->
<svg version="1.1" id="圖層_1" xmlns="http://www.w3.org/2000/svg" xmlns:xlink="http://www.w3.org/1999/xlink" x="0px" y="0px"
	 viewBox="0 0 24 24" style="enable-background:new 0 0 24 24;" xml:space="preserve">
<style type="text/css">
	.st0{clip-path:url(#SVGID_2_);}
	.st1{fill:#FFBC59;}
</style>
<g>
	<defs>
		<rect id="SVGID_1_" width="24" height="24"/>
	</defs>
	<clipPath id="SVGID_2_">
		<use xlink:href="#SVGID_1_"  style="overflow:visible;"/>
	</clipPath>
	<g class="st0">
		<path class="st1" d="M10.1,9.3c0,0.2,0,0.3-0.1,0.5C9.9,9.8,9.7,10,9.6,10c-0.2,0.1-0.3,0.1-0.5,0C9,10,8.8,10,8.7,9.8
			C8.6,9.7,8.5,9.6,8.5,9.4c0-0.2,0-0.3,0-0.5c0.1-0.2,0.2-0.3,0.3-0.4s0.3-0.1,0.5-0.1c0.2,0,0.4,0.1,0.6,0.2
			C10,8.8,10.1,9,10.1,9.3z"/>
		<path class="st1" d="M15.6,14.7c0,0.2,0,0.3-0.1,0.5c-0.1,0.1-0.2,0.2-0.4,0.3c-0.2,0.1-0.3,0.1-0.5,0c-0.2,0-0.3-0.1-0.4-0.2
			c-0.1-0.1-0.2-0.3-0.2-0.4c0-0.2,0-0.3,0-0.5c0.1-0.2,0.2-0.3,0.3-0.4c0.1-0.1,0.3-0.1,0.5-0.1c0.2,0,0.4,0.1,0.6,0.2
			S15.6,14.5,15.6,14.7z"/>
		<path class="st1" d="M21.7,12.1c0.3-0.5,0.4-1,0.3-1.6c-0.1-0.6-0.4-1.1-0.9-1.4L20,8.2c-0.1-0.1-0.2-0.2-0.3-0.4
			c-0.1-0.1-0.1-0.3-0.2-0.5l-0.2-1.5c-0.1-0.6-0.3-1.1-0.8-1.4c-0.4-0.4-1-0.6-1.6-0.5L15.5,4c-0.3,0-0.6-0.1-0.9-0.3l-1.1-1
			C13.1,2.3,12.6,2,12,2s-1.1,0.2-1.5,0.6l-1.1,1C9.1,3.9,8.8,4,8.5,4L7,3.9c-0.6,0-1.1,0.2-1.6,0.5C5,4.8,4.7,5.3,4.7,5.9L4.5,7.4
			c0,0.2-0.1,0.3-0.2,0.5C4.2,8,4.1,8.1,4,8.2L2.8,9.1C2.4,9.4,2.1,9.9,2,10.5c-0.1,0.6,0,1.1,0.3,1.6l0.8,1.3
			c0.1,0.1,0.1,0.3,0.2,0.4c0,0.2,0,0.3,0,0.5L3,15.7c-0.1,0.5,0,1.1,0.3,1.6s0.7,0.8,1.3,1l1.4,0.4c0.2,0,0.3,0.1,0.4,0.2
			c0.1,0.1,0.2,0.2,0.3,0.4l0.7,1.3c0.2,0.4,0.5,0.7,0.8,0.9C8.5,21.8,8.9,22,9.3,22c0.3,0,0.6,0,0.9-0.2l1.4-0.6
			c0.1-0.1,0.3-0.1,0.5-0.1c0.2,0,0.3,0,0.5,0.1l1.4,0.6c0.5,0.2,1.1,0.2,1.6,0c0.5-0.2,1-0.6,1.2-1.1l0.7-1.3
			c0.1-0.1,0.2-0.3,0.3-0.4c0.1-0.1,0.3-0.2,0.4-0.2l1.4-0.4c0.5-0.2,1-0.5,1.3-1c0.3-0.5,0.4-1.1,0.3-1.6l-0.3-1.5
			c0-0.2,0-0.3,0-0.5c0-0.2,0.1-0.3,0.2-0.4L21.7,12.1z M7.1,9.2c0-0.4,0.1-0.8,0.4-1.2c0.2-0.4,0.6-0.6,1-0.8
			c0.4-0.2,0.8-0.2,1.2-0.1c0.4,0.1,0.8,0.3,1.1,0.6c0.3,0.3,0.5,0.7,0.6,1.1c0.1,0.4,0,0.8-0.1,1.2c-0.2,0.4-0.4,0.7-0.8,1
			c-0.4,0.2-0.8,0.4-1.2,0.4c-0.6,0-1.1-0.2-1.5-0.6C7.4,10.4,7.1,9.8,7.1,9.2z M9.3,15.6c-0.1,0.1-0.1,0.1-0.2,0.1
			c-0.1,0-0.2,0-0.3,0c-0.2,0-0.3-0.1-0.5-0.2c-0.1-0.1-0.2-0.3-0.2-0.5c0-0.2,0.1-0.3,0.2-0.5l6.3-6.3c0.1-0.1,0.3-0.2,0.5-0.2
			c0.2,0,0.3,0.1,0.5,0.2c0.1,0.1,0.1,0.1,0.1,0.2c0,0.1,0.1,0.2,0.1,0.3c0,0.1,0,0.2-0.1,0.3c0,0.1-0.1,0.2-0.1,0.2L9.3,15.6z
			 M14.8,16.9c-0.4,0-0.8-0.1-1.2-0.4c-0.4-0.2-0.6-0.6-0.8-1c-0.2-0.4-0.2-0.8-0.1-1.2c0.1-0.4,0.3-0.8,0.6-1.1
			c0.3-0.3,0.7-0.5,1.1-0.6c0.4-0.1,0.8,0,1.2,0.1c0.4,0.2,0.7,0.4,1,0.8c0.2,0.4,0.4,0.8,0.4,1.2c0,0.6-0.2,1.1-0.6,1.5
			C15.9,16.6,15.3,16.9,14.8,16.9z"/>
	</g>
</g>
</svg>
