<?xml version="1.0" encoding="utf-8"?>
<!-- Generator: Adobe Illustrator 23.0.2, SVG Export Plug-In . SVG Version: 6.00 Build 0)  -->
<svg version="1.1" id="圖層_1" xmlns="http://www.w3.org/2000/svg" xmlns:xlink="http://www.w3.org/1999/xlink" x="0px" y="0px"
	 viewBox="0 0 24 24" style="enable-background:new 0 0 24 24;" xml:space="preserve">
<style type="text/css">
	.st0{fill:#FFBC59;}
</style>
<path class="st0" d="M12,2c-2,0-3.9,0.6-5.6,1.7C4.8,4.8,3.5,6.3,2.8,8.2C2,10,1.8,12,2.2,14s1.3,3.7,2.7,5.1
	c1.4,1.4,3.2,2.4,5.1,2.7c1.9,0.4,4,0.2,5.8-0.6c1.8-0.8,3.4-2,4.5-3.7C21.4,15.9,22,14,22,12c0-2.7-1.1-5.2-2.9-7.1
	C17.2,3.1,14.7,2,12,2z M16.1,8.9c-0.4,0.2-0.8,0.3-1.3,0.2h-3.5v2.3h2.9c0.4-0.1,0.8,0,1.2,0.2c0.1,0.1,0.2,0.2,0.2,0.3
	c0,0.1,0.1,0.2,0.1,0.4c0,0.1,0,0.2-0.1,0.4c0,0.1-0.1,0.2-0.2,0.3c-0.4,0.2-0.8,0.3-1.2,0.2h-2.9v2.4c0,0.4,0,0.7,0,1.1
	c0,0.2-0.1,0.5-0.3,0.7c-0.1,0.1-0.3,0.2-0.4,0.3c-0.2,0.1-0.3,0.1-0.5,0.1c-0.2,0-0.3,0-0.5-0.1c-0.2-0.1-0.3-0.2-0.4-0.3
	C9,17.3,8.9,17,8.8,16.8c0-0.4,0-0.7,0-1.1V9.5c0-0.4,0-0.8,0-1.2c0-0.2,0.2-0.4,0.3-0.6c0.2-0.2,0.4-0.3,0.6-0.3
	c0.4-0.1,0.8-0.1,1.2-0.1h3.8c0.4,0,0.7,0,0.8,0c0.2,0,0.4,0.1,0.6,0.3c0.1,0.2,0.2,0.4,0.2,0.6c0,0.1,0,0.2-0.1,0.4
	C16.2,8.8,16.2,8.9,16.1,8.9z"/>
</svg>
