<?xml version="1.0" encoding="utf-8"?>
<!-- Generator: Adobe Illustrator 23.0.2, SVG Export Plug-In . SVG Version: 6.00 Build 0)  -->
<svg version="1.1" id="圖層_1" xmlns="http://www.w3.org/2000/svg" xmlns:xlink="http://www.w3.org/1999/xlink" x="0px" y="0px"
	 viewBox="0 0 24 24" style="enable-background:new 0 0 24 24;" xml:space="preserve">
<style type="text/css">
	.st0{clip-path:url(#SVGID_2_);}
	.st1{fill:#FFBC59;}
</style>
<g>
	<defs>
		<rect id="SVGID_1_" width="24" height="24"/>
	</defs>
	<clipPath id="SVGID_2_">
		<use xlink:href="#SVGID_1_"  style="overflow:visible;"/>
	</clipPath>
	<g class="st0">
		<path class="st1" d="M15.5,4.9c-0.4,0-0.7-0.1-1.1-0.1c-5,0-9,3.7-9,8.3c0,0.8,0.1,1.5,0.4,2.3l-0.2,0.1l-0.4,0.3l-3,2
			c0,0-0.1,0-0.1,0c-0.1,0-0.1,0-0.1-0.1c0,0-0.1-0.1-0.1-0.1c0,0,0-0.1,0-0.2l1.3-4.1c0,0,0-0.1,0-0.1c0,0,0-0.1-0.1-0.1
			c-0.8-1.1-1.2-2.4-1.2-3.8c0-3.9,3.5-7,7.8-7c1.1,0,2.2,0.2,3.3,0.7C13.9,3.5,14.8,4.1,15.5,4.9z"/>
		<path class="st1" d="M22.2,21.3l-1.3-4c0,0,0-0.1,0-0.1c0,0,0-0.1,0.1-0.1c0.8-1.1,1.2-2.4,1.2-3.8c-0.1-1.6-0.6-3.1-1.7-4.3
			c-1-1.2-2.4-2.1-4-2.4c-0.7-0.2-1.4-0.3-2.1-0.3c-4.3,0-7.8,3.1-7.8,7c0,1,0.3,2,0.7,3c0.7,1.3,1.7,2.3,3,3c1.2,0.7,2.7,1.1,4.1,1
			c1.3,0,2.5-0.3,3.7-0.8c0,0,0.1,0,0.1,0c0.1,0,0.1,0,0.2,0.1l3.4,2.2c0,0,0.1,0,0.1,0c0,0,0.1,0,0.1,0c0,0,0.1,0,0.1-0.1
			c0,0,0-0.1,0.1-0.1C22.2,21.4,22.2,21.3,22.2,21.3z M11.4,14.1c-0.2,0-0.3,0-0.4-0.1c-0.1-0.1-0.2-0.2-0.3-0.3
			c-0.1-0.1-0.1-0.3,0-0.4c0-0.1,0.1-0.3,0.2-0.4c0.1-0.1,0.2-0.2,0.4-0.2c0.1,0,0.3,0,0.4,0c0.1,0.1,0.3,0.2,0.3,0.3
			c0.1,0.1,0.1,0.3,0.1,0.4c0,0.2-0.1,0.4-0.2,0.5C11.8,14.1,11.6,14.1,11.4,14.1z M14.5,14.1c-0.2,0-0.3,0-0.4-0.1
			c-0.1-0.1-0.2-0.2-0.3-0.3c-0.1-0.1-0.1-0.3,0-0.4c0-0.1,0.1-0.3,0.2-0.4c0.1-0.1,0.2-0.2,0.4-0.2c0.1,0,0.3,0,0.4,0
			c0.1,0.1,0.3,0.2,0.3,0.3c0.1,0.1,0.1,0.3,0.1,0.4c0,0.2-0.1,0.4-0.2,0.5C14.9,14.1,14.7,14.1,14.5,14.1z M17.6,14.1
			c-0.2,0-0.3,0-0.4-0.1c-0.1-0.1-0.2-0.2-0.3-0.3c-0.1-0.1-0.1-0.3,0-0.4c0-0.1,0.1-0.3,0.2-0.4c0.1-0.1,0.2-0.2,0.4-0.2
			c0.1,0,0.3,0,0.4,0c0.1,0.1,0.3,0.2,0.3,0.3c0.1,0.1,0.1,0.3,0.1,0.4c0,0.2-0.1,0.4-0.2,0.5C18,14.1,17.8,14.1,17.6,14.1z"/>
	</g>
</g>
</svg>
